<?xml version="1.0" standalone="no"?>
<!DOCTYPE svg PUBLIC "-//W3C//DTD SVG 1.1//EN" "http://www.w3.org/Graphics/SVG/1.1/DTD/svg11.dtd" >
<svg xmlns="http://www.w3.org/2000/svg" xmlns:xlink="http://www.w3.org/1999/xlink" version="1.1">
<metadata>
Created by FontForge 20170731 at Mon Mar 20 08:01:24 2017
 By Aleksey,,,
Copyright (c) 2017 by Kastelov. All rights reserved.
</metadata>
<defs>
<font id="Axiforma-BoldItalic" horiz-adv-x="696" >
  <font-face 
    font-family="Axiforma"
    font-weight="700"
    font-style="italic"
    font-stretch="normal"
    units-per-em="1000"
    panose-1="0 0 8 0 0 0 0 0 0 0"
    ascent="772"
    descent="-228"
    x-height="544"
    cap-height="739"
    bbox="-371 -353 1287.02 1045"
    underline-thickness="50"
    underline-position="-200"
    slope="-8.5"
    unicode-range="U+000D-25CA"
  />
<missing-glyph horiz-adv-x="130" 
 />
    <glyph glyph-name="f_b" unicode="fb" horiz-adv-x="1110" 
d="M303 545h170l-18 -118h-169l-64 -427h-140l62 427h-84l18 118h83l4 24q15 103 81 159t165 56q63 0 125 -32l-54 -107q-34 14 -62 14q-100 0 -115 -101zM850 559q114 0 181 -84q68 -84 52 -206q-17 -125 -98 -203q-82 -79 -201 -79q-109 0 -171 92l-11 -79h-137l113 761
l141 -1l-41 -273q76 72 172 72zM939 270q10 64 -25 112q-35 47 -102 47t-114 -44t-56 -108q-11 -69 25 -115t103 -46q66 0 113 44q47 45 56 110z" />
    <glyph glyph-name="f_f" unicode="ff" horiz-adv-x="821" 
d="M807 659q-99 0 -116 -101l-2 -13h170l-18 -118h-169l-64 -427h-140l63 427h-245l-64 -427h-140l63 427h-85l18 118h84l4 24q16 103 84 159t174 56q77 0 142 -34l-55 -107q-41 16 -76 16q-112 0 -129 -101l-2 -13h244l4 24q15 102 81 158.5t163 56.5q65 0 127 -32
l-54 -107q-36 14 -62 14z" />
    <glyph glyph-name="f_f_i" unicode="ffi" horiz-adv-x="1108" 
d="M689 545h195l-18 -118h-194l-64 -427h-140l63 427h-245l-64 -427h-140l63 427h-85l18 118h84l4 24q16 103 84 159t174 56q77 0 142 -34l-55 -107q-41 16 -76 16q-112 0 -129 -101l-2 -13h244l4 24q15 104 85 159q71 56 168 56q67 0 129 -32l-54 -107q-36 14 -64 14
q-51 0 -84 -26.5t-41 -74.5zM1066 779q39 0 61.5 -26t16.5 -65q-5 -35 -32 -58.5t-62 -23.5q-40 0 -62.5 26t-16.5 65q5 35 32.5 58.5t62.5 23.5zM1025 0h-141l81 545h141z" />
    <glyph glyph-name="f_f_j" unicode="ffj" horiz-adv-x="1155" 
d="M859 545l-18 -118h-169l-64 -427h-140l63 427h-245l-64 -427h-140l63 427h-85l18 118h84l4 24q16 103 84 159t174 56q77 0 142 -34l-55 -107q-41 16 -76 16q-112 0 -129 -101l-2 -13h244l4 24q15 102 81 158.5t163 56.5q65 0 127 -32l-54 -107q-36 14 -62 14
q-99 0 -116 -101l-2 -13h170zM1066 779q39 0 61.5 -26t16.5 -65q-5 -35 -32 -58.5t-62 -23.5q-40 0 -62.5 26t-16.5 65q5 35 32.5 58.5t62.5 23.5zM889 31l77 514h141l-81 -538q-17 -120 -81 -179.5t-163 -59.5q-70 0 -122 31l40 112q34 -18 73 -18q95 0 116 138z" />
    <glyph glyph-name="f_h" unicode="fh" horiz-adv-x="1075" 
d="M303 545h170l-18 -118h-169l-64 -427h-140l62 427h-84l18 118h83l4 24q15 103 81 159t165 56q63 0 125 -32l-54 -107q-34 14 -62 14q-100 0 -115 -101zM857 560q91 0 143 -61q53 -62 35 -179l-47 -320h-141l44 298q10 63 -15 97.5t-77 34.5q-58 0 -99.5 -42t-52.5 -114
l-40 -274h-141l113 760h138l-45 -291q27 40 77.5 65.5t107.5 25.5z" />
    <glyph glyph-name="f_i" unicode="fi" horiz-adv-x="732" 
d="M303 545h195l-19 -118h-193l-64 -427h-140l62 427h-84l18 118h83l4 24q17 104 86 159q71 56 168 56q66 0 128 -32l-53 -107q-36 14 -65 14q-51 0 -84 -26.5t-40 -74.5zM680 779q39 0 61.5 -26t16.5 -65q-5 -35 -32 -58.5t-62 -23.5q-40 0 -62.5 26t-16.5 65
q5 35 32.5 58.5t62.5 23.5zM639 0h-141l81 545h141z" />
    <glyph glyph-name="f_j" unicode="fj" horiz-adv-x="749" 
d="M498 545l-19 -118h-193l-64 -427h-140l62 427h-84l18 118h83l4 24q17 104 86 159q71 56 168 56q66 0 128 -32l-53 -107q-36 14 -65 14q-51 0 -84 -26.5t-40 -74.5l-2 -13h195zM660 779q39 0 61.5 -26t16.5 -65q-5 -35 -32 -58.5t-62 -23.5q-40 0 -62.5 26t-16.5 65
q5 35 32.5 58.5t62.5 23.5zM483 31l77 514h141l-81 -538q-17 -120 -81 -179.5t-163 -59.5q-70 0 -122 31l40 112q34 -18 73 -18q95 0 116 138z" />
    <glyph glyph-name="f_k" unicode="fk" horiz-adv-x="1016" 
d="M303 545h170l-18 -118h-169l-64 -427h-140l62 427h-84l18 118h83l4 24q15 103 81 159t165 56q63 0 125 -32l-54 -107q-34 14 -62 14q-100 0 -115 -101zM886 545h177l-277 -223l209 -322h-172l-146 234l-41 -34l-30 -200h-141l113 760h141l-60 -400z" />
    <glyph glyph-name="f_l" unicode="fl" horiz-adv-x="701" 
d="M303 545h170l-18 -118h-169l-64 -427h-140l62 427h-84l18 118h83l4 24q15 103 81 159t165 56q63 0 125 -32l-54 -107q-34 14 -62 14q-100 0 -115 -101zM465 0l113 760h141l-113 -760h-141z" />
    <glyph glyph-name=".notdef" horiz-adv-x="130" 
 />
    <glyph glyph-name=".null" horiz-adv-x="0" 
 />
    <glyph glyph-name="nonmarkingreturn" horiz-adv-x="333" 
 />
    <glyph glyph-name="CR.001" horiz-adv-x="130" 
 />
    <glyph glyph-name="CR.001" horiz-adv-x="130" 
 />
    <glyph glyph-name="CR" unicode="&#xd;" horiz-adv-x="333" 
 />
    <glyph glyph-name="space" unicode=" " horiz-adv-x="250" 
 />
    <glyph glyph-name="exclam" unicode="!" horiz-adv-x="323" 
d="M226 205h-131l73 548h149zM129 -12q-36 0 -56.5 23.5t-15.5 59.5q4 35 29.5 57t61.5 22q37 0 57.5 -25t14.5 -60q-6 -34 -32 -55.5t-59 -21.5z" />
    <glyph glyph-name="quotedbl" unicode="&#x22;" horiz-adv-x="553" 
d="M205 428h-137l134 309h165zM458 428h-137l134 309h165z" />
    <glyph glyph-name="numbersign" unicode="#" horiz-adv-x="745" 
d="M767 566l-40 -117h-100l-52 -152h101l-40 -118h-101l-61 -179h-141l62 179h-128l-62 -179h-141l64 179h-101l41 118h102l54 152h-105l40 117h106l62 173h135l-60 -173h128l60 173h135l-59 -173h101zM308 297h128l53 152h-128z" />
    <glyph glyph-name="dollar" unicode="$" horiz-adv-x="593" 
d="M473 381q96 -67 79 -184q-12 -80 -69.5 -133.5t-143.5 -69.5l-19 -106h-135l18 105q-128 29 -185 147l110 91q23 -49 63.5 -76t88.5 -27q44 0 74.5 22.5t35.5 56.5q7 43 -50 79q-38 21 -65 35q-54 29 -75 43q-101 71 -84 187q11 77 65 129t138 67l17 96h135l-17 -99
q88 -19 148 -93l-95 -104q-65 68 -139 68q-40 0 -67 -20t-32 -52q-3 -24 11 -42.5t49 -37.5q127 -69 144 -82z" />
    <glyph glyph-name="percent" unicode="%" horiz-adv-x="901" 
d="M251 385q-81 0 -129 54q-48 55 -36 132q10 75 74 128t140 53q80 0 128 -55t37 -133q-12 -75 -74 -128q-61 -51 -140 -51zM219 0h-140l648 739h141zM260 484q37 0 66.5 25t34.5 61q5 35 -15.5 59t-55.5 24q-37 0 -66 -25t-34 -62q-6 -35 14.5 -58.5t55.5 -23.5zM652 -12
q-81 0 -129 54q-48 55 -36 131q10 74 73 128q64 53 140 53q81 0 129 -56q49 -55 37 -133q-10 -75 -74 -126q-62 -51 -140 -51zM661 86q37 0 66.5 25t35.5 61q4 36 -16.5 59.5t-55.5 23.5q-36 0 -65 -25t-34 -62q-6 -35 14 -58.5t55 -23.5z" />
    <glyph glyph-name="ampersand" unicode="&#x26;" horiz-adv-x="703" 
d="M604 342l78 -75q-50 -60 -94 -106l91 -92l-91 -85l-89 94q-115 -88 -240 -88q-113 0 -174 64q-62 65 -50 163q17 123 163 205q-35 74 -23 145q14 79 76 131q64 53 156 53q81 0 130 -51q50 -50 39 -119q-6 -50 -51 -99q-16 -18 -48 -38q-39 -23 -51 -29l-59 -29
q12 -14 31 -33l112 -113q50 47 94 102zM294 554q-7 -39 11 -80q57 24 94 47q45 27 51 64q4 26 -12 43t-45 17q-37 0 -64.5 -25t-34.5 -66zM282 109q64 0 138 53l-124 130q-22 22 -35 39q-78 -50 -86 -115q-5 -47 24 -77t83 -30z" />
    <glyph glyph-name="quotesingle" unicode="'" horiz-adv-x="298" 
d="M204 428h-137l134 309h165z" />
    <glyph glyph-name="parenleft" unicode="(" horiz-adv-x="418" 
d="M364 -112l-78 -107q-141 87 -202 222t-36 306q26 167 125.5 294.5t265.5 206.5l49 -114q-250 -147 -287 -402q-38 -249 163 -406z" />
    <glyph glyph-name="parenright" unicode=")" horiz-adv-x="418" 
d="M8 -222l-53 113q251 157 288 405q36 251 -164 403l73 109q143 -80 206 -220q63 -139 37 -312q-25 -168 -125 -296.5t-262 -201.5z" />
    <glyph glyph-name="asterisk" unicode="*" horiz-adv-x="493" 
d="M291 482l-115 -115l-71 68l108 104l-122 59l55 92l113 -60l19 143h107l-28 -142l131 59l28 -93l-142 -58l81 -104l-83 -68z" />
    <glyph glyph-name="plus" unicode="+" horiz-adv-x="575" 
d="M385 414h188l-20 -133h-188l-28 -188l-132 -2l28 190h-190l20 133h190l28 189h132z" />
    <glyph glyph-name="comma" unicode="," horiz-adv-x="262" 
d="M110 145q41 0 64.5 -30.5t17.5 -75.5q-14 -101 -179 -202l-40 61q89 62 111 91q-29 2 -47.5 26t-14.5 55q4 32 29 53.5t59 21.5z" />
    <glyph glyph-name="hyphen" unicode="-" horiz-adv-x="530" 
d="M471 211h-411l20 132h411z" />
    <glyph glyph-name="period" unicode="." horiz-adv-x="248" 
d="M92 -12q-36 0 -56.5 23.5t-15.5 59.5q4 35 30 57t62 22t56.5 -24.5t14.5 -60.5q-6 -34 -32 -55.5t-59 -21.5z" />
    <glyph glyph-name="slash" unicode="/" horiz-adv-x="671" 
d="M123 -123h-157l623 948h157z" />
    <glyph glyph-name="zero" unicode="0" horiz-adv-x="688" 
d="M315 -12q-100 0 -162 55q-118 104 -84 336q25 161 117 267q91 106 235 106q99 0 161 -56q120 -105 83 -335q-24 -161 -115 -267t-235 -106zM326 127q77 0 126 70q50 71 66 174q16 101 -10 172q-25 70 -100 70q-74 0 -124 -65.5t-68 -178.5q-18 -105 9 -174
q27 -68 101 -68z" />
    <glyph glyph-name="one" unicode="1" horiz-adv-x="418" 
d="M49 556l253 183h113l-110 -739h-145l79 536l-123 -85z" />
    <glyph glyph-name="two" unicode="2" horiz-adv-x="584" 
d="M576 518q-17 -108 -172 -245l-153 -137h275l-21 -136h-486l17 123l267 242l33 30l16 15q3 3 29 31q11 11 24 32q17 24 20 52q5 39 -20 63.5t-68 24.5q-80 0 -180 -85l-72 111q127 113 271 113q109 0 172 -67q65 -66 48 -167z" />
    <glyph glyph-name="three" unicode="3" horiz-adv-x="565" 
d="M552 550q-8 -55 -47.5 -97.5t-101.5 -63.5q67 -18 97 -67.5t20 -117.5q-13 -96 -95 -156q-81 -60 -200 -60q-120 0 -229 76l73 115q82 -55 162 -55q59 0 97 25.5t44 67.5q6 40 -21 66t-78 26h-100l20 132h84q51 0 86 25t40 64q6 38 -18.5 60.5t-70.5 22.5q-74 0 -163 -57
l-58 110q50 40 118 63t135 23q101 0 160 -60q60 -60 46 -142z" />
    <glyph glyph-name="four" unicode="4" horiz-adv-x="616" 
d="M510 295h80l-18 -123h-80l-26 -172h-138l25 172h-324l-16 95l456 472h107zM405 524l-217 -229h184z" />
    <glyph glyph-name="five" unicode="5" horiz-adv-x="588" 
d="M338 476q103 0 168 -68t49 -176q-15 -108 -100 -176q-86 -68 -208 -68q-134 0 -238 85l71 114q81 -63 172 -63q62 0 105 33.5t51 84.5q7 47 -23 77t-83 30q-70 0 -132 -50l-76 70l67 370h407l-20 -136h-288l-25 -146q45 19 103 19z" />
    <glyph glyph-name="six" unicode="6" horiz-adv-x="627" 
d="M386 477q104 0 162 -70q59 -71 44 -174q-15 -102 -96 -173q-80 -69 -191 -69q-89 0 -150 50t-83.5 132t-6.5 181q15 106 60 193q44 87 126 146q83 59 185 59q113 0 195 -68l-75 -107q-53 43 -127 43q-82 0 -139 -62q-57 -63 -76 -160q64 79 172 79zM447 238
q7 51 -21.5 83.5t-77.5 32.5q-50 0 -88 -33.5t-46 -82.5q-8 -51 19 -85.5t78 -34.5q50 0 89 34.5t47 85.5z" />
    <glyph glyph-name="seven" unicode="7" horiz-adv-x="524" 
d="M80 603l20 136h482l-14 -102l-360 -637h-163l349 603h-314z" />
    <glyph glyph-name="eight" unicode="8" horiz-adv-x="636" 
d="M616 551q-17 -104 -134 -159q61 -28 90 -79.5t19 -114.5q-16 -94 -101 -152q-83 -58 -204 -58q-125 0 -192 64t-54 161q18 126 170 181q-48 25 -70.5 69t-12.5 97q14 86 89 139q77 53 182 53q111 0 170 -58q62 -57 48 -143zM478 539q7 39 -20.5 65.5t-75.5 26.5
q-49 0 -83.5 -25.5t-40.5 -66.5q-6 -39 20.5 -65.5t74.5 -26.5t82.5 26t42.5 66zM447 221q6 43 -26 72t-87 29q-59 0 -99 -28.5t-46 -73.5q-8 -44 23.5 -73t87.5 -29q57 0 98.5 29t48.5 74z" />
    <glyph glyph-name="nine" unicode="9" horiz-adv-x="622" 
d="M359 752q141 0 204 -108q63 -109 41 -268q-13 -105 -57 -191t-123 -141.5t-181 -55.5q-121 0 -195 66l60 109q52 -45 132 -45q77 0 132 56.5t84 155.5q-68 -65 -165 -65q-105 0 -164 71q-58 70 -44 179q13 105 89 171t187 66zM323 388q51 0 89.5 34.5t44.5 85.5
q6 50 -23.5 84t-79.5 34t-88 -35q-37 -34 -44 -86q-6 -50 22.5 -83.5t78.5 -33.5z" />
    <glyph glyph-name="colon" unicode=":" horiz-adv-x="278" 
d="M160 347q-36 0 -56.5 23.5t-15.5 59.5q4 35 30 57t62 22t56.5 -24.5t14.5 -60.5q-6 -34 -32 -55.5t-59 -21.5zM107 -12q-36 0 -56.5 23.5t-15.5 59.5q4 35 30 57t62 22t56.5 -24.5t14.5 -60.5q-6 -34 -32 -55.5t-59 -21.5z" />
    <glyph glyph-name="semicolon" unicode=";" horiz-adv-x="299" 
d="M194 512q37 0 58 -25.5t14 -61.5q-6 -35 -32.5 -57t-60.5 -22q-36 0 -57.5 24.5t-16.5 60.5t32 58.5t63 22.5zM129 145q41 0 64.5 -30.5t17.5 -75.5q-14 -101 -179 -202l-40 61q89 62 111 91q-29 2 -47.5 26t-14.5 55q4 32 29 53.5t59 21.5z" />
    <glyph glyph-name="less" unicode="&#x3c;" horiz-adv-x="557" 
d="M488 189l-20 -143l-428 219l17 121l493 218l-19 -140l-332 -137z" />
    <glyph glyph-name="equal" unicode="=" horiz-adv-x="590" 
d="M549 366h-462l18 117h462zM520 172h-462l18 117h462z" />
    <glyph glyph-name="greater" unicode="&#x3e;" horiz-adv-x="543" 
d="M523 265l-489 -226l19 143l316 138l-273 136l20 141l421 -226z" />
    <glyph glyph-name="question" unicode="?" horiz-adv-x="550" 
d="M311 195h-136l11 74q6 43 30 78t54.5 58.5t61 45.5t53 48.5t27.5 57.5q6 39 -17 63t-65 24q-82 0 -166 -86l-75 98q114 121 261 121q105 0 165 -63q61 -62 47 -154q-13 -86 -92 -149q-9 -7 -38 -29t-41.5 -33t-31.5 -29.5t-28.5 -37t-12.5 -37.5zM218 -13q-35 0 -56 23.5
t-17 59.5q5 34 31 56.5t61 22.5q37 0 57.5 -25t13.5 -60q-5 -33 -31 -55t-59 -22z" />
    <glyph glyph-name="at" unicode="@" horiz-adv-x="966" 
d="M570 740q122 2 217.5 -55.5t139.5 -152.5t25 -201q-16 -112 -88 -188q-70 -75 -158 -75q-90 0 -112 73q-61 -73 -158 -73q-88 0 -139 63q-51 64 -36 160q13 88 79 151q67 62 153 62q88 0 129 -62l7 47h108l-40 -261q-11 -60 32 -60q35 0 71 50q38 51 48 123
q20 131 -64 216q-82 87 -221 85q-154 -1 -271 -105q-116 -102 -135 -256q-19 -151 69 -252q88 -100 239 -100q147 0 284 93l41 -86q-57 -43 -149 -75q-90 -31 -186 -31q-197 0 -313 135q-115 135 -90 328q26 191 172 319q148 128 346 128zM463 169q50 0 89 36q38 35 46 86
q7 50 -19.5 82t-72.5 32q-48 0 -88 -36q-39 -35 -47 -89q-6 -48 19.5 -79.5t72.5 -31.5z" />
    <glyph glyph-name="A" unicode="A" 
d="M656 0h-155l-31 160h-257l-81 -160h-157l392 739h121zM448 292l-49 246l-124 -246h173z" />
    <glyph glyph-name="B" unicode="B" horiz-adv-x="692" 
d="M666 554q-7 -51 -40 -91.5t-84 -58.5q64 -17 93 -68.5t19 -122.5q-14 -93 -85 -153q-72 -60 -189 -60h-329l110 739h316q103 0 151 -56t38 -129zM515 533q4 34 -16 55.5t-60 21.5h-151l-24 -161h142q45 0 74 24.5t35 59.5zM503 229q6 42 -18.5 69t-75.5 27h-164l-29 -195
h145q64 0 100 27.5t42 71.5z" />
    <glyph glyph-name="C" unicode="C" horiz-adv-x="765" 
d="M397 -11q-164 0 -262 107q-97 107 -74 280q23 170 146 273q124 103 287 103q99 0 176.5 -41.5t124.5 -114.5l-111 -94q-70 108 -198 108q-102 0 -179 -66q-77 -64 -90 -171q-15 -105 42 -172q58 -67 159 -67q126 0 233 111l91 -100q-65 -72 -155.5 -114t-189.5 -42z" />
    <glyph glyph-name="D" unicode="D" horiz-adv-x="770" 
d="M346 0h-295l110 739h271q173 0 257 -101q84 -100 61 -275q-22 -169 -129 -267q-107 -96 -275 -96zM288 597l-68 -455h130q105 0 170 66q64 66 78 168q13 97 -29 159q-41 62 -137 62h-144z" />
    <glyph glyph-name="E" unicode="E" horiz-adv-x="637" 
d="M552 0h-501l110 739h501l-21 -138h-352l-24 -159h326l-20 -138h-326l-25 -166h352z" />
    <glyph glyph-name="F" unicode="F" horiz-adv-x="603" 
d="M199 0h-148l110 739h493l-21 -140h-345l-25 -166h303l-21 -139h-302z" />
    <glyph glyph-name="G" unicode="G" horiz-adv-x="810" 
d="M399 -11q-168 0 -264 112q-95 114 -70 282q24 168 148 268q125 101 290 101q90 0 164.5 -33t121.5 -89l-106 -101q-67 81 -188 81q-107 0 -186 -67q-79 -66 -94 -174q-15 -98 41 -169q56 -69 159 -69q125 0 211 83l15 96h-204l20 129h339l-43 -305q-157 -145 -354 -145z
" />
    <glyph glyph-name="H" unicode="H" horiz-adv-x="770" 
d="M199 0h-148l110 739h148l-44 -295h309l45 295h148l-110 -739h-148l44 301h-309z" />
    <glyph glyph-name="I" unicode="I" horiz-adv-x="313" 
d="M51 0l110 739h149l-110 -739h-149z" />
    <glyph glyph-name="J" unicode="J" horiz-adv-x="584" 
d="M216 -12q-142 0 -232 105l82 110q63 -72 147 -72q63 0 106.5 45.5t54.5 119.5l67 443h148l-67 -452q-21 -146 -103 -222.5t-203 -76.5z" />
    <glyph glyph-name="K" unicode="K" 
d="M588 739h180l-322 -336l231 -403h-181l-162 293l-108 -110l-27 -183h-148l110 739h148l-51 -343z" />
    <glyph glyph-name="L" unicode="L" horiz-adv-x="620" 
d="M575 0h-524l110 739h149l-89 -597h375z" />
    <glyph glyph-name="M" unicode="M" horiz-adv-x="939" 
d="M197 0h-146l110 739h97l227 -419l351 419h100l-110 -739h-148l63 419l-261 -309h-51l-170 309z" />
    <glyph glyph-name="N" unicode="N" horiz-adv-x="794" 
d="M576 282l69 457h146l-110 -739h-100l-316 453l-68 -453h-146l110 739h94z" />
    <glyph glyph-name="O" unicode="O" horiz-adv-x="848" 
d="M395 -12q-166 0 -260 112t-71 275q22 163 149 270t289 107q166 0 261 -113q94 -112 70 -273q-24 -159 -150 -269q-125 -109 -288 -109zM408 134q97 0 176 67q80 67 96 171q17 101 -39 167q-55 67 -153 67t-178 -69q-78 -67 -93 -171q-15 -101 40 -167q56 -65 151 -65z
" />
    <glyph glyph-name="P" unicode="P" horiz-adv-x="639" 
d="M161 739h264q135 0 191 -72t43 -175q-15 -111 -92.5 -174t-217.5 -63h-112l-38 -255h-148zM508 499q5 46 -19 74.5t-73 28.5h-127l-32 -213h98q67 0 106.5 30t46.5 80z" />
    <glyph glyph-name="Q" unicode="Q" horiz-adv-x="848" 
d="M833 366q-20 -123 -100 -218t-197 -136q44 -41 115 -41q47 0 116 20l8 -123q-69 -23 -137 -23q-174 0 -261 143q-159 8 -247 118q-88 112 -66 269q22 163 149 270t289 107q166 0 261 -113q94 -112 70 -273zM680 372q17 101 -39 167q-55 67 -153 67t-178 -69
q-78 -67 -93 -171q-15 -101 40 -167q56 -65 151 -65q97 0 176 67q80 67 96 171z" />
    <glyph glyph-name="R" unicode="R" horiz-adv-x="675" 
d="M662 503q-10 -78 -56 -136t-125 -82l135 -285h-173l-117 269h-87l-40 -269h-148l110 739h274q125 0 182 -70t45 -166zM509 504q6 44 -16.5 71t-69.5 27h-134l-30 -200h108q128 0 142 102z" />
    <glyph glyph-name="S" unicode="S" horiz-adv-x="598" 
d="M272 -13q-88 0 -155.5 39t-102.5 114l111 91q24 -49 65.5 -76t92.5 -27q45 0 76.5 22.5t36.5 56.5q6 45 -52 79q-28 15 -66 34q-52 27 -77 44q-105 70 -88 187q13 90 87 146q74 55 184 55q140 0 227 -101l-97 -104q-65 68 -143 68q-42 0 -69.5 -19.5t-32.5 -52.5
q-5 -45 61 -80l47 -25q78 -40 102 -57q99 -67 82 -184q-15 -99 -97 -154q-82 -56 -192 -56z" />
    <glyph glyph-name="T" unicode="T" horiz-adv-x="600" 
d="M194 0l89 596h-211l21 143h572l-22 -143h-210l-90 -596h-149z" />
    <glyph glyph-name="U" unicode="U" horiz-adv-x="725" 
d="M333 -13q-127 0 -199 76q-72 77 -50 225l69 451h149l-69 -453q-12 -77 17.5 -116t93.5 -39q67 0 112 41t56 117l68 450h150l-69 -455q-23 -151 -114 -224q-89 -73 -214 -73z" />
    <glyph glyph-name="V" unicode="V" horiz-adv-x="738" 
d="M372 228l271 511h169l-414 -739h-118l-197 739h170z" />
    <glyph glyph-name="W" unicode="W" horiz-adv-x="1065" 
d="M345 0h-125l-135 739h162l74 -497l242 497h95l96 -497l222 497h162l-354 -739h-125l-85 484z" />
    <glyph glyph-name="X" unicode="X" horiz-adv-x="669" 
d="M148 0h-175l293 374l-167 365h171l105 -253l189 253h176l-288 -365l175 -374h-170l-115 259z" />
    <glyph glyph-name="Y" unicode="Y" horiz-adv-x="679" 
d="M577 739h172l-328 -483l-39 -256h-148l39 256l-182 483h171l107 -324z" />
    <glyph glyph-name="Z" unicode="Z" horiz-adv-x="651" 
d="M583 0h-579l14 106l440 496h-350l20 137h554l-15 -110l-432 -492h368z" />
    <glyph glyph-name="bracketleft" unicode="[" horiz-adv-x="407" 
d="M322 -227h-311l155 1038h311l-19 -125h-167l-118 -788h167z" />
    <glyph glyph-name="backslash" unicode="\" horiz-adv-x="661" 
d="M263 825l329 -948h-149l-331 948h151z" />
    <glyph glyph-name="bracketright" unicode="]" horiz-adv-x="407" 
d="M266 -227h-311l18 125h167l118 788h-167l19 125h311z" />
    <glyph glyph-name="asciicircum" unicode="^" horiz-adv-x="542" 
d="M207 431h-141l240 332h94l140 -332h-136l-70 188z" />
    <glyph glyph-name="underscore" unicode="_" horiz-adv-x="591" 
d="M531 -191h-591l19 130h591z" />
    <glyph glyph-name="grave" unicode="`" horiz-adv-x="390" 
d="M282 796l35 -176h-122l-68 176h155z" />
    <glyph glyph-name="a" unicode="a" horiz-adv-x="678" 
d="M521 477l10 68h134l-82 -545h-133l9 65q-79 -78 -184 -78q-121 0 -185 87q-63 89 -44 212q18 122 104 197q85 76 202 76q106 0 169 -82zM316 115q67 0 116 46t58 113q9 64 -27 110t-102 46q-63 0 -111 -42q-46 -40 -60 -103q-13 -67 22 -119q34 -51 104 -51z" />
    <glyph glyph-name="b" unicode="b" horiz-adv-x="678" 
d="M418 559q114 0 181 -84q68 -84 52 -206q-17 -125 -98 -203q-82 -79 -201 -79q-109 0 -171 92l-11 -79h-137l113 761l141 -1l-41 -273q76 72 172 72zM507 270q10 64 -25 112q-35 47 -102 47t-114 -44t-56 -108q-11 -69 25 -115t103 -46q66 0 113 44q47 45 56 110z" />
    <glyph glyph-name="c" unicode="c" horiz-adv-x="603" 
d="M298 -12q-129 0 -199 82q-69 82 -52 209q16 127 104 203q89 77 212 77q87 0 150.5 -39.5t92.5 -114.5l-119 -59q-37 82 -126 82q-66 0 -116 -44t-59 -114q-8 -65 27 -109t98 -44q45 0 87 22.5t68 61.5l104 -73q-42 -67 -114.5 -103.5t-157.5 -36.5z" />
    <glyph glyph-name="d" unicode="d" horiz-adv-x="681" 
d="M517 480l42 280h141l-114 -760h-137l8 58q-79 -71 -178 -71q-121 0 -187 88q-65 89 -47 211q18 123 103 197q85 76 200 76q108 0 169 -79zM317 115q68 0 115 46q49 46 57 112q8 64 -28 110q-35 47 -103 47q-64 0 -110 -42q-47 -41 -58 -103q-12 -68 23 -120
q35 -50 104 -50z" />
    <glyph glyph-name="e" unicode="e" horiz-adv-x="626" 
d="M366 559q121 0 188 -76q68 -77 49 -205q-4 -27 -13 -55h-410q4 -55 38.5 -85.5t98.5 -30.5q44 0 95 16t90 41l48 -102q-110 -74 -245 -74q-145 0 -210 86t-48 208q16 123 105 200t214 77zM360 442q-55 0 -98.5 -30t-65.5 -84h278q0 53 -30.5 83.5t-83.5 30.5z" />
    <glyph glyph-name="f" unicode="f" horiz-adv-x="432" 
d="M424 659q-104 0 -119 -101l-2 -13h170l-18 -118h-169l-64 -427h-140l62 427h-84l18 118h83l4 24q15 104 81.5 159.5t165.5 55.5q84 0 153 -42l-57 -105q-41 22 -84 22z" />
    <glyph glyph-name="g" unicode="g" horiz-adv-x="672" 
d="M518 479l10 66h130l-74 -493q-19 -133 -111 -208q-90 -75 -222 -75q-142 0 -244 81l65 104q80 -64 180 -64q80 0 132 43q53 44 63 110l3 25q-69 -69 -172 -69q-122 0 -186 81q-64 82 -48 205q18 123 105 198q86 76 203 76q109 0 166 -80zM308 122q66 0 115 45
q50 44 61 113q10 63 -26 107q-34 43 -98 43q-68 0 -117 -43t-58 -114q-8 -66 26 -108q34 -43 97 -43z" />
    <glyph glyph-name="h" unicode="h" horiz-adv-x="642" 
d="M174 0h-141l113 760h138l-45 -291q27 40 77.5 65.5t107.5 25.5q91 0 143 -61q53 -62 35 -179l-47 -320h-141l44 298q10 63 -15 97.5t-77 34.5q-58 0 -99.5 -42t-52.5 -114z" />
    <glyph glyph-name="i" unicode="i" horiz-adv-x="271" 
d="M201 606q-40 0 -62.5 26t-16.5 65q5 35 32.5 58.5t62.5 23.5q39 0 61.5 -26t16.5 -65q-5 -35 -32 -58.5t-62 -23.5zM257 545l-81 -545h-141l81 545h141z" />
    <glyph glyph-name="j" unicode="j" horiz-adv-x="259" 
d="M188 606q-40 0 -62.5 26t-16.5 65q5 35 32.5 58.5t62.5 23.5q39 0 61.5 -26t16.5 -65q-5 -35 -32 -58.5t-62 -23.5zM-80 -232q-70 0 -122 31l40 112q34 -18 73 -18q95 0 116 138l77 514h141l-81 -538q-17 -120 -81 -179.5t-163 -59.5z" />
    <glyph glyph-name="k" unicode="k" horiz-adv-x="583" 
d="M454 545h177l-277 -223l209 -322h-172l-146 234l-41 -34l-30 -200h-141l113 760h141l-60 -400z" />
    <glyph glyph-name="l" unicode="l" horiz-adv-x="268" 
d="M287 760l-113 -760h-141l113 760h141z" />
    <glyph glyph-name="m" unicode="m" horiz-adv-x="1002" 
d="M769 560q99 0 154 -64q55 -62 38 -177l-47 -319h-141l45 305q9 61 -14.5 93t-72.5 32q-55 0 -94.5 -38.5t-50.5 -107.5l-42 -284h-141l45 303q10 59 -14.5 93t-73.5 34q-55 0 -93.5 -38t-49.5 -108l-43 -284h-141l81 545h138l-12 -77q29 43 77 67.5t101 24.5
q54 0 94 -24.5t55 -70.5q36 45 89 70t113 25z" />
    <glyph glyph-name="n" unicode="n" horiz-adv-x="643" 
d="M174 0h-141l81 545h138l-11 -76q28 41 77 66t106 25q91 0 143 -61q53 -62 35 -179l-47 -320h-141l44 298q10 63 -15 97.5t-77 34.5q-58 0 -99.5 -42t-52.5 -114z" />
    <glyph glyph-name="o" unicode="o" horiz-adv-x="649" 
d="M296 -14q-130 0 -201 86q-70 86 -50 210q19 121 111 199q92 79 216 79q131 0 202 -89q70 -88 46 -217q-22 -118 -114 -193t-210 -75zM307 117q63 0 114 45q51 46 61 110q11 65 -25 111t-99 46q-62 0 -112 -44q-51 -45 -61 -107q-12 -67 23 -114t99 -47z" />
    <glyph glyph-name="p" unicode="p" horiz-adv-x="678" 
d="M415 559q115 0 183 -84q69 -83 53 -206q-15 -124 -97 -203q-80 -79 -200 -79q-108 0 -170 90l-44 -301h-141l115 769h139l-8 -57q74 71 170 71zM378 429q-67 0 -114 -44q-46 -43 -54 -108q-11 -68 26 -115q37 -46 103 -46q65 0 112 44q47 45 56 110t-26 112t-103 47z" />
    <glyph glyph-name="q" unicode="q" horiz-adv-x="681" 
d="M518 479l9 66h140l-115 -769h-141l39 275q-73 -64 -171 -64q-125 0 -189 88q-64 89 -45 213q18 123 103 196q86 75 200 75q108 0 170 -80zM317 115q68 0 115 46q49 46 57 112q8 63 -27 110t-102 47q-63 0 -111 -42q-49 -43 -59 -103q-13 -69 22 -120q36 -50 105 -50z" />
    <glyph glyph-name="r" unicode="r" horiz-adv-x="432" 
d="M174 0h-141l81 545h135l-12 -71q62 86 161 86q36 0 78 -13l-37 -134q-35 11 -62 11q-64 0 -109 -43.5t-57 -128.5z" />
    <glyph glyph-name="s" unicode="s" horiz-adv-x="498" 
d="M222 -13q-145 0 -217 107l83 86q50 -75 141 -75q33 0 57.5 14t28.5 37q4 30 -36 49q-14 7 -41 17q-66 29 -92 45q-78 54 -64 144q12 71 71 112t145 41q118 0 190 -81l-81 -87q-46 52 -117 52q-28 0 -47 -11t-23 -30q-7 -34 34 -54l48 -21q38 -14 60 -27q47 -23 76 -61
t16 -91q-12 -78 -77 -122t-155 -44z" />
    <glyph glyph-name="t" unicode="t" horiz-adv-x="461" 
d="M460 427h-179l-33 -218q-14 -93 62 -93q38 0 93 26l29 -112q-73 -43 -166 -43q-94 0 -134.5 59t-25.5 166l33 215h-89l18 118h90l29 193h140l-29 -193h180z" />
    <glyph glyph-name="u" unicode="u" horiz-adv-x="614" 
d="M275 -13q-117 0 -174 67.5t-39 190.5l45 300h141l-47 -311q-8 -54 16 -86t72 -32q54 0 88 34t44 97l45 298h141l-45 -300q-20 -128 -94 -193t-193 -65z" />
    <glyph glyph-name="v" unicode="v" horiz-adv-x="596" 
d="M297 192l188 353h154l-318 -544h-108l-155 544h156z" />
    <glyph glyph-name="w" unicode="w" horiz-adv-x="877" 
d="M286 1h-123l-105 544h148l55 -357l178 357h99l72 -357l161 357h148l-266 -544h-123l-71 342z" />
    <glyph glyph-name="x" unicode="x" horiz-adv-x="553" 
d="M377 274l134 -274h-162l-78 179l-135 -179h-163l222 278l-120 267h161l67 -167l125 167h159z" />
    <glyph glyph-name="y" unicode="y" horiz-adv-x="599" 
d="M308 190l178 355h155l-297 -559q-61 -114 -124 -166t-141 -52q-64 0 -110 31l41 114q32 -17 66 -17q38 0 66.5 21t56.5 67l16 26l-156 535h161z" />
    <glyph glyph-name="z" unicode="z" horiz-adv-x="538" 
d="M530 449l-318 -332h278l-17 -117h-472l14 96l323 331h-260l18 117h448z" />
    <glyph glyph-name="braceleft" unicode="{" horiz-adv-x="407" 
d="M417 811h62l-20 -134h-27q-81 0 -92 -80l-16 -97l-14 -85q-12 -84 -115 -127q89 -40 78 -126l-14 -95l-12 -87q-11 -77 67 -77h29l-20 -134h-67q-184 0 -156 189l12 92q7 61 12 88q8 55 -23 74q-26 16 -77 22l15 112q62 7 93 28.5t37 70.5l15 84q14 75 17 102
q25 180 216 180z" />
    <glyph glyph-name="bar" unicode="|" horiz-adv-x="292" 
d="M158 -179h-140l153 1026h140z" />
    <glyph glyph-name="braceright" unicode="}" horiz-adv-x="407" 
d="M322 539l-14 -97q-6 -49 16.5 -69t82.5 -27l-15 -112q-61 -6 -91.5 -27t-38.5 -72l-16 -86q-3 -17 -8.5 -49.5t-7.5 -44.5q-27 -186 -209 -186h-70l20 134h28q78 0 92 80l15 92q12 76 14 90q14 79 114 126q-89 44 -76 127l14 92q3 18 6 38t5 32.5t3 19.5q12 77 -67 77
h-29l20 134h60q190 0 164 -183z" />
    <glyph glyph-name="asciitilde" unicode="~" horiz-adv-x="699" 
d="M463 231q-51 0 -122 32.5t-89 32.5q-27 0 -50.5 -14t-58.5 -51l-81 73q80 117 207 117q55 0 121 -32t92 -32q27 0 50 14.5t60 54.5l83 -76q-89 -119 -212 -119z" />
    <glyph glyph-name="exclamdown" unicode="&#xa1;" horiz-adv-x="294" 
d="M167 364q-35 0 -55.5 23.5t-16.5 58.5q5 35 31 57.5t61 22.5q37 0 57.5 -25.5t13.5 -60.5q-6 -34 -31.5 -55t-59.5 -21zM-12 -239l102 548h131l-84 -548h-149z" />
    <glyph glyph-name="cent" unicode="&#xa2;" horiz-adv-x="620" 
d="M397 425l-46 -304q78 17 119 80l104 -73q-39 -61 -103 -97t-140 -42l-11 -76h-79l12 79q-107 17 -162 95q-55 79 -40 192q17 120 95 194q79 76 192 85l11 75h79l-12 -78q144 -21 194 -150l-119 -59q-32 66 -94 79zM190 270q-7 -52 16 -92.5t67 -54.5l44 298
q-51 -15 -85.5 -55t-41.5 -96z" />
    <glyph glyph-name="sterling" unicode="&#xa3;" horiz-adv-x="588" 
d="M293 283q-15 -85 -83 -147h324l-20 -136h-491l15 117q46 38 76.5 87.5t37.5 95.5q1 3 1 14h-88l17 112h58q-12 70 -4 115q17 98 92 154t175 57q71 2 127 -33q57 -33 82 -85l-106 -85q-14 30 -41.5 47t-59.5 17q-48 0 -83 -30.5t-43 -79.5q-5 -29 4 -77h230l-17 -112h-200
q0 -14 -3 -31z" />
    <glyph glyph-name="currency" unicode="&#xa4;" horiz-adv-x="644" 
d="M578 364q-10 -66 -54 -120l64 -73l-75 -66l-65 74q-64 -38 -136 -38q-70 0 -123 36l-84 -72l-61 66l85 73q-30 59 -20 126q11 74 63 132l-67 76l75 66l70 -80q59 32 126 32q66 0 118 -33l95 83l60 -68l-94 -81q34 -57 23 -133zM223 367q-8 -51 20 -87t79 -36q53 0 94 37
q43 38 50 90q7 49 -22 86q-28 36 -80 36q-53 0 -93 -37q-40 -36 -48 -89z" />
    <glyph glyph-name="yen" unicode="&#xa5;" horiz-adv-x="692" 
d="M578 739h167l-225 -335h96l-16 -107h-152l-20 -29l-3 -17h169l-17 -107h-168l-21 -144h-148l21 144h-168l16 107h168l4 22l-9 24h-156l16 107h100l-123 335h163l103 -321z" />
    <glyph glyph-name="brokenbar" unicode="&#xa6;" horiz-adv-x="292" 
d="M249 434h-140l62 413h140zM80 234h140l-62 -413h-140z" />
    <glyph glyph-name="section" unicode="&#xa7;" horiz-adv-x="617" 
d="M425 418q76 -40 114 -77q54 -50 42 -131q-13 -86 -93 -136q26 -48 15 -104q-13 -85 -88 -143q-73 -58 -182 -58q-164 0 -240 127l101 91q59 -83 148 -83q42 0 71 21.5t34 54.5q5 35 -30 60q-18 14 -34 23q-14 9 -49 27q-9 5 -11 6q-78 40 -122 87q-50 53 -38 128
q13 83 92 130q-26 49 -17 109q14 91 86 146q74 56 175 56q136 0 220 -111l-110 -85q-53 59 -116 59q-42 0 -69.5 -19.5t-31.5 -52.5q-6 -44 50 -80q9 -7 83 -45zM297 218q87 -46 102 -57q28 21 31 45q3 25 -16.5 43t-72.5 47q-63 32 -104 60q-26 -25 -29 -48
q-3 -25 16.5 -42.5t72.5 -47.5z" />
    <glyph glyph-name="dieresis" unicode="&#xa8;" horiz-adv-x="509" 
d="M195 622q-38 0 -59.5 25t-15.5 63q5 34 32 56.5t61 22.5q36 0 57.5 -25t16.5 -61q-5 -35 -31.5 -58t-60.5 -23zM412 622q-38 0 -59 25t-16 63q5 34 32 56.5t61 22.5q36 0 57.5 -25t16.5 -61t-31.5 -58.5t-60.5 -22.5z" />
    <glyph glyph-name="copyright" unicode="&#xa9;" horiz-adv-x="849" 
d="M393 -12q-160 0 -256 112t-73 273q22 160 151 270q128 109 287 109q160 0 258 -113t74 -272q-24 -156 -152 -268q-128 -111 -289 -111zM403 71q125 0 225 88q101 89 120 212q19 121 -56 209t-199 88q-123 0 -224 -86q-100 -85 -120 -211q-19 -124 56 -213q75 -87 198 -87
zM422 163q-88 0 -139 61q-51 62 -38 150q13 87 78 144t154 57q113 0 161 -95l-77 -45q-33 51 -92 51q-49 0 -85.5 -33.5t-43.5 -84.5t19.5 -83.5t74.5 -32.5q63 0 106 49l63 -52q-71 -86 -181 -86z" />
    <glyph glyph-name="ordfeminine" unicode="&#xaa;" horiz-adv-x="408" 
d="M272 736q72 0 109 -41t25 -119l-28 -185h-81l5 34q-40 -43 -109 -43q-55 0 -86 33t-23 83q7 46 50.5 72.5t115.5 26.5q4 0 38 -2q18 -1 36 -1q2 30 -15.5 46.5t-53.5 16.5q-55 0 -105 -26l-21 69q65 36 143 36zM216 454q37 0 64 22.5t35 58.5q-13 0 -27.5 0.5t-22 1
t-11.5 0.5q-81 0 -85 -43q-2 -16 10.5 -28t36.5 -12z" />
    <glyph glyph-name="guillemotleft" unicode="&#xab;" horiz-adv-x="586" 
d="M296 88h-144l-107 203l165 203h150l-172 -203zM520 88h-144l-106 203l163 203h151l-171 -203z" />
    <glyph glyph-name="logicalnot" unicode="&#xac;" horiz-adv-x="603" 
d="M415 251h-346l20 130h472l-36 -241h-127z" />
    <glyph glyph-name="uni00AD" unicode="&#xad;" horiz-adv-x="501" 
d="M449 263h-382l20 130h382z" />
    <glyph glyph-name="registered" unicode="&#xae;" horiz-adv-x="593" 
d="M378 778q110 0 174 -76t48 -181q-17 -107 -101 -179q-86 -74 -191 -74q-108 0 -172 75q-64 76 -48 184q17 108 100 179q84 72 190 72zM535 524q12 77 -35 135q-46 57 -128 57q-81 0 -145 -56q-63 -56 -74 -136q-11 -81 35 -137q46 -57 126 -57t144 57q65 59 77 137z
M269 646h106q39 0 60 -23.5t16 -58.5q-6 -50 -56 -71l37 -88h-65l-31 80h-32l-12 -80h-59zM358 597l-37 1l-10 -66h35q41 0 44 35q2 13 -6 21.5t-26 8.5z" />
    <glyph glyph-name="overscore" unicode="&#xaf;" horiz-adv-x="454" 
d="M430 638l-327 -2l19 124h327z" />
    <glyph glyph-name="degree" unicode="&#xb0;" horiz-adv-x="366" 
d="M234 531q-59 0 -97.5 37t-38.5 93q0 64 50 116q49 52 122 52q58 0 96.5 -36t38.5 -94q0 -67 -52 -118q-52 -50 -119 -50zM240 612q32 0 56 24.5t24 55.5q0 24 -16.5 39.5t-40.5 15.5q-32 0 -55 -24.5t-23 -55.5q0 -24 15 -39.5t40 -15.5z" />
    <glyph glyph-name="plusminus" unicode="&#xb1;" horiz-adv-x="620" 
d="M606 493l-20 -131h-188l-28 -184h189l-19 -127h-507l19 127h190l27 184h-190l20 131h190l28 189h129l-28 -189h188z" />
    <glyph glyph-name="uni00B2" unicode="&#xb2;" horiz-adv-x="346" 
d="M322 673l-88 -79h133l-14 -87h-272l11 70l149 135q21 18 30 29q26 26 27 47q2 16 -8.5 27t-28.5 11q-41 0 -103 -44l-38 72q71 58 154 58q44 1 75.5 -20.5t42 -55.5t-6.5 -79t-63 -84z" />
    <glyph glyph-name="uni00B3" unicode="&#xb3;" horiz-adv-x="348" 
d="M392 804q-10 -58 -83 -88q36 -11 53.5 -38t12.5 -61q-7 -51 -53.5 -83.5t-115.5 -32.5q-67 0 -131 41l43 70q50 -27 93 -27q63 0 68 44q2 20 -12.5 30.5t-38.5 10.5h-57l11 79h47q23 0 43 11t22 31q2 17 -10.5 26.5t-33.5 9.5q-34 0 -83 -29l-38 66q62 48 140 48
q59 0 94.5 -31t28.5 -77z" />
    <glyph glyph-name="acute" unicode="&#xb4;" horiz-adv-x="405" 
d="M231 620h-128l88 176h160z" />
    <glyph glyph-name="paragraph" unicode="&#xb6;" horiz-adv-x="761" 
d="M353 734h439l-21 -139h-73l-124 -798h-143l123 798h-69l-124 -798h-143l73 483h-25q-92 0 -150 66t-43 171q14 99 89 158q77 59 191 59z" />
    <glyph glyph-name="middot" unicode="&#xb7;" horiz-adv-x="265" 
d="M101 -12q-36 0 -56.5 23.5t-15.5 59.5q4 35 30 57t62 22t56.5 -24.5t14.5 -60.5q-6 -34 -32 -55.5t-59 -21.5z" />
    <glyph glyph-name="cedilla" unicode="&#xb8;" horiz-adv-x="345" 
d="M200 18l-37 -66q45 -2 72.5 -31t20.5 -73q-7 -49 -51.5 -82.5t-112.5 -33.5q-58 0 -117 32l36 80q37 -21 81 -21q54 0 59 39q2 16 -10 24.5t-39 8.5h-55l-4 27l54 98z" />
    <glyph glyph-name="uni00B9" unicode="&#xb9;" horiz-adv-x="276" 
d="M97 792l159 109h72l-60 -394h-94l38 263l-75 -52z" />
    <glyph glyph-name="ordmasculine" unicode="&#xba;" horiz-adv-x="429" 
d="M87 561q10 74 69 124q58 49 135 49q79 0 122 -52t33 -128q-11 -74 -70 -124q-58 -49 -135 -49q-76 0 -121 51q-45 52 -33 129zM250 465q40 0 71.5 27t37.5 68q5 38 -16.5 64t-60.5 26q-40 0 -71 -26.5t-37 -66.5q-6 -39 16 -65.5t60 -26.5z" />
    <glyph glyph-name="guillemotright" unicode="&#xbb;" horiz-adv-x="585" 
d="M331 291l-167 -203h-144l168 203l-110 203h151zM556 291l-168 -203h-144l169 203l-111 203h150z" />
    <glyph glyph-name="onequarter" unicode="&#xbc;" horiz-adv-x="869" 
d="M161 346l37 264l-75 -52l-40 74l159 109h71l-58 -395h-94zM70 0l688 739h114l-687 -739h-115zM730 396h74l-35 -232h41l-10 -75h-43l-13 -89h-85l13 89h-176l-12 56zM699 274l-109 -110h93z" />
    <glyph glyph-name="onehalf" unicode="&#xbd;" horiz-adv-x="865" 
d="M162 346l37 264l-75 -52l-40 74l159 109h71l-58 -395h-94zM53 0l688 739h113l-686 -739h-115zM719 405q44 1 75.5 -20.5t42 -55.5t-6.5 -79t-63 -84l-88 -79h133l-14 -87h-272l11 70l149 135q21 18 30 29q26 26 27 47q2 16 -8.5 27t-28.5 11q-41 0 -103 -44l-38 72
q71 58 154 58z" />
    <glyph glyph-name="threequarters" unicode="&#xbe;" horiz-adv-x="849" 
d="M361 457q-7 -51 -53.5 -83.5t-115.5 -32.5q-67 0 -131 41l43 70q50 -27 93 -27q63 0 68 44q2 20 -12.5 30.5t-38.5 10.5h-57l11 79h47q23 0 43 11t22 31q2 17 -10.5 26.5t-33.5 9.5q-34 0 -83 -29l-38 66q61 48 140 48q59 0 94.5 -31t28.5 -77q-10 -58 -83 -88
q36 -11 53.5 -38t12.5 -61zM82 0l688 739h113l-687 -739h-114zM757 396h74l-35 -232h41l-10 -75h-43l-13 -89h-85l13 89h-176l-12 56zM726 274l-109 -110h93z" />
    <glyph glyph-name="questiondown" unicode="&#xbf;" horiz-adv-x="543" 
d="M335 528q36 0 56.5 -23.5t14.5 -59.5q-5 -34 -31.5 -56.5t-61.5 -22.5q-37 0 -57 25t-12 60q6 34 32 55.5t59 21.5zM238 320h136l-13 -74q-12 -79 -88 -138q-6 -4 -35.5 -25t-40 -29.5t-29.5 -26.5t-27.5 -34.5t-11.5 -34.5q-7 -39 15.5 -63t64.5 -24q82 0 168 86l73 -98
q-118 -121 -264 -121q-105 0 -165 63q-58 63 -42 154q15 86 95 149q10 7 38.5 28.5t41.5 32.5t32.5 30t29.5 37t14 38z" />
    <glyph glyph-name="Agrave" unicode="&#xc0;" 
d="M452 978l37 -183h-129l-71 183h163zM656 0h-155l-31 160h-257l-81 -160h-157l392 739h121zM448 292l-49 246l-124 -246h173z" />
    <glyph glyph-name="Aacute" unicode="&#xc1;" 
d="M466 977h166l-124 -183h-133zM656 0h-155l-31 160h-257l-81 -160h-157l392 739h121zM448 292l-49 246l-124 -246h173z" />
    <glyph glyph-name="Acircumflex" unicode="&#xc2;" 
d="M504 794l-53 89l-82 -89h-143l181 183h109l127 -183h-139zM656 0h-155l-31 160h-257l-81 -160h-157l392 739h121zM448 292l-49 246l-124 -246h173z" />
    <glyph glyph-name="Atilde" unicode="&#xc3;" 
d="M380 842q-42 0 -80 -56l-88 53q66 114 157 114q38 0 78 -22t53 -22q39 0 75 52l88 -51q-60 -114 -150 -114q-35 0 -76 23t-57 23zM-25 0l392 739h121l168 -739h-155l-31 160h-257l-81 -160h-157zM448 292l-49 246l-124 -246h173z" />
    <glyph glyph-name="Adieresis" unicode="&#xc4;" 
d="M331 796q-37 0 -58.5 25t-15.5 62q5 33 31.5 55.5t60.5 22.5q35 0 56 -25t16 -60t-31 -57.5t-59 -22.5zM544 796q-37 0 -58 24.5t-16 62.5q5 33 31.5 55.5t60.5 22.5q35 0 56.5 -25t16.5 -60t-31.5 -57.5t-59.5 -22.5zM656 0h-155l-31 160h-257l-81 -160h-157l392 739
h121zM448 292l-49 246l-124 -246h173z" />
    <glyph glyph-name="Aring" unicode="&#xc5;" 
d="M435 779q-59 0 -94 39q-34 38 -26 95q7 54 53 93q47 39 103 39q59 0 93 -40q35 -40 26 -95q-8 -56 -54 -93q-46 -38 -101 -38zM398 912q-4 -24 9.5 -39t35.5 -15q23 0 41.5 16.5t21.5 40.5q4 21 -9 36t-35 15q-24 0 -42.5 -15.5t-21.5 -38.5zM656 0h-155l-31 160h-257
l-81 -160h-157l392 739h121zM448 292l-49 246l-124 -246h173z" />
    <glyph glyph-name="AE" unicode="&#xc6;" horiz-adv-x="1050" 
d="M1076 739l-21 -142h-360l-23 -152h331l-21 -142h-331l-24 -161h358l-21 -142h-506l26 174h-244l-126 -174h-164l559 739l2 -1l-1 1h566zM547 597l-211 -291h167z" />
    <glyph glyph-name="Ccedilla" unicode="&#xc7;" horiz-adv-x="765" 
d="M418 134q126 0 233 111l91 -100q-58 -65 -139.5 -106.5t-170.5 -48.5l-22 -38q45 -2 72.5 -31t20.5 -73q-7 -49 -51.5 -82.5t-112.5 -33.5q-58 0 -117 32l36 80q38 -21 81 -21q54 0 59 39q2 16 -10 24.5t-39 8.5h-55l-4 27l40 72q-138 23 -214 125q-76 103 -55 257
q23 170 146 273q124 103 287 103q99 0 176.5 -41.5t124.5 -114.5l-111 -94q-70 108 -198 108q-102 0 -179 -66q-77 -64 -90 -171q-15 -105 42 -172q58 -67 159 -67z" />
    <glyph glyph-name="Egrave" unicode="&#xc8;" horiz-adv-x="637" 
d="M451 978l37 -183h-129l-71 183h163zM552 0h-501l110 739h501l-21 -138h-352l-24 -159h326l-20 -138h-326l-25 -166h352z" />
    <glyph glyph-name="Eacute" unicode="&#xc9;" horiz-adv-x="637" 
d="M478 794h-133l91 183h166zM552 0h-501l110 739h501l-21 -138h-352l-24 -159h326l-20 -138h-326l-25 -166h352z" />
    <glyph glyph-name="Ecircumflex" unicode="&#xca;" horiz-adv-x="637" 
d="M348 794h-143l181 183h109l127 -183h-139l-53 89zM552 0h-501l110 739h501l-21 -138h-352l-24 -159h326l-20 -138h-326l-25 -166h352z" />
    <glyph glyph-name="Edieresis" unicode="&#xcb;" horiz-adv-x="637" 
d="M312 796q-37 0 -58.5 25t-15.5 62q5 33 31.5 55.5t60.5 22.5q35 0 56 -25t16 -60t-31 -57.5t-59 -22.5zM525 796q-37 0 -58 24.5t-16 62.5q5 33 31.5 55.5t60.5 22.5q35 0 56.5 -25t16.5 -60t-31.5 -57.5t-59.5 -22.5zM552 0h-501l110 739h501l-21 -138h-352l-24 -159
h326l-20 -138h-326l-25 -166h352z" />
    <glyph glyph-name="Igrave" unicode="&#xcc;" horiz-adv-x="313" 
d="M269 978l37 -183h-129l-71 183h163zM53 0l110 739h149l-110 -739h-149z" />
    <glyph glyph-name="Iacute" unicode="&#xcd;" horiz-adv-x="311" 
d="M305 795h-133l91 183h166zM51 0l110 739h149l-110 -739h-149z" />
    <glyph glyph-name="Icircumflex" unicode="&#xce;" horiz-adv-x="313" 
d="M178 796h-143l181 183h109l127 -183h-139l-53 89zM53 0l110 739h149l-110 -739h-149z" />
    <glyph glyph-name="Idieresis" unicode="&#xcf;" horiz-adv-x="313" 
d="M137 796q-38 0 -60 25.5t-16 63.5q5 34 32 57t62 23q36 0 57.5 -25.5t16.5 -61.5q-5 -35 -31.5 -58.5t-60.5 -23.5zM355 796q-37 0 -58.5 25.5t-16.5 63.5q5 34 32 57t62 23q36 0 57.5 -25.5t16.5 -61.5t-31.5 -59t-61.5 -23zM53 0l110 739h149l-110 -739h-149z" />
    <glyph glyph-name="Eth" unicode="&#xd0;" horiz-adv-x="786" 
d="M177 739h271q173 0 257 -101q84 -100 61 -275q-22 -169 -129 -267q-107 -96 -275 -96h-295l46 310h-81l18 120h81zM614 376q13 97 -29 159q-41 62 -137 62h-144l-25 -167h191l-17 -120h-192l-25 -168h130q106 0 170 66t78 168z" />
    <glyph glyph-name="Ntilde" unicode="&#xd1;" horiz-adv-x="794" 
d="M346 789l-88 53q66 114 157 114q38 0 78 -22t53 -22q39 0 75 52l88 -51q-60 -114 -150 -114q-35 0 -76 23t-57 23q-42 0 -80 -56zM576 282l69 457h146l-110 -739h-100l-316 453l-68 -453h-146l110 739h94z" />
    <glyph glyph-name="Ograve" unicode="&#xd2;" horiz-adv-x="848" 
d="M543 978l37 -183h-129l-71 183h163zM395 -12q-166 0 -260 112t-71 275q22 163 149 270t289 107q166 0 261 -113q94 -112 70 -273q-24 -159 -150 -269q-125 -109 -288 -109zM408 134q97 0 176 67q80 67 96 171q17 101 -39 167q-55 67 -153 67t-178 -69q-78 -67 -93 -171
q-15 -101 40 -167q56 -65 151 -65z" />
    <glyph glyph-name="Oacute" unicode="&#xd3;" horiz-adv-x="848" 
d="M581 794h-133l91 183h166zM395 -12q-166 0 -260 112t-71 275q22 163 149 270t289 107q166 0 261 -113q94 -112 70 -273q-24 -159 -150 -269q-125 -109 -288 -109zM408 134q97 0 176 67q80 67 96 171q17 101 -39 167q-55 67 -153 67t-178 -69q-78 -67 -93 -171
q-15 -101 40 -167q56 -65 151 -65z" />
    <glyph glyph-name="Ocircumflex" unicode="&#xd4;" horiz-adv-x="848" 
d="M450 794h-143l181 183h109l127 -183h-139l-53 89zM395 -12q-166 0 -260 112t-71 275q22 163 149 270t289 107q166 0 261 -113q94 -112 70 -273q-24 -159 -150 -269q-125 -109 -288 -109zM408 134q97 0 176 67q80 67 96 171q17 101 -39 167q-55 67 -153 67t-178 -69
q-78 -67 -93 -171q-15 -101 40 -167q56 -65 151 -65z" />
    <glyph glyph-name="Otilde" unicode="&#xd5;" horiz-adv-x="848" 
d="M380 786l-88 53q66 114 157 114q38 0 78 -22t53 -22q39 0 75 52l88 -51q-60 -114 -150 -114q-35 0 -76 23t-57 23q-42 0 -80 -56zM395 -12q-166 0 -260 112t-71 275q22 163 149 270t289 107q166 0 261 -113q94 -112 70 -273q-24 -159 -150 -269q-125 -109 -288 -109z
M408 134q97 0 176 67q80 67 96 171q17 101 -39 167q-55 67 -153 67t-178 -69q-78 -67 -93 -171q-15 -101 40 -167q56 -65 151 -65z" />
    <glyph glyph-name="Odieresis" unicode="&#xd6;" horiz-adv-x="848" 
d="M409 796q-37 0 -58.5 25t-15.5 62q5 33 31.5 55.5t60.5 22.5q35 0 56 -25t16 -60t-31 -57.5t-59 -22.5zM622 796q-37 0 -58 24.5t-16 62.5q5 33 31.5 55.5t60.5 22.5q35 0 56.5 -25t16.5 -60t-31.5 -57.5t-59.5 -22.5zM395 -12q-166 0 -260 112t-71 275q22 163 149 270
t289 107q166 0 261 -113q94 -112 70 -273q-24 -159 -150 -269q-125 -109 -288 -109zM408 134q97 0 176 67q80 67 96 171q17 101 -39 167q-55 67 -153 67t-178 -69q-78 -67 -93 -171q-15 -101 40 -167q56 -65 151 -65z" />
    <glyph glyph-name="multiply" unicode="&#xd7;" horiz-adv-x="556" 
d="M477 573l76 -85l-171 -150l126 -147l-96 -89l-128 150l-171 -150l-73 89l170 148l-125 147l96 87l127 -148z" />
    <glyph glyph-name="Oslash" unicode="&#xd8;" horiz-adv-x="848" 
d="M834 737l-77 -91q100 -112 76 -280q-24 -159 -150 -269q-125 -109 -288 -109q-89 0 -167 38l-73 -86l-78 59l73 85q-112 114 -86 291q22 163 149 270t289 107q102 0 180 -45l76 89zM217 366q-13 -94 36 -161l326 382q-39 19 -91 19q-98 0 -178 -69q-78 -67 -93 -171z
M680 372q13 86 -28 152l-320 -377q36 -13 76 -13q97 0 176 67q80 67 96 171z" />
    <glyph glyph-name="Ugrave" unicode="&#xd9;" horiz-adv-x="725" 
d="M479 978l37 -183h-129l-71 183h163zM333 -13q-127 0 -199 76q-72 77 -50 225l69 451h149l-69 -453q-12 -77 17.5 -116t93.5 -39q67 0 112 41t56 117l68 450h150l-69 -455q-23 -151 -114 -224q-89 -73 -214 -73z" />
    <glyph glyph-name="Uacute" unicode="&#xda;" horiz-adv-x="725" 
d="M510 794h-133l91 183h166zM333 -13q-127 0 -199 76q-72 77 -50 225l69 451h149l-69 -453q-12 -77 17.5 -116t93.5 -39q67 0 112 41t56 117l68 450h150l-69 -455q-23 -151 -114 -224q-89 -73 -214 -73z" />
    <glyph glyph-name="Ucircumflex" unicode="&#xdb;" horiz-adv-x="725" 
d="M384 794h-143l181 183h109l127 -183h-139l-53 89zM333 -13q-127 0 -199 76q-72 77 -50 225l69 451h149l-69 -453q-12 -77 17.5 -116t93.5 -39q67 0 112 41t56 117l68 450h150l-69 -455q-23 -151 -114 -224q-89 -73 -214 -73z" />
    <glyph glyph-name="Udieresis" unicode="&#xdc;" horiz-adv-x="725" 
d="M349 796q-37 0 -58.5 25t-15.5 62q5 33 31.5 55.5t60.5 22.5q35 0 56 -25t16 -60t-31 -57.5t-59 -22.5zM562 796q-37 0 -58 24.5t-16 62.5q5 33 31.5 55.5t60.5 22.5q35 0 56.5 -25t16.5 -60t-31.5 -57.5t-59.5 -22.5zM333 -13q-127 0 -199 76q-72 77 -50 225l69 451h149
l-69 -453q-12 -77 17.5 -116t93.5 -39q67 0 112 41t56 117l68 450h150l-69 -455q-23 -151 -114 -224q-89 -73 -214 -73z" />
    <glyph glyph-name="Yacute" unicode="&#xdd;" horiz-adv-x="679" 
d="M486 794h-133l91 183h166zM577 739h172l-328 -483l-39 -256h-148l39 256l-182 483h171l107 -324z" />
    <glyph glyph-name="Thorn" unicode="&#xde;" horiz-adv-x="652" 
d="M292 623h117q134 0 190 -71q56 -72 43 -175q-13 -111 -91 -174.5t-218 -63.5h-113l-21 -139h-148l110 739h148zM492 384q6 45 -18.5 73.5t-73.5 28.5h-129l-31 -212h99q67 0 106.5 30t46.5 80z" />
    <glyph glyph-name="germandbls" unicode="&#xdf;" horiz-adv-x="667" 
d="M647 555q-16 -112 -123 -163q58 -22 87 -76.5t19 -124.5q-13 -94 -89 -153q-73 -57 -184 -57q-69 0 -129 24l35 122q33 -18 88 -18q56 0 94 29t44 75q7 51 -34.5 82t-115.5 32l11 112q59 -1 101.5 29.5t50.5 78.5q7 43 -19.5 71.5t-74.5 28.5q-62 0 -108 -54
q-44 -53 -58 -141l-94 -629h-142l95 638q12 85 45 150t79 101q88 69 197 69q114 0 176 -66q63 -65 49 -160z" />
    <glyph glyph-name="agrave" unicode="&#xe0;" horiz-adv-x="678" 
d="M425 803l35 -176h-122l-68 176h155zM521 477l10 68h134l-82 -545h-133l9 65q-79 -78 -184 -78q-121 0 -185 87q-63 89 -44 212q18 122 104 197q85 76 202 76q106 0 169 -82zM316 115q67 0 116 46t58 113q9 64 -27 110t-102 46q-63 0 -111 -42q-46 -40 -60 -103
q-13 -67 22 -119q34 -51 104 -51z" />
    <glyph glyph-name="aacute" unicode="&#xe1;" horiz-adv-x="678" 
d="M424 802h160l-120 -176h-128zM521 477l10 68h134l-82 -545h-133l9 65q-79 -78 -184 -78q-121 0 -185 87q-63 89 -44 212q18 122 104 197q85 76 202 76q106 0 169 -82zM316 115q67 0 116 46t58 113q9 64 -27 110t-102 46q-63 0 -111 -42q-46 -40 -60 -103q-13 -67 22 -119
q34 -51 104 -51z" />
    <glyph glyph-name="acircumflex" unicode="&#xe2;" horiz-adv-x="678" 
d="M464 626l-51 86l-79 -86h-137l174 176h105l122 -176h-134zM521 477l10 68h134l-82 -545h-133l9 65q-79 -78 -184 -78q-121 0 -185 87q-63 89 -44 212q18 122 104 197q85 76 202 76q106 0 169 -82zM316 115q67 0 116 46t58 113q9 64 -27 110t-102 46q-63 0 -111 -42
q-46 -40 -60 -103q-13 -67 22 -119q34 -51 104 -51z" />
    <glyph glyph-name="atilde" unicode="&#xe3;" horiz-adv-x="678" 
d="M358 673q-42 0 -78 -55l-86 52q64 111 153 111q38 0 76 -22q39 -21 52 -21q39 0 73 51l86 -50q-58 -111 -146 -111q-34 0 -74 22q-41 23 -56 23zM521 477l10 68h134l-82 -545h-133l9 65q-79 -78 -184 -78q-121 0 -185 87q-63 89 -44 212q18 122 104 197q85 76 202 76
q106 0 169 -82zM316 115q67 0 116 46t58 113q9 64 -27 110t-102 46q-63 0 -111 -42q-46 -40 -60 -103q-13 -67 22 -119q34 -51 104 -51z" />
    <glyph glyph-name="adieresis" unicode="&#xe4;" horiz-adv-x="678" 
d="M291 617q-38 0 -59.5 25t-15.5 63q5 34 32 56.5t61 22.5q36 0 57.5 -25t16.5 -61q-5 -35 -31.5 -58t-60.5 -23zM508 617q-38 0 -59 25t-16 63q5 34 32 56.5t61 22.5q36 0 57.5 -25t16.5 -61t-31.5 -58.5t-60.5 -22.5zM521 477l10 68h134l-82 -545h-133l9 65
q-79 -78 -184 -78q-121 0 -185 87q-63 89 -44 212q18 122 104 197q85 76 202 76q106 0 169 -82zM316 115q67 0 116 46t58 113q9 64 -27 110t-102 46q-63 0 -111 -42q-46 -40 -60 -103q-13 -67 22 -119q34 -51 104 -51z" />
    <glyph glyph-name="aring" unicode="&#xe5;" horiz-adv-x="678" 
d="M397 607q-57 0 -90 37t-25 92q8 52 51 90q43 37 99 37t89 -38q34 -37 26 -92q-7 -52 -52 -90q-43 -36 -98 -36zM362 735q-4 -22 9 -37t34 -15q22 0 40 15.5t21 39.5q4 20 -9 34.5t-34 14.5q-23 0 -40.5 -15t-20.5 -37zM521 477l10 68h134l-82 -545h-133l9 65
q-79 -78 -184 -78q-121 0 -185 87q-63 89 -44 212q18 122 104 197q85 76 202 76q106 0 169 -82zM316 115q67 0 116 46t58 113q9 64 -27 110t-102 46q-63 0 -111 -42q-46 -40 -60 -103q-13 -67 22 -119q34 -51 104 -51z" />
    <glyph glyph-name="ae" unicode="&#xe6;" horiz-adv-x="978" 
d="M731 559q114 0 179 -71q65 -72 46 -199q-5 -35 -14 -61l-401 3q2 -58 36 -92t95 -34q89 0 177 58l50 -99q-109 -76 -245 -76q-153 0 -215 110q-87 -110 -233 -110q-100 0 -148 52t-36 129q22 162 305 162h91q-3 111 -123 111q-88 0 -170 -49l-40 101q47 31 110 47
q65 18 119 18q137 0 192 -94q91 94 225 94zM723 443q-53 0 -97 -30t-67 -82l276 1q1 52 -29.5 81.5t-82.5 29.5zM226 105q58 0 105 33t70 94l-106 1q-135 0 -143 -66q-3 -28 17.5 -45t56.5 -17z" />
    <glyph glyph-name="ccedilla" unicode="&#xe7;" horiz-adv-x="603" 
d="M311 117q45 0 87 22.5t68 61.5l104 -73q-39 -60 -102 -96t-139 -43l-21 -37q45 -2 72.5 -31t20.5 -73q-7 -49 -51.5 -82.5t-112.5 -33.5q-58 0 -117 32l36 80q38 -21 81 -21q54 0 59 39q2 16 -10 24.5t-39 8.5h-55l-4 27l40 73q-96 22 -146 99q-49 77 -35 185
q16 127 104 203q89 77 212 77q87 0 150.5 -39.5t92.5 -114.5l-119 -59q-37 82 -126 82q-66 0 -116 -44t-59 -114q-8 -65 27 -109t98 -44z" />
    <glyph glyph-name="egrave" unicode="&#xe8;" horiz-adv-x="626" 
d="M412 801l35 -176h-122l-68 176h155zM366 559q121 0 188 -76q68 -77 49 -205q-4 -27 -13 -55h-410q4 -55 38.5 -85.5t98.5 -30.5q44 0 95 16t90 41l48 -102q-110 -74 -245 -74q-145 0 -210 86t-48 208q16 123 105 200t214 77zM360 442q-55 0 -98.5 -30t-65.5 -84h278
q0 53 -30.5 83.5t-83.5 30.5z" />
    <glyph glyph-name="eacute" unicode="&#xe9;" horiz-adv-x="626" 
d="M402 802h160l-120 -176h-128zM366 559q121 0 188 -76q68 -77 49 -205q-4 -27 -13 -55h-410q4 -55 38.5 -85.5t98.5 -30.5q44 0 95 16t90 41l48 -102q-110 -74 -245 -74q-145 0 -210 86t-48 208q16 123 105 200t214 77zM360 442q-55 0 -98.5 -30t-65.5 -84h278
q0 53 -30.5 83.5t-83.5 30.5z" />
    <glyph glyph-name="ecircumflex" unicode="&#xea;" horiz-adv-x="626" 
d="M448 629l-51 86l-79 -86h-137l174 176h105l122 -176h-134zM366 559q121 0 188 -76q68 -77 49 -205q-4 -27 -13 -55h-410q4 -55 38.5 -85.5t98.5 -30.5q44 0 95 16t90 41l48 -102q-110 -74 -245 -74q-145 0 -210 86t-48 208q16 123 105 200t214 77zM360 442
q-55 0 -98.5 -30t-65.5 -84h278q0 53 -30.5 83.5t-83.5 30.5z" />
    <glyph glyph-name="edieresis" unicode="&#xeb;" horiz-adv-x="626" 
d="M280 613q-38 0 -59.5 25t-15.5 63q5 34 32 56.5t61 22.5q36 0 57.5 -25t16.5 -61q-5 -35 -31.5 -58t-60.5 -23zM497 613q-38 0 -59 25t-16 63q5 34 32 56.5t61 22.5q36 0 57.5 -25t16.5 -61t-31.5 -58.5t-60.5 -22.5zM366 559q121 0 188 -76q68 -77 49 -205
q-4 -27 -13 -55h-410q4 -55 38.5 -85.5t98.5 -30.5q44 0 95 16t90 41l48 -102q-110 -74 -245 -74q-145 0 -210 86t-48 208q16 123 105 200t214 77zM360 442q-55 0 -98.5 -30t-65.5 -84h278q0 53 -30.5 83.5t-83.5 30.5z" />
    <glyph glyph-name="igrave" unicode="&#xec;" horiz-adv-x="271" 
d="M224 801l35 -176h-122l-68 176h155zM257 545l-81 -545h-141l81 545h141z" />
    <glyph glyph-name="iacute" unicode="&#xed;" horiz-adv-x="267" 
d="M261 626h-128l88 176h160zM255 545l-81 -545h-141l81 545h141z" />
    <glyph glyph-name="icircumflex" unicode="&#xee;" horiz-adv-x="269" 
d="M133 626h-137l174 176h105l122 -176h-134l-51 86zM257 545l-81 -545h-141l81 545h141z" />
    <glyph glyph-name="idieresis" unicode="&#xef;" horiz-adv-x="269" 
d="M94 615q-38 0 -59.5 25t-15.5 63q5 34 32 56.5t61 22.5q36 0 57.5 -25t16.5 -61q-5 -35 -31.5 -58t-60.5 -23zM311 615q-38 0 -59 25t-16 63q5 34 32 56.5t61 22.5q36 0 57.5 -25t16.5 -61t-31.5 -58.5t-60.5 -22.5zM257 545l-81 -545h-141l81 545h141z" />
    <glyph glyph-name="eth" unicode="&#xf0;" horiz-adv-x="655" 
d="M639 748l-87 -57q108 -168 84 -349q-20 -154 -120 -254q-99 -101 -233 -101q-119 0 -187 78q-66 77 -52 192q13 114 97 182q84 69 189 69q58 0 104 -26.5t68 -73.5q-6 110 -67 207l-95 -62l-45 67l91 59q-36 42 -88 87l108 90q57 -49 98 -100l93 61zM463 259q8 58 -26 96
q-34 39 -91 39q-61 0 -108 -41q-46 -40 -53 -104q-7 -56 26 -96q33 -39 90 -39q61 0 107 42q48 43 55 103z" />
    <glyph glyph-name="ntilde" unicode="&#xf1;" horiz-adv-x="643" 
d="M267 617l-86 52q65 111 153 111q38 0 76 -22q39 -21 52 -21q38 0 73 51l86 -50q-59 -111 -146 -111q-34 0 -74 22q-41 23 -56 23q-42 0 -78 -55zM174 0h-141l81 545h138l-11 -76q28 41 77 66t106 25q91 0 143 -61q53 -62 35 -179l-47 -320h-141l44 298q10 63 -15 97.5
t-77 34.5q-58 0 -99.5 -42t-52.5 -114z" />
    <glyph glyph-name="ograve" unicode="&#xf2;" horiz-adv-x="654" 
d="M418 801l35 -176h-122l-68 176h155zM296 -14q-130 0 -201 86q-70 86 -50 210q19 121 111 199q92 79 216 79q131 0 202 -89q70 -88 46 -217q-22 -118 -114 -193t-210 -75zM307 117q63 0 114 45q51 46 61 110q11 65 -25 111t-99 46q-62 0 -112 -44q-51 -45 -61 -107
q-12 -67 23 -114t99 -47z" />
    <glyph glyph-name="oacute" unicode="&#xf3;" horiz-adv-x="654" 
d="M447 626h-128l88 176h160zM296 -14q-130 0 -201 86q-70 86 -50 210q19 121 111 199q92 79 216 79q131 0 202 -89q70 -88 46 -217q-22 -118 -114 -193t-210 -75zM307 117q63 0 114 45q51 46 61 110q11 65 -25 111t-99 46q-62 0 -112 -44q-51 -45 -61 -107q-12 -67 23 -114
t99 -47z" />
    <glyph glyph-name="ocircumflex" unicode="&#xf4;" horiz-adv-x="654" 
d="M323 628h-137l174 176h105l122 -176h-134l-51 86zM296 -14q-130 0 -201 86q-70 86 -50 210q19 121 111 199q92 79 216 79q131 0 202 -89q70 -88 46 -217q-22 -118 -114 -193t-210 -75zM307 117q63 0 114 45q51 46 61 110q11 65 -25 111t-99 46q-62 0 -112 -44
q-51 -45 -61 -107q-12 -67 23 -114t99 -47z" />
    <glyph glyph-name="otilde" unicode="&#xf5;" horiz-adv-x="654" 
d="M269 618l-86 52q65 111 153 111q38 0 76 -22q39 -21 52 -21q38 0 73 51l86 -50q-59 -111 -146 -111q-34 0 -74 22q-41 23 -56 23q-42 0 -78 -55zM296 -14q-130 0 -201 86q-70 86 -50 210q19 121 111 199q92 79 216 79q131 0 202 -89q70 -88 46 -217q-22 -118 -114 -193
t-210 -75zM307 117q63 0 114 45q51 46 61 110q11 65 -25 111t-99 46q-62 0 -112 -44q-51 -45 -61 -107q-12 -67 23 -114t99 -47z" />
    <glyph glyph-name="odieresis" unicode="&#xf6;" horiz-adv-x="654" 
d="M296 616q-38 0 -59.5 25t-15.5 63q5 34 32 56.5t61 22.5q36 0 57.5 -25t16.5 -61q-5 -35 -31.5 -58t-60.5 -23zM513 616q-38 0 -59 25t-16 63q5 34 32 56.5t61 22.5q36 0 57.5 -25t16.5 -61t-31.5 -58.5t-60.5 -22.5zM296 -14q-130 0 -201 86q-70 86 -50 210
q19 121 111 199q92 79 216 79q131 0 202 -89q70 -88 46 -217q-22 -118 -114 -193t-210 -75zM307 117q63 0 114 45q51 46 61 110q11 65 -25 111t-99 46q-62 0 -112 -44q-51 -45 -61 -107q-12 -67 23 -114t99 -47z" />
    <glyph glyph-name="divide" unicode="&#xf7;" horiz-adv-x="553" 
d="M319 452q-36 0 -57 24t-16 60q4 29 28 48.5t54 19.5q34 0 54.5 -24t15.5 -58q-4 -29 -27.5 -49.5t-51.5 -20.5zM521 283h-468l18 119h468zM264 81q-36 0 -57 24t-15 60q4 29 27 48.5t54 19.5q34 0 54.5 -24.5t15.5 -58.5q-4 -29 -27.5 -49t-51.5 -20z" />
    <glyph glyph-name="oslash" unicode="&#xf8;" horiz-adv-x="654" 
d="M568 605l61 -43l-66 -78q82 -91 57 -230q-22 -118 -114 -193t-210 -75q-72 0 -127 28l-66 -79l-58 44l65 77q-87 87 -65 226q19 121 111 199q92 79 216 79q77 0 132 -31zM185 278q-12 -63 19 -109l208 249q-27 11 -54 11q-62 0 -112 -44q-51 -45 -61 -107zM482 272
q9 54 -15 96l-205 -244q22 -7 45 -7q63 0 114 45q51 46 61 110z" />
    <glyph glyph-name="ugrave" unicode="&#xf9;" horiz-adv-x="614" 
d="M400 802l35 -176h-122l-68 176h155zM275 -13q-117 0 -174 67.5t-39 190.5l45 300h141l-47 -311q-8 -54 16 -86t72 -32q54 0 88 34t44 97l45 298h141l-45 -300q-20 -128 -94 -193t-193 -65z" />
    <glyph glyph-name="uacute" unicode="&#xfa;" horiz-adv-x="614" 
d="M431 626h-128l88 176h160zM275 -13q-117 0 -174 67.5t-39 190.5l45 300h141l-47 -311q-8 -54 16 -86t72 -32q54 0 88 34t44 97l45 298h141l-45 -300q-20 -128 -94 -193t-193 -65z" />
    <glyph glyph-name="ucircumflex" unicode="&#xfb;" horiz-adv-x="614" 
d="M304 628h-137l174 176h105l122 -176h-134l-51 86zM275 -13q-117 0 -174 67.5t-39 190.5l45 300h141l-47 -311q-8 -54 16 -86t72 -32q54 0 88 34t44 97l45 298h141l-45 -300q-20 -128 -94 -193t-193 -65z" />
    <glyph glyph-name="udieresis" unicode="&#xfc;" horiz-adv-x="614" 
d="M265 615q-38 0 -59.5 25t-15.5 63q5 34 32 56.5t61 22.5q36 0 57.5 -25t16.5 -61q-5 -35 -31.5 -58t-60.5 -23zM482 615q-38 0 -59 25t-16 63q5 34 32 56.5t61 22.5q36 0 57.5 -25t16.5 -61t-31.5 -58.5t-60.5 -22.5zM275 -13q-117 0 -174 67.5t-39 190.5l45 300h141
l-47 -311q-8 -54 16 -86t72 -32q54 0 88 34t44 97l45 298h141l-45 -300q-20 -128 -94 -193t-193 -65z" />
    <glyph glyph-name="yacute" unicode="&#xfd;" horiz-adv-x="599" 
d="M384 801h160l-120 -176h-128zM308 190l178 355h155l-297 -559q-61 -114 -124 -166t-141 -52q-64 0 -110 31l41 114q32 -17 66 -17q38 0 66.5 21t56.5 67l16 26l-156 535h161z" />
    <glyph glyph-name="thorn" unicode="&#xfe;" horiz-adv-x="677" 
d="M415 559q115 0 183 -84q69 -83 53 -206q-15 -124 -97 -203q-80 -79 -200 -79q-110 0 -171 90l-43 -301h-141l147 984h140l-40 -271q73 70 169 70zM378 429q-67 0 -114 -44q-46 -43 -54 -108q-11 -68 26 -115q37 -46 103 -46q65 0 112 44q47 45 56 110t-26 112t-103 47z
" />
    <glyph glyph-name="ydieresis" unicode="&#xff;" horiz-adv-x="599" 
d="M264 616q-38 0 -59.5 25t-15.5 63q5 34 32 56.5t61 22.5q36 0 57.5 -25t16.5 -61q-5 -35 -31.5 -58t-60.5 -23zM481 616q-38 0 -59 25t-16 63q5 34 32 56.5t61 22.5q36 0 57.5 -25t16.5 -61t-31.5 -58.5t-60.5 -22.5zM308 190l178 355h155l-297 -559q-61 -114 -124 -166
t-141 -52q-64 0 -110 31l41 114q32 -17 66 -17q38 0 66.5 21t56.5 67l16 26l-156 535h161z" />
    <glyph glyph-name="Amacron" unicode="&#x100;" 
d="M280 932h368l-22 -122l-367 -2zM656 0h-155l-31 160h-257l-81 -160h-157l392 739h121zM448 292l-49 246l-124 -246h173z" />
    <glyph glyph-name="amacron" unicode="&#x101;" horiz-adv-x="678" 
d="M257 759h327l-19 -122l-327 -2zM521 477l10 68h134l-82 -545h-133l9 65q-79 -78 -184 -78q-121 0 -185 87q-63 89 -44 212q18 122 104 197q85 76 202 76q106 0 169 -82zM316 115q67 0 116 46t58 113q9 64 -27 110t-102 46q-63 0 -111 -42q-46 -40 -60 -103
q-13 -67 22 -119q34 -51 104 -51z" />
    <glyph glyph-name="Abreve" unicode="&#x102;" 
d="M437 783q-87 0 -134 50.5t-37 137.5h114q-6 -42 9.5 -66t51.5 -24q39 0 66.5 25t34.5 65h116q-18 -89 -76.5 -138.5t-144.5 -49.5zM-25 0l392 739h121l168 -739h-155l-31 160h-257l-81 -160h-157zM448 292l-49 246l-124 -246h173z" />
    <glyph glyph-name="abreve" unicode="&#x103;" horiz-adv-x="678" 
d="M405 619q-84 0 -129 49t-36 132h110q-6 -40 9 -63t50 -23q37 0 63.5 24t33.5 62h112q-17 -86 -73.5 -133.5t-139.5 -47.5zM521 477l10 68h134l-82 -545h-133l9 65q-79 -78 -184 -78q-121 0 -185 87q-63 89 -44 212q18 122 104 197q85 76 202 76q106 0 169 -82zM316 115
q67 0 116 46t58 113q9 64 -27 110t-102 46q-63 0 -111 -42q-46 -40 -60 -103q-13 -67 22 -119q34 -51 104 -51z" />
    <glyph glyph-name="Aogonek" unicode="&#x104;" horiz-adv-x="693" 
d="M617 -143l19 -92q-56 -29 -108 -29q-58 0 -87.5 33t-21.5 85q14 84 119 146h-37l-31 160h-257l-81 -160h-157l392 739h121l168 -739q-45 -19 -79 -52.5t-38 -63.5q-3 -29 18 -37.5t60 10.5zM448 292l-49 246l-124 -246h173z" />
    <glyph glyph-name="aogonek" unicode="&#x105;" horiz-adv-x="672" 
d="M665 545l-82 -545q-45 -19 -79 -52.5t-38 -63.5q-3 -29 18 -37.5t60 10.5l19 -92q-56 -29 -108 -29q-58 0 -87.5 33t-21.5 85q14 84 119 146h-15l9 65q-79 -78 -184 -78q-121 0 -185 87q-63 89 -44 212q18 122 104 197q85 76 202 76q106 0 169 -82l10 68h134zM316 115
q67 0 116 46t58 113q9 64 -27 110t-102 46q-63 0 -111 -42q-46 -40 -60 -103q-13 -67 22 -119q34 -51 104 -51z" />
    <glyph glyph-name="Cacute" unicode="&#x106;" horiz-adv-x="765" 
d="M579 794h-133l91 183h166zM397 -11q-164 0 -262 107q-97 107 -74 280q23 170 146 273q124 103 287 103q99 0 176.5 -41.5t124.5 -114.5l-111 -94q-70 108 -198 108q-102 0 -179 -66q-77 -64 -90 -171q-15 -105 42 -172q58 -67 159 -67q126 0 233 111l91 -100
q-65 -72 -155.5 -114t-189.5 -42z" />
    <glyph glyph-name="cacute" unicode="&#x107;" horiz-adv-x="603" 
d="M444 626h-128l88 176h160zM298 -12q-129 0 -199 82q-69 82 -52 209q16 127 104 203q89 77 212 77q87 0 150.5 -39.5t92.5 -114.5l-119 -59q-37 82 -126 82q-66 0 -116 -44t-59 -114q-8 -65 27 -109t98 -44q45 0 87 22.5t68 61.5l104 -73q-42 -67 -114.5 -103.5
t-157.5 -36.5z" />
    <glyph glyph-name="Ccircumflex" unicode="&#x108;" horiz-adv-x="765" 
d="M433 794h-143l181 183h109l127 -183h-139l-53 89zM397 -11q-164 0 -262 107q-97 107 -74 280q23 170 146 273q124 103 287 103q99 0 176.5 -41.5t124.5 -114.5l-111 -94q-70 108 -198 108q-102 0 -179 -66q-77 -64 -90 -171q-15 -105 42 -172q58 -67 159 -67
q126 0 233 111l91 -100q-65 -72 -155.5 -114t-189.5 -42z" />
    <glyph glyph-name="ccircumflex" unicode="&#x109;" horiz-adv-x="603" 
d="M315 627h-137l174 176h105l122 -176h-134l-51 86zM298 -12q-129 0 -199 82q-69 82 -52 209q16 127 104 203q89 77 212 77q87 0 150.5 -39.5t92.5 -114.5l-119 -59q-37 82 -126 82q-66 0 -116 -44t-59 -114q-8 -65 27 -109t98 -44q45 0 87 22.5t68 61.5l104 -73
q-42 -67 -114.5 -103.5t-157.5 -36.5z" />
    <glyph glyph-name="Cdotaccent" unicode="&#x10a;" horiz-adv-x="765" 
d="M493 795q-40 0 -62.5 26t-16.5 65q5 35 32.5 58.5t62.5 23.5q39 0 61.5 -26t16.5 -65q-5 -35 -32 -58.5t-62 -23.5zM397 -11q-164 0 -262 107q-97 107 -74 280q23 170 146 273q124 103 287 103q99 0 176.5 -41.5t124.5 -114.5l-111 -94q-70 108 -198 108q-102 0 -179 -66
q-77 -64 -90 -171q-15 -105 42 -172q58 -67 159 -67q126 0 233 111l91 -100q-65 -72 -155.5 -114t-189.5 -42z" />
    <glyph glyph-name="cdotaccent" unicode="&#x10b;" horiz-adv-x="603" 
d="M388 608q-40 0 -62.5 26t-16.5 65q5 35 32.5 58.5t62.5 23.5q39 0 61.5 -26t16.5 -65q-5 -35 -32 -58.5t-62 -23.5zM298 -12q-129 0 -199 82q-69 82 -52 209q16 127 104 203q89 77 212 77q87 0 150.5 -39.5t92.5 -114.5l-119 -59q-37 82 -126 82q-66 0 -116 -44t-59 -114
q-8 -65 27 -109t98 -44q45 0 87 22.5t68 61.5l104 -73q-42 -67 -114.5 -103.5t-157.5 -36.5z" />
    <glyph glyph-name="Ccaron" unicode="&#x10c;" horiz-adv-x="765" 
d="M448 794l-118 176h137l52 -86l78 86h134l-178 -176h-105zM397 -11q-164 0 -262 107q-97 107 -74 280q23 170 146 273q124 103 287 103q99 0 176.5 -41.5t124.5 -114.5l-111 -94q-70 108 -198 108q-102 0 -179 -66q-77 -64 -90 -171q-15 -105 42 -172q58 -67 159 -67
q126 0 233 111l91 -100q-65 -72 -155.5 -114t-189.5 -42z" />
    <glyph glyph-name="ccaron" unicode="&#x10d;" horiz-adv-x="603" 
d="M330 626l-118 176h137l52 -86l78 86h134l-178 -176h-105zM298 -12q-129 0 -199 82q-69 82 -52 209q16 127 104 203q89 77 212 77q87 0 150.5 -39.5t92.5 -114.5l-119 -59q-37 82 -126 82q-66 0 -116 -44t-59 -114q-8 -65 27 -109t98 -44q45 0 87 22.5t68 61.5l104 -73
q-42 -67 -114.5 -103.5t-157.5 -36.5z" />
    <glyph glyph-name="Dcaron" unicode="&#x10e;" horiz-adv-x="770" 
d="M377 794l-118 176h137l52 -86l78 86h134l-178 -176h-105zM346 0h-295l110 739h271q173 0 257 -101q84 -100 61 -275q-22 -169 -129 -267q-107 -96 -275 -96zM288 597l-68 -455h130q105 0 170 66q64 66 78 168q13 97 -29 159q-41 62 -137 62h-144z" />
    <glyph glyph-name="dcaron" unicode="&#x10f;" horiz-adv-x="706" 
d="M723 625l66 179h151l-94 -179h-123zM517 480l42 280h141l-114 -760h-137l8 58q-79 -71 -178 -71q-121 0 -187 88q-65 89 -47 211q18 123 103 197q85 76 200 76q108 0 169 -79zM317 115q68 0 115 46q49 46 57 112q8 64 -28 110q-35 47 -103 47q-64 0 -110 -42
q-47 -41 -58 -103q-12 -68 23 -120q35 -50 104 -50z" />
    <glyph glyph-name="Dcroat" unicode="&#x110;" horiz-adv-x="786" 
d="M177 739h271q173 0 257 -101q84 -100 61 -275q-22 -169 -129 -267q-107 -96 -275 -96h-295l46 310h-81l18 120h81zM614 376q13 97 -29 159q-41 62 -137 62h-144l-25 -167h191l-17 -120h-192l-25 -168h130q106 0 170 66t78 168z" />
    <glyph glyph-name="dslash" unicode="&#x111;" horiz-adv-x="676" 
d="M688 681h77l-14 -88h-76l-89 -593h-137l8 58q-79 -71 -178 -71q-121 0 -187 88q-65 89 -47 211q18 123 103 197q85 76 200 76q108 0 169 -79l17 113h-140l13 88h140l12 79h141zM317 115q68 0 115 46q49 46 57 112q8 64 -28 110q-35 47 -103 47q-64 0 -110 -42
q-47 -41 -58 -103q-12 -68 23 -120q35 -50 104 -50z" />
    <glyph glyph-name="Emacron" unicode="&#x112;" horiz-adv-x="637" 
d="M610 808l-367 -2l21 124h368zM552 0h-501l110 739h501l-21 -138h-352l-24 -159h326l-20 -138h-326l-25 -166h352z" />
    <glyph glyph-name="emacron" unicode="&#x113;" horiz-adv-x="626" 
d="M236 760h327l-19 -122l-327 -2zM366 559q121 0 188 -76q68 -77 49 -205q-4 -27 -13 -55h-410q4 -55 38.5 -85.5t98.5 -30.5q44 0 95 16t90 41l48 -102q-110 -74 -245 -74q-145 0 -210 86t-48 208q16 123 105 200t214 77zM360 442q-55 0 -98.5 -30t-65.5 -84h278
q0 53 -30.5 83.5t-83.5 30.5z" />
    <glyph glyph-name="Ebreve" unicode="&#x114;" horiz-adv-x="637" 
d="M424 783q-87 0 -134 50.5t-37 137.5h114q-6 -42 9.5 -66t51.5 -24q39 0 66.5 25t34.5 65h116q-18 -89 -76.5 -138.5t-144.5 -49.5zM552 0h-501l110 739h501l-21 -138h-352l-24 -159h326l-20 -138h-326l-25 -166h352z" />
    <glyph glyph-name="ebreve" unicode="&#x115;" horiz-adv-x="626" 
d="M392 617q-84 0 -129 49t-36 132h110q-6 -40 9 -63t50 -23q37 0 63.5 24t33.5 62h112q-17 -86 -73.5 -133.5t-139.5 -47.5zM366 559q121 0 188 -76q68 -77 49 -205q-4 -27 -13 -55h-410q4 -55 38.5 -85.5t98.5 -30.5q44 0 95 16t90 41l48 -102q-110 -74 -245 -74
q-145 0 -210 86t-48 208q16 123 105 200t214 77zM360 442q-55 0 -98.5 -30t-65.5 -84h278q0 53 -30.5 83.5t-83.5 30.5z" />
    <glyph glyph-name="Edotaccent" unicode="&#x116;" horiz-adv-x="637" 
d="M418 795q-40 0 -62.5 26t-16.5 65q5 35 32.5 58.5t62.5 23.5q39 0 61.5 -26t16.5 -65q-5 -35 -32 -58.5t-62 -23.5zM552 0h-501l110 739h501l-21 -138h-352l-24 -159h326l-20 -138h-326l-25 -166h352z" />
    <glyph glyph-name="edotaccent" unicode="&#x117;" horiz-adv-x="626" 
d="M383 610q-40 0 -62.5 26t-16.5 65q5 35 32.5 58.5t62.5 23.5q39 0 61.5 -26t16.5 -65q-5 -35 -32 -58.5t-62 -23.5zM366 559q121 0 188 -76q68 -77 49 -205q-4 -27 -13 -55h-410q4 -55 38.5 -85.5t98.5 -30.5q44 0 95 16t90 41l48 -102q-110 -74 -245 -74q-145 0 -210 86
t-48 208q16 123 105 200t214 77zM360 442q-55 0 -98.5 -30t-65.5 -84h278q0 53 -30.5 83.5t-83.5 30.5z" />
    <glyph glyph-name="Eogonek" unicode="&#x118;" horiz-adv-x="632" 
d="M662 739l-21 -138h-352l-24 -159h326l-20 -138h-326l-25 -166h352l-20 -138q-45 -19 -79 -52.5t-38 -63.5q-3 -29 18 -37.5t60 10.5l19 -92q-56 -29 -108 -29q-58 0 -87.5 33t-21.5 85q14 84 119 146h-383l110 739h501z" />
    <glyph glyph-name="eogonek" unicode="&#x119;" horiz-adv-x="626" 
d="M366 559q121 0 188 -76q68 -77 49 -205q-4 -27 -13 -55h-410q4 -55 38.5 -85.5t98.5 -30.5q44 0 95 16t90 41l48 -102q-64 -42 -141 -61q-43 -21 -73.5 -52t-34.5 -60q-3 -29 18 -37.5t60 10.5l19 -92q-56 -29 -108 -29q-58 0 -87.5 33t-21.5 85q10 72 94 130
q-130 10 -187 94q-57 85 -41 199q16 123 105 200t214 77zM360 442q-55 0 -98.5 -30t-65.5 -84h278q0 53 -30.5 83.5t-83.5 30.5z" />
    <glyph glyph-name="Ecaron" unicode="&#x11a;" horiz-adv-x="637" 
d="M364 794l-118 176h137l52 -86l78 86h134l-178 -176h-105zM552 0h-501l110 739h501l-21 -138h-352l-24 -159h326l-20 -138h-326l-25 -166h352z" />
    <glyph glyph-name="ecaron" unicode="&#x11b;" horiz-adv-x="626" 
d="M610 801l-178 -176h-105l-118 176h137l52 -86l78 86h134zM366 559q121 0 188 -76q68 -77 49 -205q-4 -27 -13 -55h-410q4 -55 38.5 -85.5t98.5 -30.5q44 0 95 16t90 41l48 -102q-110 -74 -245 -74q-145 0 -210 86t-48 208q16 123 105 200t214 77zM360 442
q-55 0 -98.5 -30t-65.5 -84h278q0 53 -30.5 83.5t-83.5 30.5z" />
    <glyph glyph-name="Gcircumflex" unicode="&#x11c;" horiz-adv-x="810" 
d="M453 797h-143l181 183h109l127 -183h-139l-53 89zM399 -11q-168 0 -264 112q-95 114 -70 282q24 168 148 268q125 101 290 101q90 0 164.5 -33t121.5 -89l-106 -101q-67 81 -188 81q-107 0 -186 -67q-79 -66 -94 -174q-15 -98 41 -169q56 -69 159 -69q125 0 211 83l15 96
h-204l20 129h339l-43 -305q-157 -145 -354 -145z" />
    <glyph glyph-name="gcircumflex" unicode="&#x11d;" horiz-adv-x="675" 
d="M457 626l-51 86l-79 -86h-137l174 176h105l122 -176h-134zM518 479l10 66h130l-74 -493q-19 -133 -111 -208q-90 -75 -222 -75q-142 0 -244 81l65 104q80 -64 180 -64q80 0 132 43q53 44 63 110l3 25q-69 -69 -172 -69q-122 0 -186 81q-64 82 -48 205q18 123 105 198
q86 76 203 76q109 0 166 -80zM308 122q66 0 115 45q50 44 61 113q10 63 -26 107q-34 43 -98 43q-68 0 -117 -43t-58 -114q-8 -66 26 -108q34 -43 97 -43z" />
    <glyph glyph-name="Gbreve" unicode="&#x11e;" horiz-adv-x="810" 
d="M518 786q-87 0 -134 50.5t-37 137.5h114q-6 -42 9.5 -66t51.5 -24q39 0 66.5 25t34.5 65h116q-18 -89 -76.5 -138.5t-144.5 -49.5zM399 -11q-168 0 -264 112q-95 114 -70 282q24 168 148 268q125 101 290 101q90 0 164.5 -33t121.5 -89l-106 -101q-67 81 -188 81
q-107 0 -186 -67q-79 -66 -94 -174q-15 -98 41 -169q56 -69 159 -69q125 0 211 83l15 96h-204l20 129h339l-43 -305q-157 -145 -354 -145z" />
    <glyph glyph-name="gbreve" unicode="&#x11f;" horiz-adv-x="675" 
d="M396 619q-84 0 -129 49t-36 132h110q-6 -40 9 -63t50 -23q37 0 63.5 24t33.5 62h112q-17 -86 -73.5 -133.5t-139.5 -47.5zM518 479l10 66h130l-74 -493q-19 -133 -111 -208q-90 -75 -222 -75q-142 0 -244 81l65 104q80 -64 180 -64q80 0 132 43q53 44 63 110l3 25
q-69 -69 -172 -69q-122 0 -186 81q-64 82 -48 205q18 123 105 198q86 76 203 76q109 0 166 -80zM308 122q66 0 115 45q50 44 61 113q10 63 -26 107q-34 43 -98 43q-68 0 -117 -43t-58 -114q-8 -66 26 -108q34 -43 97 -43z" />
    <glyph glyph-name="Gdotaccent" unicode="&#x120;" horiz-adv-x="810" 
d="M504 793q-40 0 -62.5 26t-16.5 65q5 35 32.5 58.5t62.5 23.5q39 0 61.5 -26t16.5 -65q-5 -35 -32 -58.5t-62 -23.5zM399 -11q-168 0 -264 112q-95 114 -70 282q24 168 148 268q125 101 290 101q90 0 164.5 -33t121.5 -89l-106 -101q-67 81 -188 81q-107 0 -186 -67
q-79 -66 -94 -174q-15 -98 41 -169q56 -69 159 -69q125 0 211 83l15 96h-204l20 129h339l-43 -305q-157 -145 -354 -145z" />
    <glyph glyph-name="gdotaccent" unicode="&#x121;" horiz-adv-x="675" 
d="M387 609q-40 0 -62.5 26t-16.5 65q5 35 32.5 58.5t62.5 23.5q39 0 61.5 -26t16.5 -65q-5 -35 -32 -58.5t-62 -23.5zM518 479l10 66h130l-74 -493q-19 -133 -111 -208q-90 -75 -222 -75q-142 0 -244 81l65 104q80 -64 180 -64q80 0 132 43q53 44 63 110l3 25
q-69 -69 -172 -69q-122 0 -186 81q-64 82 -48 205q18 123 105 198q86 76 203 76q109 0 166 -80zM308 122q66 0 115 45q50 44 61 113q10 63 -26 107q-34 43 -98 43q-68 0 -117 -43t-58 -114q-8 -66 26 -108q34 -43 97 -43z" />
    <glyph glyph-name="Gcommaaccent" unicode="&#x122;" horiz-adv-x="810" 
d="M437 310l20 129h339l-43 -305q-157 -145 -354 -145q-168 0 -264 112q-95 114 -70 282q24 168 148 268q125 101 290 101q90 0 164.5 -33t121.5 -89l-106 -101q-67 81 -188 81q-107 0 -186 -67q-79 -66 -94 -174q-15 -98 41 -169q56 -69 159 -69q125 0 211 83l15 96h-204z
M376 -40q40 0 64.5 -29t17.5 -72q-7 -44 -48 -88t-122 -96l-47 67q64 43 92 68q-23 10 -35 32t-8 48q4 29 28.5 49.5t57.5 20.5z" />
    <glyph glyph-name="gcommaaccent" unicode="&#x123;" horiz-adv-x="675" 
d="M370 600q-40 0 -63.5 28.5t-16.5 70.5q7 43 46.5 85.5t119.5 94.5l46 -66q-60 -41 -89 -66q21 -9 33 -31t8 -47q-4 -29 -28 -49t-56 -20zM518 479l10 66h130l-74 -493q-19 -133 -111 -208q-90 -75 -222 -75q-142 0 -244 81l65 104q80 -64 180 -64q80 0 132 43
q53 44 63 110l3 25q-69 -69 -172 -69q-122 0 -186 81q-64 82 -48 205q18 123 105 198q86 76 203 76q109 0 166 -80zM308 122q66 0 115 45q50 44 61 113q10 63 -26 107q-34 43 -98 43q-68 0 -117 -43t-58 -114q-8 -66 26 -108q34 -43 97 -43z" />
    <glyph glyph-name="Hcircumflex" unicode="&#x124;" horiz-adv-x="770" 
d="M405 794h-143l181 183h109l127 -183h-139l-53 89zM199 0h-148l110 739h148l-44 -295h309l45 295h148l-110 -739h-148l44 301h-309z" />
    <glyph glyph-name="hcircumflex" unicode="&#x125;" horiz-adv-x="644" 
d="M150 799h-143l181 183h109l127 -183h-139l-53 89zM175 0h-141l113 760h138l-45 -291q27 40 77.5 65.5t107.5 25.5q91 0 143 -61q53 -62 35 -179l-47 -320h-141l44 298q10 63 -15 97.5t-77 34.5q-58 0 -99.5 -42t-52.5 -114z" />
    <glyph glyph-name="Hbar" unicode="&#x126;" horiz-adv-x="802" 
d="M763 638h85l-16 -102h-84l-80 -536h-148l44 301h-309l-45 -301h-148l80 536h-77l15 102h77l15 101h148l-15 -101h310l15 101h148zM276 444h309l14 92h-309z" />
    <glyph glyph-name="hbar" unicode="&#x127;" horiz-adv-x="644" 
d="M425 560q91 0 143 -61q53 -62 35 -179l-47 -320h-141l44 298q10 63 -15 97.5t-77 34.5q-58 0 -99.5 -42t-52.5 -114l-40 -274h-141l88 594h-59l13 88h59l12 78h138l-12 -78h161l-14 -88h-161l-19 -125q27 40 77.5 65.5t107.5 25.5z" />
    <glyph glyph-name="Itilde" unicode="&#x128;" horiz-adv-x="313" 
d="M116 796l-88 53q66 114 157 114q38 0 78 -22t53 -22q39 0 75 52l88 -51q-60 -114 -150 -114q-35 0 -76 23t-57 23q-42 0 -80 -56zM53 0l110 739h149l-110 -739h-149z" />
    <glyph glyph-name="itilde" unicode="&#x129;" horiz-adv-x="269" 
d="M77 617l-86 52q65 111 153 111q38 0 76 -22q39 -21 52 -21q38 0 73 51l86 -50q-59 -111 -146 -111q-34 0 -74 22q-41 23 -56 23q-42 0 -78 -55zM257 545l-81 -545h-141l81 545h141z" />
    <glyph glyph-name="Imacron" unicode="&#x12a;" horiz-adv-x="313" 
d="M433 819l-367 -2l21 124h368zM53 0l110 739h149l-110 -739h-149z" />
    <glyph glyph-name="imacron" unicode="&#x12b;" horiz-adv-x="269" 
d="M364 637l-327 -2l19 124h327zM257 545l-81 -545h-141l81 545h141z" />
    <glyph glyph-name="Ibreve" unicode="&#x12c;" horiz-adv-x="313" 
d="M253 787q-87 0 -134 50.5t-37 137.5h114q-6 -42 9.5 -66t51.5 -24q39 0 66.5 25t34.5 65h116q-18 -89 -76.5 -138.5t-144.5 -49.5zM53 0l110 739h149l-110 -739h-149z" />
    <glyph glyph-name="ibreve" unicode="&#x12d;" horiz-adv-x="269" 
d="M204 619q-84 0 -129 49t-36 132h110q-6 -40 9 -63t50 -23q37 0 63.5 24t33.5 62h112q-17 -86 -73.5 -133.5t-139.5 -47.5zM257 545l-81 -545h-141l81 545h141z" />
    <glyph glyph-name="Iogonek" unicode="&#x12e;" horiz-adv-x="313" 
d="M311 739l-110 -739q-45 -19 -79 -52.5t-38 -63.5q-3 -29 18 -37.5t60 10.5l19 -92q-56 -29 -108 -29q-58 0 -87.5 33t-21.5 85q14 84 119 146h-31l110 739h149z" />
    <glyph glyph-name="iogonek" unicode="&#x12f;" horiz-adv-x="269" 
d="M216 779q39 0 61.5 -26t16.5 -65q-5 -35 -32 -58.5t-62 -23.5q-40 0 -62.5 26t-16.5 65q5 35 32.5 58.5t62.5 23.5zM58 0h-23l81 545h141l-81 -545q-45 -19 -79 -52.5t-38 -63.5q-3 -29 18 -37.5t60 10.5l19 -92q-56 -29 -108 -29q-58 0 -87.5 33t-21.5 85q14 84 119 146
z" />
    <glyph glyph-name="Idot" unicode="&#x130;" horiz-adv-x="313" 
d="M251 792q-40 0 -62.5 26t-16.5 65q5 35 32.5 58.5t62.5 23.5q39 0 61.5 -26t16.5 -65q-5 -35 -32 -58.5t-62 -23.5zM51 0l110 739h149l-110 -739h-149z" />
    <glyph glyph-name="dotlessi" unicode="&#x131;" horiz-adv-x="269" 
d="M255 545l-81 -545h-141l81 545h141z" />
    <glyph glyph-name="IJ" unicode="&#x132;" horiz-adv-x="892" 
d="M51 0l110 739h149l-110 -739h-149zM527 -12q-142 0 -232 105l82 110q63 -72 147 -72q63 0 106.5 45.5t54.5 119.5l67 443h148l-67 -452q-21 -146 -103 -222.5t-203 -76.5z" />
    <glyph glyph-name="ij" unicode="&#x133;" horiz-adv-x="576" 
d="M201 606q-40 0 -62.5 26t-16.5 65q5 35 32.5 58.5t62.5 23.5q39 0 61.5 -26t16.5 -65q-5 -35 -32 -58.5t-62 -23.5zM471 606q-40 0 -62.5 26t-16.5 65q5 35 32.5 58.5t62.5 23.5q39 0 61.5 -26t16.5 -65q-5 -35 -32 -58.5t-62 -23.5zM257 545l-81 -545h-141l81 545h141z
M203 -232q-70 0 -122 31l40 112q35 -18 73 -18q95 0 116 138l77 514h141l-81 -538q-17 -120 -81 -179.5t-163 -59.5z" />
    <glyph glyph-name="Jcircumflex" unicode="&#x134;" horiz-adv-x="581" 
d="M451 794h-143l181 183h109l127 -183h-139l-53 89zM216 -12q-142 0 -232 105l82 110q63 -72 147 -72q63 0 106.5 45.5t54.5 119.5l67 443h148l-67 -452q-21 -146 -103 -222.5t-203 -76.5z" />
    <glyph glyph-name="jcircumflex" unicode="&#x135;" horiz-adv-x="293" 
d="M153 626h-137l174 176h105l122 -176h-134l-51 86zM-46 -232q-70 0 -122 31l40 112q34 -18 73 -18q95 0 116 138l77 514h141l-81 -538q-17 -120 -81 -179.5t-163 -59.5z" />
    <glyph glyph-name="Kcommaaccent" unicode="&#x136;" 
d="M588 739h180l-322 -336l231 -403h-181l-162 293l-108 -110l-27 -183h-148l110 739h148l-51 -343zM324 -33q40 0 64.5 -29t17.5 -72q-7 -44 -48 -88t-122 -96l-47 67q64 43 92 68q-23 10 -35 32t-8 48q4 29 28.5 49.5t57.5 20.5z" />
    <glyph glyph-name="kcommaaccent" unicode="&#x137;" horiz-adv-x="583" 
d="M454 545h177l-277 -223l209 -322h-172l-146 234l-41 -34l-30 -200h-141l113 760h141l-60 -400zM256 -16q40 0 63.5 -28.5t16.5 -70.5q-7 -43 -46.5 -85.5t-119.5 -94.5l-46 66q60 41 89 66q-21 9 -33 31t-8 47q4 29 28 49t56 20z" />
    <glyph glyph-name="kgreenlandic" unicode="&#x138;" horiz-adv-x="573" 
d="M455 545h170l-273 -231l197 -314h-166l-137 223l-49 -40l-27 -183h-137l81 545h138l-30 -200z" />
    <glyph glyph-name="Lacute" unicode="&#x139;" horiz-adv-x="620" 
d="M310 794h-133l91 183h166zM575 0h-524l110 739h149l-89 -597h375z" />
    <glyph glyph-name="lacute" unicode="&#x13a;" horiz-adv-x="266" 
d="M286 806h-133l91 183h166zM287 760l-113 -760h-141l113 760h141z" />
    <glyph glyph-name="Lcommaaccent" unicode="&#x13b;" horiz-adv-x="620" 
d="M310 739l-89 -597h375l-21 -142h-524l110 739h149zM300 -34q40 0 64.5 -29t17.5 -72q-7 -44 -48 -88t-122 -96l-47 67q64 43 92 68q-23 10 -35 32t-8 48q4 29 28.5 49.5t57.5 20.5z" />
    <glyph glyph-name="lcommaaccent" unicode="&#x13c;" horiz-adv-x="268" 
d="M35 0l113 760h141l-113 -760h-141zM86 -41q40 0 63.5 -28.5t16.5 -70.5q-7 -43 -46.5 -85.5t-119.5 -94.5l-46 66q60 41 89 66q-21 9 -33 31t-8 47q4 29 28 49t56 20z" />
    <glyph glyph-name="Lcaron" unicode="&#x13d;" horiz-adv-x="625" 
d="M589 624h-123l66 179h151zM575 0h-524l110 739h149l-89 -597h375z" />
    <glyph glyph-name="lcaron" unicode="&#x13e;" horiz-adv-x="296" 
d="M431 625h-123l66 179h151zM287 760l-113 -760h-141l113 760h141z" />
    <glyph glyph-name="Ldot" unicode="&#x13f;" horiz-adv-x="622" 
d="M575 0h-524l110 739h149l-89 -597h375zM435 332q-36 0 -56.5 23.5t-15.5 59.5q4 35 30 57t62 22t56.5 -24.5t14.5 -60.5q-6 -34 -32 -55.5t-59 -21.5z" />
    <glyph glyph-name="ldot" unicode="&#x140;" horiz-adv-x="412" 
d="M287 760l-113 -760h-141l113 760h141zM356 288q-36 0 -56.5 23.5t-15.5 59.5q4 35 30 57t62 22t56.5 -24.5t14.5 -60.5q-6 -34 -32 -55.5t-59 -21.5z" />
    <glyph glyph-name="Lslash" unicode="&#x141;" horiz-adv-x="633" 
d="M265 350l-31 -208h375l-21 -142h-524l38 256l-73 -42l17 133l76 44l52 348h149l-38 -254l117 67l-18 -134z" />
    <glyph glyph-name="lslash" unicode="&#x142;" horiz-adv-x="345" 
d="M287 505l76 50l-17 -136l-79 -52l-55 -367h-141l39 264l-67 -44l18 136l70 46l53 358h141z" />
    <glyph glyph-name="Nacute" unicode="&#x143;" horiz-adv-x="794" 
d="M541 794h-133l91 183h166zM576 282l69 457h146l-110 -739h-100l-316 453l-68 -453h-146l110 739h94z" />
    <glyph glyph-name="nacute" unicode="&#x144;" horiz-adv-x="643" 
d="M448 626h-128l88 176h160zM174 0h-141l81 545h138l-11 -76q28 41 77 66t106 25q91 0 143 -61q53 -62 35 -179l-47 -320h-141l44 298q10 63 -15 97.5t-77 34.5q-58 0 -99.5 -42t-52.5 -114z" />
    <glyph glyph-name="Ncommaaccent" unicode="&#x145;" horiz-adv-x="794" 
d="M576 282l69 457h146l-110 -739h-100l-316 453l-68 -453h-146l110 739h94zM357 -23q40 0 64.5 -29t17.5 -72q-7 -44 -48 -88t-122 -96l-47 67q64 43 92 68q-23 10 -35 32t-8 48q4 29 28.5 49.5t57.5 20.5z" />
    <glyph glyph-name="ncommaaccent" unicode="&#x146;" horiz-adv-x="643" 
d="M424 560q91 0 143 -61q53 -62 35 -179l-47 -320h-141l44 298q10 63 -15 97.5t-77 34.5q-58 0 -99.5 -42t-52.5 -114l-40 -274h-141l81 545h138l-11 -76q28 41 77 66t106 25zM279 -26q40 0 63.5 -28.5t16.5 -70.5q-7 -43 -46.5 -85.5t-119.5 -94.5l-46 66q60 41 89 66
q-21 9 -33 31t-8 47q4 29 28 49t56 20z" />
    <glyph glyph-name="Ncaron" unicode="&#x147;" horiz-adv-x="794" 
d="M429 794l-118 176h137l52 -86l78 86h134l-178 -176h-105zM576 282l69 457h146l-110 -739h-100l-316 453l-68 -453h-146l110 739h94z" />
    <glyph glyph-name="ncaron" unicode="&#x148;" horiz-adv-x="643" 
d="M332 624l-118 176h137l52 -86l78 86h134l-178 -176h-105zM174 0h-141l81 545h138l-11 -76q28 41 77 66t106 25q91 0 143 -61q53 -62 35 -179l-47 -320h-141l44 298q10 63 -15 97.5t-77 34.5q-58 0 -99.5 -42t-52.5 -114z" />
    <glyph glyph-name="napostrophe" unicode="&#x149;" horiz-adv-x="699" 
d="M159 624h-123l66 179h151zM229 0h-141l81 545h138l-11 -76q28 41 77 66t106 25q91 0 143 -61q53 -62 35 -179l-47 -320h-141l44 298q10 63 -15 97.5t-77 34.5q-58 0 -99.5 -42t-52.5 -114z" />
    <glyph glyph-name="Eng" unicode="&#x14a;" horiz-adv-x="794" 
d="M574 274l71 465h146l-100 -678l-4 -27q-21 -142 -105 -213q-82 -72 -198 -72q-84 0 -155 42l51 127q43 -28 105 -28q64 0 105.5 38t51.5 108l2 12l-278 406l-69 -454h-146l110 739h93z" />
    <glyph glyph-name="eng" unicode="&#x14b;" horiz-adv-x="642" 
d="M602 320l-46 -305q-41 -274 -305 -242l16 124q129 -10 148 120l43 281q10 63 -15 97.5t-77 34.5q-58 0 -99.5 -42t-52.5 -114l-40 -274h-141l81 545h138l-11 -76q28 41 77 66t106 25q91 0 143 -61q53 -62 35 -179z" />
    <glyph glyph-name="Omacron" unicode="&#x14c;" horiz-adv-x="848" 
d="M698 810l-367 -2l21 124h368zM395 -12q-166 0 -260 112t-71 275q22 163 149 270t289 107q166 0 261 -113q94 -112 70 -273q-24 -159 -150 -269q-125 -109 -288 -109zM408 134q97 0 176 67q80 67 96 171q17 101 -39 167q-55 67 -153 67t-178 -69q-78 -67 -93 -171
q-15 -101 40 -167q56 -65 151 -65z" />
    <glyph glyph-name="omacron" unicode="&#x14d;" horiz-adv-x="654" 
d="M558 637l-327 -2l19 124h327zM296 -14q-130 0 -201 86q-70 86 -50 210q19 121 111 199q92 79 216 79q131 0 202 -89q70 -88 46 -217q-22 -118 -114 -193t-210 -75zM307 117q63 0 114 45q51 46 61 110q11 65 -25 111t-99 46q-62 0 -112 -44q-51 -45 -61 -107
q-12 -67 23 -114t99 -47z" />
    <glyph glyph-name="Obreve" unicode="&#x14e;" horiz-adv-x="848" 
d="M529 783q-87 0 -134 50.5t-37 137.5h114q-6 -42 9.5 -66t51.5 -24q39 0 66.5 25t34.5 65h116q-18 -89 -76.5 -138.5t-144.5 -49.5zM395 -12q-166 0 -260 112t-71 275q22 163 149 270t289 107q166 0 261 -113q94 -112 70 -273q-24 -159 -150 -269q-125 -109 -288 -109z
M408 134q97 0 176 67q80 67 96 171q17 101 -39 167q-55 67 -153 67t-178 -69q-78 -67 -93 -171q-15 -101 40 -167q56 -65 151 -65z" />
    <glyph glyph-name="obreve" unicode="&#x14f;" horiz-adv-x="654" 
d="M394 619q-84 0 -129 49t-36 132h110q-6 -40 9 -63t50 -23q37 0 63.5 24t33.5 62h112q-17 -86 -73.5 -133.5t-139.5 -47.5zM296 -14q-130 0 -201 86q-70 86 -50 210q19 121 111 199q92 79 216 79q131 0 202 -89q70 -88 46 -217q-22 -118 -114 -193t-210 -75zM307 117
q63 0 114 45q51 46 61 110q11 65 -25 111t-99 46q-62 0 -112 -44q-51 -45 -61 -107q-12 -67 23 -114t99 -47z" />
    <glyph glyph-name="Ohungarumlaut" unicode="&#x150;" horiz-adv-x="848" 
d="M452 795h-124l71 183h160zM661 795h-127l86 183h164zM395 -12q-166 0 -260 112t-71 275q22 163 149 270t289 107q166 0 261 -113q94 -112 70 -273q-24 -159 -150 -269q-125 -109 -288 -109zM408 134q97 0 176 67q80 67 96 171q17 101 -39 167q-55 67 -153 67t-178 -69
q-78 -67 -93 -171q-15 -101 40 -167q56 -65 151 -65z" />
    <glyph glyph-name="ohungarumlaut" unicode="&#x151;" horiz-adv-x="654" 
d="M351 626h-119l68 176h154zM552 626h-122l83 176h158zM296 -14q-130 0 -201 86q-70 86 -50 210q19 121 111 199q92 79 216 79q131 0 202 -89q70 -88 46 -217q-22 -118 -114 -193t-210 -75zM307 117q63 0 114 45q51 46 61 110q11 65 -25 111t-99 46q-62 0 -112 -44
q-51 -45 -61 -107q-12 -67 23 -114t99 -47z" />
    <glyph glyph-name="OE" unicode="&#x152;" horiz-adv-x="1025" 
d="M1050 739l-21 -138h-352l-24 -159h326l-20 -138h-326l-25 -166h352l-20 -138h-493q-56 -2 -63 -2q-185 0 -266 106t-55 279q27 172 132.5 265t287.5 93q10 0 66 -2h501zM218 375q-10 -65 3 -116t59.5 -85.5t124.5 -34.5q29 0 54 3l35 228l34 227q-24 3 -56 3
q-107 0 -171.5 -60t-82.5 -165z" />
    <glyph glyph-name="oe" unicode="&#x153;" horiz-adv-x="1065" 
d="M805 559q121 0 188 -76t48 -205q-4 -31 -12 -55h-411q4 -55 38.5 -85.5t98.5 -30.5q44 0 95 16t90 41l48 -102q-109 -74 -245 -74q-147 0 -216 94q-95 -96 -231 -96q-130 0 -201 86q-70 86 -50 210q19 121 111 199q92 79 216 79q133 0 203 -93q90 92 230 92zM798 442
q-55 0 -98.5 -30t-65.5 -84h278q1 53 -30 83.5t-84 30.5zM307 117q63 0 114 45q51 46 61 110q11 65 -25 111t-99 46q-62 0 -112 -44q-51 -45 -61 -107q-12 -67 23 -114t99 -47z" />
    <glyph glyph-name="Racute" unicode="&#x154;" horiz-adv-x="675" 
d="M411 977h166l-124 -183h-133zM662 503q-10 -78 -56 -136t-125 -82l135 -285h-173l-117 269h-87l-40 -269h-148l110 739h274q125 0 182 -70t45 -166zM509 504q6 44 -16.5 71t-69.5 27h-134l-30 -200h108q128 0 142 102z" />
    <glyph glyph-name="racute" unicode="&#x155;" horiz-adv-x="432" 
d="M360 626h-128l88 176h160zM174 0h-141l81 545h135l-12 -71q62 86 161 86q36 0 78 -13l-37 -134q-35 11 -62 11q-64 0 -109 -43.5t-57 -128.5z" />
    <glyph glyph-name="Rcommaaccent" unicode="&#x156;" horiz-adv-x="675" 
d="M662 503q-10 -78 -56 -136t-125 -82l135 -285h-173l-117 269h-87l-40 -269h-148l110 739h274q125 0 182 -70t45 -166zM509 504q6 44 -16.5 71t-69.5 27h-134l-30 -200h108q128 0 142 102zM295 -26q40 0 64.5 -29t17.5 -72q-7 -44 -48 -88t-122 -96l-47 67q64 43 92 68
q-23 10 -35 32t-8 48q4 29 28.5 49.5t57.5 20.5z" />
    <glyph glyph-name="rcommaaccent" unicode="&#x157;" horiz-adv-x="433" 
d="M399 560q36 0 78 -13l-37 -134q-35 11 -62 11q-64 0 -109 -43.5t-57 -128.5l-37 -252h-141l81 545h135l-12 -71q62 86 161 86zM83 -35q40 0 63.5 -28.5t16.5 -70.5q-7 -43 -46.5 -85.5t-119.5 -94.5l-46 66q60 41 89 66q-21 9 -33 31t-8 47q4 29 28 49t56 20z" />
    <glyph glyph-name="Rcaron" unicode="&#x158;" horiz-adv-x="675" 
d="M630 970l-178 -176h-105l-118 176h137l52 -86l78 86h134zM662 503q-10 -78 -56 -136t-125 -82l135 -285h-173l-117 269h-87l-40 -269h-148l110 739h274q125 0 182 -70t45 -166zM509 504q6 44 -16.5 71t-69.5 27h-134l-30 -200h108q128 0 142 102z" />
    <glyph glyph-name="rcaron" unicode="&#x159;" horiz-adv-x="432" 
d="M247 625l-118 176h137l52 -86l78 86h134l-178 -176h-105zM175 0h-141l81 545h135l-12 -71q62 86 161 86q36 0 78 -13l-37 -134q-35 11 -62 11q-64 0 -109 -43.5t-57 -128.5z" />
    <glyph glyph-name="Sacute" unicode="&#x15a;" horiz-adv-x="598" 
d="M445 793h-133l91 183h166zM272 -13q-88 0 -155.5 39t-102.5 114l111 91q24 -49 65.5 -76t92.5 -27q45 0 76.5 22.5t36.5 56.5q6 45 -52 79q-28 15 -66 34q-52 27 -77 44q-105 70 -88 187q13 90 87 146q74 55 184 55q140 0 227 -101l-97 -104q-65 68 -143 68
q-42 0 -69.5 -19.5t-32.5 -52.5q-5 -45 61 -80l47 -25q78 -40 102 -57q99 -67 82 -184q-15 -99 -97 -154q-82 -56 -192 -56z" />
    <glyph glyph-name="sacute" unicode="&#x15b;" horiz-adv-x="490" 
d="M377 626h-128l88 176h160zM222 -13q-145 0 -217 107l83 86q50 -75 141 -75q33 0 57.5 14t28.5 37q4 30 -36 49q-14 7 -41 17q-66 29 -92 45q-78 54 -64 144q12 71 71 112t145 41q118 0 190 -81l-81 -87q-46 52 -117 52q-28 0 -47 -11t-23 -30q-7 -34 34 -54l48 -21
q38 -14 60 -27q47 -23 76 -61t16 -91q-12 -78 -77 -122t-155 -44z" />
    <glyph glyph-name="Scircumflex" unicode="&#x15c;" horiz-adv-x="598" 
d="M327 793h-143l181 183h109l127 -183h-139l-53 89zM272 -13q-88 0 -155.5 39t-102.5 114l111 91q24 -49 65.5 -76t92.5 -27q45 0 76.5 22.5t36.5 56.5q6 45 -52 79q-28 15 -66 34q-52 27 -77 44q-105 70 -88 187q13 90 87 146q74 55 184 55q140 0 227 -101l-97 -104
q-65 68 -143 68q-42 0 -69.5 -19.5t-32.5 -52.5q-5 -45 61 -80l47 -25q78 -40 102 -57q99 -67 82 -184q-15 -99 -97 -154q-82 -56 -192 -56z" />
    <glyph glyph-name="scircumflex" unicode="&#x15d;" horiz-adv-x="488" 
d="M248 627h-137l174 176h105l122 -176h-134l-51 86zM222 -13q-145 0 -217 107l83 86q50 -75 141 -75q33 0 57.5 14t28.5 37q4 30 -36 49q-14 7 -41 17q-66 29 -92 45q-78 54 -64 144q12 71 71 112t145 41q118 0 190 -81l-81 -87q-46 52 -117 52q-28 0 -47 -11t-23 -30
q-7 -34 34 -54l48 -21q38 -14 60 -27q47 -23 76 -61t16 -91q-12 -78 -77 -122t-155 -44z" />
    <glyph glyph-name="Scedilla" unicode="&#x15e;" horiz-adv-x="598" 
d="M479 381q99 -67 82 -184q-13 -89 -84 -144q-70 -55 -168 -64l-21 -37q45 -2 72.5 -31t20.5 -73q-7 -49 -51.5 -82.5t-112.5 -33.5q-58 0 -117 32l36 80q38 -21 81 -21q54 0 59 39q2 16 -10 24.5t-39 8.5h-55l-4 27l39 71q-134 25 -193 147l111 91q24 -49 65.5 -76
t92.5 -27q45 0 76.5 22.5t36.5 56.5q6 45 -52 79q-28 15 -66 34q-52 27 -77 44q-105 70 -88 187q13 90 87 146q74 55 184 55q140 0 227 -101l-97 -104q-65 68 -143 68q-42 0 -69.5 -19.5t-32.5 -52.5q-5 -45 61 -80l47 -25q78 -40 102 -57z" />
    <glyph glyph-name="scedilla" unicode="&#x15f;" horiz-adv-x="490" 
d="M254 353l48 -21q38 -14 60 -27q47 -23 76 -61t16 -91q-12 -73 -69.5 -116.5t-142.5 -48.5l-19 -35q45 -2 72.5 -31t20.5 -73q-7 -49 -51.5 -82.5t-112.5 -33.5q-58 0 -117 32l36 80q37 -21 81 -21q54 0 59 39q2 16 -10 24.5t-39 8.5h-55l-4 27l41 74q-90 24 -139 97
l83 86q50 -75 141 -75q33 0 57.5 14t28.5 37q4 30 -36 49q-14 7 -41 17q-66 29 -92 45q-78 54 -64 144q12 71 71 112t145 41q118 0 190 -81l-81 -87q-46 52 -117 52q-28 0 -47 -11t-23 -30q-7 -34 34 -54z" />
    <glyph glyph-name="Scaron" unicode="&#x160;" horiz-adv-x="598" 
d="M345 793l-118 176h137l52 -86l78 86h134l-178 -176h-105zM272 -13q-88 0 -155.5 39t-102.5 114l111 91q24 -49 65.5 -76t92.5 -27q45 0 76.5 22.5t36.5 56.5q6 45 -52 79q-28 15 -66 34q-52 27 -77 44q-105 70 -88 187q13 90 87 146q74 55 184 55q140 0 227 -101
l-97 -104q-65 68 -143 68q-42 0 -69.5 -19.5t-32.5 -52.5q-5 -45 61 -80l47 -25q78 -40 102 -57q99 -67 82 -184q-15 -99 -97 -154q-82 -56 -192 -56z" />
    <glyph glyph-name="scaron" unicode="&#x161;" horiz-adv-x="488" 
d="M257 625l-118 176h137l52 -86l78 86h134l-178 -176h-105zM222 -13q-145 0 -217 107l83 86q50 -75 141 -75q33 0 57.5 14t28.5 37q4 30 -36 49q-14 7 -41 17q-66 29 -92 45q-78 54 -64 144q12 71 71 112t145 41q118 0 190 -81l-81 -87q-46 52 -117 52q-28 0 -47 -11
t-23 -30q-7 -34 34 -54l48 -21q38 -14 60 -27q47 -23 76 -61t16 -91q-12 -78 -77 -122t-155 -44z" />
    <glyph glyph-name="Tcaron" unicode="&#x164;" horiz-adv-x="600" 
d="M327 794l-118 176h137l52 -86l78 86h134l-178 -176h-105zM194 0l89 596h-211l21 143h572l-22 -143h-210l-90 -596h-149z" />
    <glyph glyph-name="tcaron" unicode="&#x165;" horiz-adv-x="457" 
d="M413 624l66 179h151l-94 -179h-123zM187 738h140l-29 -193h180l-18 -118h-179l-33 -218q-14 -93 62 -93q38 0 93 26l29 -112q-73 -43 -166 -43q-94 0 -134.5 59t-25.5 166l33 215h-89l18 118h90z" />
    <glyph glyph-name="Tbar" unicode="&#x166;" horiz-adv-x="619" 
d="M675 739l-22 -143h-210l-24 -159h135l-17 -120h-136l-48 -317h-149l47 317h-135l18 120h135l24 159h-211l21 143h572z" />
    <glyph glyph-name="tbar" unicode="&#x167;" horiz-adv-x="467" 
d="M483 545l-18 -118h-179l-12 -80h174l-14 -96h-175l-6 -42q-13 -93 62 -93q38 0 93 26l29 -112q-73 -43 -166 -43q-94 0 -134.5 59t-25.5 166l6 39h-87l14 96h87l13 80h-89l18 118h90l29 193h140l-29 -193h180z" />
    <glyph glyph-name="Utilde" unicode="&#x168;" horiz-adv-x="725" 
d="M323 787l-88 53q66 114 157 114q38 0 78 -22t53 -22q39 0 75 52l88 -51q-60 -114 -150 -114q-34 0 -75 23t-58 23q-42 0 -80 -56zM333 -13q-127 0 -199 76q-72 77 -50 225l69 451h149l-69 -453q-12 -77 17.5 -116t93.5 -39q67 0 112 41t56 117l68 450h150l-69 -455
q-23 -151 -114 -224q-89 -73 -214 -73z" />
    <glyph glyph-name="utilde" unicode="&#x169;" horiz-adv-x="614" 
d="M246 617l-86 52q64 111 153 111q38 0 76 -22q39 -21 52 -21q38 0 73 51l86 -50q-58 -111 -146 -111q-34 0 -74 22q-41 23 -56 23q-42 0 -78 -55zM275 -13q-117 0 -174 67.5t-39 190.5l45 300h141l-47 -311q-8 -54 16 -86t72 -32q54 0 88 34t44 97l45 298h141l-45 -300
q-20 -128 -94 -193t-193 -65z" />
    <glyph glyph-name="Umacron" unicode="&#x16a;" horiz-adv-x="725" 
d="M638 812l-367 -2l21 124h368zM333 -13q-127 0 -199 76q-72 77 -50 225l69 451h149l-69 -453q-12 -77 17.5 -116t93.5 -39q67 0 112 41t56 117l68 450h150l-69 -455q-23 -151 -114 -224q-89 -73 -214 -73z" />
    <glyph glyph-name="umacron" unicode="&#x16b;" horiz-adv-x="614" 
d="M533 638l-327 -2l19 124h327zM275 -13q-117 0 -174 67.5t-39 190.5l45 300h141l-47 -311q-8 -54 16 -86t72 -32q54 0 88 34t44 97l45 298h141l-45 -300q-20 -128 -94 -193t-193 -65z" />
    <glyph glyph-name="Ubreve" unicode="&#x16c;" horiz-adv-x="725" 
d="M455 783q-87 0 -134 50.5t-37 137.5h114q-6 -42 9.5 -66t51.5 -24q39 0 66.5 25t34.5 65h116q-18 -89 -76.5 -138.5t-144.5 -49.5zM333 -13q-127 0 -199 76q-72 77 -50 225l69 451h149l-69 -453q-12 -77 17.5 -116t93.5 -39q67 0 112 41t56 117l68 450h150l-69 -455
q-23 -151 -114 -224q-89 -73 -214 -73z" />
    <glyph glyph-name="ubreve" unicode="&#x16d;" horiz-adv-x="614" 
d="M375 617q-84 0 -129 49t-36 132h110q-6 -40 9 -63t50 -23q37 0 63.5 24t33.5 62h112q-17 -86 -73.5 -133.5t-139.5 -47.5zM275 -13q-117 0 -174 67.5t-39 190.5l45 300h141l-47 -311q-8 -54 16 -86t72 -32q54 0 88 34t44 97l45 298h141l-45 -300q-20 -128 -94 -193
t-193 -65z" />
    <glyph glyph-name="Uring" unicode="&#x16e;" horiz-adv-x="725" 
d="M453 779q-59 0 -94 39q-34 38 -26 95q7 54 53 93t103 39q59 0 93 -40q35 -40 26 -95q-8 -56 -54 -93q-46 -38 -101 -38zM461 858q23 0 41.5 16.5t21.5 40.5q4 21 -9 36t-35 15q-24 0 -42.5 -15.5t-21.5 -38.5q-4 -24 9.5 -39t35.5 -15zM333 -13q-127 0 -199 76
q-72 77 -50 225l69 451h149l-69 -453q-12 -77 17.5 -116t93.5 -39q67 0 112 41t56 117l68 450h150l-69 -455q-23 -151 -114 -224q-89 -73 -214 -73z" />
    <glyph glyph-name="uring" unicode="&#x16f;" horiz-adv-x="614" 
d="M365 598q-57 0 -90 37t-25 92q8 53 51 90t99 37t89 -38q34 -37 26 -92q-7 -52 -52 -90q-43 -36 -98 -36zM373 674q22 0 40 15.5t21 39.5q4 20 -9 34.5t-34 14.5q-23 0 -40.5 -15t-20.5 -37q-4 -22 9 -37t34 -15zM275 -13q-117 0 -174 67.5t-39 190.5l45 300h141l-47 -311
q-8 -54 16 -86t72 -32q54 0 88 34t44 97l45 298h141l-45 -300q-20 -128 -94 -193t-193 -65z" />
    <glyph glyph-name="Uhungarumlaut" unicode="&#x170;" horiz-adv-x="726" 
d="M388 795h-124l71 183h160zM597 795h-127l86 183h164zM333 -13q-127 0 -199 76q-72 77 -50 225l69 451h149l-69 -453q-12 -77 17.5 -116t93.5 -39q67 0 112 41t56 117l68 450h150l-69 -455q-23 -151 -114 -224q-89 -73 -214 -73z" />
    <glyph glyph-name="uhungarumlaut" unicode="&#x171;" horiz-adv-x="610" 
d="M321 626h-119l68 176h154zM522 626h-122l83 176h158zM275 -13q-117 0 -174 67.5t-39 190.5l45 300h141l-47 -311q-8 -54 16 -86t72 -32q54 0 88 34t44 97l45 298h141l-45 -300q-20 -128 -94 -193t-193 -65z" />
    <glyph glyph-name="Uogonek" unicode="&#x172;" horiz-adv-x="725" 
d="M512 289l68 450h150l-69 -455q-34 -220 -215 -280q-44 -19 -76.5 -51.5t-36.5 -62.5q-3 -29 18 -37.5t60 10.5l19 -92q-56 -29 -108 -29q-58 0 -87.5 33t-21.5 85q10 70 91 128q-115 9 -178 84q-63 76 -42 216l69 451h149l-69 -453q-12 -77 17.5 -116t93.5 -39
q67 0 112 41t56 117z" />
    <glyph glyph-name="uogonek" unicode="&#x173;" horiz-adv-x="614" 
d="M421 247l45 298h141l-45 -300q-31 -202 -195 -247q-44 -19 -75.5 -51t-35.5 -62q-3 -29 18 -37.5t60 10.5l19 -92q-56 -29 -108 -29q-58 0 -87.5 33t-21.5 85q10 75 100 134q-98 11 -145 77.5t-29 178.5l45 300h141l-47 -311q-8 -54 16 -86t72 -32q54 0 88 34t44 97z" />
    <glyph glyph-name="Wcircumflex" unicode="&#x174;" horiz-adv-x="1065" 
d="M549 794h-143l181 183h109l127 -183h-139l-53 89zM345 0h-125l-135 739h162l74 -497l242 497h95l96 -497l222 497h162l-354 -739h-125l-85 484z" />
    <glyph glyph-name="wcircumflex" unicode="&#x175;" horiz-adv-x="877" 
d="M436 625h-137l174 176h105l122 -176h-134l-51 86zM286 1h-123l-105 544h148l55 -357l178 357h99l72 -357l161 357h148l-266 -544h-123l-71 342z" />
    <glyph glyph-name="Ycircumflex" unicode="&#x176;" horiz-adv-x="679" 
d="M357 794h-143l181 183h109l127 -183h-139l-53 89zM577 739h172l-328 -483l-39 -256h-148l39 256l-182 483h171l107 -324z" />
    <glyph glyph-name="ycircumflex" unicode="&#x177;" horiz-adv-x="599" 
d="M434 625l-51 86l-79 -86h-137l174 176h105l122 -176h-134zM308 190l178 355h155l-297 -559q-61 -114 -124 -166t-141 -52q-64 0 -110 31l41 114q32 -17 66 -17q38 0 66.5 21t56.5 67l16 26l-156 535h161z" />
    <glyph glyph-name="Ydieresis" unicode="&#x178;" horiz-adv-x="679" 
d="M324 796q-37 0 -58.5 25t-15.5 62q5 33 31.5 55.5t60.5 22.5q35 0 56 -25t16 -60t-31 -57.5t-59 -22.5zM537 796q-37 0 -58 24.5t-16 62.5q5 33 31.5 55.5t60.5 22.5q35 0 56.5 -25t16.5 -60t-31.5 -57.5t-59.5 -22.5zM577 739h172l-328 -483l-39 -256h-148l39 256
l-182 483h171l107 -324z" />
    <glyph glyph-name="Zacute" unicode="&#x179;" horiz-adv-x="651" 
d="M478 795h-133l91 183h166zM583 0h-579l14 106l440 496h-350l20 137h554l-15 -110l-432 -492h368z" />
    <glyph glyph-name="zacute" unicode="&#x17a;" horiz-adv-x="538" 
d="M390 626h-128l88 176h160zM530 449l-318 -332h278l-17 -117h-472l14 96l323 331h-260l18 117h448z" />
    <glyph glyph-name="Zdotaccent" unicode="&#x17b;" horiz-adv-x="651" 
d="M420 795q-40 0 -62.5 26t-16.5 65q5 35 32.5 58.5t62.5 23.5q39 0 61.5 -26t16.5 -65q-5 -35 -32 -58.5t-62 -23.5zM583 0h-579l14 106l440 496h-350l20 137h554l-15 -110l-432 -492h368z" />
    <glyph glyph-name="zdotaccent" unicode="&#x17c;" horiz-adv-x="538" 
d="M340 608q-40 0 -62.5 26t-16.5 65q5 35 32.5 58.5t62.5 23.5q39 0 61.5 -26t16.5 -65q-5 -35 -32 -58.5t-62 -23.5zM530 449l-318 -332h278l-17 -117h-472l14 96l323 331h-260l18 117h448z" />
    <glyph glyph-name="Zcaron" unicode="&#x17d;" horiz-adv-x="651" 
d="M359 795l-118 176h137l52 -86l78 86h134l-178 -176h-105zM583 0h-579l14 106l440 496h-350l20 137h554l-15 -110l-432 -492h368z" />
    <glyph glyph-name="zcaron" unicode="&#x17e;" horiz-adv-x="538" 
d="M273 626l-118 176h137l52 -86l78 86h134l-178 -176h-105zM530 449l-318 -332h278l-17 -117h-472l14 96l323 331h-260l18 117h448z" />
    <glyph glyph-name="Scommaaccent" unicode="&#x218;" horiz-adv-x="598" 
d="M479 381q99 -67 82 -184q-15 -99 -97 -154q-82 -56 -192 -56q-88 0 -155.5 39t-102.5 114l111 91q24 -49 65.5 -76t92.5 -27q45 0 76.5 22.5t36.5 56.5q6 45 -52 79q-28 15 -66 34q-52 27 -77 44q-105 70 -88 187q13 90 87 146q74 55 184 55q140 0 227 -101l-97 -104
q-65 68 -143 68q-42 0 -69.5 -19.5t-32.5 -52.5q-5 -45 61 -80l47 -25q78 -40 102 -57zM245 -43q40 0 64.5 -29t17.5 -72q-7 -44 -48 -88t-122 -96l-47 67q64 43 92 68q-23 10 -35 32t-8 48q4 29 28.5 49.5t57.5 20.5z" />
    <glyph glyph-name="scommaaccent" unicode="&#x219;" horiz-adv-x="490" 
d="M254 353l48 -21q38 -14 60 -27q47 -23 76 -61t16 -91q-12 -78 -77 -122t-155 -44q-145 0 -217 107l83 86q50 -75 141 -75q33 0 57.5 14t28.5 37q4 30 -36 49q-14 7 -41 17q-66 29 -92 45q-78 54 -64 144q12 71 71 112t145 41q118 0 190 -81l-81 -87q-46 52 -117 52
q-28 0 -47 -11t-23 -30q-7 -34 34 -54zM195 -48q40 0 63.5 -28.5t16.5 -70.5q-7 -43 -46.5 -85.5t-119.5 -94.5l-46 66q60 41 89 66q-21 9 -33 31t-8 47q4 29 28 49t56 20z" />
    <glyph glyph-name="uni021A" unicode="&#x21a;" horiz-adv-x="600" 
d="M72 596l21 143h572l-22 -143h-210l-90 -596h-149l89 596h-211zM247 -27q40 0 64.5 -29t17.5 -72q-7 -44 -48 -88t-122 -96l-47 67q64 43 92 68q-23 10 -35 32t-8 48q4 29 28.5 49.5t57.5 20.5z" />
    <glyph glyph-name="uni021B" unicode="&#x21b;" horiz-adv-x="461" 
d="M460 427h-179l-33 -218q-14 -93 62 -93q38 0 93 26l29 -112q-73 -43 -166 -43q-94 0 -134.5 59t-25.5 166l33 215h-89l18 118h90l29 193h140l-29 -193h180zM229 -49q40 0 63.5 -28.5t16.5 -70.5q-7 -43 -46.5 -85.5t-119.5 -94.5l-46 66q60 41 89 66q-21 9 -33 31t-8 47
q4 29 28 49t56 20z" />
    <glyph glyph-name="uni0237" unicode="&#x237;" horiz-adv-x="293" 
d="M-46 -232q-70 0 -122 31l40 112q34 -18 73 -18q95 0 116 138l77 514h141l-81 -538q-17 -120 -81 -179.5t-163 -59.5z" />
    <glyph glyph-name="circumflex" unicode="&#x2c6;" horiz-adv-x="561" 
d="M236 621h-137l174 176h105l122 -176h-134l-51 86z" />
    <glyph glyph-name="caron" unicode="&#x2c7;" horiz-adv-x="548" 
d="M244 623l-118 176h137l52 -86l78 86h134l-178 -176h-105z" />
    <glyph glyph-name="breve" unicode="&#x2d8;" horiz-adv-x="467" 
d="M296 614q-84 0 -129 49t-36 132h110q-6 -40 9 -63t50 -23q37 0 63.5 24t33.5 62h112q-17 -86 -73.5 -133.5t-139.5 -47.5z" />
    <glyph glyph-name="dotaccent" unicode="&#x2d9;" horiz-adv-x="300" 
d="M191 600q-40 0 -62.5 26t-16.5 65q5 35 32.5 58.5t62.5 23.5q39 0 61.5 -26t16.5 -65q-5 -35 -32 -58.5t-62 -23.5z" />
    <glyph glyph-name="ring" unicode="&#x2da;" horiz-adv-x="382" 
d="M231 595q-57 0 -90 37t-25 92q8 52 51 90q43 37 99 37t89 -38q34 -37 26 -92q-7 -52 -52 -90q-43 -36 -98 -36zM239 671q22 0 40 15.5t21 39.5q4 20 -9 34.5t-34 14.5q-23 0 -40.5 -15t-20.5 -37q-4 -22 9 -37t34 -15z" />
    <glyph glyph-name="ogonek" unicode="&#x2db;" horiz-adv-x="360" 
d="M184 -143l19 -92q-56 -29 -108 -29q-58 0 -87.5 33t-21.5 85q14 97 153 164l84 -18q-45 -19 -79 -52.5t-38 -63.5q-3 -29 18 -37.5t60 10.5z" />
    <glyph glyph-name="tilde" unicode="&#x2dc;" horiz-adv-x="553" 
d="M193 625l-86 52q65 111 153 111q38 0 76 -22q39 -21 52 -21q38 0 73 51l86 -50q-59 -111 -146 -111q-34 0 -74 22q-41 23 -56 23q-42 0 -78 -55z" />
    <glyph glyph-name="hungarumlaut" unicode="&#x2dd;" horiz-adv-x="544" 
d="M225 620h-119l68 176h154zM426 620h-122l83 176h158z" />
    <glyph glyph-name="uni0394" unicode="&#x394;" horiz-adv-x="753" 
d="M703 0h-714l14 102l405 637h95l214 -637zM430 551l-250 -411h373z" />
    <glyph glyph-name="uni03A9" unicode="&#x3a9;" horiz-adv-x="863" 
d="M356 0h-337l19 130l148 1q-56 38 -84 109q-28 74 -15 162q23 152 143 250q121 100 281 100q158 0 250 -104q92 -103 70 -254q-12 -85 -59.5 -155.5t-115.5 -108.5h145l-19 -130h-337l18 134q83 29 141 94q57 65 71 151q13 97 -39 159q-53 62 -144 62q-94 0 -167 -62
q-72 -62 -87 -162q-12 -83 25 -149t111 -94z" />
    <glyph glyph-name="uni03BC" unicode="&#x3bc;" horiz-adv-x="653" 
d="M460 287l37 248h141l-80 -535h-133l12 83q-58 -94 -153 -94q-78 0 -107 63l-40 -270h-137l113 753h141l-44 -287q-10 -61 14 -95.5t73 -34.5q60 0 105.5 45t57.5 124z" />
    <glyph glyph-name="pi" unicode="&#x3c0;" horiz-adv-x="634" 
d="M216 0h-142l62 411h-75l18 124h574l-19 -124h-75l-61 -411h-143l62 411h-140z" />
    <glyph glyph-name="uni0401" unicode="&#x401;" horiz-adv-x="637" 
d="M292 796q-37 0 -58.5 25t-15.5 62q5 33 31.5 55.5t60.5 22.5q35 0 56 -25t16 -60t-31 -57.5t-59 -22.5zM505 796q-37 0 -58 24.5t-16 62.5q5 33 31.5 55.5t60.5 22.5q35 0 56.5 -25t16.5 -60t-31.5 -57.5t-59.5 -22.5zM552 0h-501l110 739h501l-21 -138h-352l-24 -159
h326l-20 -138h-326l-25 -166h352z" />
    <glyph glyph-name="uni0410" unicode="&#x410;" 
d="M656 0h-155l-31 160h-257l-81 -160h-157l392 739h121zM448 292l-49 246l-124 -246h173z" />
    <glyph glyph-name="uni0411" unicode="&#x411;" horiz-adv-x="666" 
d="M266 466h126q79 0 134 -23.5t79 -61.5t31.5 -76.5t1.5 -77.5q-15 -99 -92 -164q-76 -63 -198 -63h-297l110 739h482l-19 -129h-336zM486 236q6 45 -20.5 72.5t-86.5 27.5h-132l-31 -206h120q65 0 104 29.5t46 76.5z" />
    <glyph glyph-name="uni0412" unicode="&#x412;" horiz-adv-x="692" 
d="M666 554q-7 -51 -40 -91.5t-84 -58.5q64 -17 93 -68.5t19 -122.5q-14 -93 -85 -153q-72 -60 -189 -60h-329l110 739h316q103 0 151 -56t38 -129zM515 533q4 34 -16 55.5t-60 21.5h-151l-24 -161h142q45 0 74 24.5t35 59.5zM503 229q6 42 -18.5 69t-75.5 27h-164l-29 -195
h145q64 0 100 27.5t42 71.5z" />
    <glyph glyph-name="uni0413" unicode="&#x413;" horiz-adv-x="555" 
d="M197 0h-146l110 739h462l-20 -133h-316z" />
    <glyph glyph-name="uni0414" unicode="&#x414;" horiz-adv-x="798" 
d="M549 739l124 -605h83l-42 -284h-143l23 150h-452l-23 -150h-143l42 284h82l308 605h141zM451 550l-198 -416h268z" />
    <glyph glyph-name="uni0415" unicode="&#x415;" horiz-adv-x="637" 
d="M552 0h-501l110 739h501l-21 -138h-352l-24 -159h326l-20 -138h-326l-25 -166h352z" />
    <glyph glyph-name="uni0416" unicode="&#x416;" horiz-adv-x="1034" 
d="M995 750q40 0 74 -19l-20 -119q-28 5 -46 5q-37 0 -61 -24q-25 -24 -65 -87l-22 -34l-25 -39q-27 -39 -56 -64q12 -15 26 -48q58 -134 80 -169q19 -31 55 -31q30 0 57 9l-16 -126q-38 -15 -82 -15q-43 0 -81 17q-21 12 -51 49q-10 14 -34 72l-15 43l-16 44q-24 57 -40 73
q-13 13 -34 13h-18l-45 -301h-148l45 301h-16q-17 0 -37 -14q-24 -19 -64 -76q-10 -14 -39 -57l-38 -56q-5 -6 -36 -41q-24 -27 -43 -38q-54 -29 -107 -29q-48 0 -81 16l19 123q24 -8 53 -8q36 0 66 33q31 32 130 172q24 32 45 49q-23 23 -38 64l-12 38l-10 34
q-23 61 -42.5 84t-54.5 23q-16 0 -46 -6l15 120q37 19 79 19q69 0 104 -44q36 -46 67 -150l17 -56q2 -4 6.5 -18.5t6.5 -17.5q1 -1 7.5 -9t9.5 -10q19 -8 45 -8h14l45 301h148l-45 -301h12q41 0 59 18q14 14 23 28l12 20q7 9 34 57q64 105 111 148q48 42 119 42z" />
    <glyph glyph-name="uni0417" unicode="&#x417;" horiz-adv-x="615" 
d="M600 553q-8 -50 -45.5 -91t-99.5 -64q65 -18 96 -69.5t21 -119.5q-15 -96 -98 -159q-83 -62 -220 -62q-140 0 -255 76l63 118q97 -59 201 -59q65 0 107.5 26.5t49.5 69.5q6 40 -23 64t-90 24h-129l20 130h103q57 0 97 27.5t46 69.5q6 37 -21 59.5t-77 22.5
q-88 0 -191 -60l-53 109q56 41 128.5 64t144.5 23q117 0 177 -60q60 -59 48 -139z" />
    <glyph glyph-name="uni0418" unicode="&#x418;" horiz-adv-x="784" 
d="M153 0h-102l110 739h146l-75 -487l446 487h103l-110 -739h-146l74 486z" />
    <glyph glyph-name="uni0419" unicode="&#x419;" horiz-adv-x="784" 
d="M481 780q-129 0 -191 119l92 71q23 -46 49 -63.5t66 -17.5q81 0 175 87l57 -84q-125 -112 -248 -112zM153 0h-102l110 739h146l-75 -487l446 487h103l-110 -739h-146l74 486z" />
    <glyph glyph-name="uni041A" unicode="&#x41a;" 
d="M588 739h180l-322 -336l231 -403h-181l-162 293l-108 -110l-27 -183h-148l110 739h148l-51 -343z" />
    <glyph glyph-name="uni041B" unicode="&#x41b;" horiz-adv-x="685" 
d="M139 0h-162l377 739h140l151 -739h-161l-89 531z" />
    <glyph glyph-name="uni041C" unicode="&#x41c;" horiz-adv-x="939" 
d="M197 0h-146l110 739h97l227 -419l351 419h100l-110 -739h-148l63 419l-261 -309h-51l-170 309z" />
    <glyph glyph-name="uni041D" unicode="&#x41d;" horiz-adv-x="770" 
d="M199 0h-148l110 739h148l-44 -295h309l45 295h148l-110 -739h-148l44 301h-309z" />
    <glyph glyph-name="uni041E" unicode="&#x41e;" horiz-adv-x="848" 
d="M395 -12q-166 0 -260 112t-71 275q22 163 149 270t289 107q166 0 261 -113q94 -112 70 -273q-24 -159 -150 -269q-125 -109 -288 -109zM408 134q97 0 176 67q80 67 96 171q17 101 -39 167q-55 67 -153 67t-178 -69q-78 -67 -93 -171q-15 -101 40 -167q56 -65 151 -65z
" />
    <glyph glyph-name="uni041F" unicode="&#x41f;" horiz-adv-x="770" 
d="M199 0h-148l110 739h606l-110 -739h-148l88 596h-309z" />
    <glyph glyph-name="uni0420" unicode="&#x420;" horiz-adv-x="639" 
d="M161 739h264q135 0 191 -72t43 -175q-15 -111 -92.5 -174t-217.5 -63h-112l-38 -255h-148zM508 499q5 46 -19 74.5t-73 28.5h-127l-32 -213h98q67 0 106.5 30t46.5 80z" />
    <glyph glyph-name="uni0421" unicode="&#x421;" horiz-adv-x="765" 
d="M397 -11q-164 0 -262 107q-97 107 -74 280q23 170 146 273q124 103 287 103q99 0 176.5 -41.5t124.5 -114.5l-111 -94q-70 108 -198 108q-102 0 -179 -66q-77 -64 -90 -171q-15 -105 42 -172q58 -67 159 -67q126 0 233 111l91 -100q-65 -72 -155.5 -114t-189.5 -42z" />
    <glyph glyph-name="uni0422" unicode="&#x422;" horiz-adv-x="600" 
d="M194 0l89 596h-211l21 143h572l-22 -143h-210l-90 -596h-149z" />
    <glyph glyph-name="uni0423" unicode="&#x423;" horiz-adv-x="630" 
d="M115 -12q-53 0 -94 23l26 120q29 -13 59 -13q42 0 78.5 31t78.5 95l-160 495h172l90 -336l179 336h172l-308 -519l-45 -69q-13 -21 -47 -61q-30 -34 -57 -54q-69 -48 -144 -48z" />
    <glyph glyph-name="uni0424" unicode="&#x424;" horiz-adv-x="945" 
d="M638 819l-13 -90q157 -13 243 -118q86 -104 63 -254q-23 -151 -134 -243q-112 -94 -280 -104l-13 -90h-149l14 91q-161 15 -246 118q-84 104 -62 252q23 155 135 246q112 92 280 103l13 89h149zM209 366q-14 -96 34.5 -156.5t144.5 -67.5l68 455q-100 -10 -166.5 -71.5
t-80.5 -159.5zM784 367q15 95 -34 157.5t-145 72.5l-68 -455q98 7 166 69q67 61 81 156z" />
    <glyph glyph-name="uni0425" unicode="&#x425;" horiz-adv-x="669" 
d="M148 0h-175l293 374l-167 365h171l105 -253l189 253h176l-288 -365l175 -374h-170l-115 259z" />
    <glyph glyph-name="uni0426" unicode="&#x426;" horiz-adv-x="749" 
d="M654 -150h-148l23 150h-478l110 739h149l-89 -596h251l89 596h149l-89 -596h77z" />
    <glyph glyph-name="uni0427" unicode="&#x427;" horiz-adv-x="698" 
d="M491 378l54 361h150l-110 -739h-150l35 236q-91 -28 -169 -28q-115 0 -175 66q-59 68 -38 211l38 254h149l-36 -245q-12 -77 14 -109.5t90 -32.5q65 0 148 26z" />
    <glyph glyph-name="uni0428" unicode="&#x428;" horiz-adv-x="1098" 
d="M985 0h-934l110 739h149l-89 -596h243l89 596h149l-89 -596h243l90 596h149z" />
    <glyph glyph-name="uni0429" unicode="&#x429;" horiz-adv-x="1134" 
d="M1039 -150h-148l23 150h-863l110 739h149l-89 -596h243l89 596h149l-89 -596h243l90 596h149l-90 -596h78z" />
    <glyph glyph-name="uni042A" unicode="&#x42a;" horiz-adv-x="759" 
d="M502 511q116 0 186 -73q71 -73 52 -191q-16 -107 -96 -177q-79 -70 -218 -70h-277l91 610h-166l20 129h311l-38 -250q65 22 135 22zM586 258q9 56 -23 87.5t-93 31.5q-57 0 -123 -24l-33 -219h101q76 0 119.5 33t51.5 91z" />
    <glyph glyph-name="uni042B" unicode="&#x42b;" horiz-adv-x="958" 
d="M271 487h136q69 0 121 -24t77 -64q49 -75 36 -162q-15 -103 -90 -171q-75 -66 -193 -66h-305l110 739h146zM696 0l110 739h149l-110 -739h-149zM490 245q7 49 -22.5 80t-90.5 31h-125l-34 -225h112q69 0 110 30.5t50 83.5z" />
    <glyph glyph-name="uni042C" unicode="&#x42c;" horiz-adv-x="661" 
d="M404 511q116 0 186 -73q71 -73 52 -191q-16 -107 -96 -177q-79 -70 -218 -70h-277l110 739h146l-37 -250q63 22 134 22zM489 258q8 56 -24 87.5t-93 31.5q-58 0 -122 -24l-33 -219h100q76 0 119.5 33t52.5 91z" />
    <glyph glyph-name="uni042D" unicode="&#x42d;" horiz-adv-x="762" 
d="M420 752q160 0 254 -111q96 -112 71 -281q-25 -170 -145 -272q-118 -99 -279 -99q-101 0 -180.5 43t-122.5 116l106 91q33 -51 85 -79.5t114 -28.5q84 0 151 46q68 47 100 124h-337l20 133h338q-8 80 -62 127q-54 48 -134 48q-125 0 -227 -109l-86 101q60 70 148.5 110.5
t185.5 40.5z" />
    <glyph glyph-name="uni042E" unicode="&#x42e;" horiz-adv-x="1128" 
d="M776 752q167 0 262 -113t74 -273q-22 -159 -147 -269q-124 -109 -286 -109q-144 0 -237 87t-102 221h-96l-44 -296h-149l110 739h149l-45 -300h91q41 138 157 225q118 88 263 88zM959 372q14 101 -42 167q-55 67 -153 67q-99 0 -177 -69q-77 -67 -91 -171
q-14 -101 42 -167q56 -65 152 -65q98 0 175 67q79 67 94 171z" />
    <glyph glyph-name="uni042F" unicode="&#x42f;" horiz-adv-x="677" 
d="M425 739h249l-110 -739h-146l38 255q-53 -8 -107 -8l-182 -247h-172l213 274q-65 32 -93.5 95t-16.5 138q16 109 99.5 170.5t227.5 61.5zM375 377q48 0 101 10l32 216h-85q-159 0 -174 -111q-6 -50 25 -82.5t101 -32.5z" />
    <glyph glyph-name="uni0430" unicode="&#x430;" horiz-adv-x="678" 
d="M521 477l10 68h134l-82 -545h-133l9 65q-79 -78 -184 -78q-121 0 -185 87q-63 89 -44 212q18 122 104 197q85 76 202 76q106 0 169 -82zM316 115q67 0 116 46t58 113q9 64 -27 110t-102 46q-63 0 -111 -42q-46 -40 -60 -103q-13 -67 22 -119q34 -51 104 -51z" />
    <glyph glyph-name="uni0431" unicode="&#x431;" horiz-adv-x="687" 
d="M425 536q105 4 178 -76t56 -198q-16 -120 -106 -199q-89 -77 -222 -77q-105 0 -172 58q-65 56 -88 145t-5 198q27 157 103 239q76 84 214 118l31 7l36 8q8 3 33 9q7 2 77 29q41 17 95 51l38 -124l-42 -28q-9 -7 -21 -11q-32 -14 -41 -17q-21 -7 -50 -14l-29 -7l-37 -9
l-40 -9q-48 -11 -74 -21q-27 -9 -60 -30q-59 -37 -91 -144q38 48 96 75t121 27zM515 265q8 62 -28 105t-99 43q-61 0 -111 -41q-49 -40 -58 -106q-9 -62 24 -108q34 -46 99 -46t115 44q51 46 58 109z" />
    <glyph glyph-name="uni0432" unicode="&#x432;" horiz-adv-x="645" 
d="M628 570q-8 -52 -40.5 -91.5t-81.5 -56.5q61 -19 89.5 -74t16.5 -130q-16 -107 -96 -169t-214 -62q-38 0 -73.5 8.5t-71.5 29.5t-58 56t-34.5 87t0.5 124l28 182q23 155 111.5 229.5t207.5 74.5q112 0 171 -62t45 -146zM484 557q6 42 -16 67t-71 25q-64 0 -108.5 -50
t-55.5 -134l-1 -6h123q59 0 90.5 27.5t38.5 70.5zM469 229q7 46 -20.5 77.5t-89.5 31.5h-145l-7 -47q-12 -84 21 -129.5t96 -45.5q59 0 97.5 31.5t47.5 81.5z" />
    <glyph glyph-name="uni0433" unicode="&#x433;" horiz-adv-x="509" 
d="M221 -13q-101 0 -153.5 44.5t-43.5 117.5q6 49 38.5 86.5t79.5 59.5q21 10 81 32.5t85.5 38.5t27.5 36q3 17 -13.5 28t-48.5 11q-69 0 -157 -32l-24 110q101 40 206 40q94 0 148 -42q55 -40 46 -113q-6 -46 -38 -81.5t-79 -54.5q-17 -7 -51 -19.5t-53 -20.5t-41.5 -20
t-34 -25.5t-13.5 -29.5q-2 -23 16.5 -34.5t56.5 -11.5q86 0 182 42l21 -111q-119 -51 -238 -51z" />
    <glyph glyph-name="uni0434" unicode="&#x434;" horiz-adv-x="674" 
d="M522 480l9 65h131l-75 -493q-23 -146 -114 -215q-91 -70 -223 -70q-124 0 -219 51l40 111q87 -40 181 -40q85 0 136.5 40t61.5 114l3 24q-71 -68 -172 -68q-121 0 -186 81q-64 80 -47 205q16 123 104 198q86 76 204 76q108 0 166 -79zM311 122q65 0 116 45q50 44 61 113
q9 64 -26 107q-34 43 -99 43q-67 0 -116 -43q-48 -42 -59 -114q-8 -66 26 -108q34 -43 97 -43z" />
    <glyph glyph-name="uni0435" unicode="&#x435;" horiz-adv-x="626" 
d="M366 559q121 0 188 -76q68 -77 49 -205q-4 -27 -13 -55h-410q4 -55 38.5 -85.5t98.5 -30.5q44 0 95 16t90 41l48 -102q-110 -74 -245 -74q-145 0 -210 86t-48 208q16 123 105 200t214 77zM360 442q-55 0 -98.5 -30t-65.5 -84h278q0 53 -30.5 83.5t-83.5 30.5z" />
    <glyph glyph-name="uni0436" unicode="&#x436;" horiz-adv-x="886" 
d="M739 351q-38 -59 -71 -80q10 -14 20 -34q45 -86 61 -108q18 -23 46 -23q27 0 54 7l-15 -111q-33 -11 -72 -11q-31 0 -72 12q-8 2 -16.5 8.5t-18 15.5t-11.5 10q-6 6 -16 25l-13 24l-12 29l-12 28q-15 35 -29 49t-35 14h-16l-31 -207h-137l31 207h-12q-21 0 -38.5 -14.5
t-48.5 -56.5q-3 -3 -19 -27t-22 -30q-13 -16 -22 -26q-20 -22 -59 -43q-33 -18 -85 -18q-41 0 -74 13l21 109q20 -7 38 -7q26 0 52 23q19 16 101 115q14 19 30 32q-20 18 -44 83q-15 42 -30.5 60t-43.5 18q-25 0 -45 -4l13 106q30 14 70 14q59 0 91 -28t53 -95q1 -1 7 -25
q10 -31 14 -39q15 -32 59 -32h13l32 211h137l-32 -211h6q36 0 56 20l18 18l21 32l21 34q38 62 76 88.5t93 26.5q45 0 73 -16l-18 -104q-18 5 -33 5q-22 0 -41 -13q-17 -11 -26.5 -23t-36.5 -51z" />
    <glyph glyph-name="uni0437" unicode="&#x437;" horiz-adv-x="557" 
d="M525 348q-17 -105 -142 -159q62 -18 91.5 -72.5t20.5 -122.5q-13 -95 -96 -160q-82 -64 -206 -64q-133 0 -240 81l63 108q85 -62 172 -62q67 0 109.5 29.5t49.5 80.5q7 47 -25 75t-88 28h-108l18 121h74q67 0 109 29t49 75q7 44 -22 70t-80 26q-79 0 -173 -62l-49 102
q50 37 120 63q69 25 137 25q105 0 167 -63q61 -62 49 -148z" />
    <glyph glyph-name="uni0438" unicode="&#x438;" horiz-adv-x="652" 
d="M498 545h140l-81 -545h-136l12 76q-35 -40 -88 -64.5t-111 -24.5q-90 0 -141 61q-50 61 -31 188l46 309h141l-44 -297q-19 -132 84 -132q61 0 108 42q49 43 59 112z" />
    <glyph glyph-name="uni0439" unicode="&#x439;" horiz-adv-x="652" 
d="M374 573q-116 0 -172 107l83 64q21 -41 45 -57t59 -16q71 0 157 78l51 -75q-115 -101 -223 -101zM498 545h140l-81 -545h-136l12 76q-35 -40 -88 -64.5t-111 -24.5q-90 0 -141 61q-50 61 -31 188l46 309h141l-44 -297q-19 -132 84 -132q61 0 108 42q49 43 59 112z" />
    <glyph glyph-name="uni043A" unicode="&#x43a;" horiz-adv-x="583" 
d="M454 545h177l-277 -223l209 -322h-172l-146 234l-41 -34l-30 -200h-141l113 760h141l-60 -400z" />
    <glyph glyph-name="uni043B" unicode="&#x43b;" horiz-adv-x="608" 
d="M133 0h-156l310 545h139l143 -545h-156l-81 373z" />
    <glyph glyph-name="uni043C" unicode="&#x43c;" horiz-adv-x="781" 
d="M170 0h-137l81 545h99l182 -291l271 291h102l-81 -545h-137l43 289l-196 -206h-49l-135 206z" />
    <glyph glyph-name="uni043D" unicode="&#x43d;" horiz-adv-x="629" 
d="M445 336l31 209h140l-82 -545h-140l32 210h-222l-31 -210h-140l81 545h140l-31 -209h222z" />
    <glyph glyph-name="uni043E" unicode="&#x43e;" horiz-adv-x="654" 
d="M296 -14q-130 0 -201 86q-70 86 -50 210q19 121 111 199q92 79 216 79q131 0 202 -89q70 -88 46 -217q-22 -118 -114 -193t-210 -75zM307 117q63 0 114 45q51 46 61 110q11 65 -25 111t-99 46q-62 0 -112 -44q-51 -45 -61 -107q-12 -67 23 -114t99 -47z" />
    <glyph glyph-name="uni043F" unicode="&#x43f;" horiz-adv-x="643" 
d="M174 0h-141l81 545h138l-11 -76q28 41 77 66t106 25q91 0 143 -61q53 -62 35 -179l-47 -320h-141l44 298q10 63 -15 97.5t-77 34.5q-58 0 -99.5 -42t-52.5 -114z" />
    <glyph glyph-name="uni0440" unicode="&#x440;" horiz-adv-x="681" 
d="M415 559q115 0 183 -84q69 -83 53 -206q-15 -124 -97 -203q-80 -79 -200 -79q-108 0 -170 90l-44 -301h-141l115 769h139l-8 -57q74 71 170 71zM378 429q-67 0 -114 -44q-46 -43 -54 -108q-11 -68 26 -115q37 -46 103 -46q65 0 112 44q47 45 56 110t-26 112t-103 47z" />
    <glyph glyph-name="uni0441" unicode="&#x441;" horiz-adv-x="603" 
d="M298 -12q-129 0 -199 82q-69 82 -52 209q16 127 104 203q89 77 212 77q87 0 150.5 -39.5t92.5 -114.5l-119 -59q-37 82 -126 82q-66 0 -116 -44t-59 -114q-8 -65 27 -109t98 -44q45 0 87 22.5t68 61.5l104 -73q-42 -67 -114.5 -103.5t-157.5 -36.5z" />
    <glyph glyph-name="uni0442" unicode="&#x442;" horiz-adv-x="1002" 
d="M769 560q99 0 154 -64q55 -62 38 -177l-47 -319h-141l45 305q9 61 -14.5 93t-72.5 32q-55 0 -94.5 -38.5t-50.5 -107.5l-42 -284h-141l45 303q10 59 -14.5 93t-73.5 34q-55 0 -93.5 -38t-49.5 -108l-43 -284h-141l81 545h138l-12 -77q29 43 77 67.5t101 24.5
q54 0 94 -24.5t55 -70.5q36 45 89 70t113 25z" />
    <glyph glyph-name="uni0443" unicode="&#x443;" horiz-adv-x="599" 
d="M307 190l178 355h155l-297 -559q-61 -114 -124 -166t-141 -52q-64 0 -110 31l41 114q32 -17 66 -17q38 0 66.5 21t56.5 67l16 26l-156 535h161z" />
    <glyph glyph-name="uni0444" unicode="&#x444;" horiz-adv-x="851" 
d="M575 760l-30 -201q141 -7 219 -84q77 -76 61 -206q-18 -133 -114 -204.5t-252 -76.5l-32 -215h-133l32 216q-157 8 -230 92q-73 85 -50 219q22 127 121 192q101 66 245 67l30 201h133zM691 277q9 71 -33 114.5t-131 45.5l-50 -329q88 2 145 46t69 123zM181 275
q-11 -76 32.5 -121t130.5 -46l49 329q-90 -2 -145.5 -43.5t-66.5 -118.5z" />
    <glyph glyph-name="uni0445" unicode="&#x445;" horiz-adv-x="554" 
d="M378 274l134 -274h-162l-78 179l-135 -179h-163l222 278l-120 267h161l67 -167l125 167h159z" />
    <glyph glyph-name="uni0446" unicode="&#x446;" horiz-adv-x="721" 
d="M638 545l-58 -373q-8 -47 19.5 -64t96.5 -16l-40 -272h-122l25 171q-52 0 -84 30t-28 78q-27 -49 -87 -80q-61 -32 -130 -32q-87 0 -138 59t-32 182l48 317h141l-46 -304q-17 -125 88 -125q64 0 109 42.5t57 118.5l41 268h140z" />
    <glyph glyph-name="uni0447" unicode="&#x447;" horiz-adv-x="587" 
d="M395 291l38 254h140l-81 -545h-141l25 163q-63 -15 -121 -15q-103 0 -159 51q-55 52 -36 170l28 176h141l-27 -173q-14 -96 83 -96q57 0 110 15z" />
    <glyph glyph-name="uni0448" unicode="&#x448;" horiz-adv-x="978" 
d="M780 260l43 285h142l-82 -545h-133l11 76q-25 -38 -76.5 -63.5t-106.5 -25.5q-50 0 -88.5 23t-53.5 66q-69 -89 -196 -89q-43 0 -78 14t-62 42.5t-37.5 78.5t-0.5 116l46 307h142l-47 -308q-9 -58 13 -89.5t68 -31.5q55 0 92.5 40t47.5 112l42 277h141l-47 -311
q-8 -56 14 -87t67 -31q53 0 91.5 40t47.5 104z" />
    <glyph glyph-name="uni0449" unicode="&#x449;" horiz-adv-x="1049" 
d="M965 545l-57 -376q-7 -51 22 -66q28 -11 86 -11l-41 -272h-121l26 171q-52 0 -80.5 29.5t-22.5 76.5q-33 -51 -87 -80.5t-112 -29.5q-50 0 -88.5 23t-53.5 66q-69 -89 -196 -89q-43 0 -78 14t-62 42.5t-37.5 78.5t-0.5 116l46 307h142l-47 -308q-9 -58 13 -89.5t68 -31.5
q55 0 92.5 40t47.5 112l42 277h141l-47 -311q-8 -56 14 -87t67 -31q53 0 91.5 40t47.5 104l43 285h142z" />
    <glyph glyph-name="uni044A" unicode="&#x44a;" horiz-adv-x="654" 
d="M434 444q100 0 152 -67q53 -66 39 -164q-14 -97 -84 -161q-70 -65 -190 -65q-57 0 -99.5 17t-64.5 45t-35.5 63t-13 71.5t3.5 70.5l26 172h-123l18 119h262l-20 -134q61 33 129 33zM487 217q7 43 -16 74q-22 31 -77 31q-56 0 -107 -25l-9 -63q-5 -16 -2 -38t9.5 -41
t27 -32.5t52.5 -13.5q50 0 83 30t39 78z" />
    <glyph glyph-name="uni044B" unicode="&#x44b;" horiz-adv-x="796" 
d="M224 378h104q78 0 125 -31q87 -53 73 -162q-12 -85 -76 -135t-166 -50h-251l81 545h136zM562 0l82 545h139l-83 -545h-138zM389 191q4 31 -16 51t-61 20h-105l-23 -147h90q103 0 115 76z" />
    <glyph glyph-name="uni044C" unicode="&#x44c;" horiz-adv-x="575" 
d="M355 444q100 0 152 -67q54 -66 39 -164q-14 -97 -84 -161q-70 -65 -190 -65q-57 0 -99.5 17t-64.5 45t-35.5 63t-13 71.5t3.5 70.5l44 291h139l-20 -134q63 33 129 33zM408 217q6 46 -17.5 75.5t-76.5 29.5q-55 0 -106 -25l-9 -63q-5 -16 -2.5 -38t9 -41t27.5 -32.5
t53 -13.5q50 0 83 30t39 78z" />
    <glyph glyph-name="uni044D" unicode="&#x44d;" horiz-adv-x="603" 
d="M323 559q130 0 202 -87q72 -85 52 -217q-18 -120 -105 -194q-85 -73 -210 -73q-173 0 -244 138l103 73q50 -86 147 -86q53 0 97 29.5t64 79.5h-199l16 102h195q-9 48 -45 78t-87 30q-45 0 -87 -23.5t-72 -63.5l-98 69q46 71 117.5 108t153.5 37z" />
    <glyph glyph-name="uni044E" unicode="&#x44e;" horiz-adv-x="881" 
d="M605 560q132 0 201 -89q70 -88 46 -217q-23 -119 -113 -193q-91 -75 -210 -75q-113 0 -181 64q-68 65 -75 163h-70l-32 -213h-138l113 760h140l-65 -432h67q31 103 119 168q86 64 198 64zM714 272q11 65 -25 111q-34 46 -99 46q-62 0 -112 -44q-51 -45 -61 -107
q-12 -67 23 -114q36 -47 99 -47q65 0 114 45q51 48 61 110z" />
    <glyph glyph-name="uni044F" unicode="&#x44f;" horiz-adv-x="580" 
d="M350 545h216l-81 -545h-137l27 180q-42 -7 -92 -7l-137 -173h-155l165 197q-50 24 -71.5 71.5t-12.5 103.5q12 83 82 128t196 45zM305 285q37 0 87 9l21 137h-72q-122 0 -129 -73q-5 -35 19 -54t74 -19z" />
    <glyph glyph-name="uni0451" unicode="&#x451;" horiz-adv-x="626" 
d="M278 600q-38 0 -59.5 25t-15.5 63q5 34 32 56.5t61 22.5q36 0 57.5 -25t16.5 -61q-5 -35 -31.5 -58t-60.5 -23zM495 600q-38 0 -59 25t-16 63q5 34 32 56.5t61 22.5q36 0 57.5 -25t16.5 -61t-31.5 -58.5t-60.5 -22.5zM366 559q121 0 188 -76q68 -77 49 -205
q-4 -27 -13 -55h-410q4 -55 38.5 -85.5t98.5 -30.5q44 0 95 16t90 41l48 -102q-110 -74 -245 -74q-145 0 -210 86t-48 208q16 123 105 200t214 77zM360 442q-55 0 -98.5 -30t-65.5 -84h278q0 53 -30.5 83.5t-83.5 30.5z" />
    <glyph glyph-name="Wgrave" unicode="&#x1e80;" horiz-adv-x="1065" 
d="M644 978l37 -183h-129l-71 183h163zM345 0h-125l-135 739h162l74 -497l242 497h95l96 -497l222 497h162l-354 -739h-125l-85 484z" />
    <glyph glyph-name="wgrave" unicode="&#x1e81;" horiz-adv-x="877" 
d="M532 802l35 -176h-122l-68 176h155zM286 1h-123l-105 544h148l55 -357l178 357h99l72 -357l161 357h148l-266 -544h-123l-71 342z" />
    <glyph glyph-name="Wacute" unicode="&#x1e82;" horiz-adv-x="1065" 
d="M692 794h-133l91 183h166zM345 0h-125l-135 739h162l74 -497l242 497h95l96 -497l222 497h162l-354 -739h-125l-85 484z" />
    <glyph glyph-name="wacute" unicode="&#x1e83;" horiz-adv-x="877" 
d="M570 626h-128l88 176h160zM286 1h-123l-105 544h148l55 -357l178 357h99l72 -357l161 357h148l-266 -544h-123l-71 342z" />
    <glyph glyph-name="Wdieresis" unicode="&#x1e84;" horiz-adv-x="1065" 
d="M516 796q-37 0 -58.5 25t-15.5 62q5 33 31.5 55.5t60.5 22.5q35 0 56 -25t16 -60t-31 -57.5t-59 -22.5zM729 796q-37 0 -58 24.5t-16 62.5q5 33 31.5 55.5t60.5 22.5q35 0 56.5 -25t16.5 -60t-31.5 -57.5t-59.5 -22.5zM345 0h-125l-135 739h162l74 -497l242 497h95
l96 -497l222 497h162l-354 -739h-125l-85 484z" />
    <glyph glyph-name="wdieresis" unicode="&#x1e85;" horiz-adv-x="877" 
d="M396 616q-38 0 -59.5 25t-15.5 63q5 34 32 56.5t61 22.5q36 0 57.5 -25t16.5 -61q-5 -35 -31.5 -58t-60.5 -23zM613 616q-38 0 -59 25t-16 63q5 34 32 56.5t61 22.5q36 0 57.5 -25t16.5 -61t-31.5 -58.5t-60.5 -22.5zM286 1h-123l-105 544h148l55 -357l178 357h99
l72 -357l161 357h148l-266 -544h-123l-71 342z" />
    <glyph glyph-name="Ygrave" unicode="&#x1ef2;" horiz-adv-x="679" 
d="M458 978l37 -183h-129l-71 183h163zM577 739h172l-328 -483l-39 -256h-148l39 256l-182 483h171l107 -324z" />
    <glyph glyph-name="ygrave" unicode="&#x1ef3;" horiz-adv-x="599" 
d="M398 802l35 -176h-122l-68 176h155zM308 190l178 355h155l-297 -559q-61 -114 -124 -166t-141 -52q-64 0 -110 31l41 114q32 -17 66 -17q38 0 66.5 21t56.5 67l16 26l-156 535h161z" />
    <glyph glyph-name="uni2009" unicode="&#x2009;" horiz-adv-x="78" 
 />
    <glyph glyph-name="endash" unicode="&#x2013;" horiz-adv-x="720" 
d="M660 211h-600l20 132h600z" />
    <glyph glyph-name="emdash" unicode="&#x2014;" horiz-adv-x="1039" 
d="M979 211h-919l20 132h919z" />
    <glyph glyph-name="quoteleft" unicode="&#x2018;" horiz-adv-x="251" 
d="M204 674q28 -5 44 -29t12 -54q-5 -30 -30 -50.5t-56 -20.5q-41 0 -64.5 30.5t-16.5 74.5q15 96 172 189l39 -62q-82 -57 -100 -78z" />
    <glyph glyph-name="quoteright" unicode="&#x2019;" horiz-adv-x="249" 
d="M217 807q41 0 64 -30.5t16 -74.5q-14 -96 -171 -190l-39 62q79 56 99 78q-27 6 -43.5 30t-12.5 54t29.5 50.5t57.5 20.5z" />
    <glyph glyph-name="quotesinglbase" unicode="&#x201a;" horiz-adv-x="249" 
d="M118 145q41 0 64 -30.5t16 -74.5q-14 -96 -171 -190l-39 62q80 56 99 78q-27 6 -43.5 30t-12.5 54t29.5 50.5t57.5 20.5z" />
    <glyph glyph-name="quotedblleft" unicode="&#x201c;" horiz-adv-x="501" 
d="M265 814l39 -62q-82 -57 -100 -78q28 -5 44 -29t12 -54q-5 -30 -30 -50.5t-56 -20.5q-41 0 -64.5 30.5t-16.5 74.5q15 96 172 189zM454 674q28 -5 44 -29t12 -54q-5 -30 -30 -50.5t-56 -20.5q-41 0 -64.5 30.5t-16.5 74.5q15 96 172 189l39 -62q-82 -57 -100 -78z" />
    <glyph glyph-name="quotedblright" unicode="&#x201d;" horiz-adv-x="489" 
d="M217 810q41 0 64.5 -30.5t16.5 -74.5q-15 -96 -172 -189l-39 62q82 57 100 78q-28 5 -44 29t-12 54q5 30 30 50.5t56 20.5zM456 810q41 0 64.5 -30.5t16.5 -74.5q-15 -96 -172 -189l-39 62q82 57 100 78q-28 5 -44 29t-12 54q5 30 30 50.5t56 20.5z" />
    <glyph glyph-name="quotedblbase" unicode="&#x201e;" horiz-adv-x="489" 
d="M118 144q41 0 64.5 -30.5t16.5 -74.5q-15 -96 -172 -189l-39 62q82 57 100 78q-28 5 -44 29t-12 54q5 30 30 50.5t56 20.5zM357 144q41 0 64.5 -30.5t16.5 -74.5q-15 -96 -172 -189l-39 62q82 57 100 78q-28 5 -44 29t-12 54q5 30 30 50.5t56 20.5z" />
    <glyph glyph-name="dagger" unicode="&#x2020;" horiz-adv-x="508" 
d="M371 534h148l-19 -128h-148l-87 -584h-138l87 584h-148l19 128h148l47 315h138z" />
    <glyph glyph-name="daggerdbl" unicode="&#x2021;" horiz-adv-x="508" 
d="M526 576l-19 -128h-149l-33 -225h148l-19 -128h-148l-41 -273h-138l41 273h-148l19 128h148l33 225h-148l20 128h147l41 273h138l-41 -273h149z" />
    <glyph glyph-name="bullet" unicode="&#x2022;" horiz-adv-x="458" 
d="M84 344q10 68 63 114q55 47 121 47q71 0 113 -50t32 -120q-9 -66 -63 -113q-54 -45 -123 -45t-111 48q-41 50 -32 119z" />
    <glyph glyph-name="ellipsis" unicode="&#x2026;" horiz-adv-x="744" 
d="M91 -12q-36 0 -56.5 23.5t-15.5 59.5q4 35 30 57t62 22t56.5 -24.5t14.5 -60.5q-6 -34 -32 -55.5t-59 -21.5zM340 -12q-36 0 -56.5 23.5t-15.5 59.5q4 35 30 57t62 22t56.5 -24.5t14.5 -60.5q-6 -34 -32 -55.5t-59 -21.5zM588 -12q-36 0 -56.5 23.5t-15.5 59.5
q4 35 30 57t62 22t56.5 -24.5t14.5 -60.5q-6 -34 -32 -55.5t-59 -21.5z" />
    <glyph glyph-name="perthousand" unicode="&#x2030;" horiz-adv-x="1314" 
d="M251 385q-81 0 -129 54q-48 55 -36 132q10 75 74 128t140 53q80 0 128 -55t37 -133q-12 -75 -74 -128q-61 -51 -140 -51zM219 0h-140l648 739h141zM260 484q37 0 66.5 25t34.5 61q5 35 -15.5 59t-55.5 24q-37 0 -66 -25t-34 -62q-6 -35 14.5 -58.5t55.5 -23.5zM652 -12
q-81 0 -129 54q-48 55 -36 131q10 74 73 128q64 53 140 53q81 0 129 -56q49 -55 37 -133q-10 -75 -74 -126q-62 -51 -140 -51zM1070 -12q-80 0 -128 54q-47 55 -37 131q10 74 73 128q64 53 140 53q81 0 129 -56q49 -54 38 -133q-12 -75 -75 -126q-62 -51 -140 -51zM661 86
q37 0 66.5 25t35.5 61q4 36 -16.5 59.5t-55.5 23.5q-36 0 -65 -25t-34 -62q-6 -35 14 -58.5t55 -23.5zM1079 86q37 0 67 25t35 61q4 36 -16.5 59.5t-55.5 23.5q-36 0 -64.5 -25t-34.5 -62q-6 -35 14 -58.5t55 -23.5z" />
    <glyph glyph-name="guilsinglleft" unicode="&#x2039;" horiz-adv-x="361" 
d="M296 88h-144l-107 203l165 203h150l-173 -203z" />
    <glyph glyph-name="guilsinglright" unicode="&#x203a;" horiz-adv-x="360" 
d="M331 291l-168 -203h-144l170 203l-112 203h150z" />
    <glyph glyph-name="fraction" unicode="&#x2044;" horiz-adv-x="213" 
d="M-153 0h-118l689 739h116z" />
    <glyph glyph-name="uni2070" unicode="&#x2070;" horiz-adv-x="411" 
d="M253 501q-83 0 -121 59q-36 58 -22 150q13 91 65.5 146.5t131.5 55.5q84 0 120 -59q36 -58 22 -151q-14 -89 -64 -145q-51 -56 -132 -56zM258 590q76 0 94 119q15 113 -50 113q-38 0 -61.5 -32.5t-32.5 -86.5q-17 -113 50 -113z" />
    <glyph glyph-name="uni2074" unicode="&#x2074;" horiz-adv-x="370" 
d="M365 671h41l-10 -75h-43l-13 -89h-85l13 89h-176l-12 56l246 251h74zM295 781l-109 -110h93z" />
    <glyph glyph-name="uni2075" unicode="&#x2075;" horiz-adv-x="346" 
d="M261 763q63 0 95.5 -37.5t23.5 -94.5q-10 -58 -57 -94.5t-113 -36.5q-78 0 -136 48l44 68q44 -33 92 -33q33 0 55.5 16.5t25.5 41.5q3 22 -12 36t-42 14q-37 0 -72 -28l-41 44l38 194h222l-12 -78h-154l-12 -69q29 9 55 9z" />
    <glyph glyph-name="uni2076" unicode="&#x2076;" horiz-adv-x="366" 
d="M280 763q60 0 93 -36.5t24 -94.5q-8 -57 -54 -94q-47 -38 -107 -38q-79 0 -113 58t-22 144q13 92 69 150q56 60 144 60q68 0 111 -36l-43 -64q-31 22 -69 22q-44 0 -77.5 -30t-46.5 -77q34 36 91 36zM311 638q4 23 -10.5 38.5t-39.5 15.5q-28 0 -48 -17t-23 -43
q-4 -23 10.5 -39.5t39.5 -16.5q27 0 47.5 18t23.5 44z" />
    <glyph glyph-name="uni2077" unicode="&#x2077;" horiz-adv-x="320" 
d="M116 817l13 84h273l-8 -64l-198 -328h-103l185 308h-162z" />
    <glyph glyph-name="uni2078" unicode="&#x2078;" horiz-adv-x="376" 
d="M414 801q-8 -54 -75 -82q34 -13 51.5 -42.5t12.5 -62.5q-7 -49 -53 -81t-114 -32q-73 0 -111 35.5t-31 87.5q5 34 29.5 59.5t62.5 36.5q-25 13 -38 37.5t-9 52.5q7 46 49 74t103 28q62 0 96.5 -31.5t26.5 -79.5zM329 796q3 18 -10 31t-36 13q-25 0 -42.5 -13t-20.5 -34
q-3 -19 10 -31.5t37 -12.5q25 0 42.5 13.5t19.5 33.5zM316 629q3 22 -12 36.5t-44 14.5q-31 0 -52.5 -15.5t-24.5 -38.5q-3 -22 13 -36.5t45 -14.5q30 0 51 15t24 39z" />
    <glyph glyph-name="uni2079" unicode="&#x2079;" horiz-adv-x="370" 
d="M279 912q77 0 112 -59t23 -143q-13 -90 -70 -151q-56 -59 -143 -59q-66 0 -111 36l43 65q32 -23 69 -23q44 0 77.5 30t46.5 77q-34 -36 -91 -36q-60 0 -93 36.5t-24 94.5q7 56 54 94t107 38zM325 780q4 23 -10.5 39.5t-39.5 16.5q-27 0 -47 -17.5t-24 -43.5
q-4 -23 10.5 -38.5t39.5 -15.5q27 0 47 17t24 42z" />
    <glyph glyph-name="uni2080" unicode="&#x2080;" horiz-adv-x="411" 
d="M154 -161q-83 0 -121 59q-36 58 -22 150q13 91 65.5 146.5t131.5 55.5q84 0 120 -59q36 -58 22 -151q-14 -89 -64 -144q-51 -57 -132 -57zM159 -72q76 0 94 119q15 113 -50 113q-38 0 -61.5 -32.5t-32.5 -86.5q-17 -113 50 -113z" />
    <glyph glyph-name="uni2081" unicode="&#x2081;" horiz-adv-x="276" 
d="M-2 130l159 109h72l-60 -394h-94l38 263l-75 -52z" />
    <glyph glyph-name="uni2082" unicode="&#x2082;" horiz-adv-x="346" 
d="M223 11l-88 -79h133l-14 -87h-272l11 70l149 135q21 18 30 29q26 26 27 47q2 16 -8.5 27t-28.5 11q-41 0 -103 -44l-38 72q71 58 154 58q44 1 75.5 -20.5t42 -55.5t-6.5 -79t-63 -84z" />
    <glyph glyph-name="uni2083" unicode="&#x2083;" horiz-adv-x="348" 
d="M293 142q-10 -58 -83 -88q36 -11 53.5 -38t12.5 -61q-7 -51 -53.5 -83.5t-115.5 -32.5q-67 0 -131 41l43 70q49 -27 93 -27q63 0 68 44q2 20 -12.5 30.5t-38.5 10.5h-57l11 79h47q23 0 43 11t22 31q2 17 -10.5 26.5t-33.5 9.5q-34 0 -83 -29l-38 66q61 48 140 48
q59 0 94.5 -31t28.5 -77z" />
    <glyph glyph-name="uni2084" unicode="&#x2084;" horiz-adv-x="370" 
d="M266 9h41l-10 -75h-43l-13 -89h-85l13 89h-176l-12 56l246 251h74zM196 119l-109 -110h93z" />
    <glyph glyph-name="uni2085" unicode="&#x2085;" horiz-adv-x="346" 
d="M162 101q63 0 95.5 -37.5t23.5 -94.5q-10 -58 -57 -94.5t-113 -36.5q-77 0 -136 48l44 68q44 -33 92 -33q33 0 55.5 16.5t25.5 41.5q3 22 -12 36t-42 14q-37 0 -72 -28l-41 44l38 194h222l-12 -78h-154l-12 -69q29 9 55 9z" />
    <glyph glyph-name="uni2086" unicode="&#x2086;" horiz-adv-x="366" 
d="M181 101q60 0 93 -36.5t24 -94.5q-8 -57 -54 -94q-47 -38 -107 -38q-78 0 -113 59q-34 58 -22 143q14 92 69 150q55 60 144 60q67 0 111 -36l-43 -64q-31 22 -69 22q-44 0 -77.5 -30t-46.5 -77q35 36 91 36zM212 -24q4 23 -10.5 38.5t-39.5 15.5q-28 0 -48 -17t-23 -43
q-4 -23 10.5 -39.5t39.5 -16.5q27 0 47.5 18t23.5 44z" />
    <glyph glyph-name="uni2087" unicode="&#x2087;" horiz-adv-x="321" 
d="M17 155l13 84h273l-8 -64l-198 -328h-103l185 308h-162z" />
    <glyph glyph-name="uni2088" unicode="&#x2088;" horiz-adv-x="376" 
d="M315 139q-8 -54 -75 -82q34 -13 51.5 -42.5t12.5 -62.5q-7 -49 -53 -81t-114 -32q-73 0 -111 35.5t-31 87.5q5 34 29.5 59.5t62.5 36.5q-25 13 -38 37.5t-9 52.5q7 46 49 74t103 28q62 0 96.5 -31.5t26.5 -79.5zM230 134q3 18 -9.5 31t-36.5 13q-25 0 -42.5 -13
t-20.5 -34q-3 -19 10 -31.5t37 -12.5q25 0 42.5 13.5t19.5 33.5zM217 -33q3 22 -12 36.5t-44 14.5q-31 0 -52.5 -15.5t-24.5 -38.5q-3 -22 13 -36.5t45 -14.5q30 0 51 15t24 39z" />
    <glyph glyph-name="uni2089" unicode="&#x2089;" horiz-adv-x="370" 
d="M180 250q77 0 112 -59t23 -143q-13 -90 -70 -150q-55 -60 -143 -60q-66 0 -111 36l43 65q32 -23 69 -23q44 0 77.5 30t46.5 77q-35 -36 -91 -36q-60 0 -93 36.5t-24 94.5q7 56 54 94t107 38zM226 118q4 23 -10.5 39.5t-39.5 16.5q-27 0 -47 -17.5t-24 -43.5
q-4 -23 10.5 -38.5t39.5 -15.5q27 0 47 17t24 42z" />
    <glyph glyph-name="Euro" unicode="&#x20ac;" horiz-adv-x="756" 
d="M567 613q-67 0 -123.5 -33t-93.5 -90h331l-57 -95h-315q-5 -15 -6 -31q-2 -18 -2 -22h298l-52 -95h-234q20 -57 68 -89t113 -32q94 0 191 51l-17 -142q-88 -46 -204 -46q-123 0 -208 71q-83 71 -103 187h-120l53 95h63q0 16 3 32l3 21h-74l53 95h50q49 117 152 190
q102 72 229 72q136 0 225 -71l-81 -113q-60 45 -142 45z" />
    <glyph glyph-name="trademark" unicode="&#x2122;" horiz-adv-x="817" 
d="M112 739h279l-12 -79h-97l-40 -271h-85l40 271h-97zM594 547l170 192h59l-52 -350h-83l27 180l-118 -133h-34l-78 133l-27 -180h-83l52 350h58z" />
    <glyph glyph-name="estimated" unicode="&#x212e;" horiz-adv-x="962" 
d="M500 -17q-184 0 -312 110q-127 109 -127 273q0 165 127 274q128 111 312 111q183 0 310 -109q129 -110 129 -281v-21q0 -5 -7 -5h-686v-230q0 -3 4 -4q104 -72 250 -72q103 0 189 37t137 105l35 -29q-60 -75 -155.5 -117t-205.5 -42zM246 628v-243h508v244q0 3 -3 4
q-106 73 -251 73q-146 0 -252 -73q-2 -2 -2 -5z" />
    <glyph glyph-name="uni2150" unicode="&#x2150;" horiz-adv-x="895" 
d="M163 346l37 264l-75 -52l-40 74l159 109h71l-58 -395h-94zM53 -1l688 739h113l-686 -739h-115zM595 310l13 84h273l-8 -64l-198 -328h-103l185 308h-162z" />
    <glyph glyph-name="uni2151" unicode="&#x2151;" horiz-adv-x="906" 
d="M161 346l37 264l-75 -52l-40 74l159 109h71l-58 -395h-94zM55 0l688 739h113l-686 -739h-115zM731 405q77 0 112 -59t23 -143q-13 -90 -70 -151q-56 -59 -143 -59q-66 0 -111 36l43 65q32 -23 69 -23q44 0 77.5 30t46.5 77q-34 -36 -91 -36q-60 0 -93 36.5t-24 94.5
q7 56 54 94t107 38zM777 273q4 23 -10.5 39.5t-39.5 16.5q-27 0 -47 -17.5t-24 -43.5q-4 -23 10.5 -38.5t39.5 -15.5q27 0 47 17t24 42z" />
    <glyph glyph-name="uni2153" unicode="&#x2153;" horiz-adv-x="875" 
d="M162 346l37 264l-75 -52l-40 74l159 109h71l-58 -395h-94zM60 0l688 739h113l-687 -739h-114zM731 406q59 0 94.5 -31t28.5 -77q-10 -58 -83 -88q36 -11 53.5 -38t12.5 -61q-7 -51 -53.5 -83.5t-115.5 -32.5q-67 0 -131 41l43 70q50 -27 93 -27q63 0 68 44
q2 20 -12.5 30.5t-38.5 10.5h-57l11 79h47q23 0 43 11t22 31q2 17 -10.5 26.5t-33.5 9.5q-34 0 -83 -29l-38 66q61 48 140 48z" />
    <glyph glyph-name="uni2154" unicode="&#x2154;" horiz-adv-x="874" 
d="M219 434h133l-14 -87h-272l11 70l149 135q21 18 30 29q26 26 27 47q2 16 -8.5 27t-28.5 11q-41 0 -103 -44l-38 72q71 58 154 58q44 1 75.5 -20.5t42 -55.5t-6.5 -79t-63 -84zM95 0l688 739h113l-687 -739h-114zM765 404q59 0 94.5 -31t28.5 -77q-10 -58 -83 -88
q36 -11 53.5 -38t12.5 -61q-7 -51 -53.5 -83.5t-115.5 -32.5q-67 0 -131 41l43 70q50 -27 93 -27q63 0 68 44q2 20 -12.5 30.5t-38.5 10.5h-57l11 79h47q23 0 43 11t22 31q2 17 -10.5 26.5t-33.5 9.5q-34 0 -83 -29l-38 66q61 48 140 48z" />
    <glyph glyph-name="uni2155" unicode="&#x2155;" horiz-adv-x="869" 
d="M161 346l37 264l-75 -52l-40 74l159 109h71l-58 -395h-94zM53 0l688 739h114l-687 -739h-115zM830 394l-12 -78h-154l-12 -69q28 9 55 9q63 0 95.5 -37.5t23.5 -94.5q-10 -58 -57 -94.5t-113 -36.5q-78 0 -136 48l44 68q44 -33 92 -33q33 0 55.5 16.5t25.5 41.5
q3 22 -12 36t-42 14q-37 0 -72 -28l-41 44l38 194h222z" />
    <glyph glyph-name="uni2156" unicode="&#x2156;" horiz-adv-x="868" 
d="M218 434h133l-14 -87h-272l11 70l149 135q21 18 30 29q26 26 27 47q2 16 -8.5 27t-28.5 11q-41 0 -103 -44l-38 72q71 58 154 58q44 1 75.5 -20.5t42 -55.5t-6.5 -79t-63 -84zM87 0l688 739h113l-686 -739h-115zM867 394l-12 -78h-154l-12 -69q29 9 55 9q63 0 95.5 -37.5
t23.5 -94.5q-10 -58 -57 -94.5t-113 -36.5q-77 0 -136 48l44 68q43 -33 92 -33q33 0 55.5 16.5t25.5 41.5q3 22 -12 36t-42 14q-37 0 -72 -28l-41 44l38 194h222z" />
    <glyph glyph-name="uni2157" unicode="&#x2157;" horiz-adv-x="836" 
d="M361 457q-7 -51 -53.5 -83.5t-115.5 -32.5q-67 0 -131 41l43 70q50 -27 93 -27q63 0 68 44q2 20 -12.5 30.5t-38.5 10.5h-57l11 79h47q23 0 43 11t22 31q2 17 -10.5 26.5t-33.5 9.5q-34 0 -83 -29l-38 66q61 48 140 48q59 0 94.5 -31t28.5 -77q-10 -58 -83 -88
q36 -11 53.5 -38t12.5 -61zM56 0l688 739h113l-687 -739h-114zM841 394l-12 -78h-154l-12 -69q29 9 55 9q63 0 95.5 -37.5t23.5 -94.5q-10 -58 -57 -94.5t-113 -36.5q-77 0 -136 48l44 68q44 -33 92 -33q33 0 55.5 16.5t25.5 41.5q3 22 -12 36t-42 14q-37 0 -72 -28l-41 44
l38 194h222z" />
    <glyph glyph-name="uni2158" unicode="&#x2158;" horiz-adv-x="893" 
d="M329 347h-85l13 89h-176l-12 56l246 251h74l-35 -232h41l-10 -75h-43zM100 0l688 739h114l-687 -739h-115zM284 621l-109 -110h93zM886 394l-12 -78h-154l-12 -69q28 9 55 9q63 0 95.5 -37.5t23.5 -94.5q-10 -58 -57 -94.5t-113 -36.5q-78 0 -136 48l44 68q44 -33 92 -33
q33 0 55.5 16.5t25.5 41.5q3 22 -12 36t-42 14q-37 0 -72 -28l-41 44l38 194h222z" />
    <glyph glyph-name="uni2159" unicode="&#x2159;" horiz-adv-x="877" 
d="M161 346l37 264l-75 -52l-40 74l159 109h71l-58 -395h-94zM50 0l688 739h113l-686 -739h-115zM836 394l-12 -78h-154l-12 -69q28 9 55 9q63 0 95.5 -37.5t23.5 -94.5q-10 -58 -57 -94.5t-113 -36.5q-78 0 -136 48l44 68q44 -33 92 -33q33 0 55.5 16.5t25.5 41.5
q3 22 -12 36t-42 14q-37 0 -72 -28l-41 44l38 194h222z" />
    <glyph glyph-name="uni215A" unicode="&#x215a;" horiz-adv-x="874" 
d="M365 471q-10 -58 -57 -94.5t-113 -36.5q-77 0 -136 48l44 68q44 -33 92 -33q33 0 55.5 16.5t25.5 41.5q3 22 -12 36t-42 14q-37 0 -72 -28l-41 44l38 194h222l-12 -78h-154l-12 -69q28 9 55 9q63 0 95.5 -37.5t23.5 -94.5zM80 0l688 739h113l-686 -739h-115zM753 256
q60 0 93 -36.5t24 -94.5q-8 -57 -54 -94q-47 -38 -107 -38q-79 0 -113 58t-22 144q14 91 69 150q55 60 144 60q67 0 111 -36l-43 -64q-31 22 -69 22q-44 0 -77.5 -30t-46.5 -77q34 36 91 36zM784 131q4 23 -10.5 38.5t-39.5 15.5q-28 0 -48 -17t-23 -43q-4 -23 10.5 -39.5
t39.5 -16.5q27 0 47.5 18t23.5 44z" />
    <glyph glyph-name="oneeighth" unicode="&#x215b;" horiz-adv-x="890" 
d="M161 346l37 264l-75 -52l-40 74l159 109h71l-58 -395h-94zM51 0l688 739h113l-686 -739h-115zM726 405q62 0 96.5 -31.5t26.5 -79.5q-8 -54 -75 -82q34 -13 51.5 -42.5t12.5 -62.5q-7 -49 -53 -81t-114 -32q-73 0 -111 35.5t-31 87.5q5 34 29.5 59.5t62.5 36.5
q-25 13 -38 37.5t-9 52.5q7 46 49 74t103 28zM764 289q3 18 -9.5 31t-36.5 13q-25 0 -42.5 -13t-20.5 -34q-3 -19 10 -31.5t37 -12.5q25 0 42.5 13.5t19.5 33.5zM751 122q3 22 -12 36.5t-44 14.5q-31 0 -52.5 -15.5t-24.5 -38.5q-3 -22 13 -36.5t45 -14.5q30 0 51 15t24 39z
" />
    <glyph glyph-name="threeeighths" unicode="&#x215c;" horiz-adv-x="870" 
d="M361 457q-7 -51 -53.5 -83.5t-115.5 -32.5q-67 0 -131 41l43 70q50 -27 93 -27q63 0 68 44q2 20 -12.5 30.5t-38.5 10.5h-57l11 79h47q23 0 43 11t22 31q2 17 -10.5 26.5t-33.5 9.5q-34 0 -83 -29l-38 66q61 48 140 48q59 0 94.5 -31t28.5 -77q-10 -58 -83 -88
q36 -11 53.5 -38t12.5 -61zM88 0l688 739h114l-687 -739h-115zM761 405q62 0 96.5 -31.5t26.5 -79.5q-8 -54 -75 -82q34 -13 51.5 -42.5t12.5 -62.5q-7 -49 -53 -81t-114 -32q-73 0 -111 35.5t-31 87.5q5 34 29.5 59.5t62.5 36.5q-25 13 -38 37.5t-9 52.5q7 46 49 74t103 28
zM799 289q3 18 -10 31t-36 13q-25 0 -42.5 -13t-20.5 -34q-3 -19 10 -31.5t37 -12.5q25 0 42.5 13.5t19.5 33.5zM786 122q3 22 -12 36.5t-44 14.5q-31 0 -52.5 -15.5t-24.5 -38.5q-3 -22 13 -36.5t45 -14.5q30 0 51 15t24 39z" />
    <glyph glyph-name="fiveeighths" unicode="&#x215d;" horiz-adv-x="881" 
d="M365 471q-10 -58 -57 -94.5t-113 -36.5q-77 0 -136 48l44 68q44 -33 92 -33q33 0 55.5 16.5t25.5 41.5q3 22 -12 36t-42 14q-37 0 -72 -28l-41 44l38 194h222l-12 -78h-154l-12 -69q28 9 55 9q63 0 95.5 -37.5t23.5 -94.5zM85 0l688 739h113l-686 -739h-115zM895 294
q-8 -54 -75 -82q34 -13 51.5 -42.5t12.5 -62.5q-7 -49 -53 -81t-114 -32q-73 0 -111 35.5t-31 87.5q5 34 29.5 59.5t62.5 36.5q-25 13 -38 37.5t-9 52.5q7 46 49 74t103 28q62 0 96.5 -31.5t26.5 -79.5zM810 289q3 18 -9.5 31t-36.5 13q-25 0 -42.5 -13t-20.5 -34
q-3 -19 10 -31.5t37 -12.5q25 0 42.5 13.5t19.5 33.5zM797 122q3 22 -12 36.5t-44 14.5q-31 0 -52.5 -15.5t-24.5 -38.5q-3 -22 13 -36.5t45 -14.5q30 0 51 15t24 39z" />
    <glyph glyph-name="seveneighths" unicode="&#x215e;" horiz-adv-x="820" 
d="M387 677l-198 -328h-103l185 308h-162l13 84h273zM32 0l688 739h114l-687 -739h-115zM834 294q-8 -54 -75 -82q34 -13 51.5 -42.5t12.5 -62.5q-7 -49 -53 -81t-114 -32q-73 0 -111 35.5t-31 87.5q5 34 29.5 59.5t62.5 36.5q-25 13 -38 37.5t-9 52.5q7 46 49 74t103 28
q62 0 96.5 -31.5t26.5 -79.5zM749 289q3 18 -10 31t-36 13q-25 0 -42.5 -13t-20.5 -34q-3 -19 10 -31.5t37 -12.5q25 0 42.5 13.5t19.5 33.5zM736 122q3 22 -12 36.5t-44 14.5q-31 0 -52.5 -15.5t-24.5 -38.5q-3 -22 13 -36.5t45 -14.5q30 0 51 15t24 39z" />
    <glyph glyph-name="partialdiff" unicode="&#x2202;" horiz-adv-x="622" 
d="M260 -12q-110 0 -174 76q-63 76 -46 186q17 108 92 174q76 68 181 70q100 0 150 -80q-7 90 -61 167.5t-142 126.5l96 97q99 -52 177 -161q43 -58 61.5 -140.5t5.5 -171.5q-22 -148 -118 -247q-94 -97 -222 -97zM277 110q55 0 99 39q44 41 53 97q8 54 -22.5 90.5
t-81.5 36.5q-55 0 -98 -40q-43 -39 -51 -95q-8 -54 21 -91t80 -37z" />
    <glyph glyph-name="product" unicode="&#x220f;" horiz-adv-x="756" 
d="M112 734h688l-21 -143h-93l-106 -709h-149l106 709h-205l-105 -709h-149l106 709h-93z" />
    <glyph glyph-name="summation" unicode="&#x2211;" horiz-adv-x="654" 
d="M561 -179h-574l16 120l259 338l-155 340l17 120h574l-21 -140h-391l141 -320l-233 -318h388z" />
    <glyph glyph-name="minus" unicode="&#x2212;" horiz-adv-x="589" 
d="M534 267h-462l20 131h462z" />
    <glyph glyph-name="radical" unicode="&#x221a;" horiz-adv-x="737" 
d="M371 -118h-125l-105 432h-124l20 131h232l73 -348l348 711h158z" />
    <glyph glyph-name="infinity" unicode="&#x221e;" horiz-adv-x="943" 
d="M746 576q86 0 139 -63q53 -62 40 -150q-13 -84 -79 -142q-65 -58 -153 -58q-60 0 -104 29q-42 29 -103 99q-81 -71 -135 -99q-55 -29 -108 -29q-88 0 -139 62q-50 62 -38 151q12 87 76 143q64 57 153 57q55 0 98 -28q44 -27 110 -98q83 69 137 97q56 29 106 29zM185 368
q-5 -38 16 -64.5t58 -26.5q31 0 66 22t92 73q-46 51 -72.5 69.5t-54.5 18.5q-41 0 -70.5 -26.5t-34.5 -65.5zM805 368q6 39 -17.5 65.5t-63.5 26.5q-31 0 -63 -20q-33 -21 -87 -70q48 -56 72 -75q26 -18 54 -18q40 0 70 26t35 65z" />
    <glyph glyph-name="integral" unicode="&#x222b;" horiz-adv-x="479" 
d="M45 -210q-74 0 -112 34l35 113q28 -18 66 -18q43 0 73 29t39 87l86 570q15 107 74.5 163t144.5 56q81 0 125 -37l-42 -113q-29 19 -66 19q-41 0 -71.5 -29.5t-39.5 -87.5l-85 -569q-17 -110 -83 -163q-65 -54 -144 -54z" />
    <glyph glyph-name="approxequal" unicode="&#x2248;" horiz-adv-x="653" 
d="M420 385q-54 0 -112 31t-82 31q-25 0 -46.5 -13.5t-53.5 -48.5l-75 70q73 112 191 112q53 0 111 -31q60 -30 85 -30t47 14t54 52l76 -73q-83 -114 -195 -114zM425 165q-54 0 -112 31t-82 31q-25 0 -46.5 -13.5t-53.5 -48.5l-75 70q73 112 191 112q53 0 111 -31
q60 -30 85 -30t47 14t54 52l76 -73q-82 -114 -195 -114z" />
    <glyph glyph-name="notequal" unicode="&#x2260;" horiz-adv-x="590" 
d="M567 483l-18 -117h-173l-43 -77h205l-18 -117h-253l-60 -106h-86l60 106h-123l18 117h171l44 77h-204l18 117h252l61 107h85l-60 -107h124z" />
    <glyph glyph-name="lessequal" unicode="&#x2264;" horiz-adv-x="578" 
d="M517 326l-20 -133l-424 186l14 94l481 189l-21 -134l-290 -101zM492 156l-17 -116h-457l17 116h457z" />
    <glyph glyph-name="greaterequal" unicode="&#x2265;" horiz-adv-x="578" 
d="M547 379l-479 -186l19 133l291 101l-260 101l19 134l424 -189zM501 40h-457l18 116h457z" />
    <glyph glyph-name="lozenge" unicode="&#x25ca;" horiz-adv-x="706" 
d="M375 -42h-118l-202 418l326 416h117l203 -416zM220 378l118 -255l198 255l-119 251z" />
    <glyph glyph-name="NULL" horiz-adv-x="0" 
 />
    <glyph glyph-name="Euro.osf" horiz-adv-x="592" 
d="M435 492q-78 0 -137 -43.5t-81 -116.5h298l-48 -81h-5l-3 -4h-252q5 -69 51 -112t121 -43q71 0 160 43l-16 -109q-71 -37 -172 -37q-113 0 -186 73q-73 74 -74 185h-87l48 81h2l2 4h44q27 120 119 194q94 74 217 74q54 0 107.5 -17t87.5 -45l-59 -89q-61 43 -137 43z" />
    <glyph glyph-name="I_J.loclNLD" horiz-adv-x="895" 
d="M51 0l110 739h149l-110 -739h-149zM527 -12q-142 0 -232 105l82 110q63 -72 147 -72q63 0 106.5 45.5t54.5 119.5l67 443h148l-67 -452q-21 -146 -103 -222.5t-203 -76.5z" />
    <glyph glyph-name="Iacute_J.loclNLD" horiz-adv-x="892" 
d="M308 795h-133l91 183h166zM895 794h-133l91 183h166zM51 0l110 739h149l-110 -739h-149zM527 -12q-142 0 -232 105l82 110q63 -72 147 -72q63 0 106.5 45.5t54.5 119.5l67 443h148l-67 -452q-21 -146 -103 -222.5t-203 -76.5z" />
    <glyph glyph-name="J.loclNLD" horiz-adv-x="581" 
d="M584 794h-133l91 183h166zM216 -12q-142 0 -232 105l82 110q63 -72 147 -72q63 0 106.5 45.5t54.5 119.5l67 443h148l-67 -452q-21 -146 -103 -222.5t-203 -76.5z" />
    <glyph glyph-name="Jacute" horiz-adv-x="581" 
d="M586 794h-133l91 183h166zM216 -12q-142 0 -232 105l82 110q63 -72 147 -72q63 0 106.5 45.5t54.5 119.5l67 443h148l-67 -452q-21 -146 -103 -222.5t-203 -76.5z" />
    <glyph glyph-name="_1" horiz-adv-x="0" 
 />
    <glyph glyph-name="a.ss02" horiz-adv-x="578" 
d="M321 559q108 0 171 -57q64 -55 46 -180l-48 -322h-127l8 57q-71 -71 -177 -71q-92 0 -138 52t-34 130q24 164 272 167q73 1 115 4q2 50 -25 73.5t-82 23.5q-89 0 -177 -46l-38 107q110 62 234 62zM228 100q57 0 104 38q46 37 60 97l-104 -4q-123 -1 -131 -70
q-2 -28 17 -44.5t54 -16.5z" />
    <glyph glyph-name="aacute.ss02" horiz-adv-x="578" 
d="M342 802h160l-120 -176h-128zM321 559q108 0 171 -57q64 -55 46 -180l-48 -322h-127l8 57q-71 -71 -177 -71q-92 0 -138 52t-34 130q24 164 272 167q73 1 115 4q2 50 -25 73.5t-82 23.5q-89 0 -177 -46l-38 107q110 62 234 62zM228 100q57 0 104 38q46 37 60 97l-104 -4
q-123 -1 -131 -70q-2 -28 17 -44.5t54 -16.5z" />
    <glyph glyph-name="abreve.ss02" horiz-adv-x="578" 
d="M337 619q-84 0 -129 49t-36 132h110q-6 -40 9 -63t50 -23q37 0 63.5 24t33.5 62h112q-17 -86 -73.5 -133.5t-139.5 -47.5zM321 559q108 0 171 -57q64 -55 46 -180l-48 -322h-127l8 57q-71 -71 -177 -71q-92 0 -138 52t-34 130q24 164 272 167q73 1 115 4q2 50 -25 73.5
t-82 23.5q-89 0 -177 -46l-38 107q110 62 234 62zM228 100q57 0 104 38q46 37 60 97l-104 -4q-123 -1 -131 -70q-2 -28 17 -44.5t54 -16.5z" />
    <glyph glyph-name="acircumflex.ss02" horiz-adv-x="578" 
d="M408 626l-51 86l-79 -86h-137l174 176h105l122 -176h-134zM321 559q108 0 171 -57q64 -55 46 -180l-48 -322h-127l8 57q-71 -71 -177 -71q-92 0 -138 52t-34 130q24 164 272 167q73 1 115 4q2 50 -25 73.5t-82 23.5q-89 0 -177 -46l-38 107q110 62 234 62zM228 100
q57 0 104 38q46 37 60 97l-104 -4q-123 -1 -131 -70q-2 -28 17 -44.5t54 -16.5z" />
    <glyph glyph-name="acute.case" horiz-adv-x="341" 
d="M258 795h-133l91 183h166z" />
    <glyph glyph-name="adieresis.ss02" horiz-adv-x="578" 
d="M250 617q-38 0 -59.5 25t-15.5 63q5 34 32 56.5t61 22.5q36 0 57.5 -25t16.5 -61q-5 -35 -31.5 -58t-60.5 -23zM485 784q36 0 57.5 -25t16.5 -61t-31.5 -58.5t-60.5 -22.5q-38 0 -59 25t-16 63q5 34 32 56.5t61 22.5zM321 559q108 0 171 -57q64 -55 46 -180l-48 -322
h-127l8 57q-71 -71 -177 -71q-92 0 -138 52t-34 130q24 164 272 167q73 1 115 4q2 50 -25 73.5t-82 23.5q-89 0 -177 -46l-38 107q110 62 234 62zM228 100q57 0 104 38q46 37 60 97l-104 -4q-123 -1 -131 -70q-2 -28 17 -44.5t54 -16.5z" />
    <glyph glyph-name="agrave.ss02" horiz-adv-x="578" 
d="M388 803l35 -176h-122l-68 176h155zM321 559q108 0 171 -57q64 -55 46 -180l-48 -322h-127l8 57q-71 -71 -177 -71q-92 0 -138 52t-34 130q24 164 272 167q73 1 115 4q2 50 -25 73.5t-82 23.5q-89 0 -177 -46l-38 107q110 62 234 62zM228 100q57 0 104 38q46 37 60 97
l-104 -4q-123 -1 -131 -70q-2 -28 17 -44.5t54 -16.5z" />
    <glyph glyph-name="amacron.ss02" horiz-adv-x="578" 
d="M206 759h327l-19 -122l-327 -2zM321 559q108 0 171 -57q64 -55 46 -180l-48 -322h-127l8 57q-71 -71 -177 -71q-92 0 -138 52t-34 130q24 164 272 167q73 1 115 4q2 50 -25 73.5t-82 23.5q-89 0 -177 -46l-38 107q110 62 234 62zM228 100q57 0 104 38q46 37 60 97
l-104 -4q-123 -1 -131 -70q-2 -28 17 -44.5t54 -16.5z" />
    <glyph glyph-name="aogonek.ss02" horiz-adv-x="577" 
d="M321 559q108 0 171 -57q64 -55 46 -180l-48 -322q-45 -19 -79 -52.5t-38 -63.5q-3 -29 18 -37.5t60 10.5l19 -92q-56 -29 -108 -29q-58 0 -87.5 33t-21.5 85q14 84 119 146h-9l8 57q-71 -71 -177 -71q-92 0 -138 52t-34 130q24 164 272 167q73 1 115 4q2 50 -25 73.5
t-82 23.5q-89 0 -177 -46l-38 107q110 62 234 62zM228 100q57 0 104 38q46 37 60 97l-104 -4q-123 -1 -131 -70q-2 -28 17 -44.5t54 -16.5z" />
    <glyph glyph-name="aring.ss02" horiz-adv-x="578" 
d="M350 607q-57 0 -90 37t-25 92q7 52 51 90q43 37 99 37t89 -38q34 -37 26 -92q-7 -52 -52 -90q-44 -36 -98 -36zM315 735q-4 -22 9 -37t34 -15q22 0 40 15.5t21 39.5q4 20 -9 34.5t-34 14.5q-23 0 -40.5 -15t-20.5 -37zM321 559q108 0 171 -57q64 -55 46 -180l-48 -322
h-127l8 57q-71 -71 -177 -71q-92 0 -138 52t-34 130q24 164 272 167q73 1 115 4q2 50 -25 73.5t-82 23.5q-89 0 -177 -46l-38 107q110 62 234 62zM228 100q57 0 104 38q46 37 60 97l-104 -4q-123 -1 -131 -70q-2 -28 17 -44.5t54 -16.5z" />
    <glyph glyph-name="at.case" horiz-adv-x="966" 
d="M582 820q122 2 217.5 -55.5t139.5 -152.5t25 -201q-16 -112 -88 -188q-70 -75 -158 -75q-90 0 -112 73q-61 -73 -158 -73q-88 0 -139 63q-51 64 -36 160q13 88 79 151q67 62 153 62q88 0 129 -62l7 47h108l-40 -261q-11 -60 32 -60q35 0 71 50q38 51 48 123
q20 131 -64 216q-82 87 -221 85q-154 -1 -271 -105q-116 -102 -135 -256q-19 -151 69 -252q88 -100 239 -100q147 0 284 93l41 -86q-57 -43 -149 -75q-90 -31 -186 -31q-197 0 -313 135q-115 135 -90 328q26 191 172 319q148 128 346 128zM475 249q50 0 89 36q38 35 46 86
q7 50 -19.5 82t-72.5 32q-47 0 -88 -36q-39 -35 -47 -89q-6 -48 19.5 -79.5t72.5 -31.5z" />
    <glyph glyph-name="atilde.ss02" horiz-adv-x="578" 
d="M301 673q-42 0 -78 -55l-86 52q65 111 153 111q38 0 76 -22q39 -21 52 -21q38 0 73 51l86 -50q-59 -111 -146 -111q-34 0 -74 22q-41 23 -56 23zM321 559q108 0 171 -57q64 -55 46 -180l-48 -322h-127l8 57q-71 -71 -177 -71q-92 0 -138 52t-34 130q24 164 272 167
q73 1 115 4q2 50 -25 73.5t-82 23.5q-89 0 -177 -46l-38 107q110 62 234 62zM228 100q57 0 104 38q46 37 60 97l-104 -4q-123 -1 -131 -70q-2 -28 17 -44.5t54 -16.5z" />
    <glyph glyph-name="backslash.case" horiz-adv-x="596" 
d="M250 739l293 -739h-149l-295 739h151z" />
    <glyph glyph-name="braceleft.case" horiz-adv-x="415" 
d="M199 368l-2 -3q40 -13 64 -47t18 -79l-28 -181q-11 -78 67 -78h29l-20 -134h-67q-184 0 -156 189q10 63 13 92l13 88q8 55 -23 74q-26 16 -77 22l15 112q61 7 91.5 28.5t38.5 70.5l14 83q15 93 16 103q25 180 216 180h62l-20 -133h-27q-82 0 -92 -81l-28 -182
q-6 -45 -39.5 -78t-77.5 -46z" />
    <glyph glyph-name="braceright.case" horiz-adv-x="415" 
d="M345 618l-14 -97q-6 -49 16.5 -69t82.5 -27l-15 -112q-61 -6 -91.5 -27t-38.5 -72l-16 -86q-3 -17 -8.5 -49.5t-7.5 -44.5q-27 -186 -209 -186h-70l20 134h28q78 0 92 80l15 92q12 76 14 90q13 80 114 126q-89 44 -76 127l14 92q3 18 6 38t5 32.5t3 19.5q12 77 -67 77
h-29l20 134h60q189 0 164 -183z" />
    <glyph glyph-name="bracketleft.case" horiz-adv-x="417" 
d="M340 -147h-311l155 1038h311l-19 -125h-167l-117 -788h167z" />
    <glyph glyph-name="bracketright.case" horiz-adv-x="417" 
d="M281 -147h-311l18 125h167l118 788h-167l19 125h311z" />
    <glyph glyph-name="breve.case" horiz-adv-x="482" 
d="M306 786q-87 0 -134 50.5t-37 137.5h114q-6 -42 9.5 -66t51.5 -24q39 0 66.5 25t34.5 65h116q-18 -89 -76.5 -138.5t-144.5 -49.5z" />
    <glyph glyph-name="brevecombcy" horiz-adv-x="0" 
d="M-180 590q-129 0 -191 119l92 71q23 -46 49 -63.5t66 -17.5q81 0 175 87l57 -84q-125 -112 -248 -112z" />
    <glyph glyph-name="caron.alt" horiz-adv-x="312" 
d="M223 624h-123l66 179h151z" />
    <glyph glyph-name="caron.case" horiz-adv-x="537" 
d="M295 792l-118 176h137l52 -86l78 86h134l-178 -176h-105z" />
    <glyph glyph-name="cedilla.case" horiz-adv-x="345" 
d="M200 18l-37 -66q45 -2 72.5 -31t20.5 -73q-7 -49 -51.5 -82.5t-112.5 -33.5q-58 0 -117 32l36 80q37 -21 81 -21q54 0 59 39q2 16 -10 24.5t-39 8.5h-55l-4 27l54 98z" />
    <glyph glyph-name="circumflex.case" horiz-adv-x="529" 
d="M263 796h-143l181 183h109l127 -183h-139l-53 89z" />
    <glyph glyph-name="colon.case" horiz-adv-x="278" 
d="M177 445q-36 0 -56.5 23.5t-15.5 59.5q4 35 30 57t62 22t56.5 -24.5t14.5 -60.5q-6 -34 -32 -55.5t-59 -21.5zM122 106q-36 0 -56.5 23.5t-15.5 59.5q4 35 30 57t62 22t56.5 -24.5t14.5 -60.5q-6 -34 -32 -55.5t-59 -21.5z" />
    <glyph glyph-name="comma.ss03" horiz-adv-x="253" 
d="M-52 -180l127 315h138l-156 -315h-109z" />
    <glyph glyph-name="commaccent" horiz-adv-x="249" 
d="M87 -66q40 0 63.5 -28.5t16.5 -70.5q-7 -43 -46.5 -85.5t-119.5 -94.5l-46 66q60 41 89 66q-21 9 -33 31t-8 47q4 29 28 49t56 20z" />
    <glyph glyph-name="commaccent.case" horiz-adv-x="228" 
d="M90 -68q40 0 64.5 -29t17.5 -72q-7 -44 -48 -88t-122 -96l-47 67q64 43 92 68q-23 10 -35 32t-8 48q4 29 28.5 49.5t57.5 20.5z" />
    <glyph glyph-name="dieresis.case" horiz-adv-x="474" 
d="M191 801q-37 0 -58.5 25t-15.5 62q5 33 31.5 55.5t60.5 22.5q35 0 56 -25t16 -60t-31 -57.5t-59 -22.5zM404 801q-37 0 -58 24.5t-16 62.5q5 33 31.5 55.5t60.5 22.5q35 0 56.5 -25t16.5 -60t-31.5 -57.5t-59.5 -22.5z" />
    <glyph glyph-name="dollar.osf" horiz-adv-x="473" 
d="M384 304q84 -51 72 -138q-10 -65 -62 -111t-128 -61l-17 -116h-123l17 114q-116 21 -166 119l98 81q21 -40 58 -63t84 -23q39 0 64.5 15.5t29.5 41.5q3 19 -8.5 30.5t-41.5 27.5q-104 48 -130 65q-41 27 -60.5 67.5t-12.5 83.5q11 64 59 105t123 53l16 108h122l-16 -110
q76 -15 132 -74l-86 -90q-58 55 -127 55q-39 0 -62 -14t-27 -38q-4 -33 60 -63l61 -29q53 -25 71 -36z" />
    <glyph glyph-name="dotaccent.case" horiz-adv-x="301" 
d="M191 799q-40 0 -62.5 26t-16.5 65q5 35 32.5 58.5t62.5 23.5q39 0 61.5 -26t16.5 -65q-5 -35 -32 -58.5t-62 -23.5z" />
    <glyph glyph-name="eight.dnom" horiz-adv-x="376" 
d="M338 294q-8 -54 -75 -82q34 -13 51.5 -42.5t12.5 -62.5q-7 -49 -53 -81t-114 -32q-73 0 -111 35.5t-31 87.5q5 34 29.5 59.5t62.5 36.5q-25 13 -38 37.5t-9 52.5q7 46 49 74t103 28q62 0 96.5 -31.5t26.5 -79.5zM253 289q3 18 -10 31t-36 13q-25 0 -42.5 -13t-20.5 -34
q-3 -19 10 -31.5t37 -12.5q25 0 42.5 13.5t19.5 33.5zM240 122q3 22 -12 36.5t-44 14.5q-31 0 -52.5 -15.5t-24.5 -38.5q-3 -22 13 -36.5t45 -14.5q30 0 51 15t24 39z" />
    <glyph glyph-name="eight.lf" horiz-adv-x="636" 
d="M616 551q-17 -104 -134 -159q61 -28 90 -79.5t19 -114.5q-16 -94 -101 -152q-83 -58 -204 -58q-125 0 -192 64t-54 161q18 126 170 181q-48 25 -70.5 69t-12.5 97q14 86 89 139q77 53 182 53q111 0 170 -58q62 -57 48 -143zM478 539q7 39 -20.5 65.5t-75.5 26.5
q-49 0 -83.5 -25.5t-40.5 -66.5q-6 -39 20.5 -65.5t74.5 -26.5t82.5 26t42.5 66zM447 221q6 43 -26 72t-87 29q-59 0 -99 -28.5t-46 -73.5q-8 -44 23.5 -73t87.5 -29q57 0 98.5 29t48.5 74z" />
    <glyph glyph-name="eight.num" horiz-adv-x="376" 
d="M390 641q-8 -54 -75 -82q34 -13 51.5 -42.5t12.5 -62.5q-7 -49 -53 -81t-114 -32q-73 0 -111 35.5t-31 87.5q5 34 29.5 59.5t62.5 36.5q-25 13 -38 37.5t-9 52.5q7 46 49 74t103 28q62 0 96.5 -31.5t26.5 -79.5zM305 636q3 18 -10 31t-36 13q-25 0 -42.5 -13t-20.5 -34
q-3 -19 10 -31.5t37 -12.5q25 0 42.5 13.5t19.5 33.5zM292 469q3 22 -12 36.5t-44 14.5q-31 0 -52.5 -15.5t-24.5 -38.5q-3 -22 13 -36.5t45 -14.5q30 0 51 15t24 39z" />
    <glyph glyph-name="eight.osf" horiz-adv-x="628" 
d="M609 526q-15 -97 -133 -151q62 -27 91 -76.5t19 -109.5q-15 -91 -99 -146q-83 -55 -204 -55q-126 0 -194 61q-67 61 -54 154q20 125 169 174q-48 24 -70.5 65.5t-13.5 92.5q14 83 88 132q75 51 182 51q111 0 170 -55q61 -55 49 -137zM471 514q7 36 -20.5 61t-75.5 25
q-49 0 -83.5 -24t-40.5 -62q-5 -37 21.5 -61.5t74.5 -24.5q49 0 83 24t41 62zM443 211q5 40 -27 67.5t-87 27.5q-59 0 -99 -27t-46 -69q-7 -41 25 -68t88 -27q57 0 98 26.5t48 69.5z" />
    <glyph glyph-name="eight.tf" horiz-adv-x="619" 
d="M607 551q-17 -104 -134 -159q61 -28 90 -79.5t19 -114.5q-16 -94 -101 -152q-83 -58 -204 -58q-125 0 -192 64t-54 161q18 126 170 181q-48 25 -70.5 69t-12.5 97q14 86 89 139q77 53 182 53q111 0 170 -58q62 -57 48 -143zM469 539q7 39 -20.5 65.5t-75.5 26.5
q-49 0 -83.5 -25.5t-40.5 -66.5q-6 -39 20.5 -65.5t74.5 -26.5t82.5 26t42.5 66zM438 221q6 43 -26 72t-87 29q-59 0 -99 -28.5t-46 -73.5q-8 -44 23.5 -73t87.5 -29q57 0 98.5 29t48.5 74z" />
    <glyph glyph-name="eight_fraction_nine" horiz-adv-x="873" 
d="M214 341q-73 0 -111 35.5t-31 87.5q5 34 29.5 59.5t62.5 36.5q-25 13 -38 37.5t-9 52.5q7 46 49 74t103 28q62 0 96.5 -31.5t26.5 -79.5q-8 -54 -75 -82q34 -13 51.5 -42.5t12.5 -62.5q-7 -49 -53 -81t-114 -32zM83 -1l688 739h113l-686 -739h-115zM198 633
q-3 -19 10 -31.5t37 -12.5q25 0 42.5 13.5t19.5 33.5q3 18 -10 31t-36 13q-25 0 -42.5 -13t-20.5 -34zM161 466q-3 -22 13 -36.5t45 -14.5q30 0 51 15t24 39q3 22 -12 36.5t-44 14.5q-31 0 -52.5 -15.5t-24.5 -38.5zM759 405q77 0 112 -59t23 -143q-13 -90 -70 -151
q-56 -59 -143 -59q-66 0 -111 36l43 65q32 -23 69 -23q44 0 77.5 30t46.5 77q-34 -36 -91 -36q-60 0 -93 36.5t-24 94.5q7 56 54 94t107 38zM805 273q4 23 -10.5 39.5t-39.5 16.5q-27 0 -47 -17.5t-24 -43.5q-4 -23 10.5 -38.5t39.5 -15.5q27 0 47 17t24 42z" />
    <glyph glyph-name="emdash.case" horiz-adv-x="1047" 
d="M997 303h-920l22 142h919z" />
    <glyph glyph-name="endash.case" horiz-adv-x="728" 
d="M678 303h-601l22 142h600z" />
    <glyph glyph-name="exclamdown.case" horiz-adv-x="290" 
d="M200 603q-36 0 -56.5 23.5t-15.5 59.5q4 35 30 57t62 22t56.5 -24.5t14.5 -60.5q-6 -34 -32 -55.5t-59 -21.5zM27 0l95 549h131l-78 -549h-148z" />
    <glyph glyph-name="five.dnom" horiz-adv-x="346" 
d="M185 256q63 0 95.5 -37.5t23.5 -94.5q-10 -58 -57 -94.5t-113 -36.5q-78 0 -136 48l44 68q44 -33 92 -33q33 0 55.5 16.5t25.5 41.5q3 22 -12 36t-42 14q-37 0 -72 -28l-41 44l38 194h222l-12 -78h-154l-12 -69q28 9 55 9z" />
    <glyph glyph-name="five.lf" horiz-adv-x="588" 
d="M338 476q103 0 168 -68t49 -176q-15 -108 -100 -176q-86 -68 -208 -68q-134 0 -238 85l71 114q81 -63 172 -63q62 0 105 33.5t51 84.5q7 47 -23 77t-83 30q-70 0 -132 -50l-76 70l67 370h407l-20 -136h-288l-25 -146q45 19 103 19z" />
    <glyph glyph-name="five.num" horiz-adv-x="346" 
d="M237 603q63 0 95.5 -37.5t23.5 -94.5q-10 -58 -57 -94.5t-113 -36.5q-78 0 -136 48l44 68q43 -33 92 -33q33 0 55.5 16.5t25.5 41.5q3 22 -12 36t-42 14q-37 0 -72 -28l-41 44l38 194h222l-12 -78h-154l-12 -69q29 9 55 9z" />
    <glyph glyph-name="five.osf" horiz-adv-x="566" 
d="M308 342q105 0 169 -64q65 -63 52 -166q-13 -100 -100 -165q-86 -65 -208 -65q-132 0 -238 80l70 111q82 -59 172 -59q63 0 106 30.5t50 77.5q7 43 -24 70.5t-84 27.5q-71 0 -130 -47l-77 69l64 349h406l-19 -131h-289l-23 -136q50 18 103 18z" />
    <glyph glyph-name="five.tf" horiz-adv-x="619" 
d="M349 476q103 0 168 -68t49 -176q-15 -108 -100 -176q-86 -68 -208 -68q-134 0 -238 85l71 114q81 -63 172 -63q62 0 105 33.5t51 84.5q7 47 -23 77t-83 30q-70 0 -132 -50l-76 70l67 370h407l-20 -136h-288l-25 -146q45 19 103 19z" />
    <glyph glyph-name="five_fraction_nine" horiz-adv-x="871" 
d="M365 471q-10 -58 -57 -94.5t-113 -36.5q-77 0 -136 48l44 68q44 -33 92 -33q33 0 55.5 16.5t25.5 41.5q3 22 -12 36t-42 14q-37 0 -72 -28l-41 44l38 194h222l-12 -78h-154l-12 -69q28 9 55 9q63 0 95.5 -37.5t23.5 -94.5zM79 -1l688 739h113l-686 -739h-115zM756 405
q77 0 112 -59t23 -143q-13 -90 -70 -151q-56 -59 -143 -59q-66 0 -111 36l43 65q32 -23 69 -23q44 0 77.5 30t46.5 77q-35 -36 -91 -36q-60 0 -93 36.5t-24 94.5q7 56 54 94t107 38zM802 273q4 23 -10.5 39.5t-39.5 16.5q-27 0 -47 -17.5t-24 -43.5q-4 -23 10.5 -38.5
t39.5 -15.5q27 0 47 17t24 42z" />
    <glyph glyph-name="five_fraction_seven" horiz-adv-x="867" 
d="M369 471q-10 -58 -57 -94.5t-113 -36.5q-77 0 -136 48l44 68q44 -33 92 -33q33 0 55.5 16.5t25.5 41.5q3 22 -12 36t-42 14q-37 0 -72 -28l-41 44l38 194h222l-12 -78h-154l-12 -69q28 9 55 9q63 0 95.5 -37.5t23.5 -94.5zM81 0l688 739h113l-686 -739h-115zM629 310
l13 84h273l-8 -64l-198 -328h-103l185 308h-162z" />
    <glyph glyph-name="four.dnom" horiz-adv-x="370" 
d="M289 164h41l-10 -75h-43l-13 -89h-85l13 89h-176l-12 56l246 251h74zM219 274l-109 -110h93z" />
    <glyph glyph-name="four.lf" horiz-adv-x="616" 
d="M510 295h80l-18 -123h-80l-26 -172h-138l25 172h-324l-16 95l456 472h107zM405 524l-217 -229h184z" />
    <glyph glyph-name="four.num" horiz-adv-x="370" 
d="M341 511h41l-10 -75h-43l-13 -89h-85l13 89h-176l-12 56l246 251h74zM271 621l-109 -110h93z" />
    <glyph glyph-name="four.osf" horiz-adv-x="608" 
d="M488 187h80l-19 -120h-79l-26 -175h-139l26 175h-318l-14 96l442 429h108zM379 384l-203 -197h174z" />
    <glyph glyph-name="four.tf" horiz-adv-x="619" 
d="M522 295h80l-18 -123h-80l-26 -172h-138l25 172h-324l-16 95l456 472h107zM417 524l-217 -229h184z" />
    <glyph glyph-name="four_fraction_nine" horiz-adv-x="939" 
d="M329 347h-85l13 89h-176l-12 56l246 251h74l-35 -232h41l-10 -75h-43zM119 -1l688 739h114l-687 -739h-115zM284 621l-109 -110h93zM815 405q77 0 112 -59t23 -143q-13 -90 -70 -151q-56 -59 -143 -59q-66 0 -111 36l43 65q32 -23 69 -23q44 0 77.5 30t46.5 77
q-34 -36 -91 -36q-60 0 -93 36.5t-24 94.5q7 56 54 94t107 38zM861 273q4 23 -10.5 39.5t-39.5 16.5q-27 0 -47 -17.5t-24 -43.5q-4 -23 10.5 -38.5t39.5 -15.5q27 0 47 17t24 42z" />
    <glyph glyph-name="four_fraction_seven" horiz-adv-x="912" 
d="M329 347h-85l13 89h-176l-12 56l246 251h74l-35 -232h41l-10 -75h-43zM125 0l688 739h113l-686 -739h-115zM284 621l-109 -110h93zM669 310l13 84h273l-8 -64l-198 -328h-103l185 308h-162z" />
    <glyph glyph-name="grave.case" horiz-adv-x="333" 
d="M311 978l37 -183h-129l-71 183h163z" />
    <glyph glyph-name="guillemotleft.case" horiz-adv-x="595" 
d="M313 173h-144l-107 203l165 203h150l-172 -203zM537 173h-144l-106 203l164 203h150l-171 -203z" />
    <glyph glyph-name="guillemotright.case" horiz-adv-x="595" 
d="M349 376l-167 -203h-144l168 203l-110 203h151zM574 376l-168 -203h-144l169 203l-111 203h150z" />
    <glyph glyph-name="guilsinglleft.case" horiz-adv-x="370" 
d="M313 173h-144l-107 203l165 203h150l-172 -203z" />
    <glyph glyph-name="guilsinglright.case" horiz-adv-x="371" 
d="M349 376l-168 -203h-144l170 203l-112 203h150z" />
    <glyph glyph-name="hungarumlaut.case" horiz-adv-x="557" 
d="M232 795h-124l71 183h160zM441 795h-127l86 183h164z" />
    <glyph glyph-name="hyphen.case" horiz-adv-x="538" 
d="M488 303h-411l22 142h411z" />
    <glyph glyph-name="i.loclTRK" horiz-adv-x="269" 
d="M200 606q-40 0 -62.5 26t-16.5 65q5 35 32.5 58.5t62.5 23.5q39 0 61.5 -26t16.5 -65q-5 -35 -32 -58.5t-62 -23.5zM257 545l-81 -545h-141l81 545h141z" />
    <glyph glyph-name="i_j.loclNLD" horiz-adv-x="553" 
d="M201 606q-40 0 -62.5 26t-16.5 65q5 35 32.5 58.5t62.5 23.5q39 0 61.5 -26t16.5 -65q-5 -35 -32 -58.5t-62 -23.5zM482 606q-40 0 -62.5 26t-16.5 65q5 35 32.5 58.5t62.5 23.5q39 0 61.5 -26t16.5 -65q-5 -35 -32 -58.5t-62 -23.5zM257 545l-81 -545h-141l81 545h141z
M213 -232q-70 0 -122 31l40 112q35 -18 73 -18q95 0 116 138l77 514h141l-81 -538q-17 -120 -81 -179.5t-163 -59.5z" />
    <glyph glyph-name="iacute_j.loclNLD" horiz-adv-x="553" 
d="M261 626h-128l88 176h160zM549 626h-128l88 176h160zM255 545l-81 -545h-141l81 545h141zM213 -232q-70 0 -122 31l40 112q35 -18 73 -18q95 0 116 138l77 514h141l-81 -538q-17 -120 -81 -179.5t-163 -59.5z" />
    <glyph glyph-name="j.loclNLD" horiz-adv-x="294" 
d="M223 606q-40 0 -62.5 26t-16.5 65q5 35 32.5 58.5t62.5 23.5q39 0 61.5 -26t16.5 -65q-5 -35 -32 -58.5t-62 -23.5zM-46 -232q-70 0 -122 31l40 112q34 -18 73 -18q95 0 116 138l77 514h141l-81 -538q-17 -120 -81 -179.5t-163 -59.5z" />
    <glyph glyph-name="jacute" horiz-adv-x="293" 
d="M281 626h-128l88 176h160zM-46 -232q-70 0 -122 31l40 112q34 -18 73 -18q95 0 116 138l77 514h141l-81 -538q-17 -120 -81 -179.5t-163 -59.5z" />
    <glyph glyph-name="macron.case" horiz-adv-x="479" 
d="M480 817l-367 -2l21 124h368z" />
    <glyph glyph-name="nine.dnom" horiz-adv-x="370" 
d="M203 405q77 0 112 -59t23 -143q-13 -90 -70 -151q-56 -59 -143 -59q-66 0 -111 36l43 65q32 -23 69 -23q44 0 77.5 30t46.5 77q-34 -36 -91 -36q-60 0 -93 36.5t-24 94.5q7 56 54 94t107 38zM249 273q4 23 -10.5 39.5t-39.5 16.5q-27 0 -47 -17.5t-24 -43.5
q-4 -23 10.5 -38.5t39.5 -15.5q27 0 47 17t24 42z" />
    <glyph glyph-name="nine.lf" horiz-adv-x="622" 
d="M359 752q141 0 204 -108q63 -109 41 -268q-13 -105 -57 -191t-123 -141.5t-181 -55.5q-121 0 -195 66l60 109q52 -45 132 -45q77 0 132 56.5t84 155.5q-68 -65 -165 -65q-105 0 -164 71q-58 70 -44 179q13 105 89 171t187 66zM323 388q51 0 89.5 34.5t44.5 85.5
q6 50 -23.5 84t-79.5 34t-88 -35q-37 -34 -44 -86q-6 -50 22.5 -83.5t78.5 -33.5z" />
    <glyph glyph-name="nine.num" horiz-adv-x="370" 
d="M255 752q77 0 112 -59t23 -143q-13 -90 -70 -151q-56 -59 -143 -59q-66 0 -111 36l43 65q32 -23 69 -23q44 0 77.5 30t46.5 77q-34 -36 -91 -36q-60 0 -93 36.5t-24 94.5q7 56 54 94t107 38zM301 620q4 23 -10.5 39.5t-39.5 16.5q-27 0 -47 -17.5t-24 -43.5
q-4 -23 10.5 -38.5t39.5 -15.5q27 0 47 17t24 42z" />
    <glyph glyph-name="nine.osf" horiz-adv-x="588" 
d="M321 601q141 0 205 -102q64 -101 43 -253q-19 -154 -113 -260q-93 -106 -244 -106q-120 0 -196 62l59 106q55 -43 132 -43q155 0 214 197q-64 -61 -164 -61q-107 0 -165 67q-58 68 -45 168q14 101 88 162q75 63 186 63zM288 261q51 0 89.5 31.5t43.5 77.5
q6 46 -23.5 77.5t-79.5 31.5t-87.5 -31.5t-44.5 -79.5q-6 -46 23 -76.5t79 -30.5z" />
    <glyph glyph-name="nine.tf" horiz-adv-x="619" 
d="M358 752q141 0 204 -108q63 -109 41 -268q-13 -105 -57 -191t-123 -141.5t-181 -55.5q-122 0 -195 66l60 109q53 -45 132 -45q77 0 132 56.5t84 155.5q-68 -65 -165 -65q-105 0 -164 71q-58 70 -44 179q13 105 89 171t187 66zM322 388q51 0 89.5 34.5t44.5 85.5
q6 50 -23.5 84t-79.5 34t-88 -35q-37 -34 -44 -86q-6 -50 22.5 -83.5t78.5 -33.5z" />
    <glyph glyph-name="ogonek.case" horiz-adv-x="327" 
d="M184 -143l19 -92q-56 -29 -108 -29q-58 0 -87.5 33t-21.5 85q14 97 153 164l84 -18q-45 -19 -79 -52.5t-38 -63.5q-3 -29 18 -37.5t60 10.5z" />
    <glyph glyph-name="one.dnom" horiz-adv-x="276" 
d="M21 285l159 109h72l-59 -395h-94l37 264l-75 -52z" />
    <glyph glyph-name="one.lf" horiz-adv-x="418" 
d="M49 556l253 183h113l-110 -739h-145l79 536l-123 -85z" />
    <glyph glyph-name="one.num" horiz-adv-x="276" 
d="M73 632l159 109h72l-60 -394h-94l38 263l-75 -52z" />
    <glyph glyph-name="one.numalt" horiz-adv-x="267" 
d="M73 632l159 109h71l-58 -395h-94l37 264l-75 -52z" />
    <glyph glyph-name="one.osf" horiz-adv-x="530" 
d="M415 591l-70 -469h146l-18 -122h-443l18 122h159l42 292l-154 -90l-55 108l266 159h109z" />
    <glyph glyph-name="one.tf" horiz-adv-x="619" 
d="M482 739l-90 -603h152l-20 -136h-455l20 136h159l58 404l-125 -88l-64 105l254 182h111z" />
    <glyph glyph-name="parenleft.case" horiz-adv-x="418" 
d="M368 -35l-77 -108q-137 84 -196.5 219t-34.5 306q54 341 383 505l49 -115q-242 -149 -280 -403q-36 -248 156 -404z" />
    <glyph glyph-name="parenright.case" horiz-adv-x="418" 
d="M27 -145l-53 114q241 155 278 402q38 254 -154 405l72 108q140 -85 200 -220t34 -307q-24 -165 -120.5 -293.5t-256.5 -208.5z" />
    <glyph glyph-name="periodcentered.case" horiz-adv-x="265" 
d="M101 286q-36 0 -56.5 23.5t-15.5 59.5q4 35 30 57t62 22t56.5 -24.5t14.5 -60.5q-6 -34 -32 -55.5t-59 -21.5z" />
    <glyph glyph-name="questiondown.case" horiz-adv-x="550" 
d="M378 757q36 0 56.5 -23.5t15.5 -59.5q-5 -34 -32 -56.5t-62 -22.5q-37 0 -57 25t-12 60q6 34 32 55.5t59 21.5zM282 549h136l-13 -74q-13 -80 -87 -138q-6 -4 -35.5 -25t-40 -29.5t-29.5 -26.5t-27.5 -34.5t-11.5 -34.5q-7 -39 16 -63t65 -24q81 0 167 86l74 -98
q-118 -121 -264 -121q-105 0 -165 63q-59 64 -43 154q15 86 95 149q9 7 38.5 29t42 33t32 29.5t29 36.5t13.5 38z" />
    <glyph glyph-name="quotedblbase.ss03" horiz-adv-x="505" 
d="M-33 -151l127 315h137l-155 -315h-109zM203 -151l126 315h138l-155 -315h-109z" />
    <glyph glyph-name="quotedblleft.ss03" horiz-adv-x="488" 
d="M343 850l-127 -315h-137l155 315h109zM579 850l-126 -315h-138l155 315h109z" />
    <glyph glyph-name="quotedblright.ss03" horiz-adv-x="497" 
d="M77 536l127 315h137l-155 -315h-109zM313 536l126 315h137l-155 -315h-108z" />
    <glyph glyph-name="quoteleft.ss03" horiz-adv-x="251" 
d="M337 850l-126 -315h-137l155 315h108z" />
    <glyph glyph-name="quoteright.ss03" horiz-adv-x="249" 
d="M77 536l127 315h137l-155 -315h-109z" />
    <glyph glyph-name="quotesinglbase.ss03" horiz-adv-x="258" 
d="M-52 -151l127 315h137l-155 -315h-109z" />
    <glyph glyph-name="ring.case" horiz-adv-x="363" 
d="M239 776q-59 0 -94 39q-34 38 -26 95q7 54 53 93t103 39q59 0 93 -40q35 -40 26 -95q-8 -55 -54 -93t-101 -38zM247 855q23 0 41.5 16.5t21.5 40.5q4 21 -9 36t-35 15q-24 0 -42.5 -15.5t-21.5 -38.5q-4 -24 9.5 -39t35.5 -15z" />
    <glyph glyph-name="semicolon.case" horiz-adv-x="308" 
d="M218 609q37 0 58 -25.5t14 -61.5q-6 -35 -32.5 -57t-60.5 -22q-36 0 -57.5 24.5t-16.5 60.5t32 58.5t63 22.5zM163 274q41 0 64.5 -30.5t17.5 -75.5q-14 -101 -179 -202l-40 61q89 62 111 91q-29 2 -47.5 26t-14.5 55q4 32 29 53.5t59 21.5z" />
    <glyph glyph-name="semicolon.case.ss03" horiz-adv-x="305" 
d="M197 439q-36 0 -57.5 24.5t-16.5 60.5q4 36 31 59t63 23q38 0 59 -26t15 -62q-6 -35 -32.5 -57t-61.5 -22zM-45 -150l127 315h138l-156 -315h-109z" />
    <glyph glyph-name="semicolon.ss03" horiz-adv-x="289" 
d="M185 342q-36 0 -57.5 24.5t-16.5 60.5q5 37 31.5 59.5t62.5 22.5q38 0 59.5 -25.5t14.5 -62.5q-7 -35 -33 -57t-61 -22zM-51 -180l127 315h137l-155 -315h-109z" />
    <glyph glyph-name="seven.dnom" horiz-adv-x="320" 
d="M40 310l13 84h273l-8 -64l-198 -328h-103l185 308h-162z" />
    <glyph glyph-name="seven.lf" horiz-adv-x="524" 
d="M80 603l20 136h482l-14 -102l-360 -637h-163l349 603h-314z" />
    <glyph glyph-name="seven.num" horiz-adv-x="321" 
d="M92 657l13 84h273l-8 -64l-198 -328h-103l185 308h-162z" />
    <glyph glyph-name="seven.osf" horiz-adv-x="514" 
d="M53 453l21 137h481l-15 -102l-342 -595h-158l325 560h-312z" />
    <glyph glyph-name="seven.tf" horiz-adv-x="619" 
d="M130 606l19 133h500l-13 -93l-407 -646h-160l389 606h-328z" />
    <glyph glyph-name="seven_fraction_nine" horiz-adv-x="830" 
d="M386 677l-198 -328h-103l185 308h-162l13 84h273zM28 -1l688 739h113l-686 -739h-115zM714 405q77 0 112 -59t23 -143q-13 -90 -70 -151q-56 -59 -143 -59q-66 0 -111 36l43 65q32 -23 69 -23q44 0 77.5 30t46.5 77q-35 -36 -91 -36q-60 0 -93 36.5t-24 94.5q7 56 54 94
t107 38zM760 273q4 23 -10.5 39.5t-39.5 16.5q-27 0 -47 -17.5t-24 -43.5q-4 -23 10.5 -38.5t39.5 -15.5q27 0 47 17t24 42z" />
    <glyph glyph-name="six.dnom" horiz-adv-x="366" 
d="M204 256q60 0 93 -36.5t24 -94.5q-8 -57 -54 -94q-47 -38 -107 -38q-79 0 -113 58t-22 144q13 91 69 150q56 60 144 60q68 0 111 -36l-43 -64q-31 22 -69 22q-44 0 -77.5 -30t-46.5 -77q35 36 91 36zM235 131q4 23 -10.5 38.5t-39.5 15.5q-28 0 -48 -17t-23 -43
q-4 -23 10.5 -39.5t39.5 -16.5q27 0 47.5 18t23.5 44z" />
    <glyph glyph-name="six.lf" horiz-adv-x="627" 
d="M386 477q104 0 162 -70q59 -71 44 -174q-15 -102 -96 -173q-80 -69 -191 -69q-89 0 -150 50t-83.5 132t-6.5 181q15 106 60 193q44 87 126 146q83 59 185 59q113 0 195 -68l-75 -107q-53 43 -127 43q-82 0 -139 -62q-57 -63 -76 -160q64 79 172 79zM447 238
q7 51 -21.5 83.5t-77.5 32.5q-50 0 -88 -33.5t-46 -82.5q-8 -51 19 -85.5t78 -34.5q50 0 89 34.5t47 85.5z" />
    <glyph glyph-name="six.num" horiz-adv-x="366" 
d="M256 603q60 0 93 -36.5t24 -94.5q-8 -57 -54 -94q-47 -38 -107 -38q-79 0 -113 58t-22 144q13 92 69 150q56 60 144 60q68 0 111 -36l-43 -64q-31 22 -69 22q-44 0 -77.5 -30t-46.5 -77q35 36 91 36zM287 478q4 23 -10.5 38.5t-39.5 15.5q-28 0 -48 -17t-23 -43
q-4 -23 10.5 -39.5t39.5 -16.5q27 0 47.5 18t23.5 44z" />
    <glyph glyph-name="six.osf" horiz-adv-x="593" 
d="M359 456q103 0 162 -68q60 -67 45 -166q-13 -98 -94 -165q-80 -66 -191 -66q-89 0 -150.5 47.5t-84.5 126t-7 173.5q15 100 59 185q45 85 126 140q82 56 184 56q112 0 194 -66l-74 -104q-55 41 -126 41q-80 0 -137 -57t-78 -153q64 76 172 76zM322 336q-51 0 -88.5 -30.5
t-45.5 -78.5q-8 -47 20 -79.5t79 -32.5q50 0 88 32q38 31 46 80q7 48 -21.5 78.5t-77.5 30.5z" />
    <glyph glyph-name="six.tf" horiz-adv-x="619" 
d="M382 477q104 0 162 -70q59 -71 44 -174q-15 -102 -96 -173q-80 -69 -191 -69q-89 0 -150 50t-83.5 132t-6.5 181q15 106 60 193q44 87 126 146q83 59 185 59q113 0 195 -68l-75 -107q-53 43 -127 43q-82 0 -139 -62q-57 -63 -76 -160q64 79 172 79zM443 238
q7 51 -21.5 83.5t-77.5 32.5q-50 0 -88 -33.5t-46 -82.5q-8 -51 19 -85.5t78 -34.5q50 0 89 34.5t47 85.5z" />
    <glyph glyph-name="six_fraction_seven" horiz-adv-x="870" 
d="M216 340q-79 0 -113 58t-22 144q13 92 69 150q56 60 144 60q68 0 111 -36l-43 -64q-31 22 -69 22q-44 0 -77.5 -30t-46.5 -77q35 36 91 36q60 0 93 -36.5t24 -94.5q-8 -57 -54 -94q-47 -38 -107 -38zM88 0l688 739h115l-687 -739h-116zM170 472q-4 -23 10.5 -39.5
t39.5 -16.5q27 0 47.5 18t23.5 44q4 23 -10.5 38.5t-39.5 15.5q-28 0 -48 -17t-23 -43zM632 310l13 84h273l-8 -64l-198 -328h-103l185 308h-162z" />
    <glyph glyph-name="slash.case" horiz-adv-x="596" 
d="M143 0h-156l514 739h157z" />
    <glyph glyph-name="sterling.osf" horiz-adv-x="477" 
d="M239 237q-9 -65 -70 -117h292l-17 -120h-447l14 97q86 67 97 134q1 3 1 15h-79l13 94h52q-9 49 -3 88q13 77 78 124t152 47q68 0 120.5 -29t79.5 -81l-96 -76q-32 62 -100 62q-41 0 -68.5 -22.5t-33.5 -59.5q-4 -26 2 -53h210l-14 -94h-182v-6z" />
    <glyph glyph-name="three.dnom" horiz-adv-x="349" 
d="M317 297q-10 -58 -83 -88q36 -11 53.5 -38t12.5 -61q-7 -51 -53.5 -83.5t-115.5 -32.5q-67 0 -131 41l43 70q49 -27 93 -27q63 0 68 44q2 20 -12.5 30.5t-38.5 10.5h-57l11 79h47q23 0 43 11t22 31q2 17 -10.5 26.5t-33.5 9.5q-34 0 -83 -29l-38 66q61 48 140 48
q59 0 94.5 -31t28.5 -77z" />
    <glyph glyph-name="three.lf" horiz-adv-x="565" 
d="M552 550q-8 -55 -47.5 -97.5t-101.5 -63.5q67 -18 97 -67.5t20 -117.5q-13 -96 -95 -156q-81 -60 -200 -60q-120 0 -229 76l73 115q82 -55 162 -55q59 0 97 25.5t44 67.5q6 40 -21 66t-78 26h-100l20 132h84q51 0 86 25t40 64q6 38 -18.5 60.5t-70.5 22.5q-74 0 -163 -57
l-58 110q50 40 118 63t135 23q101 0 160 -60q60 -60 46 -142z" />
    <glyph glyph-name="three.num" horiz-adv-x="348" 
d="M368 644q-10 -58 -83 -88q36 -11 53.5 -38t12.5 -61q-7 -51 -53.5 -83.5t-115.5 -32.5q-67 0 -131 41l43 70q50 -27 93 -27q63 0 68 44q2 20 -12.5 30.5t-38.5 10.5h-57l11 79h47q23 0 43 11t22 31q2 17 -10.5 26.5t-33.5 9.5q-34 0 -83 -29l-38 66q62 48 140 48
q59 0 94.5 -31t28.5 -77z" />
    <glyph glyph-name="three.osf" horiz-adv-x="556" 
d="M520 410q-7 -51 -46 -91t-101 -61q66 -17 96 -63.5t21 -110.5q-13 -90 -94 -148q-80 -57 -198 -57t-231 72l73 111q82 -51 162 -51q59 0 97 23.5t43 61.5q5 37 -22 60.5t-77 23.5h-100l18 128h85q51 0 85.5 23t39.5 59q5 35 -20 55.5t-70 20.5q-71 0 -163 -53l-58 106
q48 38 116 60t135 22q103 0 161 -57q60 -56 48 -134z" />
    <glyph glyph-name="three.tf" horiz-adv-x="619" 
d="M574 550q-8 -55 -47.5 -97.5t-101.5 -63.5q67 -18 97 -67.5t20 -117.5q-13 -96 -95 -156q-81 -60 -200 -60q-120 0 -229 76l73 115q82 -55 162 -55q59 0 97 25.5t44 67.5q6 40 -21 66t-78 26h-100l20 132h84q51 0 86 25t40 64q6 38 -18.5 60.5t-70.5 22.5q-74 0 -163 -57
l-58 110q50 40 118 63t135 23q101 0 160 -60q60 -60 46 -142z" />
    <glyph glyph-name="three_fraction_seven" horiz-adv-x="877" 
d="M364 457q-7 -51 -53.5 -83.5t-115.5 -32.5q-67 0 -131 41l43 70q49 -27 93 -27q63 0 68 44q2 20 -12.5 30.5t-38.5 10.5h-57l11 79h47q23 0 43 11t22 31q2 17 -10.5 26.5t-33.5 9.5q-34 0 -83 -29l-38 66q62 48 140 48q59 0 94.5 -31t28.5 -77q-10 -58 -83 -88
q36 -11 53.5 -38t12.5 -61zM89 0l688 739h114l-687 -739h-115zM639 310l13 84h273l-8 -64l-198 -328h-103l185 308h-162z" />
    <glyph glyph-name="tilde.case" horiz-adv-x="563" 
d="M196 807l-88 53q66 114 157 114q38 0 78 -22t53 -22q39 0 75 52l88 -51q-60 -114 -150 -114q-35 0 -76 23t-57 23q-42 0 -80 -56z" />
    <glyph glyph-name="two.dnom" horiz-adv-x="346" 
d="M246 166l-88 -79h133l-14 -87h-272l11 70l149 135q21 18 30 29q26 26 27 47q2 16 -8.5 27t-28.5 11q-41 0 -103 -44l-38 72q71 58 154 58q44 1 75.5 -20.5t42 -55.5t-6.5 -79t-63 -84z" />
    <glyph glyph-name="two.lf" horiz-adv-x="584" 
d="M576 518q-17 -108 -172 -245l-153 -137h275l-21 -136h-486l17 123l267 242l33 30l16 15q3 3 29 31q11 11 24 32q17 24 20 52q5 39 -20 63.5t-68 24.5q-80 0 -180 -85l-72 111q127 113 271 113q109 0 172 -67q65 -66 48 -167z" />
    <glyph glyph-name="two.num" horiz-adv-x="346" 
d="M298 513l-88 -79h133l-14 -87h-272l11 70l149 135q21 18 30 29q26 26 27 47q2 16 -8.5 27t-28.5 11q-41 0 -103 -44l-38 72q71 58 154 58q44 1 75.5 -20.5t42 -55.5t-6.5 -79t-63 -84z" />
    <glyph glyph-name="two.osf" horiz-adv-x="556" 
d="M530 406q-7 -47 -48.5 -93.5t-132.5 -114.5l-102 -76h246l-17 -122h-455l15 112l224 172l26 20q37 26 48 36q47 39 51 71q4 30 -17.5 48t-57.5 18q-70 0 -174 -83l-66 100q127 106 254 106q104 0 161 -57q59 -57 45 -137z" />
    <glyph glyph-name="two.tf" horiz-adv-x="619" 
d="M593 518q-17 -108 -172 -245l-153 -137h275l-21 -136h-486l17 123l267 242l33 30l16 15q3 3 29 31q11 11 24 32q17 24 20 52q5 39 -20 63.5t-68 24.5q-80 0 -180 -85l-72 111q127 113 271 113q109 0 172 -67q65 -66 48 -167z" />
    <glyph glyph-name="two_fraction_nine" horiz-adv-x="914" 
d="M218 434h133l-14 -87h-272l11 70l149 135q21 18 30 29q26 26 27 47q2 16 -8.5 27t-28.5 11q-41 0 -103 -44l-38 72q71 58 154 58q44 1 75.5 -20.5t42 -55.5t-6.5 -79t-63 -84zM105 0l688 739h113l-686 -739h-115zM800 405q77 0 112 -59t23 -143q-13 -90 -70 -151
q-56 -59 -143 -59q-66 0 -111 36l43 65q32 -23 69 -23q44 0 77.5 30t46.5 77q-35 -36 -91 -36q-60 0 -93 36.5t-24 94.5q7 56 54 94t107 38zM846 273q4 23 -10.5 39.5t-39.5 16.5q-27 0 -47 -17.5t-24 -43.5q-4 -23 10.5 -38.5t39.5 -15.5q27 0 47 17t24 42z" />
    <glyph glyph-name="two_fraction_seven" horiz-adv-x="906" 
d="M222 434h133l-14 -87h-272l11 70l149 135q21 18 30 29q26 26 27 47q2 16 -8.5 27t-28.5 11q-41 0 -103 -44l-38 72q71 58 154 58q44 1 75.5 -20.5t42 -55.5t-6.5 -79t-63 -84zM119 0l688 739h114l-687 -739h-115zM667 310l13 84h273l-8 -64l-198 -328h-103l185 308h-162z
" />
    <glyph glyph-name="uni0414.ss01" horiz-adv-x="779" 
d="M299 739h441l-89 -600h77l-43 -289h-148l23 150h-412l-23 -150h-148l43 289h59q93 126 177 446zM244 139h259l69 460h-164l-15 -53q-79 -284 -149 -407z" />
    <glyph glyph-name="uni0416.ss01" horiz-adv-x="937" 
d="M841 739h169l-329 -363l233 -376h-171l-187 307l-46 -307h-144l46 308l-278 -308h-173l347 379l-221 360h167l177 -303l45 303h144l-45 -300z" />
    <glyph glyph-name="uni041B.ss01" horiz-adv-x="746" 
d="M52 -9q-27 0 -44 4l-18 127q22 -2 24 -2q63 0 111 63q17 22 36 59q19 39 30 70q14 37 30 95q16 53 27 97q11 38 30 118q15 62 29 117h436l-110 -739h-150l89 596h-155l-23 -92l-24 -101l-24 -84q-16 -60 -30 -90q-9 -20 -32 -69q-17 -36 -41 -68q-77 -101 -191 -101z" />
    <glyph glyph-name="uni0424.ss01" horiz-adv-x="973" 
d="M652 819l-18 -119q164 -7 257 -100q92 -92 71 -238q-21 -148 -138 -232q-116 -84 -288 -90l-18 -120h-149l18 120q-168 7 -260 98q-90 90 -68 240q21 145 136 230q116 86 290 93l18 118h149zM812 370q13 87 -39.5 140.5t-157.5 57.5l-60 -396q107 3 175.5 56.5
t81.5 141.5zM209 370q-13 -90 39.5 -143t157.5 -55l60 396q-107 -5 -175.5 -57.5t-81.5 -140.5z" />
    <glyph glyph-name="uni042A.ss01" horiz-adv-x="757" 
d="M368 487h136q58 0 103 -16t70.5 -42.5t43 -59.5t19 -67t-0.5 -65q-17 -104 -91 -171q-75 -66 -193 -66h-305l91 610h-167l20 129h312zM587 245q7 49 -22.5 80t-90.5 31h-125l-34 -225h112q69 0 110 30.5t50 83.5z" />
    <glyph glyph-name="uni042C.ss01" horiz-adv-x="658" 
d="M269 487h136q69 0 121 -24t77 -64q49 -75 36 -162q-15 -103 -90 -171q-75 -66 -193 -66h-305l110 739h146zM488 245q7 49 -22.5 80t-90.5 31h-125l-34 -225h112q69 0 110 30.5t50 83.5z" />
    <glyph glyph-name="uni0431.ss01" horiz-adv-x="678" 
d="M681 833l-21 -135q-53 -22 -108 -37l-107 -29q-183 -46 -236 -187q81 91 205 91q111 0 183 -77q73 -76 52 -206q-19 -118 -108 -193q-89 -74 -217 -74q-63 0 -112.5 21t-79.5 57t-49.5 83.5t-21.5 101.5t5 111q25 206 183 308q67 46 207 89l114 36q70 23 111 40zM213 266
q-9 -62 24 -108q34 -46 99 -46t115 44q51 46 58 109q8 62 -28 105t-99 43q-61 0 -111 -41q-49 -40 -58 -106z" />
    <glyph glyph-name="uni0432.ss01" horiz-adv-x="586" 
d="M549 409q-6 -39 -31 -67t-64 -40q51 -12 74 -51t15 -91q-10 -71 -70 -115.5t-156 -44.5h-284l81 545h279q82 0 123.5 -39.5t32.5 -96.5zM368 436h-138l-15 -102h131q51 -2 69 36q15 32 -6 54q-15 14 -41 12zM410 174q4 26 -11 44t-47 18h-152l-19 -125h137
q38 0 62.5 17.5t29.5 45.5z" />
    <glyph glyph-name="uni0433.ss01" horiz-adv-x="451" 
d="M114 545h375l-19 -125h-235l-62 -420h-140z" />
    <glyph glyph-name="uni0434.ss01" horiz-adv-x="658" 
d="M238 546h375l-64 -425h60l-36 -240h-133l18 119h-332l-18 -119h-133l36 240h54q62 83 143 329zM339 433l-13 -41q-53 -180 -108 -271h193l47 312h-119z" />
    <glyph glyph-name="uni0436.ss01" horiz-adv-x="784" 
d="M671 545h154l-250 -268l183 -277h-156l-143 221l-33 -221h-130l33 222l-209 -222h-158l268 279l-170 266h152l132 -221l33 221h131l-33 -218z" />
    <glyph glyph-name="uni0437.ss01" horiz-adv-x="527" 
d="M500 407q-10 -74 -117 -112q56 -13 82.5 -51t18.5 -92q-11 -71 -82 -117q-71 -47 -188 -47q-110 0 -214 57l55 103q85 -44 173 -44q107 0 119 61q5 25 -17 41t-66 16h-120l15 108h86q109 0 117 57q3 25 -18 39.5t-63 14.5q-77 0 -163 -44l-46 97q101 65 233 65
q98 0 150 -46q54 -45 45 -106z" />
    <glyph glyph-name="uni0438.ss01" horiz-adv-x="649" 
d="M123 0h-90l81 545h137l-50 -329l344 329h91l-81 -545h-138l49 325z" />
    <glyph glyph-name="uni0439.ss01" horiz-adv-x="649" 
d="M384 573q-116 0 -172 107l83 64q21 -41 45 -57t59 -16q71 0 157 78l51 -75q-115 -101 -223 -101zM123 0h-90l81 545h137l-50 -329l344 329h91l-81 -545h-138l49 325z" />
    <glyph glyph-name="uni043A.ss01" horiz-adv-x="573" 
d="M455 545h170l-273 -231l197 -314h-166l-137 223l-49 -40l-27 -183h-137l81 545h138l-30 -200z" />
    <glyph glyph-name="uni043B.ss01" horiz-adv-x="622" 
d="M52 -8q-9 0 -39 3l-30 110q7 0 13.5 -0.5t9.5 -1t4 -0.5q51 0 88 49q11 12 23 33q15 23 40 91q11 28 19 61q8 28 16 60l19 74l19 74h374l-81 -545h-141l62 419h-111l-17 -65l-18 -71q-9 -34 -17 -58q-15 -47 -22 -63q-24 -57 -54 -95q-61 -75 -157 -75z" />
    <glyph glyph-name="uni043F.ss01" horiz-adv-x="618" 
d="M114 545h490l-81 -545h-140l62 419h-210l-62 -419h-140z" />
    <glyph glyph-name="uni0442.ss01" horiz-adv-x="495" 
d="M62 545h471l-18 -122h-166l-63 -423h-140l63 423h-165z" />
    <glyph glyph-name="uni0444.ss01" horiz-adv-x="853" 
d="M567 705l-22 -146q141 -7 219 -84q77 -76 61 -206q-18 -133 -114 -204.5t-252 -76.5l-22 -146h-133l22 147q-157 8 -230 92q-73 85 -50 219q22 127 121 192q101 66 245 67l22 146h133zM691 277q9 71 -33 114.5t-131 45.5l-50 -329q88 2 145 46t69 123zM181 275
q-11 -76 32.5 -121t130.5 -46l50 329q-91 -2 -146.5 -43t-66.5 -119z" />
    <glyph glyph-name="uni0446.ss01" horiz-adv-x="667" 
d="M581 -180h-135l27 180h-440l81 545h141l-62 -415h212l62 415h140l-62 -415h83z" />
    <glyph glyph-name="uni0448.ss01" horiz-adv-x="931" 
d="M836 0h-803l81 545h141l-62 -415h190l63 415h140l-62 -415h191l62 415h141z" />
    <glyph glyph-name="uni0449.ss01" horiz-adv-x="977" 
d="M918 545l-63 -415h90l-47 -310h-135l27 180h-757l81 545h141l-62 -415h190l63 415h140l-62 -415h191l62 415h141z" />
    <glyph glyph-name="uni044A.ss01" horiz-adv-x="620" 
d="M296 378h101q113 0 159 -58q48 -59 38 -135q-11 -85 -75 -135t-167 -50h-247l63 420h-119l19 125h254zM457 191q4 31 -15.5 51t-60.5 20h-102l-23 -147h87q52 0 81 21t33 55z" />
    <glyph glyph-name="uni044C.ss01" horiz-adv-x="551" 
d="M224 378h104q78 0 125 -31q87 -53 73 -162q-12 -85 -76 -135t-166 -50h-251l81 545h136zM389 191q4 31 -16 51t-61 20h-105l-23 -147h90q103 0 115 76z" />
    <glyph glyph-name="uni044E.ss01" horiz-adv-x="881" 
d="M605 560q132 0 201 -89q70 -88 46 -217q-23 -119 -113 -193q-91 -75 -210 -75q-113 0 -181 64q-68 65 -75 163h-70l-32 -213h-138l81 545h140l-33 -217h67q31 103 119 168q86 64 198 64zM714 272q11 65 -25 111q-34 46 -99 46q-62 0 -112 -44q-51 -45 -61 -107
q-12 -67 23 -114q36 -47 99 -47q65 0 114 45q51 48 61 110z" />
    <glyph glyph-name="yen.osf" horiz-adv-x="497" 
d="M429 591h144l-184 -260h83l-14 -92h-135l-6 -10l-4 -22h140l-13 -92h-141l-17 -115h-134l17 115h-141l13 92h141l4 22l-4 10h-136l14 92h85l-105 260h143l88 -245z" />
    <glyph glyph-name="zero.dnom" horiz-adv-x="411" 
d="M178 -5q-83 0 -121 59q-36 58 -22 150q13 91 65.5 146.5t131.5 55.5q84 0 120 -59q36 -58 22 -151q-14 -89 -64 -145q-51 -56 -132 -56zM183 84q76 0 94 119q15 113 -50 113q-38 0 -61.5 -32.5t-32.5 -86.5q-17 -113 50 -113z" />
    <glyph glyph-name="zero.lf" horiz-adv-x="688" 
d="M315 -12q-100 0 -162 55q-118 104 -84 336q25 161 117 267q91 106 235 106q99 0 161 -56q120 -105 83 -335q-24 -161 -115 -267t-235 -106zM326 127q77 0 126 70q50 71 66 174q16 101 -10 172q-25 70 -100 70q-74 0 -124 -65.5t-68 -178.5q-18 -105 9 -174
q27 -68 101 -68z" />
    <glyph glyph-name="zero.num" horiz-adv-x="411" 
d="M229 341q-83 0 -121 59q-36 58 -22 150q13 91 65.5 146.5t131.5 55.5q84 0 120 -59q36 -58 22 -151q-14 -89 -64 -145q-51 -56 -132 -56zM234 430q76 0 94 119q15 113 -50 113q-38 0 -61.5 -32.5t-32.5 -86.5q-17 -113 50 -113z" />
    <glyph glyph-name="zero.osf" horiz-adv-x="609" 
d="M277 -12q-127 0 -183 89q-56 91 -37 221q18 130 96 216t202 86q87 0 143 -45q103 -85 77 -266q-18 -130 -96 -215q-77 -86 -202 -86zM286 110q61 0 101 50t53 137q13 83 -10 132t-82 49q-61 0 -102 -51t-54 -137q-12 -83 12 -131.5t82 -48.5z" />
    <glyph glyph-name="zero.slash" horiz-adv-x="688" 
d="M421 752q99 0 161 -56q120 -105 83 -335q-24 -161 -115 -267t-235 -106q-100 0 -162 55q-118 104 -84 336q25 161 117 267q91 106 235 106zM210 369q-14 -83 -2 -143l286 361q-30 38 -85 38q-76 0 -129 -71q-51 -70 -70 -185zM525 371q11 74 3 130l-282 -356
q30 -30 78 -30q79 0 131 73t70 183z" />
    <glyph glyph-name="zero.tf" horiz-adv-x="619" 
d="M277 -12q-92 0 -151.5 54t-79 142t-0.5 195q26 162 114 267q88 106 223 106q138 0 196 -112q59 -112 34 -279q-26 -163 -113 -268t-223 -105zM289 131q68 0 115 68q47 69 63 172q7 63 4 116t-29.5 87.5t-72.5 34.5q-67 0 -112.5 -64.5t-63.5 -175.5q-16 -106 6.5 -172
t89.5 -66z" />
    </font>
</defs>
</svg>
