<?xml version="1.0" standalone="no"?>
<!DOCTYPE svg PUBLIC "-//W3C//DTD SVG 1.1//EN" "http://www.w3.org/Graphics/SVG/1.1/DTD/svg11.dtd" >
<svg xmlns="http://www.w3.org/2000/svg" xmlns:xlink="http://www.w3.org/1999/xlink" version="1.1">
<metadata>
Created by FontForge 20170731 at Mon Mar 20 08:01:24 2017
 By Aleksey,,,
Copyright (c) 2017 by Kastelov. All rights reserved.
</metadata>
<defs>
<font id="Axiforma-Bold" horiz-adv-x="696" >
  <font-face 
    font-family="Axiforma"
    font-weight="700"
    font-stretch="normal"
    units-per-em="1000"
    panose-1="0 0 8 0 0 0 0 0 0 0"
    ascent="772"
    descent="-228"
    x-height="544"
    cap-height="739"
    bbox="-458 -350 1290 1045"
    underline-thickness="50"
    underline-position="-200"
    unicode-range="U+000D-25CA"
  />
<missing-glyph horiz-adv-x="130" 
 />
    <glyph glyph-name="f_b" unicode="fb" horiz-adv-x="1110" 
d="M112 545v12q0 110 53.5 168t148.5 58q75 0 144 -36l-34 -110q-45 22 -82 22q-42 0 -65.5 -24.5t-23.5 -69.5v-20h170v-118h-170v-427h-141v427h-84v118h84zM803 559q116 0 194 -83q78 -82 78 -204t-78 -204q-78 -81 -194 -81q-103 0 -170 81v-68h-137v760h141v-278
q68 77 166 77zM631 273q0 -65 42 -112q42 -45 108 -45t108 45q42 46 42 112t-42 111t-108 45t-108 -46q-42 -45 -42 -110z" />
    <glyph glyph-name="f_f" unicode="ff" horiz-adv-x="839" 
d="M759 659q-48 0 -74 -24.5t-26 -70.5v-19h170v-118h-170v-427h-140v427h-266v-427h-140v427h-85v118h85v21q0 105 64 161.5t172 55.5q89 -2 165 -41l-45 -110q-60 27 -102 27q-52 0 -83 -25t-31 -69v-20h266v21q0 104 60 160.5t160 56.5q77 0 151 -40l-46 -107
q-52 23 -85 23z" />
    <glyph glyph-name="f_f_i" unicode="ffi" horiz-adv-x="1121" 
d="M749 659q-42 0 -65.5 -24.5t-23.5 -69.5v-20h190v-118h-190v-427h-141v427h-266v-427h-141v427h-84v118h84v21q0 104 64 160.5t171 56.5q81 0 169 -41l-45 -111q-63 28 -107 28q-51 0 -81 -25t-30 -70v-19h266v12q0 109 55 167.5t152 58.5q75 0 144 -36l-39 -110
q-45 22 -82 22zM1049 632q-25 -25 -62 -25t-63 25q-25 25 -25 62t25 61q26 25 63 25t62 -25q25 -24 25 -61t-25 -62zM1057 0h-141v545h141v-545z" />
    <glyph glyph-name="f_f_j" unicode="ffj" horiz-adv-x="1120" 
d="M840 545v-118h-181v-427h-140v427h-266v-427h-141v427h-84v118h84v21q0 105 65 161t169 56q86 0 166 -41l-41 -111q-60 28 -106 28q-51 0 -81.5 -25.5t-30.5 -69.5v-19h266v12q0 109 55 167.5t152 58.5q75 0 144 -36l-39 -110q-45 22 -83 22q-42 0 -65.5 -24.5
t-23.5 -69.5v-20h181zM987 607q-38 0 -63 25t-25 62t25.5 61.5t62.5 24.5q36 0 61 -24.5t25 -61.5t-25 -62t-61 -25zM915 -1v546h141v-553q0 -108 -56 -166t-152 -58q-82 0 -125 28l27 112q42 -16 74 -16q91 0 91 107z" />
    <glyph glyph-name="f_h" unicode="fh" horiz-adv-x="1075" 
d="M112 545v12q0 110 53 168t150 58q75 0 144 -36l-35 -110q-45 22 -82 22q-42 0 -65.5 -24.5t-23.5 -69.5v-20h170v-118h-170v-427h-141v427h-84v118h84zM805 560q88 0 150 -59t62 -168v-333h-141v295q0 64 -30.5 99.5t-83.5 35.5q-56 0 -90.5 -38.5t-34.5 -99.5v-292h-141
v760h137v-286q22 38 69 62t103 24z" />
    <glyph glyph-name="f_i" unicode="fi" horiz-adv-x="714" 
d="M112 545v12q0 109 55 167.5t152 58.5q75 0 144 -36l-39 -110q-45 22 -82 22q-42 0 -65.5 -24.5t-23.5 -69.5v-20h170v-118h-170v-427h-141v427h-84v118h84zM642 631q-25 -24 -62 -24t-63 24q-25 25 -25 62t25 62q26 25 63 25t62 -25t25 -62t-25 -62zM650 0h-141v545h141
v-545z" />
    <glyph glyph-name="f_j" unicode="fj" horiz-adv-x="714" 
d="M431 545v-118h-178v-427h-141v427h-84v118h84v12q0 109 55 167.5t152 58.5q75 0 144 -36l-39 -110q-45 22 -82 22q-42 0 -65.5 -24.5t-23.5 -69.5v-20h178zM642 631q-25 -24 -62 -24t-63 24q-25 25 -25 62t25 62q26 25 63 25t62 -25t25 -62t-25 -62zM509 -1v546h141v-553
q0 -108 -56.5 -166t-152.5 -58q-82 0 -125 28l27 112q42 -16 74 -16q92 0 92 107z" />
    <glyph glyph-name="f_k" unicode="fk" horiz-adv-x="1016" 
d="M112 545v12q0 110 53 168t148 58q75 0 145 -36l-34 -110q-45 22 -82 22q-42 0 -65.5 -24.5t-23.5 -69.5v-20h170v-118h-170v-427h-141v427h-84v118h84zM1027 0h-173l-180 233l-37 -33v-200h-141v760h141v-401l198 186h178l-243 -223z" />
    <glyph glyph-name="f_l" unicode="fl" horiz-adv-x="701" 
d="M112 545v12q0 112 52.5 169t150.5 57q77 0 141 -36l-32 -110q-45 22 -82 22q-42 0 -65.5 -24.5t-23.5 -69.5v-20h170v-118h-170v-427h-141v427h-84v118h84zM496 0v760h141v-760h-141z" />
    <glyph glyph-name=".notdef" horiz-adv-x="130" 
 />
    <glyph glyph-name=".null" horiz-adv-x="0" 
 />
    <glyph glyph-name="nonmarkingreturn" horiz-adv-x="333" 
 />
    <glyph glyph-name="CR.001" horiz-adv-x="130" 
 />
    <glyph glyph-name="CR.001" horiz-adv-x="130" 
 />
    <glyph glyph-name="CR" unicode="&#xd;" horiz-adv-x="333" 
 />
    <glyph glyph-name="space" unicode=" " horiz-adv-x="247" 
 />
    <glyph glyph-name="exclam" unicode="!" horiz-adv-x="314" 
d="M224 205h-131l-8 548h149zM160 -12q-36 0 -59.5 23t-23.5 59q0 34 24 57t59 23q34 0 57.5 -23t23.5 -57q0 -36 -23.5 -59t-57.5 -23z" />
    <glyph glyph-name="quotedbl" unicode="&#x22;" horiz-adv-x="553" 
d="M171 428h-135l88 309h163zM424 428h-135l88 309h163z" />
    <glyph glyph-name="numbersign" unicode="#" horiz-adv-x="745" 
d="M714 566l-23 -117h-101l-29 -152h101l-22 -118h-102l-34 -179h-139l35 179h-129l-35 -179h-139l37 179h-101l23 118h102l31 152h-105l23 117h106l35 173h134l-34 -173h129l34 173h134l-33 -173h102zM295 297h129l30 152h-129z" />
    <glyph glyph-name="dollar" unicode="$" horiz-adv-x="591" 
d="M552 213q0 -83 -50.5 -141.5t-134.5 -76.5v-107h-126v103q-140 23 -212 147l99 95q27 -48 72 -76.5t93 -28.5q44 0 70 21.5t26 54.5q0 45 -64 78q-9 5 -44 21q-81 39 -111 59q-103 70 -103 178q0 79 48 134t130 72v97h127v-97q92 -18 165 -94l-82 -106q-74 69 -148 69
q-39 0 -62.5 -19.5t-23.5 -50.5q0 -27 24 -48q13 -10 50 -33q16 -9 69 -35q62 -30 87 -46q101 -63 101 -170z" />
    <glyph glyph-name="percent" unicode="%" horiz-adv-x="903" 
d="M31 567q0 77 56 131q55 54 135 54q78 0 134 -54t56 -131q0 -75 -56 -129q-56 -53 -134 -53q-79 0 -135 53q-56 54 -56 129zM248 0h-137l538 739h138zM222 483q34 0 59.5 25t25.5 60t-25.5 60t-59.5 25q-36 0 -61 -24.5t-25 -60.5t25 -60.5t61 -24.5zM491 170q0 76 55 130
q56 54 135 54t135 -54t56 -130q0 -75 -56 -129q-56 -53 -135 -53t-135 53q-55 54 -55 129zM767 171q0 36 -25 60.5t-61 24.5q-35 0 -60 -24.5t-25 -60.5t24.5 -60.5t60.5 -24.5t61 24.5t25 60.5z" />
    <glyph glyph-name="ampersand" unicode="&#x26;" horiz-adv-x="703" 
d="M593 163l106 -94l-78 -85l-106 96q-101 -90 -228 -90q-111 0 -182 62q-70 63 -70 155q0 129 131 212q-43 64 -43 140t58 134t152 58q78 0 132 -48q55 -46 55 -116q0 -76 -58 -124q-30 -24 -54 -39q-30 -17 -67 -36l38 -34l129 -115q41 47 77 102l87 -73q-40 -59 -79 -105
zM326 645q-36 0 -59.5 -25t-23.5 -64q0 -43 25 -84l65 32q60 34 60 77q0 27 -19 45.5t-48 18.5zM297 109q68 0 131 51l-145 131q-5 4 -20.5 19.5t-22.5 20.5q-65 -48 -65 -113q0 -48 34 -78.5t88 -30.5z" />
    <glyph glyph-name="quotesingle" unicode="'" horiz-adv-x="298" 
d="M170 428h-135l88 309h163z" />
    <glyph glyph-name="parenleft" unicode="(" horiz-adv-x="418" 
d="M413 -111l-65 -109q-152 78 -232.5 211.5t-80.5 302.5q0 171 81 303t237 212l60 -112q-224 -144 -224 -403q0 -252 224 -405z" />
    <glyph glyph-name="parenright" unicode=")" horiz-adv-x="418" 
d="M69 -220l-64 109q224 153 224 405q0 259 -224 403l60 112q156 -80 237 -212t81 -303q0 -169 -81 -302.5t-233 -211.5z" />
    <glyph glyph-name="asterisk" unicode="*" horiz-adv-x="493" 
d="M247 482l-95 -115l-78 68l92 104l-132 57l42 94l122 -59l-5 142h107l-4 -142l122 59l41 -93l-131 -58l91 -104l-78 -68z" />
    <glyph glyph-name="plus" unicode="+" horiz-adv-x="575" 
d="M355 414h188v-133h-188v-188l-132 -2v190h-190v133h190v189h132v-189z" />
    <glyph glyph-name="comma" unicode="," horiz-adv-x="262" 
d="M129 145q38 0 63.5 -27.5t25.5 -68.5q0 -108 -154 -210l-42 56q79 60 97 94h-3q-29 0 -50.5 22t-21.5 52q0 35 24.5 58.5t60.5 23.5z" />
    <glyph glyph-name="hyphen" unicode="-" horiz-adv-x="530" 
d="M471 211h-411v132h411v-132z" />
    <glyph glyph-name="period" unicode="." horiz-adv-x="248" 
d="M125 -16q-35 0 -59 23.5t-24 58.5q0 34 24 57t59 23q33 0 56.5 -23t23.5 -57q0 -35 -23.5 -58.5t-56.5 -23.5z" />
    <glyph glyph-name="slash" unicode="/" horiz-adv-x="671" 
d="M172 -123h-154l480 948h154z" />
    <glyph glyph-name="zero" unicode="0" horiz-adv-x="688" 
d="M344 -12q-99 0 -168 54q-131 103 -131 328q0 107 31 190q32 87 102 139.5t166 52.5q60 0 110 -20t84.5 -55.5t58.5 -84t35 -104.5t11 -118t-11 -118t-35 -104.5t-58.5 -84t-84.5 -55.5t-110 -20zM496 370q0 107 -38 175t-114 68q-75 0 -113 -68t-38 -175
q0 -111 38.5 -177t112.5 -66t113 66t39 177z" />
    <glyph glyph-name="one" unicode="1" horiz-adv-x="418" 
d="M-3 557l229 182h110v-739h-145v543l-118 -91z" />
    <glyph glyph-name="two" unicode="2" horiz-adv-x="580" 
d="M387 275l-130 -139h275v-136h-482v123l230 241q42 44 47 50q13 15 30 47q17 31 17 57q0 42 -29 68.5t-73 26.5q-78 0 -166 -82l-81 106q115 115 259 115q106 0 173 -64q68 -63 68 -162q0 -107 -138 -251z" />
    <glyph glyph-name="three" unicode="3" horiz-adv-x="565" 
d="M254 -12q-126 0 -241 73l62 118q91 -55 171 -55q56 0 88 25.5t32 67.5q0 41 -31.5 66.5t-82.5 25.5h-94v132h81q51 0 81.5 24t30.5 63t-28.5 62t-74.5 23q-68 0 -147 -57l-71 106q45 42 107.5 66t128.5 24q99 0 167 -56q67 -55 67 -137q0 -58 -34.5 -102.5t-90.5 -63.5
v-4q68 -15 106.5 -64.5t38.5 -117.5q0 -96 -74 -158q-73 -61 -192 -61z" />
    <glyph glyph-name="four" unicode="4" horiz-adv-x="616" 
d="M497 295h80v-123h-80v-172h-138v172h-325l-29 95l386 472h106v-444zM359 525l-186 -230h186v230z" />
    <glyph glyph-name="five" unicode="5" horiz-adv-x="588" 
d="M303 476q105 0 177 -66t72 -172q0 -109 -76 -179q-77 -71 -200 -71q-135 0 -248 82l59 118q94 -64 182 -64q61 0 97.5 32.5t36.5 81.5q0 48 -35.5 79.5t-89.5 31.5q-70 0 -122 -49l-86 69l40 370h391v-136h-281l-16 -145q46 18 99 18z" />
    <glyph glyph-name="six" unicode="6" horiz-adv-x="633" 
d="M354 477q105 0 172 -67q69 -68 69 -170q0 -108 -75 -178q-74 -71 -191 -71q-138 0 -211 100t-73 256q0 79 19.5 150t58 129t101 92t142.5 34q115 0 204 -65l-64 -111q-65 44 -132 44q-84 0 -134 -66q-49 -66 -54 -158q54 81 168 81zM329 118q50 0 85 35t35 85t-34 83
t-85 33t-85.5 -33t-34.5 -84t34 -85t85 -34z" />
    <glyph glyph-name="seven" unicode="7" horiz-adv-x="524" 
d="M21 603v136h482v-102l-264 -637h-155l254 603h-317z" />
    <glyph glyph-name="eight" unicode="8" horiz-adv-x="636" 
d="M42 203q0 63 37.5 114.5t101.5 74.5v2q-51 24 -79.5 66t-28.5 95q0 86 67 141q68 56 178 56q109 0 177 -56t68 -141q0 -53 -29 -95t-80 -66v-3q64 -22 102 -73.5t38 -114.5q0 -93 -77 -155q-77 -60 -199 -60q-123 0 -200 60q-76 61 -76 155zM208 539q0 -40 30 -66t79 -26
q50 0 79.5 26t29.5 66t-30 66t-78 26t-79 -26t-31 -66zM445 221q0 45 -35 73t-92 28t-92.5 -28t-35.5 -72q0 -46 35.5 -75t92.5 -29t92 29t35 74z" />
    <glyph glyph-name="nine" unicode="9" horiz-adv-x="627" 
d="M303 752q135 0 207 -99t72 -258q0 -111 -32.5 -201t-105.5 -148t-177 -58q-119 0 -204 65l54 110q65 -45 141 -45q80 0 126.5 57.5t56.5 157.5q-27 -32 -71.5 -50t-94.5 -18q-102 0 -169 67t-67 170q0 109 73 179q74 71 191 71zM300 388q50 0 84.5 34t34.5 84
q0 51 -34 85.5t-84 34.5q-51 0 -85 -34t-34 -87q0 -51 33.5 -84t84.5 -33z" />
    <glyph glyph-name="colon" unicode=":" horiz-adv-x="278" 
d="M140 343q-35 0 -59 23.5t-24 58.5q0 34 24 57t59 23q33 0 56.5 -23t23.5 -57q0 -35 -23.5 -58.5t-56.5 -23.5zM140 -16q-35 0 -59 23.5t-24 58.5q0 34 24 57t59 23q33 0 56.5 -23t23.5 -57q0 -35 -23.5 -58.5t-56.5 -23.5z" />
    <glyph glyph-name="semicolon" unicode=";" horiz-adv-x="299" 
d="M154 342q-36 0 -60.5 24t-24.5 60q0 34 25 58t60 24q34 0 58 -24t24 -58q0 -36 -24 -60t-58 -24zM148 145q38 0 63.5 -27.5t25.5 -68.5q0 -108 -154 -210l-42 56q79 60 97 94h-3q-29 0 -50.5 22t-21.5 52q0 35 24.5 58.5t60.5 23.5z" />
    <glyph glyph-name="less" unicode="&#x3c;" horiz-adv-x="557" 
d="M492 189v-143l-461 219v121l461 218v-140l-310 -137z" />
    <glyph glyph-name="equal" unicode="=" horiz-adv-x="590" 
d="M526 366h-462v117h462v-117zM526 172h-462v117h462v-117z" />
    <glyph glyph-name="greater" unicode="&#x3e;" horiz-adv-x="543" 
d="M514 265l-455 -226v143l294 138l-294 136v141l455 -226v-106z" />
    <glyph glyph-name="question" unicode="?" horiz-adv-x="550" 
d="M313 195h-136v66q0 80 64 139q6 6 38 33.5t43 39.5t24.5 35.5t13.5 45.5q0 39 -28.5 64.5t-71.5 25.5q-74 0 -149 -87l-87 98q99 122 247 122q105 0 172 -61t67 -153q0 -87 -70 -152q-11 -10 -41 -36.5t-44 -40.5t-28 -37t-14 -44v-58zM164 69q0 34 24 57.5t59 23.5
q34 0 57.5 -23.5t23.5 -57.5q0 -35 -23.5 -58t-57.5 -23t-58.5 23t-24.5 58z" />
    <glyph glyph-name="at" unicode="@" horiz-adv-x="966" 
d="M587 446v43h107v-258q0 -30 12.5 -46.5t32.5 -16.5q35 0 63 46t28 115q0 134 -99 224q-96 91 -238 89q-145 -2 -246 -105q-101 -104 -101 -250q0 -149 106 -254q107 -104 257 -104q148 0 267 91l49 -82q-53 -46 -139 -76q-88 -32 -182 -32q-196 0 -329 135
q-134 134 -134 322t132 320q132 133 322 133q187 0 313 -120q126 -118 126 -286q0 -114 -62 -191q-61 -75 -151 -75q-88 0 -118 74q-53 -74 -151 -74q-86 0 -145 62q-58 61 -58 155t58 156q59 63 147 63q84 0 133 -58zM473 169q47 0 80 33q33 35 33 83q0 51 -33 85
q-32 35 -79 35q-48 0 -81 -34t-33 -85q0 -50 32.5 -83.5t80.5 -33.5z" />
    <glyph glyph-name="A" unicode="A" 
d="M688 0h-156l-55 160h-258l-57 -160h-155l282 739h121zM435 292l-86 246l-88 -246h174z" />
    <glyph glyph-name="B" unicode="B" horiz-adv-x="692" 
d="M513 405q67 -17 103.5 -68.5t36.5 -121.5q0 -92 -64 -153q-64 -62 -170 -62h-337v739h322q99 0 154 -55q56 -56 56 -129q0 -49 -28 -91.5t-73 -58.5zM379 610h-151v-161h145q44 0 69 24t25 59q0 33 -24 55.5t-64 22.5zM228 130h162q51 0 80.5 28t29.5 69q0 42 -29 70
t-81 28h-162v-195z" />
    <glyph glyph-name="C" unicode="C" horiz-adv-x="765" 
d="M420 -11q-162 0 -271 105q-109 106 -109 273q0 168 111 276q112 109 271 109q99 0 184 -41.5t134 -111.5l-99 -97q-87 107 -211 107q-100 0 -168 -69q-68 -68 -68 -173q0 -102 67 -169t168 -67q129 0 215 108l102 -93q-52 -71 -138.5 -114t-187.5 -43z" />
    <glyph glyph-name="D" unicode="D" horiz-adv-x="770" 
d="M365 0h-283v739h289q167 0 261 -100q95 -100 95 -271t-97 -269q-96 -99 -265 -99zM230 597v-455h142q95 0 148 65t53 164q0 96 -53 161t-148 65h-142z" />
    <glyph glyph-name="E" unicode="E" horiz-adv-x="637" 
d="M583 0h-501v739h501v-138h-352v-159h326v-138h-326v-166h352v-138z" />
    <glyph glyph-name="F" unicode="F" horiz-adv-x="603" 
d="M230 0h-148v739h493v-140h-345v-166h303v-139h-303v-294z" />
    <glyph glyph-name="G" unicode="G" horiz-adv-x="810" 
d="M425 -11q-167 0 -277 107q-108 108 -108 273q0 167 112 275t279 108q88 0 167.5 -32.5t130.5 -87.5l-97 -106q-83 83 -201 83q-103 0 -171 -68t-68 -171q0 -101 66 -170q68 -69 171 -69q56 0 109 21.5t89 57.5v101h-204v129h339v-304q-141 -147 -337 -147z" />
    <glyph glyph-name="H" unicode="H" horiz-adv-x="770" 
d="M230 0h-148v739h148v-295h310v295h148v-739h-148v301h-310v-301z" />
    <glyph glyph-name="I" unicode="I" horiz-adv-x="313" 
d="M82 0v739h149v-739h-149z" />
    <glyph glyph-name="J" unicode="J" horiz-adv-x="584" 
d="M233 -12q-138 0 -229 91l72 116q65 -65 146 -65q64 0 102 40.5t38 111.5v457h148v-462q0 -143 -78 -217q-78 -72 -199 -72z" />
    <glyph glyph-name="K" unicode="K" 
d="M708 0h-182l-205 293l-91 -109v-184h-148v739h148v-349l280 349h179l-271 -336z" />
    <glyph glyph-name="L" unicode="L" horiz-adv-x="620" 
d="M606 0h-524v739h149v-597h375v-142z" />
    <glyph glyph-name="M" unicode="M" horiz-adv-x="939" 
d="M228 0h-146v739h98l290 -419l287 419h100v-739h-148v419l-215 -309h-51l-215 309v-419z" />
    <glyph glyph-name="N" unicode="N" horiz-adv-x="794" 
d="M566 282v457h146v-739h-101l-383 453v-453h-146v739h94z" />
    <glyph glyph-name="O" unicode="O" horiz-adv-x="848" 
d="M423 -12q-165 0 -274 109q-110 110 -110 270q0 161 111 273q112 112 274 112t273 -112q112 -112 112 -271t-112 -270q-111 -111 -274 -111zM655 369q0 102 -67 169q-68 68 -164 68t-164 -68q-67 -67 -67 -169q0 -101 66 -168q67 -67 165 -67t165 67t66 168z" />
    <glyph glyph-name="P" unicode="P" horiz-adv-x="639" 
d="M82 739h273q130 0 195 -71q66 -70 66 -173q0 -102 -68 -172q-68 -68 -204 -68h-114v-255h-148v739zM230 389h119q55 0 85.5 30.5t30.5 77.5q0 45 -29.5 75t-78.5 30h-127v-213z" />
    <glyph glyph-name="Q" unicode="Q" horiz-adv-x="848" 
d="M803 -10l20 -121q-66 -24 -133 -24q-171 0 -281 143q-156 7 -264 118q-106 109 -106 264q0 159 112 270q112 112 274 112q161 0 272 -112q112 -111 112 -270q0 -118 -65 -215q-65 -95 -170 -138q51 -45 125 -45q52 0 104 18zM191 368q0 -101 68 -169q67 -67 166 -67
q98 0 165 67q68 68 68 169q0 103 -68 171q-68 69 -165 69q-99 0 -166 -69q-68 -68 -68 -171z" />
    <glyph glyph-name="R" unicode="R" horiz-adv-x="675" 
d="M647 0h-173l-156 269h-88v-269h-148v739h283q123 0 188 -68t65 -166q0 -74 -38.5 -132.5t-111.5 -84.5zM364 602h-134v-200h121q56 0 85.5 28t29.5 73q0 43 -27.5 71t-74.5 28z" />
    <glyph glyph-name="S" unicode="S" horiz-adv-x="606" 
d="M299 -12q-87 0 -161 36t-119 102l85 103q74 -103 196 -103q46 0 76 22t30 57q0 46 -67 77q-8 4 -73 29q-51 20 -87 40q-117 67 -117 184q0 93 70 154q71 62 182 62q144 0 243 -100l-79 -108q-30 32 -74.5 50.5t-87.5 18.5q-44 0 -69.5 -19.5t-25.5 -51.5q0 -43 60 -73
l73 -32q62 -26 90 -39q126 -61 126 -184q0 -99 -75 -162t-196 -63z" />
    <glyph glyph-name="T" unicode="T" horiz-adv-x="600" 
d="M225 0v596h-211v143h572v-143h-211v-596h-150z" />
    <glyph glyph-name="U" unicode="U" horiz-adv-x="725" 
d="M74 270v469h149v-459q0 -73 37 -111t103 -38q64 0 101 39t37 110v459h150v-469q0 -139 -82 -211q-81 -72 -206 -72t-207 72t-82 211z" />
    <glyph glyph-name="V" unicode="V" horiz-adv-x="738" 
d="M370 228l194 511h168l-303 -739h-118l-307 739h171z" />
    <glyph glyph-name="W" unicode="W" horiz-adv-x="1065" 
d="M376 0h-125l-245 739h162l149 -497l168 497h94l171 -497l147 497h162l-244 -739h-125l-157 484z" />
    <glyph glyph-name="X" unicode="X" horiz-adv-x="669" 
d="M178 0h-174l237 374l-221 365h171l144 -253l151 253h174l-233 -365l232 -374h-171l-154 259z" />
    <glyph glyph-name="Y" unicode="Y" horiz-adv-x="679" 
d="M498 739h171l-256 -483v-256h-148v256l-253 483h171l156 -324z" />
    <glyph glyph-name="Z" unicode="Z" horiz-adv-x="651" 
d="M614 0h-579v106l366 496h-352v137h554v-110l-359 -492h370v-137z" />
    <glyph glyph-name="bracketleft" unicode="[" horiz-adv-x="407" 
d="M387 -227h-311v1038h311v-125h-167v-788h167v-125z" />
    <glyph glyph-name="backslash" unicode="\" horiz-adv-x="661" 
d="M173 825l471 -948h-153l-472 948h154z" />
    <glyph glyph-name="bracketright" unicode="]" horiz-adv-x="407" 
d="M331 -227h-311v125h167v788h-167v125h311v-1038z" />
    <glyph glyph-name="asciicircum" unicode="^" horiz-adv-x="542" 
d="M173 431h-139l190 332h95l189 -332h-138l-98 188z" />
    <glyph glyph-name="underscore" unicode="_" horiz-adv-x="591" 
d="M591 -191h-591v130h591v-130z" />
    <glyph glyph-name="grave" unicode="`" horiz-adv-x="390" 
d="M197 796l62 -176h-125l-94 176h157z" />
    <glyph glyph-name="a" unicode="a" horiz-adv-x="676" 
d="M479 480v65h134v-545h-134v63q-70 -76 -174 -76q-118 0 -194 82t-76 206q0 123 77 203q77 81 193 81q102 0 174 -79zM481 273q0 64 -44 111q-43 46 -109 46q-67 0 -110 -46q-42 -46 -42 -111q0 -66 43 -112t109 -46t109 46q44 47 44 112z" />
    <glyph glyph-name="b" unicode="b" horiz-adv-x="678" 
d="M371 559q116 0 194 -83q78 -82 78 -204t-78 -204q-78 -81 -194 -81q-103 0 -170 81v-68h-137v760h141v-278q68 77 166 77zM199 273q0 -65 42 -112q42 -45 108 -45t108 45q42 46 42 112t-42 111t-108 45t-108 -46q-42 -45 -42 -110z" />
    <glyph glyph-name="c" unicode="c" horiz-adv-x="603" 
d="M324 -12q-126 0 -208 80q-81 79 -81 205t82 205q83 81 211 81q84 0 152.5 -40t101.5 -112l-113 -62q-50 83 -139 83q-68 0 -111 -45q-44 -44 -44 -110q0 -68 43 -112q44 -44 109 -44q43 0 82 23t57 59l114 -67q-35 -66 -103.5 -105t-152.5 -39z" />
    <glyph glyph-name="d" unicode="d" horiz-adv-x="676" 
d="M471 482v278h141v-760h-138v67q-66 -80 -169 -80q-117 0 -193 81q-77 83 -77 205q0 121 77 204q78 82 193 82q98 0 166 -77zM478 273q0 66 -42 111q-42 46 -109 46t-110 -46q-42 -45 -42 -111q0 -67 42 -113q43 -45 110 -45t109 45q42 46 42 113z" />
    <glyph glyph-name="e" unicode="e" horiz-adv-x="626" 
d="M593 285q0 -25 -5 -62h-409q30 -116 159 -116q95 0 176 55l56 -99q-104 -75 -238 -75q-143 0 -220 83q-76 82 -76 202q0 125 79 205q79 81 205 81q119 0 196 -74t77 -200zM320 442q-53 0 -90.5 -30.5t-50.5 -83.5h277q-10 53 -46 83.5t-90 30.5z" />
    <glyph glyph-name="f" unicode="f" horiz-adv-x="432" 
d="M354 659q-49 0 -75 -24.5t-26 -70.5v-19h169v-118h-169v-427h-141v427h-84v118h84v22q0 106 61 161q62 56 160 56q81 0 155 -40l-46 -108q-52 23 -88 23z" />
    <glyph glyph-name="g" unicode="g" horiz-adv-x="675" 
d="M481 485v60h130v-491q0 -132 -84 -208q-85 -77 -218 -77q-141 0 -250 79l55 106q94 -64 191 -64q79 0 124.5 42t45.5 109v28q-63 -70 -168 -70q-120 0 -196 79t-76 200t80 201t198 80q100 0 168 -74zM177 277q0 -68 43 -111q44 -44 108 -44t108 44q43 44 43 111
q0 66 -43 109q-44 44 -108 44t-108 -44q-43 -43 -43 -109z" />
    <glyph glyph-name="h" unicode="h" horiz-adv-x="642" 
d="M205 0h-141v760h137v-286q22 38 69 62t103 24q88 0 150 -59t62 -168v-333h-141v295q0 64 -30.5 99.5t-83.5 35.5q-56 0 -90.5 -38.5t-34.5 -99.5v-292z" />
    <glyph glyph-name="i" unicode="i" horiz-adv-x="269" 
d="M199 631q-25 -25 -62 -25t-62 25t-25 62t25 61q25 25 62 25t62 -25q25 -24 25 -61t-25 -62zM207 545v-545h-141v545h141z" />
    <glyph glyph-name="j" unicode="j" horiz-adv-x="293" 
d="M220 631q-25 -25 -62 -25t-62 25t-25 62t25 61q25 25 62 25t62 -25q25 -24 25 -61t-25 -62zM20 -232q-81 0 -124 28l26 112q45 -16 75 -16q91 0 91 107v546h141v-553q0 -108 -56.5 -166t-152.5 -58z" />
    <glyph glyph-name="k" unicode="k" horiz-adv-x="583" 
d="M595 0h-173l-180 233l-37 -33v-200h-141v760h141v-401l198 186h178l-243 -223z" />
    <glyph glyph-name="l" unicode="l" horiz-adv-x="268" 
d="M205 760v-760h-141v760h141z" />
    <glyph glyph-name="m" unicode="m" horiz-adv-x="1002" 
d="M723 560q98 0 159 -61q63 -61 63 -170v-329h-141v303q0 61 -29.5 94t-79.5 33q-54 0 -87 -35.5t-33 -95.5v-299h-141v302q0 60 -29.5 94t-80.5 34q-52 0 -85.5 -36t-33.5 -96v-298h-141v545h138v-78q23 43 68 68.5t98 24.5q52 0 95.5 -25t64.5 -71q30 45 82 70.5
t113 25.5z" />
    <glyph glyph-name="n" unicode="n" horiz-adv-x="643" 
d="M205 0h-141v545h138v-76q22 41 68 66t103 25q89 0 151 -59t62 -168v-333h-141v295q0 64 -31 99.5t-84 35.5q-56 0 -90.5 -38.5t-34.5 -99.5v-292z" />
    <glyph glyph-name="o" unicode="o" horiz-adv-x="654" 
d="M35 273q0 121 82 203q83 84 210 84t210 -84q82 -82 82 -203q0 -122 -82 -204q-83 -83 -210 -83t-210 83q-82 82 -82 204zM219 162q43 -45 108 -45q63 0 107 45q44 47 44 111t-44 110q-44 45 -107 45q-65 0 -108 -45q-43 -44 -43 -110q0 -65 43 -111z" />
    <glyph glyph-name="p" unicode="p" horiz-adv-x="681" 
d="M377 559q115 0 192 -83q76 -82 76 -203q0 -120 -77 -203t-192 -83q-101 0 -171 76v-287h-141v769h140v-67q70 81 173 81zM352 116q67 0 109 45t42 111t-42 111t-109 45q-66 0 -108 -45t-42 -111t42 -111t108 -45z" />
    <glyph glyph-name="q" unicode="q" horiz-adv-x="681" 
d="M477 478v67h140v-769h-141v289q-69 -78 -172 -78q-116 0 -193 83q-76 82 -76 203t76 203q77 83 193 83q103 0 173 -81zM329 116q66 0 108 45t42 111t-42 111t-108 45q-67 0 -109 -45t-42 -111t42 -111t109 -45z" />
    <glyph glyph-name="r" unicode="r" horiz-adv-x="421" 
d="M205 0h-141v545h135v-73q49 88 150 88q33 0 66 -12l-12 -135q-36 11 -65 11q-62 0 -97.5 -41.5t-35.5 -123.5v-259z" />
    <glyph glyph-name="s" unicode="s" horiz-adv-x="496" 
d="M246 -14q-142 0 -225 105l75 89q29 -35 69.5 -55.5t81.5 -20.5q32 0 53.5 15t21.5 38q0 29 -39 47q-12 5 -65 25q-47 17 -70 29q-94 45 -94 141q0 71 56 118q55 46 148 46q116 0 191 -78l-70 -91q-57 54 -125 54q-27 0 -44.5 -13.5t-17.5 -32.5q0 -34 48 -50
q107 -40 131 -53q92 -48 92 -138q0 -77 -60 -126q-58 -49 -157 -49z" />
    <glyph glyph-name="t" unicode="t" horiz-adv-x="461" 
d="M416 143l42 -111q-68 -45 -161 -45q-94 0 -142 54.5t-48 160.5v225h-89v118h90v193h140v-193h180v-118h-180v-216q0 -96 77 -96q42 0 91 28z" />
    <glyph glyph-name="u" unicode="u" horiz-adv-x="614" 
d="M307 -13q-117 0 -183.5 64.5t-66.5 178.5v315h141v-315q0 -52 29 -83t80 -31t80 31t29 83v315h141v-315q0 -115 -66.5 -179t-183.5 -64z" />
    <glyph glyph-name="v" unicode="v" horiz-adv-x="596" 
d="M300 192l134 353h155l-237 -544h-108l-236 544h155z" />
    <glyph glyph-name="w" unicode="w" horiz-adv-x="877" 
d="M317 1h-123l-186 544h148l109 -357l123 357h99l127 -357l106 357h148l-184 -544h-123l-123 341z" />
    <glyph glyph-name="x" unicode="x" horiz-adv-x="553" 
d="M367 274l175 -274h-162l-104 179l-109 -179h-163l181 278l-161 267h161l93 -167l100 167h159z" />
    <glyph glyph-name="y" unicode="y" horiz-adv-x="599" 
d="M312 190l124 355h154l-219 -572q-40 -105 -95.5 -155t-135.5 -50q-62 0 -105 27l24 118q37 -18 70 -18q65 0 106 86l11 25l-238 539h163z" />
    <glyph glyph-name="z" unicode="z" horiz-adv-x="538" 
d="M494 449l-268 -332h278v-117h-472v96l273 331h-259v117h448v-95z" />
    <glyph glyph-name="braceleft" unicode="{" horiz-adv-x="407" 
d="M180 291v-3q42 -13 71 -46t29 -79q0 -25 -6 -90q-5 -72 -5 -91q0 -79 80 -79h28v-134h-68q-183 0 -183 187q0 37 4 93q5 70 5 88q0 49 -27.5 70t-87.5 27v112q50 7 80 23q35 19 35 74q0 17 -5 89q-4 57 -4 97q0 182 190 182h61v-134h-28q-80 0 -80 -78q0 -20 5 -93
q6 -66 6 -90q0 -46 -29 -79t-71 -46z" />
    <glyph glyph-name="bar" unicode="|" horiz-adv-x="292" 
d="M216 -179h-140v1026h140v-1026z" />
    <glyph glyph-name="braceright" unicode="}" horiz-adv-x="407" 
d="M227 288v3q-42 13 -71 46t-29 79q0 17 5 90q6 66 6 93q0 78 -80 78h-28v134h61q190 0 190 -182q0 -40 -4 -97t-4 -89q0 -49 27 -69.5t88 -27.5v-112q-61 -6 -88 -27t-27 -70q0 -32 4 -88t4 -93q0 -187 -182 -187h-69v134h28q80 0 80 79q0 26 -6 91q-5 72 -5 90
q0 46 29 79t71 46z" />
    <glyph glyph-name="asciitilde" unicode="~" horiz-adv-x="699" 
d="M457 231q-50 0 -126 32.5t-95 32.5q-26 0 -47 -14t-51 -50l-90 71q64 118 193 118q55 0 125 -32q72 -32 98 -32q27 0 47.5 14.5t49.5 53.5l93 -74q-72 -120 -197 -120z" />
    <glyph glyph-name="exclamdown" unicode="&#xa1;" horiz-adv-x="278" 
d="M154 526q34 0 57.5 -23t23.5 -59q0 -34 -23.5 -57t-57.5 -23q-35 0 -59 23t-24 57q0 36 23.5 59t59.5 23zM79 -239l8 548h131l10 -548h-149z" />
    <glyph glyph-name="cent" unicode="&#xa2;" horiz-adv-x="620" 
d="M368 424v-302q72 18 102 77l114 -67q-30 -58 -87 -95.5t-129 -46.5v-77h-79v77q-112 13 -181 90q-69 78 -69 193q0 114 68 191q69 78 182 92v77h79v-76q73 -8 131 -47t87 -103l-113 -62q-39 64 -105 79zM179 273q0 -55 30.5 -96t79.5 -54v299q-49 -14 -79.5 -55
t-30.5 -94z" />
    <glyph glyph-name="sterling" unicode="&#xa3;" horiz-adv-x="588" 
d="M282 288q-1 -85 -65 -152h328v-136h-491v115q39 38 61.5 86t22.5 93q0 15 -1 20h-88v112h57q-19 63 -19 106q0 95 70 156q70 62 168 64q71 1 131 -31t93 -86l-96 -88q-19 30 -49.5 48t-63.5 18q-46 0 -75.5 -29.5t-29.5 -74.5q0 -31 18 -83h227v-112h-199q1 -5 1 -26z
" />
    <glyph glyph-name="currency" unicode="&#xa4;" horiz-adv-x="644" 
d="M555 367q0 -69 -37 -122l76 -74l-66 -66l-76 75q-58 -39 -133 -39q-73 0 -128 37l-75 -73l-66 66l73 72q-37 58 -37 124q0 73 43 134l-79 77l66 66l82 -81q56 33 121 33q70 0 125 -34l84 82l66 -66l-81 -80q42 -58 42 -131zM319 493q-51 0 -86 -36q-34 -35 -34 -88
q0 -52 34 -89q35 -36 86 -36t86 36q36 38 36 89q0 52 -35 88t-87 36z" />
    <glyph glyph-name="yen" unicode="&#xa5;" horiz-adv-x="692" 
d="M500 739h165l-175 -335h97v-107h-154l-14 -28v-18h168v-107h-168v-144h-148v144h-168v107h168v20l-13 26h-155v107h99l-173 335h165l152 -321z" />
    <glyph glyph-name="brokenbar" unicode="&#xa6;" horiz-adv-x="292" 
d="M216 434h-140v413h140v-413zM76 234h140v-413h-140v413z" />
    <glyph glyph-name="section" unicode="&#xa7;" horiz-adv-x="617" 
d="M581 214q0 -88 -72 -137q30 -47 30 -100q0 -89 -68 -148q-67 -60 -177 -60q-161 0 -256 125l94 97q30 -39 73.5 -62.5t85.5 -23.5q40 0 65 20.5t25 51.5q0 44 -75 85q-6 4 -69 35q-40 18 -69 35q-37 24 -58 41q-62 50 -62 127q0 87 72 138q-31 46 -31 101q0 95 68 154
q70 59 176 59q135 0 224 -104l-101 -93q-52 60 -118 60q-42 0 -68.5 -21.5t-26.5 -52.5q0 -32 38 -63q7 -4 18.5 -11.5t22.5 -13.5l23 -12q5 -2 15 -6.5t22 -10t15 -7.5q80 -38 124 -75q60 -48 60 -128zM298 219l112 -57q19 16 19 40q0 18 -15 35q-19 23 -86 57
q-86 44 -115 60q-19 -19 -19 -42q0 -20 16 -37q10 -11 23.5 -20.5t22 -14t42.5 -21.5z" />
    <glyph glyph-name="dieresis" unicode="&#xa8;" horiz-adv-x="509" 
d="M45 707q0 34 24.5 58t59.5 24t59.5 -24t24.5 -58q0 -37 -24 -61t-60 -24t-60 24t-24 61zM347 622q-36 0 -60.5 24t-24.5 61q0 35 24.5 58.5t60.5 23.5q35 0 59 -24t24 -58q0 -37 -24 -61t-59 -24z" />
    <glyph glyph-name="copyright" unicode="&#xa9;" horiz-adv-x="849" 
d="M40 369q0 157 113 270t272 113t272 -113t113 -270q0 -156 -113 -269q-112 -112 -272 -112t-272 112q-113 113 -113 269zM425 71q125 1 211 88q88 88 88 210q0 123 -88 211q-87 88 -211 88t-212 -88t-88 -211q0 -122 88 -210q88 -87 212 -88zM428 163q-89 0 -148 59
t-59 147q0 89 58 147q59 59 149 59q54 0 99 -24.5t71 -69.5l-71 -45q-42 50 -98 50q-49 0 -81 -33t-32 -84t32 -84t81 -33q62 0 98 49l70 -52q-27 -40 -71.5 -63t-97.5 -23z" />
    <glyph glyph-name="ordfeminine" unicode="&#xaa;" horiz-adv-x="408" 
d="M195 736q71 0 113.5 -40.5t42.5 -118.5v-186h-81v34q-37 -43 -107 -43q-56 0 -89.5 31.5t-33.5 79.5q0 50 39 77t107 27q3 0 43 -2q20 -1 38 -1q-6 63 -81 63q-57 0 -101 -25l-28 67q61 37 138 37zM178 456q38 0 62 21.5t27 57.5q-52 3 -74 2q-68 0 -68 -41q0 -18 14 -29
t39 -11z" />
    <glyph glyph-name="guillemotleft" unicode="&#xab;" horiz-adv-x="586" 
d="M316 88h-147l-136 203l136 203h147l-140 -203zM540 88h-148l-134 203l135 203h147l-139 -203z" />
    <glyph glyph-name="logicalnot" unicode="&#xac;" horiz-adv-x="603" 
d="M409 251h-346v130h472v-241h-126v111z" />
    <glyph glyph-name="uni00AD" unicode="&#xad;" horiz-adv-x="501" 
d="M441 263h-382v130h382v-130z" />
    <glyph glyph-name="registered" unicode="&#xae;" horiz-adv-x="593" 
d="M116 703q75 75 181 75t181 -75q75 -73 75 -180q0 -106 -75 -181q-76 -74 -181 -74t-181 74q-75 75 -75 181q0 107 75 180zM161 387q56 -57 136 -57q79 0 135 57q56 58 56 136t-56 136q-56 57 -135 57q-80 0 -136 -57q-55 -56 -55 -136t55 -136zM398 565q0 -49 -45 -72
l50 -88h-65l-43 80h-32v-80h-59v241h110q36 0 60 -22.5t24 -58.5zM299 597h-36v-65h36q38 0 38 34q0 31 -38 31z" />
    <glyph glyph-name="overscore" unicode="&#xaf;" horiz-adv-x="454" 
d="M367 638l-327 -2v124h327v-122z" />
    <glyph glyph-name="degree" unicode="&#xb0;" horiz-adv-x="366" 
d="M183 531q-64 0 -108 43q-44 44 -44 105q0 62 44 106q46 44 108 44q64 0 108 -44t44 -106q0 -61 -44 -105q-43 -43 -108 -43zM183 612q28 0 47.5 19.5t19.5 47.5t-19.5 47.5t-47.5 19.5q-27 0 -46.5 -19.5t-19.5 -47.5t19.5 -47.5t46.5 -19.5z" />
    <glyph glyph-name="plusminus" unicode="&#xb1;" horiz-adv-x="620" 
d="M564 493v-131h-188v-184h188v-127h-508v127h190v184h-190v131h190v189h130v-189h188z" />
    <glyph glyph-name="uni00B2" unicode="&#xb2;" horiz-adv-x="346" 
d="M251 674l-81 -84h139v-83h-272v75l129 130q46 46 46 75q0 18 -13.5 29.5t-33.5 11.5q-41 0 -96 -52l-45 68q63 68 147 68q59 0 97.5 -34.5t38.5 -89.5q0 -56 -56 -114z" />
    <glyph glyph-name="uni00B3" unicode="&#xb3;" horiz-adv-x="333" 
d="M10 540l38 73q55 -28 95 -28q38 -2 53.5 20.5t-0.5 45t-53 19.5h-53v79h47q25 0 42 10.5t17 29.5q0 18 -15 28t-37 10q-36 0 -79 -28l-45 66q56 47 135 47q59 0 97 -31q39 -30 39 -74q0 -32 -19.5 -55.5t-52.5 -33.5v-2q39 -9 60.5 -34.5t21.5 -61.5q2 -52 -43 -86
t-111 -33t-137 39z" />
    <glyph glyph-name="acute" unicode="&#xb4;" horiz-adv-x="405" 
d="M165 620h-125l62 176h157z" />
    <glyph glyph-name="paragraph" unicode="&#xb6;" horiz-adv-x="761" 
d="M264 734h450v-139h-77v-798h-142v798h-72v-798h-143v483h-29q-96 0 -160 62q-63 63 -63 164t65 164q65 64 171 64z" />
    <glyph glyph-name="middot" unicode="&#xb7;" horiz-adv-x="265" 
d="M134 -16q-35 0 -59 23.5t-24 58.5q0 34 24 57t59 23q33 0 56.5 -23t23.5 -57q0 -35 -23.5 -58.5t-56.5 -23.5z" />
    <glyph glyph-name="cedilla" unicode="&#xb8;" horiz-adv-x="345" 
d="M229 18l-27 -66q47 -2 77.5 -29t30.5 -71q0 -50 -39.5 -85t-106.5 -35q-61 0 -124 31l31 81q42 -21 81 -21q25 0 38.5 10.5t13.5 27.5q0 34 -56 34h-54l-8 27l39 98z" />
    <glyph glyph-name="uni00B9" unicode="&#xb9;" horiz-adv-x="276" 
d="M10 792l144 109h70v-394h-94v264l-71 -53z" />
    <glyph glyph-name="ordmasculine" unicode="&#xba;" horiz-adv-x="429" 
d="M214 381q-75 0 -128 50q-51 51 -51 126q0 77 51 126q51 51 128 51t128 -51q52 -49 52 -126q0 -75 -52 -126q-52 -50 -128 -50zM214 465q40 0 66 26.5t26 65.5q0 40 -26.5 66.5t-66.5 26.5q-39 0 -65 -26.5t-26 -66.5t26.5 -66t65.5 -26z" />
    <glyph glyph-name="guillemotright" unicode="&#xbb;" horiz-adv-x="586" 
d="M328 291l-134 -203h-148l139 203l-139 203h147zM553 291l-136 -203h-147l140 203l-140 203h147z" />
    <glyph glyph-name="onequarter" unicode="&#xbc;" horiz-adv-x="884" 
d="M244 346h-94v265l-71 -53l-49 74l144 109h70v-395zM106 0l578 739h113l-577 -739h-114zM798 164h42v-75h-42v-89h-85v89h-178l-19 56l210 251h72v-232zM713 278l-95 -114h95v114z" />
    <glyph glyph-name="onehalf" unicode="&#xbd;" horiz-adv-x="865" 
d="M245 346h-94v265l-71 -53l-49 74l144 109h70v-395zM84 0l578 739h113l-576 -739h-115zM765 167l-81 -84h139v-83h-272v75l129 130q46 46 46 75q0 18 -13.5 29.5t-33.5 11.5q-41 0 -96 -52l-45 68q63 68 147 68q59 0 97.5 -34.5t38.5 -89.5q0 -56 -56 -114z" />
    <glyph glyph-name="threequarters" unicode="&#xbe;" horiz-adv-x="849" 
d="M153 425q38 -2 53.5 20.5t-0.5 45t-53 19.5h-53v79h47q25 0 42 10.5t17 29.5q0 18 -15 28t-37 10q-36 0 -79 -28l-45 66q56 47 135 47q59 0 97 -31q39 -30 39 -74q0 -32 -19.5 -55.5t-52.5 -33.5v-2q39 -9 60.5 -34.5t21.5 -61.5q2 -52 -43 -86t-111 -33t-137 39l38 73
q55 -28 95 -28zM112 0l578 739h113l-576 -739h-115zM679 396h72v-232h42v-75h-42v-89h-85v89h-178l-19 56zM666 278l-95 -114h95v114z" />
    <glyph glyph-name="questiondown" unicode="&#xbf;" horiz-adv-x="543" 
d="M381 446q0 -34 -24 -57.5t-59 -23.5q-34 0 -57.5 23.5t-23.5 57.5q0 35 23.5 58t57.5 23t58.5 -23t24.5 -58zM232 320h136v-66q0 -80 -65 -140q-5 -5 -31 -26.5t-34.5 -30.5t-24.5 -27.5t-22 -34.5t-6 -34q0 -39 28.5 -64.5t71.5 -25.5q74 0 149 87l87 -98
q-99 -122 -247 -122q-105 0 -172 61t-67 153q0 88 70 151q8 8 41 36.5t45.5 41.5t26.5 36.5t14 44.5v58z" />
    <glyph glyph-name="Agrave" unicode="&#xc0;" 
d="M352 978l65 -183h-133l-97 183h165zM688 0h-156l-55 160h-258l-57 -160h-155l282 739h121zM435 292l-86 246l-88 -246h174z" />
    <glyph glyph-name="Aacute" unicode="&#xc1;" 
d="M355 977h163l-98 -183h-130zM688 0h-156l-55 160h-258l-57 -160h-155l282 739h121zM435 292l-86 246l-88 -246h174z" />
    <glyph glyph-name="Acircumflex" unicode="&#xc2;" 
d="M415 794l-67 89l-68 -89h-139l154 183h109l155 -183h-144zM688 0h-156l-55 160h-258l-57 -160h-155l282 739h121zM435 292l-86 246l-88 -246h174z" />
    <glyph glyph-name="Atilde" unicode="&#xc3;" 
d="M282 842q-40 0 -65 -52l-92 45q49 118 147 118q35 0 78 -22t59 -22q35 0 61 48l91 -43q-21 -56 -57 -87t-81 -31q-31 0 -77 23t-64 23zM688 0h-156l-55 160h-258l-57 -160h-155l282 739h121zM435 292l-86 246l-88 -246h174z" />
    <glyph glyph-name="Adieresis" unicode="&#xc4;" 
d="M155 880q0 34 24 57.5t59 23.5t59 -23.5t24 -57.5q0 -36 -24 -60t-59 -24t-59 24t-24 60zM452 796q-36 0 -59.5 24t-23.5 60q0 34 24 57.5t59 23.5q34 0 58 -23.5t24 -57.5q0 -36 -24 -60t-58 -24zM688 0h-156l-55 160h-258l-57 -160h-155l282 739h121zM435 292l-86 246
l-88 -246h174z" />
    <glyph glyph-name="Aring" unicode="&#xc5;" 
d="M213 911q0 56 40 95t98 39t97 -39q40 -39 40 -95q0 -57 -40 -94q-40 -38 -97 -38t-98 38q-40 39 -40 94zM351 966q-23 0 -39 -15.5t-16 -37.5q0 -23 16 -39t39 -16q22 0 37.5 16t15.5 39q0 22 -15.5 37.5t-37.5 15.5zM688 0h-156l-55 160h-258l-57 -160h-155l282 739h121
zM435 292l-86 246l-88 -246h174z" />
    <glyph glyph-name="AE" unicode="&#xc6;" horiz-adv-x="1050" 
d="M996 739v-138h-357v-159h329v-138h-329v-166h356v-138h-506v174h-244l-100 -174h-163l447 739h567zM489 598l-168 -292h168v292z" />
    <glyph glyph-name="Ccedilla" unicode="&#xc7;" horiz-adv-x="765" 
d="M644 239l102 -93q-46 -63 -119.5 -104.5t-161.5 -50.5l-16 -39q47 -2 77.5 -29t30.5 -71q0 -50 -39.5 -85t-106.5 -35q-61 0 -124 31l31 81q42 -21 81 -21q25 0 38.5 10.5t13.5 27.5q0 34 -56 34h-54l-8 27l28 71q-140 20 -231 121q-90 102 -90 253q0 168 111 276
q112 109 271 109q99 0 184 -41.5t134 -111.5l-99 -97q-87 107 -211 107q-100 0 -168 -69q-68 -68 -68 -173q0 -102 67 -169t168 -67q129 0 215 108z" />
    <glyph glyph-name="Egrave" unicode="&#xc8;" horiz-adv-x="637" 
d="M345 978l65 -183h-133l-97 183h165zM583 0h-501v739h501v-138h-352v-159h326v-138h-326v-166h352v-138z" />
    <glyph glyph-name="Eacute" unicode="&#xc9;" horiz-adv-x="637" 
d="M390 794h-130l65 183h163zM583 0h-501v739h501v-138h-352v-159h326v-138h-326v-166h352v-138z" />
    <glyph glyph-name="Ecircumflex" unicode="&#xca;" horiz-adv-x="637" 
d="M263 794h-139l154 183h109l155 -183h-144l-67 89zM583 0h-501v739h501v-138h-352v-159h326v-138h-326v-166h352v-138z" />
    <glyph glyph-name="Edieresis" unicode="&#xcb;" horiz-adv-x="637" 
d="M143 880q0 34 24 57.5t59 23.5t59 -23.5t24 -57.5q0 -36 -24 -60t-59 -24t-59 24t-24 60zM440 796q-36 0 -59.5 24t-23.5 60q0 34 24 57.5t59 23.5q34 0 58 -23.5t24 -57.5q0 -36 -24 -60t-58 -24zM583 0h-501v739h501v-138h-352v-159h326v-138h-326v-166h352v-138z" />
    <glyph glyph-name="Igrave" unicode="&#xcc;" horiz-adv-x="313" 
d="M163 978l65 -183h-133l-97 183h165zM84 0v739h149v-739h-149z" />
    <glyph glyph-name="Iacute" unicode="&#xcd;" horiz-adv-x="311" 
d="M217 795h-130l65 183h163zM82 0v739h149v-739h-149z" />
    <glyph glyph-name="Icircumflex" unicode="&#xce;" horiz-adv-x="313" 
d="M89 796h-139l154 183h109l155 -183h-144l-67 89zM84 0v739h149v-739h-149z" />
    <glyph glyph-name="Idieresis" unicode="&#xcf;" horiz-adv-x="313" 
d="M-37 882q0 34 25 58.5t60 24.5t60 -24.5t25 -58.5q0 -37 -24.5 -61.5t-60.5 -24.5t-60.5 24.5t-24.5 61.5zM268 796q-37 0 -61.5 24.5t-24.5 61.5q0 35 24.5 59t61.5 24q35 0 59.5 -24.5t24.5 -58.5q0 -37 -24.5 -61.5t-59.5 -24.5zM84 0v739h149v-739h-149z" />
    <glyph glyph-name="Eth" unicode="&#xd0;" horiz-adv-x="786" 
d="M98 739h289q167 0 261 -100q95 -100 95 -271t-97 -269q-96 -99 -265 -99h-283v310h-82v120h82v309zM246 142h142q95 0 148 65t53 164q0 96 -53 161t-148 65h-142v-167h191v-120h-191v-168z" />
    <glyph glyph-name="Ntilde" unicode="&#xd1;" horiz-adv-x="794" 
d="M272 793l-92 45q49 118 147 118q35 0 78 -22t59 -22q36 0 61 48l91 -43q-21 -56 -57 -87t-81 -31q-31 0 -77 23t-64 23q-40 0 -65 -52zM566 282v457h146v-739h-101l-383 453v-453h-146v739h94z" />
    <glyph glyph-name="Ograve" unicode="&#xd2;" horiz-adv-x="848" 
d="M437 978l65 -183h-133l-97 183h165zM423 -12q-165 0 -274 109q-110 110 -110 270q0 161 111 273q112 112 274 112t273 -112q112 -112 112 -271t-112 -270q-111 -111 -274 -111zM655 369q0 102 -67 169q-68 68 -164 68t-164 -68q-67 -67 -67 -169q0 -101 66 -168
q67 -67 165 -67t165 67t66 168z" />
    <glyph glyph-name="Oacute" unicode="&#xd3;" horiz-adv-x="848" 
d="M488 794h-130l65 183h163zM423 -12q-165 0 -274 109q-110 110 -110 270q0 161 111 273q112 112 274 112t273 -112q112 -112 112 -271t-112 -270q-111 -111 -274 -111zM655 369q0 102 -67 169q-68 68 -164 68t-164 -68q-67 -67 -67 -169q0 -101 66 -168q67 -67 165 -67
t165 67t66 168z" />
    <glyph glyph-name="Ocircumflex" unicode="&#xd4;" horiz-adv-x="848" 
d="M355 794h-139l154 183h109l155 -183h-144l-67 89zM423 -12q-165 0 -274 109q-110 110 -110 270q0 161 111 273q112 112 274 112t273 -112q112 -112 112 -271t-112 -270q-111 -111 -274 -111zM655 369q0 102 -67 169q-68 68 -164 68t-164 -68q-67 -67 -67 -169
q0 -101 66 -168q67 -67 165 -67t165 67t66 168z" />
    <glyph glyph-name="Otilde" unicode="&#xd5;" horiz-adv-x="848" 
d="M301 790l-92 45q49 118 147 118q35 0 78 -22t59 -22q35 0 61 48l91 -43q-21 -56 -57 -87t-81 -31q-31 0 -77 23t-64 23q-40 0 -65 -52zM423 -12q-165 0 -274 109q-110 110 -110 270q0 161 111 273q112 112 274 112t273 -112q112 -112 112 -271t-112 -270
q-111 -111 -274 -111zM655 369q0 102 -67 169q-68 68 -164 68t-164 -68q-67 -67 -67 -169q0 -101 66 -168q67 -67 165 -67t165 67t66 168z" />
    <glyph glyph-name="Odieresis" unicode="&#xd6;" horiz-adv-x="848" 
d="M237 880q0 34 24 57.5t59 23.5t59 -23.5t24 -57.5q0 -36 -24 -60t-59 -24t-59 24t-24 60zM534 796q-36 0 -59.5 24t-23.5 60q0 34 24 57.5t59 23.5q34 0 58 -23.5t24 -57.5q0 -36 -24 -60t-58 -24zM423 -12q-165 0 -274 109q-110 110 -110 270q0 161 111 273
q112 112 274 112t273 -112q112 -112 112 -271t-112 -270q-111 -111 -274 -111zM655 369q0 102 -67 169q-68 68 -164 68t-164 -68q-67 -67 -67 -169q0 -101 66 -168q67 -67 165 -67t165 67t66 168z" />
    <glyph glyph-name="multiply" unicode="&#xd7;" horiz-adv-x="556" 
d="M424 573l88 -85l-149 -150l148 -147l-84 -89l-150 150l-149 -150l-85 89l148 148l-147 147l84 87l148 -148z" />
    <glyph glyph-name="Oslash" unicode="&#xd8;" horiz-adv-x="848" 
d="M756 737l-64 -91q117 -114 117 -277q0 -159 -112 -270q-111 -111 -274 -111q-89 0 -169 36l-59 -84l-86 59l58 82q-61 52 -94.5 126.5t-33.5 159.5q0 161 111 273q112 112 274 112q102 0 184 -46l63 90zM193 369q0 -98 62 -163l267 379q-48 21 -98 21q-96 0 -164 -68
q-67 -67 -67 -169zM424 134q98 0 165 67t66 168q0 87 -51 152l-262 -373q40 -14 82 -14z" />
    <glyph glyph-name="Ugrave" unicode="&#xd9;" horiz-adv-x="725" 
d="M373 978l65 -183h-133l-97 183h165zM74 270v469h149v-459q0 -73 37 -111t103 -38q64 0 101 39t37 110v459h150v-469q0 -139 -82 -211q-81 -72 -206 -72t-207 72t-82 211z" />
    <glyph glyph-name="Uacute" unicode="&#xda;" horiz-adv-x="725" 
d="M422 794h-130l65 183h163zM74 270v469h149v-459q0 -73 37 -111t103 -38q64 0 101 39t37 110v459h150v-469q0 -139 -82 -211q-81 -72 -206 -72t-207 72t-82 211z" />
    <glyph glyph-name="Ucircumflex" unicode="&#xdb;" horiz-adv-x="725" 
d="M293 794h-139l154 183h109l155 -183h-144l-67 89zM74 270v469h149v-459q0 -73 37 -111t103 -38q64 0 101 39t37 110v459h150v-469q0 -139 -82 -211q-81 -72 -206 -72t-207 72t-82 211z" />
    <glyph glyph-name="Udieresis" unicode="&#xdc;" horiz-adv-x="725" 
d="M172 880q0 34 24 57.5t59 23.5t59 -23.5t24 -57.5q0 -36 -24 -60t-59 -24t-59 24t-24 60zM469 796q-35 0 -59 24t-24 60q0 34 24 57.5t59 23.5q34 0 58 -23.5t24 -57.5q0 -36 -24 -60t-58 -24zM74 270v469h149v-459q0 -73 37 -111t103 -38q64 0 101 39t37 110v459h150
v-469q0 -139 -82 -211q-81 -72 -206 -72t-207 72t-82 211z" />
    <glyph glyph-name="Yacute" unicode="&#xdd;" horiz-adv-x="679" 
d="M398 794h-130l65 183h163zM498 739h171l-256 -483v-256h-148v256l-253 483h171l156 -324z" />
    <glyph glyph-name="Thorn" unicode="&#xde;" horiz-adv-x="652" 
d="M230 619h130q126 0 191 -71t65 -170q0 -100 -68 -170q-68 -69 -200 -69h-118v-139h-148v739h148v-120zM230 275h122q54 0 83 30t29 75q0 44 -27.5 72.5t-76.5 28.5h-130v-206z" />
    <glyph glyph-name="germandbls" unicode="&#xdf;" horiz-adv-x="667" 
d="M500 396q60 -19 96 -71.5t36 -119.5q0 -97 -72 -161q-70 -63 -181 -63q-66 0 -126 23l29 120q34 -15 82 -15q55 0 90 30.5t35 76.5q0 51 -45.5 80t-121.5 29v112q57 0 93 31.5t36 79.5q0 43 -30.5 71t-78.5 28q-63 0 -99.5 -48.5t-36.5 -135.5v-640h-142v660
q0 78 25.5 138.5t68.5 94.5q84 65 190 65t177 -62q70 -61 70 -155q0 -112 -95 -168z" />
    <glyph glyph-name="agrave" unicode="&#xe0;" horiz-adv-x="678" 
d="M340 803l62 -176h-125l-94 176h157zM479 480v65h134v-545h-134v63q-70 -76 -174 -76q-118 0 -194 82t-76 206q0 123 77 203q77 81 193 81q102 0 174 -79zM481 273q0 64 -44 111q-43 46 -109 46q-67 0 -110 -46q-42 -46 -42 -111q0 -66 43 -112t109 -46t109 46
q44 47 44 112z" />
    <glyph glyph-name="aacute" unicode="&#xe1;" horiz-adv-x="678" 
d="M335 802h157l-94 -176h-125zM479 480v65h134v-545h-134v63q-70 -76 -174 -76q-118 0 -194 82t-76 206q0 123 77 203q77 81 193 81q102 0 174 -79zM481 273q0 64 -44 111q-43 46 -109 46q-67 0 -110 -46q-42 -46 -42 -111q0 -66 43 -112t109 -46t109 46q44 47 44 112z" />
    <glyph glyph-name="acircumflex" unicode="&#xe2;" horiz-adv-x="678" 
d="M401 626l-65 86l-65 -86h-134l148 176h105l149 -176h-138zM479 480v65h134v-545h-134v63q-70 -76 -174 -76q-118 0 -194 82t-76 206q0 123 77 203q77 81 193 81q102 0 174 -79zM481 273q0 64 -44 111q-43 46 -109 46q-67 0 -110 -46q-42 -46 -42 -111q0 -66 43 -112
t109 -46t109 46q44 47 44 112z" />
    <glyph glyph-name="atilde" unicode="&#xe3;" horiz-adv-x="678" 
d="M281 673q-39 0 -64 -51l-90 44q49 115 144 115q34 0 75 -22q44 -21 59 -21q33 0 59 47l89 -42q-20 -55 -55.5 -85t-79.5 -30q-32 0 -75 22q-44 23 -62 23zM479 480v65h134v-545h-134v63q-70 -76 -174 -76q-118 0 -194 82t-76 206q0 123 77 203q77 81 193 81
q102 0 174 -79zM481 273q0 64 -44 111q-43 46 -109 46q-67 0 -110 -46q-42 -46 -42 -111q0 -66 43 -112t109 -46t109 46q44 47 44 112z" />
    <glyph glyph-name="adieresis" unicode="&#xe4;" horiz-adv-x="678" 
d="M149 702q0 34 24.5 58t59.5 24t59.5 -24t24.5 -58q0 -37 -24 -61t-60 -24t-60 24t-24 61zM451 617q-36 0 -60.5 24t-24.5 61q0 35 24.5 58.5t60.5 23.5q35 0 59 -24t24 -58q0 -37 -24 -61t-59 -24zM479 480v65h134v-545h-134v63q-70 -76 -174 -76q-118 0 -194 82t-76 206
q0 123 77 203q77 81 193 81q102 0 174 -79zM481 273q0 64 -44 111q-43 46 -109 46q-67 0 -110 -46q-42 -46 -42 -111q0 -66 43 -112t109 -46t109 46q44 47 44 112z" />
    <glyph glyph-name="aring" unicode="&#xe5;" horiz-adv-x="678" 
d="M339 607q-57 0 -95 37q-38 38 -38 90q0 53 38 91q40 38 95 38t93 -38q39 -37 39 -91q0 -52 -39 -90q-37 -37 -93 -37zM339 787q-22 0 -37.5 -14.5t-15.5 -36.5t15.5 -37.5t37.5 -15.5q21 0 36 15.5t15 37.5t-15 36.5t-36 14.5zM479 480v65h134v-545h-134v63
q-70 -76 -174 -76q-118 0 -194 82t-76 206q0 123 77 203q77 81 193 81q102 0 174 -79zM481 273q0 64 -44 111q-43 46 -109 46q-67 0 -110 -46q-42 -46 -42 -111q0 -66 43 -112t109 -46t109 46q44 47 44 112z" />
    <glyph glyph-name="ae" unicode="&#xe6;" horiz-adv-x="981" 
d="M947 294q0 -32 -4 -63l-401 1q12 -58 52 -92.5t101 -34.5q90 0 167 56l60 -97q-98 -76 -235 -76q-153 0 -229 108q-75 -109 -222 -109q-97 0 -153 50q-55 49 -55 127q0 97 83 134q71 33 167 33h124q-23 111 -140 111q-91 0 -163 -48l-48 100q46 30 104 47q62 18 118 18
q136 0 200 -94q79 94 213 94q112 0 186 -69q75 -69 75 -196zM544 331h276q-8 53 -44 82.5t-90 29.5q-53 0 -90.5 -29.5t-51.5 -82.5zM251 105q55 0 97.5 34t54.5 93h-122q-120 0 -120 -63q0 -29 25 -46.5t65 -17.5z" />
    <glyph glyph-name="ccedilla" unicode="&#xe7;" horiz-adv-x="603" 
d="M327 117q43 0 82 23t57 59l114 -67q-31 -58 -88 -95.5t-129 -46.5l-16 -38q47 -2 77.5 -29t30.5 -71q0 -50 -39.5 -85t-106.5 -35q-61 0 -124 31l31 81q42 -21 81 -21q25 0 38.5 10.5t13.5 27.5q0 34 -56 34h-54l-8 27l29 72q-102 20 -164 95q-61 76 -61 184
q0 126 82 205q83 81 211 81q84 0 152.5 -40t101.5 -112l-113 -62q-50 83 -139 83q-68 0 -111 -45q-44 -44 -44 -110q0 -68 43 -112q44 -44 109 -44z" />
    <glyph glyph-name="egrave" unicode="&#xe8;" horiz-adv-x="626" 
d="M327 801l62 -176h-125l-94 176h157zM593 285q0 -25 -5 -62h-409q30 -116 159 -116q95 0 176 55l56 -99q-104 -75 -238 -75q-143 0 -220 83q-76 82 -76 202q0 125 79 205q79 81 205 81q119 0 196 -74t77 -200zM320 442q-53 0 -90.5 -30.5t-50.5 -83.5h277q-10 53 -46 83.5
t-90 30.5z" />
    <glyph glyph-name="eacute" unicode="&#xe9;" horiz-adv-x="626" 
d="M313 802h157l-94 -176h-125zM593 285q0 -25 -5 -62h-409q30 -116 159 -116q95 0 176 55l56 -99q-104 -75 -238 -75q-143 0 -220 83q-76 82 -76 202q0 125 79 205q79 81 205 81q119 0 196 -74t77 -200zM320 442q-53 0 -90.5 -30.5t-50.5 -83.5h277q-10 53 -46 83.5
t-90 30.5z" />
    <glyph glyph-name="ecircumflex" unicode="&#xea;" horiz-adv-x="626" 
d="M385 629l-65 86l-65 -86h-134l148 176h105l149 -176h-138zM593 285q0 -25 -5 -62h-409q30 -116 159 -116q95 0 176 55l56 -99q-104 -75 -238 -75q-143 0 -220 83q-76 82 -76 202q0 125 79 205q79 81 205 81q119 0 196 -74t77 -200zM320 442q-53 0 -90.5 -30.5
t-50.5 -83.5h277q-10 53 -46 83.5t-90 30.5z" />
    <glyph glyph-name="edieresis" unicode="&#xeb;" horiz-adv-x="626" 
d="M138 696q0 34 24.5 58t59.5 24t59.5 -24t24.5 -58q0 -37 -24 -61t-60 -24t-60 24t-24 61zM440 611q-36 0 -60.5 24t-24.5 61q0 35 24.5 58.5t60.5 23.5q35 0 59 -24t24 -58q0 -37 -24 -61t-59 -24zM593 285q0 -25 -5 -62h-409q30 -116 159 -116q95 0 176 55l56 -99
q-104 -75 -238 -75q-143 0 -220 83q-76 82 -76 202q0 125 79 205q79 81 205 81q119 0 196 -74t77 -200zM320 442q-53 0 -90.5 -30.5t-50.5 -83.5h277q-10 53 -46 83.5t-90 30.5z" />
    <glyph glyph-name="igrave" unicode="&#xec;" horiz-adv-x="271" 
d="M141 801l62 -176h-125l-94 176h157zM207 545v-545h-141v545h141z" />
    <glyph glyph-name="iacute" unicode="&#xed;" horiz-adv-x="267" 
d="M195 626h-125l62 176h157zM205 545v-545h-141v545h141z" />
    <glyph glyph-name="icircumflex" unicode="&#xee;" horiz-adv-x="269" 
d="M70 626h-134l148 176h105l149 -176h-138l-65 86zM207 545v-545h-141v545h141z" />
    <glyph glyph-name="idieresis" unicode="&#xef;" horiz-adv-x="269" 
d="M-56 700q0 34 24.5 58t59.5 24t59.5 -24t24.5 -58q0 -37 -24 -61t-60 -24t-60 24t-24 61zM246 615q-36 0 -60.5 24t-24.5 61q0 35 24.5 58.5t60.5 23.5q35 0 59 -24t24 -58q0 -37 -24 -61t-59 -24zM207 545v-545h-141v545h141z" />
    <glyph glyph-name="eth" unicode="&#xf0;" horiz-adv-x="655" 
d="M565 749l-79 -56q129 -168 129 -347q0 -154 -88 -257q-87 -102 -222 -102q-119 0 -195 76q-75 77 -75 188t76 184t178 73q119 0 182 -101q-22 111 -97 206l-84 -60l-53 67l80 57q-47 47 -98 86l99 95q62 -48 112 -101l84 60zM453 256q0 59 -41 98q-40 40 -97 40
q-58 0 -99 -41q-40 -40 -40 -100q0 -59 39 -100q39 -40 98 -40q58 0 99 41t41 102z" />
    <glyph glyph-name="ntilde" unicode="&#xf1;" horiz-adv-x="643" 
d="M204 621l-90 44q49 115 144 115q34 0 75 -22q43 -21 59 -21q33 0 59 47l89 -42q-20 -55 -55.5 -85t-79.5 -30q-32 0 -75 22q-44 23 -62 23q-38 0 -64 -51zM205 0h-141v545h138v-76q22 41 68 66t103 25q89 0 151 -59t62 -168v-333h-141v295q0 64 -31 99.5t-84 35.5
q-56 0 -90.5 -38.5t-34.5 -99.5v-292z" />
    <glyph glyph-name="ograve" unicode="&#xf2;" horiz-adv-x="654" 
d="M333 801l62 -176h-125l-94 176h157zM35 273q0 121 82 203q83 84 210 84t210 -84q82 -82 82 -203q0 -122 -82 -204q-83 -83 -210 -83t-210 83q-82 82 -82 204zM219 162q43 -45 108 -45q63 0 107 45q44 47 44 111t-44 110q-44 45 -107 45q-65 0 -108 -45q-43 -44 -43 -110
q0 -65 43 -111z" />
    <glyph glyph-name="oacute" unicode="&#xf3;" horiz-adv-x="654" 
d="M381 626h-125l62 176h157zM35 273q0 121 82 203q83 84 210 84t210 -84q82 -82 82 -203q0 -122 -82 -204q-83 -83 -210 -83t-210 83q-82 82 -82 204zM219 162q43 -45 108 -45q63 0 107 45q44 47 44 111t-44 110q-44 45 -107 45q-65 0 -108 -45q-43 -44 -43 -110
q0 -65 43 -111z" />
    <glyph glyph-name="ocircumflex" unicode="&#xf4;" horiz-adv-x="654" 
d="M260 628h-134l148 176h105l149 -176h-138l-65 86zM35 273q0 121 82 203q83 84 210 84t210 -84q82 -82 82 -203q0 -122 -82 -204q-83 -83 -210 -83t-210 83q-82 82 -82 204zM219 162q43 -45 108 -45q63 0 107 45q44 47 44 111t-44 110q-44 45 -107 45q-65 0 -108 -45
q-43 -44 -43 -110q0 -65 43 -111z" />
    <glyph glyph-name="otilde" unicode="&#xf5;" horiz-adv-x="654" 
d="M206 622l-90 44q49 115 144 115q34 0 75 -22q43 -21 59 -21q33 0 59 47l89 -42q-20 -55 -55.5 -85t-79.5 -30q-32 0 -75 22q-44 23 -62 23q-38 0 -64 -51zM35 273q0 121 82 203q83 84 210 84t210 -84q82 -82 82 -203q0 -122 -82 -204q-83 -83 -210 -83t-210 83
q-82 82 -82 204zM219 162q43 -45 108 -45q63 0 107 45q44 47 44 111t-44 110q-44 45 -107 45q-65 0 -108 -45q-43 -44 -43 -110q0 -65 43 -111z" />
    <glyph glyph-name="odieresis" unicode="&#xf6;" horiz-adv-x="654" 
d="M135 701q0 34 24.5 58t59.5 24t59.5 -24t24.5 -58q0 -37 -24 -61t-60 -24t-60 24t-24 61zM437 616q-36 0 -60.5 24t-24.5 61q0 35 24.5 58.5t60.5 23.5q35 0 59 -24t24 -58q0 -37 -24 -61t-59 -24zM35 273q0 121 82 203q83 84 210 84t210 -84q82 -82 82 -203
q0 -122 -82 -204q-83 -83 -210 -83t-210 83q-82 82 -82 204zM219 162q43 -45 108 -45q63 0 107 45q44 47 44 111t-44 110q-44 45 -107 45q-65 0 -108 -45q-43 -44 -43 -110q0 -65 43 -111z" />
    <glyph glyph-name="divide" unicode="&#xf7;" horiz-adv-x="553" 
d="M277 452q-33 0 -56 22.5t-23 55.5q0 32 23 54t56 22q32 0 54 -22t22 -54q0 -33 -22 -55.5t-54 -22.5zM510 283h-468v119h468v-119zM277 81q-33 0 -56 22.5t-23 55.5q0 32 23 54t56 22q32 0 54 -22t22 -54q0 -33 -22 -55.5t-54 -22.5z" />
    <glyph glyph-name="oslash" unicode="&#xf8;" horiz-adv-x="654" 
d="M574 562l-50 -73q95 -84 95 -216q0 -122 -82 -204q-83 -83 -210 -83q-72 0 -132 28l-55 -79l-64 44l54 78q-95 83 -95 216q0 121 82 203q83 84 210 84q73 0 130 -28l50 73zM176 273q0 -57 34 -100l169 246q-24 9 -52 9q-65 0 -108 -45q-43 -44 -43 -110zM327 117
q63 0 107 45q44 47 44 111q0 56 -35 100l-170 -246q27 -10 54 -10z" />
    <glyph glyph-name="ugrave" unicode="&#xf9;" horiz-adv-x="614" 
d="M315 802l62 -176h-125l-94 176h157zM307 -13q-117 0 -183.5 64.5t-66.5 178.5v315h141v-315q0 -52 29 -83t80 -31t80 31t29 83v315h141v-315q0 -115 -66.5 -179t-183.5 -64z" />
    <glyph glyph-name="uacute" unicode="&#xfa;" horiz-adv-x="614" 
d="M365 626h-125l62 176h157zM307 -13q-117 0 -183.5 64.5t-66.5 178.5v315h141v-315q0 -52 29 -83t80 -31t80 31t29 83v315h141v-315q0 -115 -66.5 -179t-183.5 -64z" />
    <glyph glyph-name="ucircumflex" unicode="&#xfb;" horiz-adv-x="614" 
d="M241 628h-134l148 176h105l149 -176h-138l-65 86zM307 -13q-117 0 -183.5 64.5t-66.5 178.5v315h141v-315q0 -52 29 -83t80 -31t80 31t29 83v315h141v-315q0 -115 -66.5 -179t-183.5 -64z" />
    <glyph glyph-name="udieresis" unicode="&#xfc;" horiz-adv-x="614" 
d="M115 700q0 34 24.5 58t59.5 24t59.5 -24t24.5 -58q0 -37 -24 -61t-60 -24t-60 24t-24 61zM417 615q-36 0 -60.5 24t-24.5 61q0 35 24.5 58.5t60.5 23.5q35 0 59 -24t24 -58q0 -37 -24 -61t-59 -24zM307 -13q-117 0 -183.5 64.5t-66.5 178.5v315h141v-315q0 -52 29 -83
t80 -31t80 31t29 83v315h141v-315q0 -115 -66.5 -179t-183.5 -64z" />
    <glyph glyph-name="yacute" unicode="&#xfd;" horiz-adv-x="599" 
d="M295 801h157l-94 -176h-125zM312 190l124 355h154l-219 -572q-40 -105 -95.5 -155t-135.5 -50q-62 0 -105 27l24 118q37 -18 70 -18q65 0 106 86l11 25l-238 539h163z" />
    <glyph glyph-name="thorn" unicode="&#xfe;" horiz-adv-x="681" 
d="M373 559q117 0 195 -83q79 -82 79 -203q0 -120 -79 -203q-78 -83 -194 -83q-98 0 -169 78v-289h-141v984h139v-281q71 80 170 80zM351 116q66 0 108 45q43 44 43 111t-43 111q-42 45 -108 45q-67 0 -109 -45t-42 -111t42 -111t109 -45z" />
    <glyph glyph-name="ydieresis" unicode="&#xff;" horiz-adv-x="599" 
d="M114 701q0 34 24.5 58t59.5 24t59.5 -24t24.5 -58q0 -37 -24 -61t-60 -24t-60 24t-24 61zM416 616q-36 0 -60.5 24t-24.5 61q0 35 24.5 58.5t60.5 23.5q35 0 59 -24t24 -58q0 -37 -24 -61t-59 -24zM312 190l124 355h154l-219 -572q-40 -105 -95.5 -155t-135.5 -50
q-62 0 -105 27l24 118q37 -18 70 -18q65 0 106 86l11 25l-238 539h163z" />
    <glyph glyph-name="Amacron" unicode="&#x100;" 
d="M166 932h368v-122l-368 -2v124zM688 0h-156l-55 160h-258l-57 -160h-155l282 739h121zM435 292l-86 246l-88 -246h174z" />
    <glyph glyph-name="amacron" unicode="&#x101;" horiz-adv-x="678" 
d="M175 759h327v-122l-327 -2v124zM479 480v65h134v-545h-134v63q-70 -76 -174 -76q-118 0 -194 82t-76 206q0 123 77 203q77 81 193 81q102 0 174 -79zM481 273q0 64 -44 111q-43 46 -109 46q-67 0 -110 -46q-42 -46 -42 -111q0 -66 43 -112t109 -46t109 46q44 47 44 112z
" />
    <glyph glyph-name="Abreve" unicode="&#x102;" 
d="M154 973h116q2 -41 23 -65t57 -24q35 0 56 24t23 65h118q-5 -88 -58 -138t-139 -50t-138 50t-58 138zM688 0h-156l-55 160h-258l-57 -160h-155l282 739h121zM435 292l-86 246l-88 -246h174z" />
    <glyph glyph-name="abreve" unicode="&#x103;" horiz-adv-x="678" 
d="M337 621q-82 0 -132.5 48.5t-55.5 132.5h111q2 -39 22 -62.5t55 -23.5t55 23.5t22 62.5h113q-5 -84 -56 -132.5t-134 -48.5zM479 480v65h134v-545h-134v63q-70 -76 -174 -76q-118 0 -194 82t-76 206q0 123 77 203q77 81 193 81q102 0 174 -79zM481 273q0 64 -44 111
q-43 46 -109 46q-67 0 -110 -46q-42 -46 -42 -111q0 -66 43 -112t109 -46t109 46q44 47 44 112z" />
    <glyph glyph-name="Aogonek" unicode="&#x104;" horiz-adv-x="693" 
d="M671 -144l31 -90q-50 -30 -106 -30q-57 0 -90 32t-33 83q0 86 98 149h-39l-55 160h-258l-57 -160h-155l282 739h121l278 -739h-1q-42 -19 -70 -51.5t-28 -62.5t23.5 -38t58.5 8zM435 292l-86 246l-88 -246h174z" />
    <glyph glyph-name="aogonek" unicode="&#x105;" horiz-adv-x="672" 
d="M596 -144l31 -90q-49 -30 -106 -30t-90 32t-33 83q0 86 98 149h-17v63q-70 -76 -174 -76q-118 0 -194 82t-76 206q0 123 77 203q77 81 193 81q102 0 174 -79v65h134v-545h-1q-42 -19 -70 -51.5t-28 -62.5t23.5 -38t58.5 8zM481 273q0 64 -44 111q-43 46 -109 46
q-67 0 -110 -46q-42 -46 -42 -111q0 -66 43 -112t109 -46t109 46q44 47 44 112z" />
    <glyph glyph-name="Cacute" unicode="&#x106;" horiz-adv-x="765" 
d="M491 794h-130l65 183h163zM420 -11q-162 0 -271 105q-109 106 -109 273q0 168 111 276q112 109 271 109q99 0 184 -41.5t134 -111.5l-99 -97q-87 107 -211 107q-100 0 -168 -69q-68 -68 -68 -173q0 -102 67 -169t168 -67q129 0 215 108l102 -93q-52 -71 -138.5 -114
t-187.5 -43z" />
    <glyph glyph-name="cacute" unicode="&#x107;" horiz-adv-x="603" 
d="M384 626h-125l62 176h157zM324 -12q-126 0 -208 80q-81 79 -81 205t82 205q83 81 211 81q84 0 152.5 -40t101.5 -112l-113 -62q-50 83 -139 83q-68 0 -111 -45q-44 -44 -44 -110q0 -68 43 -112q44 -44 109 -44q43 0 82 23t57 59l114 -67q-35 -66 -103.5 -105t-152.5 -39z
" />
    <glyph glyph-name="Ccircumflex" unicode="&#x108;" horiz-adv-x="765" 
d="M348 794h-139l154 183h109l155 -183h-144l-67 89zM420 -11q-162 0 -271 105q-109 106 -109 273q0 168 111 276q112 109 271 109q99 0 184 -41.5t134 -111.5l-99 -97q-87 107 -211 107q-100 0 -168 -69q-68 -68 -68 -173q0 -102 67 -169t168 -67q129 0 215 108l102 -93
q-52 -71 -138.5 -114t-187.5 -43z" />
    <glyph glyph-name="ccircumflex" unicode="&#x109;" horiz-adv-x="603" 
d="M257 627h-134l148 176h105l149 -176h-138l-65 86zM324 -12q-126 0 -208 80q-81 79 -81 205t82 205q83 81 211 81q84 0 152.5 -40t101.5 -112l-113 -62q-50 83 -139 83q-68 0 -111 -45q-44 -44 -44 -110q0 -68 43 -112q44 -44 109 -44q43 0 82 23t57 59l114 -67
q-35 -66 -103.5 -105t-152.5 -39z" />
    <glyph glyph-name="Cdotaccent" unicode="&#x10a;" horiz-adv-x="765" 
d="M481 820q-25 -25 -62 -25t-62 25t-25 62t25 61q25 25 62 25t62 -25q25 -24 25 -61t-25 -62zM420 -11q-162 0 -271 105q-109 106 -109 273q0 168 111 276q112 109 271 109q99 0 184 -41.5t134 -111.5l-99 -97q-87 107 -211 107q-100 0 -168 -69q-68 -68 -68 -173
q0 -102 67 -169t168 -67q129 0 215 108l102 -93q-52 -71 -138.5 -114t-187.5 -43z" />
    <glyph glyph-name="cdotaccent" unicode="&#x10b;" horiz-adv-x="603" 
d="M386 633q-25 -25 -62 -25t-62 25t-25 62t25 61q25 25 62 25t62 -25q25 -24 25 -61t-25 -62zM324 -12q-126 0 -208 80q-81 79 -81 205t82 205q83 81 211 81q84 0 152.5 -40t101.5 -112l-113 -62q-50 83 -139 83q-68 0 -111 -45q-44 -44 -44 -110q0 -68 43 -112
q44 -44 109 -44q43 0 82 23t57 59l114 -67q-35 -66 -103.5 -105t-152.5 -39z" />
    <glyph glyph-name="Ccaron" unicode="&#x10c;" horiz-adv-x="765" 
d="M370 794l-148 176h134l65 -86l65 86h138l-149 -176h-105zM420 -11q-162 0 -271 105q-109 106 -109 273q0 168 111 276q112 109 271 109q99 0 184 -41.5t134 -111.5l-99 -97q-87 107 -211 107q-100 0 -168 -69q-68 -68 -68 -173q0 -102 67 -169t168 -67q129 0 215 108
l102 -93q-52 -71 -138.5 -114t-187.5 -43z" />
    <glyph glyph-name="ccaron" unicode="&#x10d;" horiz-adv-x="603" 
d="M273 626l-148 176h134l65 -86l65 86h138l-149 -176h-105zM324 -12q-126 0 -208 80q-81 79 -81 205t82 205q83 81 211 81q84 0 152.5 -40t101.5 -112l-113 -62q-50 83 -139 83q-68 0 -111 -45q-44 -44 -44 -110q0 -68 43 -112q44 -44 109 -44q43 0 82 23t57 59l114 -67
q-35 -66 -103.5 -105t-152.5 -39z" />
    <glyph glyph-name="Dcaron" unicode="&#x10e;" horiz-adv-x="770" 
d="M299 794l-148 176h134l65 -86l65 86h138l-149 -176h-105zM365 0h-283v739h289q167 0 261 -100q95 -100 95 -271t-97 -269q-96 -99 -265 -99zM230 597v-455h142q95 0 148 65t53 164q0 96 -53 161t-148 65h-142z" />
    <glyph glyph-name="dcaron" unicode="&#x10f;" horiz-adv-x="706" 
d="M648 625l64 179h147l-92 -179h-119zM471 482v278h141v-760h-138v67q-66 -80 -169 -80q-117 0 -193 81q-77 83 -77 205q0 121 77 204q78 82 193 82q98 0 166 -77zM478 273q0 66 -42 111q-42 46 -109 46t-110 -46q-42 -45 -42 -111q0 -67 42 -113q43 -45 110 -45t109 45
q42 46 42 113z" />
    <glyph glyph-name="Dcroat" unicode="&#x110;" horiz-adv-x="786" 
d="M98 739h289q167 0 261 -100q95 -100 95 -271t-97 -269q-96 -99 -265 -99h-283v310h-82v120h82v309zM246 142h142q95 0 148 65t53 164q0 96 -53 161t-148 65h-142v-167h191v-120h-191v-168z" />
    <glyph glyph-name="dslash" unicode="&#x111;" horiz-adv-x="676" 
d="M612 681h76v-88h-76v-593h-138v67q-66 -80 -169 -80q-117 0 -193 81q-77 83 -77 205q0 121 77 204q78 82 193 82q98 0 166 -77v111h-140v88h140v79h141v-79zM478 273q0 66 -42 111q-42 46 -109 46t-110 -46q-42 -45 -42 -111q0 -67 42 -113q43 -45 110 -45t109 45
q42 46 42 113z" />
    <glyph glyph-name="Emacron" unicode="&#x112;" horiz-adv-x="637" 
d="M520 808l-368 -2v124h368v-122zM583 0h-501v739h501v-138h-352v-159h326v-138h-326v-166h352v-138z" />
    <glyph glyph-name="emacron" unicode="&#x113;" horiz-adv-x="626" 
d="M154 760h327v-122l-327 -2v124zM593 285q0 -25 -5 -62h-409q30 -116 159 -116q95 0 176 55l56 -99q-104 -75 -238 -75q-143 0 -220 83q-76 82 -76 202q0 125 79 205q79 81 205 81q119 0 196 -74t77 -200zM320 442q-53 0 -90.5 -30.5t-50.5 -83.5h277q-10 53 -46 83.5
t-90 30.5z" />
    <glyph glyph-name="Ebreve" unicode="&#x114;" horiz-adv-x="637" 
d="M144 973h116q2 -41 23 -65t57 -24q35 0 56 24t23 65h118q-5 -88 -58 -138t-139 -50t-138 50t-58 138zM583 0h-501v739h501v-138h-352v-159h326v-138h-326v-166h352v-138z" />
    <glyph glyph-name="ebreve" unicode="&#x115;" horiz-adv-x="626" 
d="M324 619q-82 0 -132.5 48.5t-55.5 132.5h111q2 -39 22 -62.5t55 -23.5t55 23.5t22 62.5h113q-5 -84 -56 -132.5t-134 -48.5zM593 285q0 -25 -5 -62h-409q30 -116 159 -116q95 0 176 55l56 -99q-104 -75 -238 -75q-143 0 -220 83q-76 82 -76 202q0 125 79 205
q79 81 205 81q119 0 196 -74t77 -200zM320 442q-53 0 -90.5 -30.5t-50.5 -83.5h277q-10 53 -46 83.5t-90 30.5z" />
    <glyph glyph-name="Edotaccent" unicode="&#x116;" horiz-adv-x="637" 
d="M397 820q-25 -25 -62 -25t-62 25t-25 62t25 61q25 25 62 25t62 -25q25 -24 25 -61t-25 -62zM583 0h-501v739h501v-138h-352v-159h326v-138h-326v-166h352v-138z" />
    <glyph glyph-name="edotaccent" unicode="&#x117;" horiz-adv-x="626" 
d="M388 635q-25 -25 -62 -25t-62 25t-25 62t25 61q25 25 62 25t62 -25q25 -24 25 -61t-25 -62zM593 285q0 -25 -5 -62h-409q30 -116 159 -116q95 0 176 55l56 -99q-104 -75 -238 -75q-143 0 -220 83q-76 82 -76 202q0 125 79 205q79 81 205 81q119 0 196 -74t77 -200z
M320 442q-53 0 -90.5 -30.5t-50.5 -83.5h277q-10 53 -46 83.5t-90 30.5z" />
    <glyph glyph-name="Eogonek" unicode="&#x118;" horiz-adv-x="632" 
d="M566 -144l31 -90q-50 -30 -106 -30q-57 0 -90 32t-33 83q0 86 98 149h-384v739h501v-138h-352v-159h326v-138h-326v-166h352v-138h-1q-42 -19 -70 -51.5t-28 -62.5t23.5 -38t58.5 8z" />
    <glyph glyph-name="eogonek" unicode="&#x119;" horiz-adv-x="626" 
d="M593 285q0 -25 -5 -62h-409q30 -116 159 -116q95 0 176 55l56 -99q-57 -40 -122 -59q-41 -19 -69 -51t-28 -62t23.5 -38t58.5 8l31 -90q-49 -30 -106 -30t-90 32t-33 83q0 74 75 133q-90 5 -154 46q-120 80 -120 238q0 125 79 205q79 81 205 81q119 0 196 -74t77 -200z
M320 442q-53 0 -90.5 -30.5t-50.5 -83.5h277q-10 53 -46 83.5t-90 30.5z" />
    <glyph glyph-name="Ecaron" unicode="&#x11a;" horiz-adv-x="637" 
d="M286 794l-148 176h134l65 -86l65 86h138l-149 -176h-105zM583 0h-501v739h501v-138h-352v-159h326v-138h-326v-166h352v-138z" />
    <glyph glyph-name="ecaron" unicode="&#x11b;" horiz-adv-x="626" 
d="M524 801l-149 -176h-105l-148 176h134l65 -86l65 86h138zM593 285q0 -25 -5 -62h-409q30 -116 159 -116q95 0 176 55l56 -99q-104 -75 -238 -75q-143 0 -220 83q-76 82 -76 202q0 125 79 205q79 81 205 81q119 0 196 -74t77 -200zM320 442q-53 0 -90.5 -30.5t-50.5 -83.5
h277q-10 53 -46 83.5t-90 30.5z" />
    <glyph glyph-name="Gcircumflex" unicode="&#x11c;" horiz-adv-x="810" 
d="M363 797h-139l154 183h109l155 -183h-144l-67 89zM425 -11q-167 0 -277 107q-108 108 -108 273q0 167 112 275t279 108q88 0 167.5 -32.5t130.5 -87.5l-97 -106q-83 83 -201 83q-103 0 -171 -68t-68 -171q0 -101 66 -170q68 -69 171 -69q56 0 109 21.5t89 57.5v101h-204
v129h339v-304q-141 -147 -337 -147z" />
    <glyph glyph-name="gcircumflex" unicode="&#x11d;" horiz-adv-x="675" 
d="M389 626l-65 86l-65 -86h-134l148 176h105l149 -176h-138zM481 485v60h130v-491q0 -132 -84 -208q-85 -77 -218 -77q-141 0 -250 79l55 106q94 -64 191 -64q79 0 124.5 42t45.5 109v28q-63 -70 -168 -70q-120 0 -196 79t-76 200t80 201t198 80q100 0 168 -74zM177 277
q0 -68 43 -111q44 -44 108 -44t108 44q43 44 43 111q0 66 -43 109q-44 44 -108 44t-108 -44q-43 -43 -43 -109z" />
    <glyph glyph-name="Gbreve" unicode="&#x11e;" horiz-adv-x="810" 
d="M232 976h116q2 -41 23 -65t57 -24q35 0 56 24t23 65h118q-5 -88 -58 -138t-139 -50t-138 50t-58 138zM425 -11q-167 0 -277 107q-108 108 -108 273q0 167 112 275t279 108q88 0 167.5 -32.5t130.5 -87.5l-97 -106q-83 83 -201 83q-103 0 -171 -68t-68 -171
q0 -101 66 -170q68 -69 171 -69q56 0 109 21.5t89 57.5v101h-204v129h339v-304q-141 -147 -337 -147z" />
    <glyph glyph-name="gbreve" unicode="&#x11f;" horiz-adv-x="675" 
d="M322 621q-82 0 -132.5 48.5t-55.5 132.5h111q2 -39 22 -62.5t55 -23.5t55 23.5t22 62.5h113q-5 -84 -56 -132.5t-134 -48.5zM481 485v60h130v-491q0 -132 -84 -208q-85 -77 -218 -77q-141 0 -250 79l55 106q94 -64 191 -64q79 0 124.5 42t45.5 109v28q-63 -70 -168 -70
q-120 0 -196 79t-76 200t80 201t198 80q100 0 168 -74zM177 277q0 -68 43 -111q44 -44 108 -44t108 44q43 44 43 111q0 66 -43 109q-44 44 -108 44t-108 -44q-43 -43 -43 -109z" />
    <glyph glyph-name="Gdotaccent" unicode="&#x120;" horiz-adv-x="810" 
d="M492 818q-25 -25 -62 -25t-62 25t-25 62t25 61q25 25 62 25t62 -25q25 -24 25 -61t-25 -62zM425 -11q-167 0 -277 107q-108 108 -108 273q0 167 112 275t279 108q88 0 167.5 -32.5t130.5 -87.5l-97 -106q-83 83 -201 83q-103 0 -171 -68t-68 -171q0 -101 66 -170
q68 -69 171 -69q56 0 109 21.5t89 57.5v101h-204v129h339v-304q-141 -147 -337 -147z" />
    <glyph glyph-name="gdotaccent" unicode="&#x121;" horiz-adv-x="675" 
d="M387 635q-25 -25 -62 -25t-62 25t-25 62t25 61q25 25 62 25t62 -25q25 -24 25 -61t-25 -62zM481 485v60h130v-491q0 -132 -84 -208q-85 -77 -218 -77q-141 0 -250 79l55 106q94 -64 191 -64q79 0 124.5 42t45.5 109v28q-63 -70 -168 -70q-120 0 -196 79t-76 200t80 201
t198 80q100 0 168 -74zM177 277q0 -68 43 -111q44 -44 108 -44t108 44q43 44 43 111q0 66 -43 109q-44 44 -108 44t-108 -44q-43 -43 -43 -109z" />
    <glyph glyph-name="Gcommaaccent" unicode="&#x122;" horiz-adv-x="810" 
d="M423 311v129h339v-304q-141 -147 -337 -147q-167 0 -277 107q-108 108 -108 273q0 167 112 275t279 108q88 0 167.5 -32.5t130.5 -87.5l-97 -106q-83 83 -201 83q-103 0 -171 -68t-68 -171q0 -101 66 -170q68 -69 171 -69q56 0 109 21.5t89 57.5v101h-204zM427 -40
q37 0 62.5 -25t25.5 -66q0 -89 -147 -191l-49 61q54 39 81 68q-24 6 -40.5 27t-16.5 47q0 33 24 56t60 23z" />
    <glyph glyph-name="gcommaaccent" unicode="&#x123;" horiz-adv-x="675" 
d="M324 601q-36 0 -61 25t-25 64q0 46 34.5 90t109.5 97l48 -60q-60 -47 -78 -66q23 -6 38.5 -26.5t15.5 -45.5q0 -33 -23.5 -55.5t-58.5 -22.5zM481 485v60h130v-491q0 -132 -84 -208q-85 -77 -218 -77q-141 0 -250 79l55 106q94 -64 191 -64q79 0 124.5 42t45.5 109v28
q-63 -70 -168 -70q-120 0 -196 79t-76 200t80 201t198 80q100 0 168 -74zM177 277q0 -68 43 -111q44 -44 108 -44t108 44q43 44 43 111q0 66 -43 109q-44 44 -108 44t-108 -44q-43 -43 -43 -109z" />
    <glyph glyph-name="Hcircumflex" unicode="&#x124;" horiz-adv-x="770" 
d="M317 794h-139l154 183h109l155 -183h-144l-67 89zM230 0h-148v739h148v-295h310v295h148v-739h-148v301h-310v-301z" />
    <glyph glyph-name="hcircumflex" unicode="&#x125;" horiz-adv-x="644" 
d="M65 799h-139l154 183h109l155 -183h-144l-67 89zM206 0h-141v760h137v-286q22 38 69 62t103 24q88 0 150 -59t62 -168v-333h-141v295q0 64 -30.5 99.5t-83.5 35.5q-56 0 -90.5 -38.5t-34.5 -99.5v-292z" />
    <glyph glyph-name="Hbar" unicode="&#x126;" horiz-adv-x="802" 
d="M699 638h81v-102h-81v-536h-148v301h-310v-301h-148v536h-80v102h80v101h148v-101h310v101h148v-101zM241 444h310v92h-310v-92z" />
    <glyph glyph-name="hbar" unicode="&#x127;" horiz-adv-x="644" 
d="M374 560q88 0 150 -59t62 -168v-333h-141v295q0 64 -30.5 99.5t-83.5 35.5q-56 0 -90.5 -38.5t-34.5 -99.5v-292h-141v594h-65v88h65v78h137v-78h155v-88h-155v-120q22 38 69 62t103 24z" />
    <glyph glyph-name="Itilde" unicode="&#x128;" horiz-adv-x="313" 
d="M30 800l-92 45q49 118 147 118q35 0 78 -22t59 -22q36 0 61 48l91 -43q-21 -56 -57 -87t-81 -31q-31 0 -77 23t-64 23q-40 0 -65 -52zM84 0v739h149v-739h-149z" />
    <glyph glyph-name="itilde" unicode="&#x129;" horiz-adv-x="269" 
d="M14 621l-90 44q49 115 144 115q34 0 75 -22q43 -21 59 -21q33 0 59 47l89 -42q-20 -55 -55.5 -85t-79.5 -30q-32 0 -75 22q-44 23 -62 23q-38 0 -64 -51zM207 545v-545h-141v545h141z" />
    <glyph glyph-name="Imacron" unicode="&#x12a;" horiz-adv-x="313" 
d="M342 819l-368 -2v124h368v-122zM84 0v739h149v-739h-149z" />
    <glyph glyph-name="imacron" unicode="&#x12b;" horiz-adv-x="269" 
d="M301 639l-327 -2v124h327v-122zM207 545v-545h-141v545h141z" />
    <glyph glyph-name="Ibreve" unicode="&#x12c;" horiz-adv-x="313" 
d="M-38 977h116q2 -41 23 -65t57 -24q35 0 56 24t23 65h118q-5 -88 -58 -138t-139 -50t-138 50t-58 138zM84 0v739h149v-739h-149z" />
    <glyph glyph-name="ibreve" unicode="&#x12d;" horiz-adv-x="269" 
d="M136 621q-82 0 -132.5 48.5t-55.5 132.5h111q2 -39 22 -62.5t55 -23.5t55 23.5t22 62.5h113q-5 -84 -56 -132.5t-134 -48.5zM207 545v-545h-141v545h141z" />
    <glyph glyph-name="Iogonek" unicode="&#x12e;" horiz-adv-x="313" 
d="M215 -144l31 -90q-49 -30 -106 -30t-90 32t-33 83q0 86 98 149h-32v739h149v-739h-1q-42 -19 -70 -51.5t-28 -62.5t23.5 -38t58.5 8z" />
    <glyph glyph-name="iogonek" unicode="&#x12f;" horiz-adv-x="269" 
d="M199 631q-25 -25 -62 -25t-62 25t-25 62t25 61q25 25 62 25t62 -25q25 -24 25 -61t-25 -62zM191 -144l31 -90q-49 -30 -106 -30t-90 32t-33 83q0 86 98 149h-25v545h141v-545q-42 -19 -70 -51.5t-28 -62.5t23.5 -38t58.5 8z" />
    <glyph glyph-name="Idot" unicode="&#x130;" horiz-adv-x="313" 
d="M218 817q-25 -25 -62 -25t-62 25t-25 62t25 61q25 25 62 25t62 -25q25 -24 25 -61t-25 -62zM82 0v739h149v-739h-149z" />
    <glyph glyph-name="dotlessi" unicode="&#x131;" horiz-adv-x="269" 
d="M205 545v-545h-141v545h141z" />
    <glyph glyph-name="IJ" unicode="&#x132;" horiz-adv-x="892" 
d="M82 0v739h149v-739h-149zM544 -12q-138 0 -229 91l72 116q65 -65 146 -65q64 0 102 40.5t38 111.5v457h148v-462q0 -143 -78 -217q-78 -72 -199 -72z" />
    <glyph glyph-name="ij" unicode="&#x133;" horiz-adv-x="575" 
d="M199 631q-25 -25 -62 -25t-62 25t-25 62t25 61q25 25 62 25t62 -25q25 -24 25 -61t-25 -62zM479 631q-25 -25 -62 -25t-62 25t-25 62t25 61q25 25 62 25t62 -25q25 -24 25 -61t-25 -62zM207 545v-545h-141v545h141zM279 -232q-81 0 -124 28l26 112q45 -16 75 -16
q91 0 91 107v546h141v-553q0 -108 -56.5 -166t-152.5 -58z" />
    <glyph glyph-name="Jcircumflex" unicode="&#x134;" horiz-adv-x="581" 
d="M366 794h-139l154 183h109l155 -183h-144l-67 89zM233 -12q-138 0 -229 91l72 116q65 -65 146 -65q64 0 102 40.5t38 111.5v457h148v-462q0 -143 -78 -217q-78 -72 -199 -72z" />
    <glyph glyph-name="jcircumflex" unicode="&#x135;" horiz-adv-x="293" 
d="M90 626h-134l148 176h105l149 -176h-138l-65 86zM20 -232q-81 0 -124 28l26 112q45 -16 75 -16q91 0 91 107v546h141v-553q0 -108 -56.5 -166t-152.5 -58z" />
    <glyph glyph-name="Kcommaaccent" unicode="&#x136;" 
d="M689 739l-271 -336l290 -403h-182l-205 293l-91 -109v-184h-148v739h148v-349l280 349h179zM370 -33q38 0 63 -25.5t25 -65.5q0 -89 -147 -191l-49 61q54 39 81 68q-24 6 -40.5 27t-16.5 47q0 33 24 56t60 23z" />
    <glyph glyph-name="kcommaaccent" unicode="&#x137;" horiz-adv-x="583" 
d="M581 545l-243 -223l257 -322h-173l-180 233l-37 -33v-200h-141v760h141v-401l198 186h178zM306 -16q36 0 61 -25t25 -64q0 -46 -34.5 -90t-109.5 -97l-48 60q60 46 78 66q-23 6 -38.5 26.5t-15.5 45.5q0 33 23.5 55.5t58.5 22.5z" />
    <glyph glyph-name="kgreenlandic" unicode="&#x138;" horiz-adv-x="573" 
d="M581 0h-167l-170 224l-43 -41v-183h-137v545h137v-201l204 201h170l-238 -230z" />
    <glyph glyph-name="Lacute" unicode="&#x139;" horiz-adv-x="620" 
d="M222 794h-130l65 183h163zM606 0h-524v739h149v-597h375v-142z" />
    <glyph glyph-name="lacute" unicode="&#x13a;" horiz-adv-x="266" 
d="M198 796h-130l65 183h163zM205 760v-760h-141v760h141z" />
    <glyph glyph-name="Lcommaaccent" unicode="&#x13b;" horiz-adv-x="620" 
d="M231 739v-597h375v-142h-524v739h149zM351 -34q37 0 62.5 -25t25.5 -66q0 -89 -147 -191l-49 61q54 39 81 68q-24 6 -40.5 27t-16.5 47q0 33 24 56t60 23z" />
    <glyph glyph-name="lcommaaccent" unicode="&#x13c;" horiz-adv-x="268" 
d="M66 760h141v-760h-141v760zM132 -41q36 0 61 -25t25 -64q0 -46 -34.5 -90t-109.5 -97l-48 60q60 47 78 66q-23 6 -38.5 26.5t-15.5 45.5q0 33 23.5 55.5t58.5 22.5z" />
    <glyph glyph-name="Lcaron" unicode="&#x13d;" horiz-adv-x="625" 
d="M510 624h-119l64 179h147zM606 0h-524v739h149v-597h375v-142z" />
    <glyph glyph-name="lcaron" unicode="&#x13e;" horiz-adv-x="296" 
d="M352 625h-119l64 179h147zM205 760v-760h-141v760h141z" />
    <glyph glyph-name="Ldot" unicode="&#x13f;" horiz-adv-x="622" 
d="M606 0h-524v739h149v-597h375v-142zM468 328q-35 0 -59 23.5t-24 58.5q0 34 24 57t59 23q33 0 56.5 -23t23.5 -57q0 -35 -23.5 -58.5t-56.5 -23.5z" />
    <glyph glyph-name="ldot" unicode="&#x140;" horiz-adv-x="412" 
d="M205 760v-760h-141v760h141zM342 284q-35 0 -59 23.5t-24 58.5q0 34 24 57t59 23q33 0 56.5 -23t23.5 -57q0 -35 -23.5 -58.5t-56.5 -23.5z" />
    <glyph glyph-name="Lslash" unicode="&#x141;" horiz-adv-x="633" 
d="M244 351v-209h375v-142h-524v257l-69 -43v133l69 44v348h149v-254l106 67v-134z" />
    <glyph glyph-name="lslash" unicode="&#x142;" horiz-adv-x="345" 
d="M243 505l69 50v-136l-69 -50v-369h-141v266l-63 -46v136l63 46v358h141v-255z" />
    <glyph glyph-name="Nacute" unicode="&#x143;" horiz-adv-x="794" 
d="M453 794h-130l65 183h163zM566 282v457h146v-739h-101l-383 453v-453h-146v739h94z" />
    <glyph glyph-name="nacute" unicode="&#x144;" horiz-adv-x="643" 
d="M382 626h-125l62 176h157zM205 0h-141v545h138v-76q22 41 68 66t103 25q89 0 151 -59t62 -168v-333h-141v295q0 64 -31 99.5t-84 35.5q-56 0 -90.5 -38.5t-34.5 -99.5v-292z" />
    <glyph glyph-name="Ncommaaccent" unicode="&#x145;" horiz-adv-x="794" 
d="M566 282v457h146v-739h-101l-383 453v-453h-146v739h94zM408 -23q38 0 63 -25.5t25 -65.5q0 -89 -147 -191l-49 61q54 39 81 68q-24 6 -40.5 27t-16.5 47q0 33 24 56t60 23z" />
    <glyph glyph-name="ncommaaccent" unicode="&#x146;" horiz-adv-x="643" 
d="M373 560q89 0 151 -59t62 -168v-333h-141v295q0 64 -31 99.5t-84 35.5q-56 0 -90.5 -38.5t-34.5 -99.5v-292h-141v545h138v-76q22 41 68 66t103 25zM329 -26q36 0 61 -25t25 -64q0 -46 -34.5 -90t-109.5 -97l-48 60q60 46 78 66q-23 6 -38.5 26.5t-15.5 45.5
q0 33 23.5 55.5t58.5 22.5z" />
    <glyph glyph-name="Ncaron" unicode="&#x147;" horiz-adv-x="794" 
d="M351 794l-148 176h134l65 -86l65 86h138l-149 -176h-105zM566 282v457h146v-739h-101l-383 453v-453h-146v739h94z" />
    <glyph glyph-name="ncaron" unicode="&#x148;" horiz-adv-x="643" 
d="M275 624l-148 176h134l65 -86l65 86h138l-149 -176h-105zM205 0h-141v545h138v-76q22 41 68 66t103 25q89 0 151 -59t62 -168v-333h-141v295q0 64 -31 99.5t-84 35.5q-56 0 -90.5 -38.5t-34.5 -99.5v-292z" />
    <glyph glyph-name="napostrophe" unicode="&#x149;" horiz-adv-x="699" 
d="M80 624h-119l64 179h147zM260 0h-141v545h138v-76q22 41 68 66t103 25q89 0 151 -59t62 -168v-333h-141v295q0 64 -31 99.5t-84 35.5q-56 0 -90.5 -38.5t-34.5 -99.5v-292z" />
    <glyph glyph-name="Eng" unicode="&#x14a;" horiz-adv-x="794" 
d="M566 274v465h146v-701q0 -142 -77 -216q-76 -73 -193 -73q-76 0 -149 35l39 131q44 -25 102 -25q60 0 96.5 37t36.5 103v16l-339 408v-454h-146v739h94z" />
    <glyph glyph-name="eng" unicode="&#x14b;" horiz-adv-x="643" 
d="M324 -228l2 125q61 -5 89.5 18t28.5 82v303q0 62 -30.5 96t-82.5 34q-56 0 -91 -38.5t-35 -99.5v-292h-141v545h137v-72q24 38 70 62.5t102 24.5q88 0 150 -59t62 -169v-337q0 -131 -73 -183q-71 -54 -188 -40z" />
    <glyph glyph-name="Omacron" unicode="&#x14c;" horiz-adv-x="848" 
d="M608 810l-368 -2v124h368v-122zM423 -12q-165 0 -274 109q-110 110 -110 270q0 161 111 273q112 112 274 112t273 -112q112 -112 112 -271t-112 -270q-111 -111 -274 -111zM655 369q0 102 -67 169q-68 68 -164 68t-164 -68q-67 -67 -67 -169q0 -101 66 -168
q67 -67 165 -67t165 67t66 168z" />
    <glyph glyph-name="omacron" unicode="&#x14d;" horiz-adv-x="654" 
d="M491 637l-327 -2v124h327v-122zM35 273q0 121 82 203q83 84 210 84t210 -84q82 -82 82 -203q0 -122 -82 -204q-83 -83 -210 -83t-210 83q-82 82 -82 204zM219 162q43 -45 108 -45q63 0 107 45q44 47 44 111t-44 110q-44 45 -107 45q-65 0 -108 -45q-43 -44 -43 -110
q0 -65 43 -111z" />
    <glyph glyph-name="Obreve" unicode="&#x14e;" horiz-adv-x="848" 
d="M233 973h116q2 -41 23 -65t57 -24q35 0 56 24t23 65h118q-5 -88 -58 -138t-139 -50t-138 50t-58 138zM423 -12q-165 0 -274 109q-110 110 -110 270q0 161 111 273q112 112 274 112t273 -112q112 -112 112 -271t-112 -270q-111 -111 -274 -111zM655 369q0 102 -67 169
q-68 68 -164 68t-164 -68q-67 -67 -67 -169q0 -101 66 -168q67 -67 165 -67t165 67t66 168z" />
    <glyph glyph-name="obreve" unicode="&#x14f;" horiz-adv-x="654" 
d="M326 621q-82 0 -132.5 48.5t-55.5 132.5h111q2 -39 22 -62.5t55 -23.5t55 23.5t22 62.5h113q-5 -84 -56 -132.5t-134 -48.5zM35 273q0 121 82 203q83 84 210 84t210 -84q82 -82 82 -203q0 -122 -82 -204q-83 -83 -210 -83t-210 83q-82 82 -82 204zM219 162
q43 -45 108 -45q63 0 107 45q44 47 44 111t-44 110q-44 45 -107 45q-65 0 -108 -45q-43 -44 -43 -110q0 -65 43 -111z" />
    <glyph glyph-name="Ohungarumlaut" unicode="&#x150;" horiz-adv-x="848" 
d="M382 795h-121l45 183h156zM591 795h-123l59 183h162zM423 -12q-165 0 -274 109q-110 110 -110 270q0 161 111 273q112 112 274 112t273 -112q112 -112 112 -271t-112 -270q-111 -111 -274 -111zM655 369q0 102 -67 169q-68 68 -164 68t-164 -68q-67 -67 -67 -169
q0 -101 66 -168q67 -67 165 -67t165 67t66 168z" />
    <glyph glyph-name="ohungarumlaut" unicode="&#x151;" horiz-adv-x="654" 
d="M288 626h-117l43 176h151zM489 626h-119l57 176h156zM35 273q0 121 82 203q83 84 210 84t210 -84q82 -82 82 -203q0 -122 -82 -204q-83 -83 -210 -83t-210 83q-82 82 -82 204zM219 162q43 -45 108 -45q63 0 107 45q44 47 44 111t-44 110q-44 45 -107 45q-65 0 -108 -45
q-43 -44 -43 -110q0 -65 43 -111z" />
    <glyph glyph-name="OE" unicode="&#x152;" horiz-adv-x="1027" 
d="M973 739v-138h-352v-159h326v-138h-326v-166h352v-138h-495q-54 -2 -57 -2q-188 0 -283 101q-95 103 -95 269q0 168 93 270q94 103 279 103q7 0 57 -2h501zM471 142v455q-25 3 -48 3q-117 0 -172 -67q-54 -66 -54 -163q0 -98 54 -165q55 -66 172 -66q23 0 48 3z" />
    <glyph glyph-name="oe" unicode="&#x153;" horiz-adv-x="1066" 
d="M1033 285q0 -25 -5 -62h-409q30 -116 159 -116q95 0 176 55l56 -99q-104 -75 -238 -75q-150 0 -229 93q-82 -94 -219 -94q-127 0 -208 83t-81 203q0 119 81 202t208 83q136 0 219 -93q81 94 217 94q119 0 196 -74t77 -200zM760 442q-53 0 -90.5 -30.5t-50.5 -83.5h277
q-10 53 -46 83.5t-90 30.5zM475 274q0 63 -44 109q-44 45 -107 45q-64 0 -107 -45q-43 -44 -43 -109t43 -111q43 -45 107 -45t107 45q44 47 44 111z" />
    <glyph glyph-name="Racute" unicode="&#x154;" horiz-adv-x="675" 
d="M300 977h163l-98 -183h-130zM647 0h-173l-156 269h-88v-269h-148v739h283q123 0 188 -68t65 -166q0 -74 -38.5 -132.5t-111.5 -84.5zM364 602h-134v-200h121q56 0 85.5 28t29.5 73q0 43 -27.5 71t-74.5 28z" />
    <glyph glyph-name="racute" unicode="&#x155;" horiz-adv-x="432" 
d="M294 626h-125l62 176h157zM205 0h-141v545h135v-73q49 88 150 88q33 0 66 -12l-12 -135q-36 11 -65 11q-62 0 -97.5 -41.5t-35.5 -123.5v-259z" />
    <glyph glyph-name="Rcommaaccent" unicode="&#x156;" horiz-adv-x="675" 
d="M468 288l179 -288h-173l-156 269h-88v-269h-148v739h283q123 0 188 -68t65 -166q0 -74 -38.5 -132.5t-111.5 -84.5zM364 602h-134v-200h121q56 0 85.5 28t29.5 73q0 43 -27.5 71t-74.5 28zM346 -26q38 0 63 -25t25 -66q0 -89 -147 -191l-49 61q54 39 81 68
q-24 6 -40.5 27t-16.5 47q0 33 24 56t60 23z" />
    <glyph glyph-name="rcommaaccent" unicode="&#x157;" horiz-adv-x="433" 
d="M350 560q33 0 66 -12l-12 -135q-36 11 -65 11q-62 0 -97.5 -41.5t-35.5 -123.5v-259h-141v545h135v-73q49 88 150 88zM133 -35q36 0 61 -25t25 -64q0 -46 -34.5 -90t-109.5 -97l-48 60q60 47 78 66q-23 6 -38.5 26.5t-15.5 45.5q0 33 23.5 55.5t58.5 22.5z" />
    <glyph glyph-name="Rcaron" unicode="&#x158;" horiz-adv-x="675" 
d="M523 970l-149 -176h-105l-148 176h134l65 -86l65 86h138zM647 0h-173l-156 269h-88v-269h-148v739h283q123 0 188 -68t65 -166q0 -74 -38.5 -132.5t-111.5 -84.5zM364 602h-134v-200h121q56 0 85.5 28t29.5 73q0 43 -27.5 71t-74.5 28z" />
    <glyph glyph-name="rcaron" unicode="&#x159;" horiz-adv-x="432" 
d="M190 625l-148 176h134l65 -86l65 86h138l-149 -176h-105zM206 0h-141v545h135v-73q49 88 150 88q33 0 66 -12l-12 -135q-36 11 -65 11q-62 0 -97.5 -41.5t-35.5 -123.5v-259z" />
    <glyph glyph-name="Sacute" unicode="&#x15a;" horiz-adv-x="598" 
d="M362 793h-130l65 183h163zM299 -12q-87 0 -161 36t-119 102l85 103q74 -103 196 -103q46 0 76 22t30 57q0 46 -67 77q-8 4 -73 29q-51 20 -87 40q-117 67 -117 184q0 93 70 154q71 62 182 62q144 0 243 -100l-79 -108q-30 32 -74.5 50.5t-87.5 18.5q-44 0 -69.5 -19.5
t-25.5 -51.5q0 -43 60 -73l73 -32q62 -26 90 -39q126 -61 126 -184q0 -99 -75 -162t-196 -63z" />
    <glyph glyph-name="sacute" unicode="&#x15b;" horiz-adv-x="490" 
d="M311 626h-125l62 176h157zM246 -14q-142 0 -225 105l75 89q29 -35 69.5 -55.5t81.5 -20.5q32 0 53.5 15t21.5 38q0 29 -39 47q-12 5 -65 25q-47 17 -70 29q-94 45 -94 141q0 71 56 118q55 46 148 46q116 0 191 -78l-70 -91q-57 54 -125 54q-27 0 -44.5 -13.5t-17.5 -32.5
q0 -34 48 -50q107 -40 131 -53q92 -48 92 -138q0 -77 -60 -126q-58 -49 -157 -49z" />
    <glyph glyph-name="Scircumflex" unicode="&#x15c;" horiz-adv-x="598" 
d="M247 793h-139l154 183h109l155 -183h-144l-67 89zM299 -12q-87 0 -161 36t-119 102l85 103q74 -103 196 -103q46 0 76 22t30 57q0 46 -67 77q-8 4 -73 29q-51 20 -87 40q-117 67 -117 184q0 93 70 154q71 62 182 62q144 0 243 -100l-79 -108q-30 32 -74.5 50.5
t-87.5 18.5q-44 0 -69.5 -19.5t-25.5 -51.5q0 -43 60 -73l73 -32q62 -26 90 -39q126 -61 126 -184q0 -99 -75 -162t-196 -63z" />
    <glyph glyph-name="scircumflex" unicode="&#x15d;" horiz-adv-x="488" 
d="M185 627h-134l148 176h105l149 -176h-138l-65 86zM246 -14q-142 0 -225 105l75 89q29 -35 69.5 -55.5t81.5 -20.5q32 0 53.5 15t21.5 38q0 29 -39 47q-12 5 -65 25q-47 17 -70 29q-94 45 -94 141q0 71 56 118q55 46 148 46q116 0 191 -78l-70 -91q-57 54 -125 54
q-27 0 -44.5 -13.5t-17.5 -32.5q0 -34 48 -50q107 -40 131 -53q92 -48 92 -138q0 -77 -60 -126q-58 -49 -157 -49z" />
    <glyph glyph-name="Scedilla" unicode="&#x15e;" horiz-adv-x="598" 
d="M570 213q0 -88 -62 -150q-61 -61 -165 -73l-16 -38q47 -2 77.5 -29t30.5 -71q0 -50 -39.5 -85t-106.5 -35q-61 0 -124 31l31 81q42 -21 81 -21q25 0 38.5 10.5t13.5 27.5q0 34 -56 34h-54l-8 27l28 71q-142 21 -220 133l85 103q74 -103 196 -103q46 0 76 22t30 57
q0 46 -67 77q-8 4 -73 29q-51 20 -87 40q-117 67 -117 184q0 93 70 154q71 62 182 62q144 0 243 -100l-79 -108q-30 32 -74.5 50.5t-87.5 18.5q-44 0 -69.5 -19.5t-25.5 -51.5q0 -43 60 -73l73 -32q62 -26 90 -39q126 -61 126 -184z" />
    <glyph glyph-name="scedilla" unicode="&#x15f;" horiz-adv-x="490" 
d="M463 161q0 -69 -51.5 -117.5t-135.5 -56.5l-14 -34q47 -2 77.5 -29t30.5 -71q0 -50 -39.5 -85t-106.5 -35q-61 0 -124 31l31 81q42 -21 81 -21q25 0 38.5 10.5t13.5 27.5q0 34 -56 34h-54l-8 27l28 71q-93 23 -153 97l75 89q29 -35 69.5 -55.5t81.5 -20.5q32 0 53.5 15
t21.5 38q0 29 -39 47q-12 5 -65 25q-47 17 -70 29q-94 45 -94 141q0 71 56 118q55 46 148 46q116 0 191 -78l-70 -91q-57 54 -125 54q-27 0 -44.5 -13.5t-17.5 -32.5q0 -34 48 -50q107 -40 131 -53q92 -48 92 -138z" />
    <glyph glyph-name="Scaron" unicode="&#x160;" horiz-adv-x="598" 
d="M267 793l-148 176h134l65 -86l65 86h138l-149 -176h-105zM299 -12q-87 0 -161 36t-119 102l85 103q74 -103 196 -103q46 0 76 22t30 57q0 46 -67 77q-8 4 -73 29q-51 20 -87 40q-117 67 -117 184q0 93 70 154q71 62 182 62q144 0 243 -100l-79 -108q-30 32 -74.5 50.5
t-87.5 18.5q-44 0 -69.5 -19.5t-25.5 -51.5q0 -43 60 -73l73 -32q62 -26 90 -39q126 -61 126 -184q0 -99 -75 -162t-196 -63z" />
    <glyph glyph-name="scaron" unicode="&#x161;" horiz-adv-x="488" 
d="M200 625l-148 176h134l65 -86l65 86h138l-149 -176h-105zM246 -14q-142 0 -225 105l75 89q29 -35 69.5 -55.5t81.5 -20.5q32 0 53.5 15t21.5 38q0 29 -39 47q-12 5 -65 25q-47 17 -70 29q-94 45 -94 141q0 71 56 118q55 46 148 46q116 0 191 -78l-70 -91q-57 54 -125 54
q-27 0 -44.5 -13.5t-17.5 -32.5q0 -34 48 -50q107 -40 131 -53q92 -48 92 -138q0 -77 -60 -126q-58 -49 -157 -49z" />
    <glyph glyph-name="Tcaron" unicode="&#x164;" horiz-adv-x="600" 
d="M249 794l-148 176h134l65 -86l65 86h138l-149 -176h-105zM225 0v596h-211v143h572v-143h-211v-596h-150z" />
    <glyph glyph-name="tcaron" unicode="&#x165;" horiz-adv-x="457" 
d="M402 803h147l-92 -179h-119zM325 115q42 0 91 28l42 -111q-68 -45 -161 -45q-94 0 -142 54.5t-48 160.5v225h-89v118h90v193h140v-193h180v-118h-180v-216q0 -96 77 -96z" />
    <glyph glyph-name="Tbar" unicode="&#x166;" horiz-adv-x="619" 
d="M596 739v-143h-211v-159h136v-120h-136v-317h-150v317h-135v120h135v159h-211v143h572z" />
    <glyph glyph-name="tbar" unicode="&#x167;" horiz-adv-x="467" 
d="M421 143l42 -111q-68 -45 -161 -45q-94 0 -142 54.5t-48 160.5v49h-88v96h88v80h-89v118h90v193h140v-193h180v-118h-180v-80h174v-96h-174v-40q0 -96 77 -96q42 0 91 28z" />
    <glyph glyph-name="Utilde" unicode="&#x168;" horiz-adv-x="725" 
d="M239 791l-92 45q49 118 147 118q35 0 78 -22t59 -22q35 0 61 48l91 -43q-21 -56 -57 -87t-81 -31q-31 0 -77 23t-64 23q-40 0 -65 -52zM74 270v469h149v-459q0 -73 37 -111t103 -38q64 0 101 39t37 110v459h150v-469q0 -139 -82 -211q-81 -72 -206 -72t-207 72t-82 211z
" />
    <glyph glyph-name="utilde" unicode="&#x169;" horiz-adv-x="614" 
d="M183 621l-90 44q49 115 144 115q34 0 75 -22q44 -21 59 -21q33 0 59 47l89 -42q-20 -55 -55.5 -85t-79.5 -30q-32 0 -75 22q-44 23 -62 23q-39 0 -64 -51zM307 -13q-117 0 -183.5 64.5t-66.5 178.5v315h141v-315q0 -52 29 -83t80 -31t80 31t29 83v315h141v-315
q0 -115 -66.5 -179t-183.5 -64z" />
    <glyph glyph-name="Umacron" unicode="&#x16a;" horiz-adv-x="725" 
d="M547 812l-368 -2v124h368v-122zM74 270v469h149v-459q0 -73 37 -111t103 -38q64 0 101 39t37 110v459h150v-469q0 -139 -82 -211q-81 -72 -206 -72t-207 72t-82 211z" />
    <glyph glyph-name="umacron" unicode="&#x16b;" horiz-adv-x="614" 
d="M470 638l-327 -2v124h327v-122zM307 -13q-117 0 -183.5 64.5t-66.5 178.5v315h141v-315q0 -52 29 -83t80 -31t80 31t29 83v315h141v-315q0 -115 -66.5 -179t-183.5 -64z" />
    <glyph glyph-name="Ubreve" unicode="&#x16c;" horiz-adv-x="725" 
d="M167 973h116q2 -41 23 -65t57 -24q35 0 56 24t23 65h118q-5 -88 -58 -138t-139 -50t-138 50t-58 138zM74 270v469h149v-459q0 -73 37 -111t103 -38q64 0 101 39t37 110v459h150v-469q0 -139 -82 -211q-81 -72 -206 -72t-207 72t-82 211z" />
    <glyph glyph-name="ubreve" unicode="&#x16d;" horiz-adv-x="614" 
d="M307 619q-82 0 -132.5 48.5t-55.5 132.5h111q2 -39 22 -62.5t55 -23.5t55 23.5t22 62.5h113q-5 -84 -56 -132.5t-134 -48.5zM307 -13q-117 0 -183.5 64.5t-66.5 178.5v315h141v-315q0 -52 29 -83t80 -31t80 31t29 83v315h141v-315q0 -115 -66.5 -179t-183.5 -64z" />
    <glyph glyph-name="Uring" unicode="&#x16e;" horiz-adv-x="725" 
d="M224 911q0 56 40 95t98 39t97 -39q40 -39 40 -95q0 -57 -40 -94q-40 -38 -97 -38t-98 38q-40 39 -40 94zM362 858q22 0 37.5 16t15.5 39q0 22 -15.5 37.5t-37.5 15.5q-23 0 -39 -15.5t-16 -37.5q0 -23 16 -39t39 -16zM74 270v469h149v-459q0 -73 37 -111t103 -38
q64 0 101 39t37 110v459h150v-469q0 -139 -82 -211q-81 -72 -206 -72t-207 72t-82 211z" />
    <glyph glyph-name="uring" unicode="&#x16f;" horiz-adv-x="614" 
d="M307 598q-57 0 -95 37q-38 38 -38 90q0 53 38 91q40 38 95 38t93 -38q39 -38 39 -91t-39 -90q-37 -37 -93 -37zM307 674q21 0 36 15.5t15 37.5t-15 36.5t-36 14.5q-22 0 -37.5 -14.5t-15.5 -36.5t15.5 -37.5t37.5 -15.5zM307 -13q-117 0 -183.5 64.5t-66.5 178.5v315h141
v-315q0 -52 29 -83t80 -31t80 31t29 83v315h141v-315q0 -115 -66.5 -179t-183.5 -64z" />
    <glyph glyph-name="Uhungarumlaut" unicode="&#x170;" horiz-adv-x="726" 
d="M316 795h-121l45 183h156zM525 795h-123l59 183h162zM74 270v469h149v-459q0 -73 37 -111t103 -38q64 0 101 39t37 110v459h150v-469q0 -139 -82 -211q-81 -72 -206 -72t-207 72t-82 211z" />
    <glyph glyph-name="uhungarumlaut" unicode="&#x171;" horiz-adv-x="610" 
d="M258 626h-117l43 176h151zM459 626h-119l57 176h156zM307 -13q-117 0 -183.5 64.5t-66.5 178.5v315h141v-315q0 -52 29 -83t80 -31t80 31t29 83v315h141v-315q0 -115 -66.5 -179t-183.5 -64z" />
    <glyph glyph-name="Uogonek" unicode="&#x172;" horiz-adv-x="725" 
d="M501 280v459h150v-469q0 -103 -48 -171.5t-132 -95.5q-40 -21 -66 -51.5t-26 -59.5q0 -30 23.5 -38t58.5 8l31 -90q-49 -30 -106 -30t-90 32t-33 83q0 74 73 131q-114 7 -189 79q-73 72 -73 203v469h149v-459q0 -73 37 -111t103 -38q64 0 101 39t37 110z" />
    <glyph glyph-name="uogonek" unicode="&#x173;" horiz-adv-x="614" 
d="M416 230v315h141v-315q0 -89 -39.5 -147.5t-114.5 -81.5q-42 -21 -69.5 -52.5t-27.5 -61.5t23.5 -38t58.5 8l31 -90q-49 -30 -106 -30t-90 32t-33 83q0 75 80 137q-100 10 -156.5 73.5t-56.5 167.5v315h141v-315q0 -52 29 -83t80 -31t80 31t29 83z" />
    <glyph glyph-name="Wcircumflex" unicode="&#x174;" horiz-adv-x="1065" 
d="M464 794h-139l154 183h109l155 -183h-144l-67 89zM376 0h-125l-245 739h162l149 -497l168 497h94l171 -497l147 497h162l-244 -739h-125l-157 484z" />
    <glyph glyph-name="wcircumflex" unicode="&#x175;" horiz-adv-x="877" 
d="M373 625h-134l148 176h105l149 -176h-138l-65 86zM317 1h-123l-186 544h148l109 -357l123 357h99l127 -357l106 357h148l-184 -544h-123l-123 341z" />
    <glyph glyph-name="Ycircumflex" unicode="&#x176;" horiz-adv-x="679" 
d="M270 794h-139l154 183h109l155 -183h-144l-67 89zM498 739h171l-256 -483v-256h-148v256l-253 483h171l156 -324z" />
    <glyph glyph-name="ycircumflex" unicode="&#x177;" horiz-adv-x="599" 
d="M371 625l-65 86l-65 -86h-134l148 176h105l149 -176h-138zM312 190l124 355h154l-219 -572q-40 -105 -95.5 -155t-135.5 -50q-62 0 -105 27l24 118q37 -18 70 -18q65 0 106 86l11 25l-238 539h163z" />
    <glyph glyph-name="Ydieresis" unicode="&#x178;" horiz-adv-x="679" 
d="M149 880q0 34 24 57.5t59 23.5t59 -23.5t24 -57.5q0 -36 -24 -60t-59 -24t-59 24t-24 60zM446 796q-36 0 -59.5 24t-23.5 60q0 34 24 57.5t59 23.5q34 0 58 -23.5t24 -57.5q0 -36 -24 -60t-58 -24zM498 739h171l-256 -483v-256h-148v256l-253 483h171l156 -324z" />
    <glyph glyph-name="Zacute" unicode="&#x179;" horiz-adv-x="651" 
d="M390 795h-130l65 183h163zM614 0h-579v106l366 496h-352v137h554v-110l-359 -492h370v-137z" />
    <glyph glyph-name="zacute" unicode="&#x17a;" horiz-adv-x="538" 
d="M324 626h-125l62 176h157zM494 449l-268 -332h278v-117h-472v96l273 331h-259v117h448v-95z" />
    <glyph glyph-name="Zdotaccent" unicode="&#x17b;" horiz-adv-x="651" 
d="M393 820q-25 -25 -62 -25t-62 25t-25 62t25 61q25 25 62 25t62 -25q25 -24 25 -61t-25 -62zM614 0h-579v106l366 496h-352v137h554v-110l-359 -492h370v-137z" />
    <glyph glyph-name="zdotaccent" unicode="&#x17c;" horiz-adv-x="538" 
d="M338 633q-25 -25 -62 -25t-62 25t-25 62t25 61q25 25 62 25t62 -25q25 -24 25 -61t-25 -62zM494 449l-268 -332h278v-117h-472v96l273 331h-259v117h448v-95z" />
    <glyph glyph-name="Zcaron" unicode="&#x17d;" horiz-adv-x="651" 
d="M281 795l-148 176h134l65 -86l65 86h138l-149 -176h-105zM614 0h-579v106l366 496h-352v137h554v-110l-359 -492h370v-137z" />
    <glyph glyph-name="zcaron" unicode="&#x17e;" horiz-adv-x="538" 
d="M216 626l-148 176h134l65 -86l65 86h138l-149 -176h-105zM494 449l-268 -332h278v-117h-472v96l273 331h-259v117h448v-95z" />
    <glyph glyph-name="Scommaaccent" unicode="&#x218;" horiz-adv-x="598" 
d="M444 397q126 -61 126 -184q0 -99 -75 -162t-196 -63q-87 0 -161 36t-119 102l85 103q74 -103 196 -103q46 0 76 22t30 57q0 46 -67 77q-8 4 -73 29q-51 20 -87 40q-117 67 -117 184q0 93 70 154q71 62 182 62q144 0 243 -100l-79 -108q-30 32 -74.5 50.5t-87.5 18.5
q-44 0 -69.5 -19.5t-25.5 -51.5q0 -43 60 -73l73 -32q62 -26 90 -39zM296 -43q38 0 63 -25.5t25 -65.5q0 -89 -147 -191l-49 61q54 39 81 68q-24 6 -40.5 27t-16.5 47q0 33 24 56t60 23z" />
    <glyph glyph-name="scommaaccent" unicode="&#x219;" horiz-adv-x="490" 
d="M371 299q92 -48 92 -138q0 -77 -60 -126q-58 -49 -157 -49q-142 0 -225 105l75 89q29 -35 69.5 -55.5t81.5 -20.5q32 0 53.5 15t21.5 38q0 29 -39 47q-12 5 -65 25q-47 17 -70 29q-94 45 -94 141q0 71 56 118q55 46 148 46q116 0 191 -78l-70 -91q-57 54 -125 54
q-27 0 -44.5 -13.5t-17.5 -32.5q0 -34 48 -50q107 -40 131 -53zM245 -48q36 0 61 -25t25 -64q0 -46 -34.5 -90t-109.5 -97l-48 60q60 46 78 66q-23 6 -38.5 26.5t-15.5 45.5q0 33 23.5 55.5t58.5 22.5z" />
    <glyph glyph-name="uni021A" unicode="&#x21a;" horiz-adv-x="600" 
d="M14 596v143h572v-143h-211v-596h-150v596h-211zM297 -29q37 0 62.5 -25.5t25.5 -65.5q0 -89 -147 -191l-49 61q54 39 81 68q-24 6 -40.5 27t-16.5 47q0 33 24 56t60 23z" />
    <glyph glyph-name="uni021B" unicode="&#x21b;" horiz-adv-x="461" 
d="M416 143l42 -111q-68 -45 -161 -45q-94 0 -142 54.5t-48 160.5v225h-89v118h90v193h140v-193h180v-118h-180v-216q0 -96 77 -96q42 0 91 28zM279 -49q36 0 61 -25t25 -64q0 -46 -34.5 -90t-109.5 -97l-48 60q60 47 78 66q-23 6 -38.5 26.5t-15.5 45.5q0 33 23.5 55.5
t58.5 22.5z" />
    <glyph glyph-name="uni0237" unicode="&#x237;" horiz-adv-x="293" 
d="M20 -232q-81 0 -124 28l26 112q45 -16 75 -16q91 0 91 107v546h141v-553q0 -108 -56.5 -166t-152.5 -58z" />
    <glyph glyph-name="circumflex" unicode="&#x2c6;" horiz-adv-x="561" 
d="M173 621h-134l148 176h105l149 -176h-138l-65 86z" />
    <glyph glyph-name="caron" unicode="&#x2c7;" horiz-adv-x="548" 
d="M187 623l-148 176h134l65 -86l65 86h138l-149 -176h-105z" />
    <glyph glyph-name="breve" unicode="&#x2d8;" horiz-adv-x="467" 
d="M228 616q-82 0 -132.5 48.5t-55.5 132.5h111q2 -39 22 -62.5t55 -23.5t55 23.5t22 62.5h113q-5 -84 -56 -132.5t-134 -48.5z" />
    <glyph glyph-name="dotaccent" unicode="&#x2d9;" horiz-adv-x="300" 
d="M189 625q-25 -25 -62 -25t-62 25t-25 62t25 61q25 25 62 25t62 -25q25 -24 25 -61t-25 -62z" />
    <glyph glyph-name="ring" unicode="&#x2da;" horiz-adv-x="382" 
d="M173 595q-57 0 -95 37q-38 38 -38 90q0 53 38 91q40 38 95 38t93 -38q39 -37 39 -91q0 -52 -39 -90q-37 -37 -93 -37zM173 671q21 0 36 15.5t15 37.5t-15 36.5t-36 14.5q-22 0 -37.5 -14.5t-15.5 -36.5t15.5 -37.5t37.5 -15.5z" />
    <glyph glyph-name="ogonek" unicode="&#x2db;" horiz-adv-x="360" 
d="M238 -144l31 -90q-50 -30 -106 -30q-57 0 -90 32t-33 83q0 100 129 167l85 -18q-42 -19 -70 -51.5t-28 -62.5t23.5 -38t58.5 8z" />
    <glyph glyph-name="tilde" unicode="&#x2dc;" horiz-adv-x="553" 
d="M130 629l-90 44q49 115 144 115q34 0 75 -22q43 -21 59 -21q33 0 59 47l89 -42q-20 -55 -55.5 -85t-79.5 -30q-32 0 -75 22q-44 23 -62 23q-38 0 -64 -51z" />
    <glyph glyph-name="hungarumlaut" unicode="&#x2dd;" horiz-adv-x="544" 
d="M162 620h-117l43 176h151zM363 620h-119l57 176h156z" />
    <glyph glyph-name="uni0394" unicode="&#x394;" horiz-adv-x="753" 
d="M734 0h-714v102l309 637h96l309 -637v-102zM376 551l-186 -411h374z" />
    <glyph glyph-name="uni03A9" unicode="&#x3a9;" horiz-adv-x="863" 
d="M387 0h-337v130h147q-62 39 -100 110.5t-38 157.5q0 149 108 251q107 103 265 103t264 -103q108 -102 108 -251q0 -86 -38 -157.5t-100 -110.5h147v-130h-337v133q79 29 126 95t47 149q0 99 -63 160q-62 63 -154 63q-93 0 -156 -63q-63 -61 -63 -160q0 -83 47.5 -149
t126.5 -95v-133z" />
    <glyph glyph-name="uni03BC" unicode="&#x3bc;" horiz-adv-x="653" 
d="M448 274v261h141v-535h-135v78q-44 -89 -141 -89q-75 0 -112 58v-265h-137v753h141v-284q0 -65 30 -99t84 -34q58 0 93.5 41t35.5 115z" />
    <glyph glyph-name="pi" unicode="&#x3c0;" horiz-adv-x="634" 
d="M247 0h-142v411h-75v124h574v-124h-75v-411h-143v411h-139v-411z" />
    <glyph glyph-name="uni0401" unicode="&#x401;" horiz-adv-x="637" 
d="M144 880q0 34 24 57.5t59 23.5t59 -23.5t24 -57.5q0 -36 -24 -60t-59 -24t-59 24t-24 60zM441 796q-35 0 -59 24t-24 60q0 34 24 57.5t59 23.5q34 0 58 -23.5t24 -57.5q0 -36 -24 -60t-58 -24zM583 0h-501v739h501v-138h-352v-159h326v-138h-326v-166h352v-138z" />
    <glyph glyph-name="uni0410" unicode="&#x410;" 
d="M688 0h-156l-55 160h-258l-57 -160h-155l282 739h121zM435 292l-86 246l-88 -246h174z" />
    <glyph glyph-name="uni0411" unicode="&#x411;" horiz-adv-x="666" 
d="M228 466h143q62 0 110 -16t76 -40t46.5 -57t25 -63t6.5 -61q0 -97 -67 -163q-68 -66 -185 -66h-301v739h482v-129h-336v-144zM228 130h130q60 0 92 28.5t32 74.5q0 45 -30.5 74t-87.5 29h-136v-206z" />
    <glyph glyph-name="uni0412" unicode="&#x412;" horiz-adv-x="692" 
d="M513 405q67 -17 103.5 -68.5t36.5 -121.5q0 -92 -64 -153q-64 -62 -170 -62h-337v739h322q99 0 154 -55q56 -56 56 -129q0 -49 -28 -91.5t-73 -58.5zM379 610h-151v-161h145q44 0 69 24t25 59q0 33 -24 55.5t-64 22.5zM228 130h162q51 0 80.5 28t29.5 69q0 42 -29 70
t-81 28h-162v-195z" />
    <glyph glyph-name="uni0413" unicode="&#x413;" horiz-adv-x="555" 
d="M228 0h-146v739h462v-133h-316v-606z" />
    <glyph glyph-name="uni0414" unicode="&#x414;" horiz-adv-x="798" 
d="M470 739l214 -605h84v-284h-143v150h-452v-150h-143v284h81l219 605h140zM399 550l-135 -416h268z" />
    <glyph glyph-name="uni0415" unicode="&#x415;" horiz-adv-x="637" 
d="M583 0h-501v739h501v-138h-352v-159h326v-138h-326v-166h352v-138z" />
    <glyph glyph-name="uni0416" unicode="&#x416;" horiz-adv-x="1034" 
d="M1006 129l7 -125q-35 -15 -82 -15q-43 0 -83 17q-19 8 -59 48q-7 7 -25 34l-22 37q-1 2 -9 17t-14 26l-23 44q-18 33 -27 47q-27 41 -61 41h-17v-301h-148v301h-17q-25 0 -43 -19.5t-44 -68.5l-23 -44l-23 -43l-22 -36q-17 -27 -25 -35q-39 -39 -60 -48q-45 -17 -83 -17
q-47 0 -82 15l8 125q24 -8 54 -8q35 0 61 32q25 30 105 170q30 42 37 49q-25 20 -50 63q-32 71 -33 73q-31 61 -52 86q-20 23 -56 23q-14 0 -42 -5l-11 119q32 19 77 19q73 0 112 -42q39 -40 89 -150q16 -31 25 -57q1 -3 6 -11.5t8.5 -15.5t5.5 -9q12 -16 25.5 -22t39.5 -6
h13v301h148v-301h13q46 0 62 22q9 15 16 28l9 19l23 52q50 109 88 150q40 42 113 42q45 0 77 -19l-11 -119q-27 5 -41 5q-36 0 -56 -23q-23 -26 -52 -86q-3 -6 -16.5 -34.5t-19.5 -38.5q-17 -36 -46 -65q12 -12 35 -47q83 -144 104 -170q26 -32 62 -32q29 0 55 8z" />
    <glyph glyph-name="uni0417" unicode="&#x417;" horiz-adv-x="615" 
d="M277 -12q-137 0 -259 74l56 120q106 -59 208 -59q63 0 100 26t37 69q0 41 -34 65t-92 24h-129v130h97q60 0 97.5 26t37.5 68q1 39 -31 62t-83 23q-83 0 -180 -59l-67 106q50 42 120.5 65.5t143.5 23.5q114 0 181 -58q69 -57 69 -137q0 -52 -31 -93t-87 -62v-4
q68 -18 105 -66.5t37 -115.5q0 -96 -79 -162q-78 -66 -217 -66z" />
    <glyph glyph-name="uni0418" unicode="&#x418;" horiz-adv-x="784" 
d="M175 0h-93v739h146v-487l381 487h93v-739h-146v483z" />
    <glyph glyph-name="uni0419" unicode="&#x419;" horiz-adv-x="784" 
d="M409 773q-128 0 -219 115l75 78q38 -46 70.5 -65t73.5 -19t74 19t71 65l75 -78q-94 -115 -220 -115zM175 0h-93v739h146v-487l381 487h93v-739h-146v483z" />
    <glyph glyph-name="uni041A" unicode="&#x41a;" 
d="M708 0h-182l-205 293l-91 -109v-184h-148v739h148v-349l280 349h179l-271 -336z" />
    <glyph glyph-name="uni041B" unicode="&#x41b;" horiz-adv-x="685" 
d="M170 0h-162l266 739h141l261 -739h-161l-171 531z" />
    <glyph glyph-name="uni041C" unicode="&#x41c;" horiz-adv-x="939" 
d="M228 0h-146v739h98l290 -419l287 419h100v-739h-148v419l-215 -309h-51l-215 309v-419z" />
    <glyph glyph-name="uni041D" unicode="&#x41d;" horiz-adv-x="770" 
d="M230 0h-148v739h148v-295h310v295h148v-739h-148v301h-310v-301z" />
    <glyph glyph-name="uni041E" unicode="&#x41e;" horiz-adv-x="848" 
d="M423 -12q-165 0 -274 109q-110 110 -110 270q0 161 111 273q112 112 274 112t273 -112q112 -112 112 -271t-112 -270q-111 -111 -274 -111zM655 369q0 102 -67 169q-68 68 -164 68t-164 -68q-67 -67 -67 -169q0 -101 66 -168q67 -67 165 -67t165 67t66 168z" />
    <glyph glyph-name="uni041F" unicode="&#x41f;" horiz-adv-x="770" 
d="M230 0h-148v739h606v-739h-148v596h-310v-596z" />
    <glyph glyph-name="uni0420" unicode="&#x420;" horiz-adv-x="639" 
d="M82 739h273q130 0 195 -71q66 -70 66 -173q0 -102 -68 -172q-68 -68 -204 -68h-114v-255h-148v739zM230 389h119q55 0 85.5 30.5t30.5 77.5q0 45 -29.5 75t-78.5 30h-127v-213z" />
    <glyph glyph-name="uni0421" unicode="&#x421;" horiz-adv-x="765" 
d="M420 -11q-162 0 -271 105q-109 106 -109 273q0 168 111 276q112 109 271 109q99 0 184 -41.5t134 -111.5l-99 -97q-87 107 -211 107q-100 0 -168 -69q-68 -68 -68 -173q0 -102 67 -169t168 -67q129 0 215 108l102 -93q-52 -71 -138.5 -114t-187.5 -43z" />
    <glyph glyph-name="uni0422" unicode="&#x422;" horiz-adv-x="600" 
d="M225 0v596h-211v143h572v-143h-211v-596h-150z" />
    <glyph glyph-name="uni0423" unicode="&#x423;" horiz-adv-x="630" 
d="M140 -12q-55 0 -96 22l12 121q29 -13 62 -13q80 0 140 124l-235 496h174l140 -334l129 334h170l-78 -176q-101 -232 -152 -339q-19 -40 -36 -70q-12 -22 -40 -62q-28 -39 -50 -55q-63 -48 -140 -48z" />
    <glyph glyph-name="uni0424" unicode="&#x424;" horiz-adv-x="945" 
d="M547 11v-91h-149v91q-163 13 -263 112q-99 101 -99 248q0 148 100 247q100 98 262 112v89h149v-89q162 -14 262 -112q100 -99 100 -247t-100 -248q-99 -99 -262 -112zM398 143v454q-97 -9 -155 -71t-58 -157t57 -157q58 -62 156 -69zM547 597v-455q97 8 154.5 69.5
t57.5 157.5q0 95 -57.5 156.5t-154.5 71.5z" />
    <glyph glyph-name="uni0425" unicode="&#x425;" horiz-adv-x="669" 
d="M178 0h-174l237 374l-221 365h171l144 -253l151 253h174l-233 -365l232 -374h-171l-154 259z" />
    <glyph glyph-name="uni0426" unicode="&#x426;" horiz-adv-x="749" 
d="M708 -150h-148v150h-478v739h149v-596h251v596h149v-596h77v-293z" />
    <glyph glyph-name="uni0427" unicode="&#x427;" horiz-adv-x="698" 
d="M466 377v362h150v-739h-150v236q-78 -28 -150 -28q-58 0 -104.5 13.5t-84.5 42.5t-59 81.5t-21 124.5v269h149v-243q0 -77 31 -110.5t99 -33.5q71 0 140 25z" />
    <glyph glyph-name="uni0428" unicode="&#x428;" horiz-adv-x="1098" 
d="M1016 0h-934v739h149v-596h243v596h149v-596h244v596h149v-739z" />
    <glyph glyph-name="uni0429" unicode="&#x429;" horiz-adv-x="1134" 
d="M1093 -150h-148v150h-863v739h149v-596h243v596h149v-596h244v596h149v-596h77v-293z" />
    <glyph glyph-name="uni042A" unicode="&#x42a;" horiz-adv-x="759" 
d="M462 511q118 0 195 -69q76 -67 76 -190q0 -105 -68 -179q-67 -73 -200 -73h-285v610h-165v129h311v-251q69 23 136 23zM326 134h112q71 0 106.5 32t35.5 90q0 60 -35.5 90.5t-100.5 30.5q-55 0 -118 -22v-221z" />
    <glyph glyph-name="uni042B" unicode="&#x42b;" horiz-adv-x="958" 
d="M230 487h141q74 0 129.5 -23t83.5 -63q53 -74 53 -159q0 -103 -68 -173q-67 -69 -185 -69h-300v739h146v-252zM727 0v739h149v-739h-149zM230 131h129q59 0 92 32t33 82t-31.5 80.5t-89.5 30.5h-133v-225z" />
    <glyph glyph-name="uni042C" unicode="&#x42c;" horiz-adv-x="661" 
d="M364 511q118 0 195 -69q77 -68 77 -190q0 -105 -68 -179q-67 -73 -201 -73h-285v739h146v-251q69 23 136 23zM228 134h112q71 0 106.5 32t35.5 90q0 121 -136 121q-55 0 -118 -23v-220z" />
    <glyph glyph-name="uni042D" unicode="&#x42d;" horiz-adv-x="769" 
d="M347 752q160 0 270 -109q112 -108 112 -276q0 -166 -110 -273q-109 -105 -270 -105q-101 0 -187.5 43t-138.5 114l102 93q85 -108 215 -108q83 0 144 46q63 47 83 124h-343v133h343q-21 79 -83.5 127t-144.5 48q-124 0 -211 -107l-99 97q49 70 134 111.5t184 41.5z" />
    <glyph glyph-name="uni042E" unicode="&#x42e;" horiz-adv-x="1129" 
d="M705 752q161 0 273 -112t112 -271t-112 -270q-111 -111 -274 -111q-145 0 -250 87q-104 87 -128 221h-95v-296h-149v739h149v-300h95q25 136 131 224q107 89 248 89zM936 369q0 102 -67 169q-68 68 -164 68t-164 -68q-67 -67 -67 -169q0 -101 66 -168q67 -67 165 -67
t165 67q68 67 66 168z" />
    <glyph glyph-name="uni042F" unicode="&#x42f;" horiz-adv-x="677" 
d="M335 739h260v-739h-146v256q-43 -7 -106 -9l-146 -247h-170l170 270q-70 28 -105 86.5t-35 136.5q0 107 70 176q70 70 208 70zM347 377q49 0 102 9v217h-105q-135 0 -135 -112q0 -114 138 -114z" />
    <glyph glyph-name="uni0430" unicode="&#x430;" horiz-adv-x="678" 
d="M479 480v65h134v-545h-134v63q-70 -76 -174 -76q-118 0 -194 82t-76 206q0 123 77 203q77 81 193 81q102 0 174 -79zM481 273q0 64 -44 111q-43 46 -109 46q-67 0 -110 -46q-42 -46 -42 -111q0 -66 43 -112t109 -46t109 46q44 47 44 112z" />
    <glyph glyph-name="uni0431" unicode="&#x431;" horiz-adv-x="687" 
d="M381 536q106 0 188 -74q82 -73 82 -196q0 -120 -80 -200t-214 -80q-82 0 -145 32.5t-100 89.5q-71 112 -71 271q0 152 64.5 245t180.5 121q16 4 68 13q22 4 65 13q65 18 135 72l54 -114q-40 -42 -87 -60q-47 -17 -157 -39q-48 -10 -74 -20.5t-53 -32.5q-53 -42 -65 -160
q30 56 86 87.5t123 31.5zM508 264q0 62 -43 105q-44 44 -105 44t-106 -42q-44 -41 -44 -105q0 -62 42 -109q42 -45 106 -45q63 0 107 44q43 44 43 108z" />
    <glyph glyph-name="uni0432" unicode="&#x432;" horiz-adv-x="645" 
d="M475 423q64 -18 99.5 -71t35.5 -129q0 -96 -74 -167q-74 -69 -199 -69q-112 0 -193 61q-91 72 -91 243v182q0 150 77 227q78 78 203 78q108 0 175 -56q67 -55 67 -148q0 -49 -27.5 -91.5t-72.5 -59.5zM331 649q-64 0 -100 -50t-36 -133v-7h124q59 0 87.5 27t28.5 70
q0 44 -28 68.5t-76 24.5zM338 116q59 0 94 32.5t35 81.5q0 50 -31 79t-95 29h-146v-46q0 -87 37.5 -131.5t105.5 -44.5z" />
    <glyph glyph-name="uni0433" unicode="&#x433;" horiz-adv-x="509" 
d="M248 -13q-102 0 -159 41t-57 111q0 51 27.5 90.5t69.5 59.5q19 9 75.5 31t79.5 38t23 37q0 46 -74 46q-71 0 -149 -31l-33 107q101 42 206 42q94 0 150.5 -38.5t56.5 -106.5q0 -43 -20 -75t-50.5 -49.5t-66 -33t-66 -26.5t-50.5 -29t-20 -41q0 -53 87 -53q86 0 171 43
l31 -111q-108 -52 -232 -52z" />
    <glyph glyph-name="uni0434" unicode="&#x434;" horiz-adv-x="674" 
d="M481 485v60h130v-476q0 -147 -81 -224t-230 -77q-104 0 -222 41l30 115q93 -34 187 -34q89 0 134.5 39t45.5 112v28q-63 -70 -168 -70q-120 0 -196 79t-76 200t80 201t198 80q100 0 168 -74zM177 277q0 -68 43 -111q44 -44 108 -44t108 44q43 44 43 111q0 66 -43 109
q-44 44 -108 44t-108 -44q-43 -43 -43 -109z" />
    <glyph glyph-name="uni0435" unicode="&#x435;" horiz-adv-x="626" 
d="M593 285q0 -25 -5 -62h-409q30 -116 159 -116q95 0 176 55l56 -99q-104 -75 -238 -75q-143 0 -220 83q-76 82 -76 202q0 125 79 205q79 81 205 81q119 0 196 -74t77 -200zM320 442q-53 0 -90.5 -30.5t-50.5 -83.5h277q-10 53 -46 83.5t-90 30.5z" />
    <glyph glyph-name="uni0436" unicode="&#x436;" horiz-adv-x="886" 
d="M859 111l6 -108q-35 -12 -74 -12t-74 13q-17 6 -51 34q-15 15 -36 48l-15 27q-11 21 -15 26q-22 38 -37.5 52.5t-36.5 14.5h-15v-207h-137v207h-14q-21 0 -36.5 -14.5t-37.5 -52.5l-17 -30l-19 -31q-1 -2 -7.5 -10.5t-11.5 -15.5q-12 -18 -53 -44q-30 -17 -83 -17
q-39 0 -74 12l6 108q24 -6 43 -6q28 0 46 19q17 17 71 97l14 20q19 26 25 32q-15 9 -31 32q-2 4 -5.5 9.5t-5.5 9.5q-5 12 -15 31q-24 46 -36 60q-16 23 -50 23q-19 0 -35 -3l-9 103q29 15 69 15q61 0 96 -27.5t64 -91.5l21 -46q17 -30 18 -31q20 -23 56 -23h11v211h137
v-211h11q24 -4 50 16q9 5 21 33q4 6 11 24q11 23 13 27q29 64 64 91.5t97 27.5q40 0 69 -15l-9 -103q-16 3 -35 3q-33 0 -51 -23q-15 -19 -35 -60q-4 -13 -11 -22q-3 -10 -10 -19q-21 -32 -36 -41q6 -6 25 -32q61 -93 79 -113q23 -23 52 -23q19 0 43 6z" />
    <glyph glyph-name="uni0437" unicode="&#x437;" horiz-adv-x="557" 
d="M257 -230q-135 0 -251 81l50 109q94 -63 180 -63q65 0 103 30t38 81q0 48 -34.5 75t-93.5 27h-106v121h73q67 0 104 29t37 75q0 44 -32.5 70t-82.5 26q-74 0 -163 -63l-63 99q45 41 112.5 66.5t134.5 25.5q104 0 172 -59t68 -143q0 -54 -30.5 -97.5t-83.5 -65.5v-4
q63 -17 100 -68.5t37 -120.5q0 -98 -72 -164q-71 -67 -197 -67z" />
    <glyph glyph-name="uni0438" unicode="&#x438;" horiz-adv-x="652" 
d="M447 545h141v-545h-136v77q-21 -39 -72.5 -64.5t-113.5 -25.5q-89 0 -149 57q-59 57 -59 175v326h141v-305q0 -60 28.5 -92t81.5 -32q63 0 100.5 39t37.5 108v282z" />
    <glyph glyph-name="uni0439" unicode="&#x439;" horiz-adv-x="652" 
d="M327 581q-115 0 -197 103l68 71q33 -42 62.5 -59t66.5 -17t66.5 17t64.5 59l67 -71q-84 -103 -198 -103zM447 545h141v-545h-136v77q-21 -39 -72.5 -64.5t-113.5 -25.5q-89 0 -149 57q-59 57 -59 175v326h141v-305q0 -60 28.5 -92t81.5 -32q63 0 100.5 39t37.5 108v282z
" />
    <glyph glyph-name="uni043A" unicode="&#x43a;" horiz-adv-x="583" 
d="M595 0h-173l-180 233l-37 -33v-200h-141v760h141v-401l198 186h178l-243 -223z" />
    <glyph glyph-name="uni043B" unicode="&#x43b;" horiz-adv-x="608" 
d="M164 0h-156l229 545h139l224 -545h-156l-137 373z" />
    <glyph glyph-name="uni043C" unicode="&#x43c;" horiz-adv-x="781" 
d="M201 0h-137v545h101l226 -291l226 291h101v-545h-137v289l-166 -206h-49l-165 206v-289z" />
    <glyph glyph-name="uni043D" unicode="&#x43d;" horiz-adv-x="629" 
d="M425 336v209h140v-545h-140v210h-221v-210h-140v545h140v-209h221z" />
    <glyph glyph-name="uni043E" unicode="&#x43e;" horiz-adv-x="654" 
d="M35 273q0 121 82 203q83 84 210 84t210 -84q82 -82 82 -203q0 -122 -82 -204q-83 -83 -210 -83t-210 83q-82 82 -82 204zM219 162q43 -45 108 -45q63 0 107 45q44 47 44 111t-44 110q-44 45 -107 45q-65 0 -108 -45q-43 -44 -43 -110q0 -65 43 -111z" />
    <glyph glyph-name="uni043F" unicode="&#x43f;" horiz-adv-x="643" 
d="M205 0h-141v545h138v-76q22 41 68 66t103 25q89 0 151 -59t62 -168v-333h-141v295q0 64 -31 99.5t-84 35.5q-56 0 -90.5 -38.5t-34.5 -99.5v-292z" />
    <glyph glyph-name="uni0440" unicode="&#x440;" horiz-adv-x="681" 
d="M377 559q115 0 192 -83q76 -82 76 -203q0 -120 -77 -203t-192 -83q-101 0 -171 76v-287h-141v769h140v-67q70 81 173 81zM352 116q67 0 109 45t42 111t-42 111t-109 45q-66 0 -108 -45t-42 -111t42 -111t108 -45z" />
    <glyph glyph-name="uni0441" unicode="&#x441;" horiz-adv-x="603" 
d="M324 -12q-126 0 -208 80q-81 79 -81 205t82 205q83 81 211 81q84 0 152.5 -40t101.5 -112l-113 -62q-50 83 -139 83q-68 0 -111 -45q-44 -44 -44 -110q0 -68 43 -112q44 -44 109 -44q43 0 82 23t57 59l114 -67q-35 -66 -103.5 -105t-152.5 -39z" />
    <glyph glyph-name="uni0442" unicode="&#x442;" horiz-adv-x="1002" 
d="M723 560q98 0 159 -61q63 -61 63 -170v-329h-141v303q0 61 -29.5 94t-79.5 33q-54 0 -87 -35.5t-33 -95.5v-299h-141v302q0 60 -29.5 94t-80.5 34q-52 0 -85.5 -36t-33.5 -96v-298h-141v545h138v-78q23 43 68 68.5t98 24.5q52 0 95.5 -25t64.5 -71q30 45 82 70.5
t113 25.5z" />
    <glyph glyph-name="uni0443" unicode="&#x443;" horiz-adv-x="599" 
d="M311 190l124 355h154l-219 -572q-40 -105 -95.5 -155t-135.5 -50q-61 0 -105 27l24 118q38 -18 70 -18q65 0 106 86l11 25l-238 539h163z" />
    <glyph glyph-name="uni0444" unicode="&#x444;" horiz-adv-x="851" 
d="M816 272q0 -129 -88 -204q-89 -74 -236 -80v-215h-133v215q-147 6 -236 81q-88 75 -88 204q0 128 88 204q90 78 236 82v201h133v-201q146 -4 235 -81t89 -206zM492 437v-330q87 1 137 45.5t50 120.5q0 75 -48.5 118.5t-138.5 45.5zM172 273q0 -75 50 -119t137 -46v329
q-89 -2 -138 -45.5t-49 -118.5z" />
    <glyph glyph-name="uni0445" unicode="&#x445;" horiz-adv-x="554" 
d="M368 274l175 -274h-162l-104 179l-109 -179h-163l181 278l-161 267h161l93 -167l100 167h159z" />
    <glyph glyph-name="uni0446" unicode="&#x446;" horiz-adv-x="720" 
d="M588 545v-373q-1 -47 28 -63.5t98 -16.5v-272h-124v171q-51 0 -86 28.5t-40 77.5q-20 -48 -75 -79t-123 -31q-89 0 -149 57q-59 57 -59 175v326h141v-305q0 -60 28.5 -92t81.5 -32q63 0 100.5 39t37.5 108v282h141z" />
    <glyph glyph-name="uni0447" unicode="&#x447;" horiz-adv-x="587" 
d="M382 289v256h141v-545h-141v164q-67 -16 -121 -16q-95 0 -156 41q-67 48 -67 173v183h140v-173q0 -96 99 -96q57 0 105 13z" />
    <glyph glyph-name="uni0448" unicode="&#x448;" horiz-adv-x="978" 
d="M773 255v290h141v-545h-133v77q-20 -38 -67 -64t-102 -26q-52 0 -94 23.5t-62 67.5q-26 -44 -75.5 -67.5t-108.5 -23.5q-91 0 -152 58q-62 59 -62 179v321h141v-307q0 -60 26 -91t75 -31q54 0 85 37t31 102v290h141v-311q0 -57 26 -87.5t73 -30.5q53 0 85 38.5t32 100.5z
" />
    <glyph glyph-name="uni0449" unicode="&#x449;" horiz-adv-x="1049" 
d="M914 545v-373q0 -47 29 -63.5t98 -16.5v-272h-123v171q-52 0 -86.5 28.5t-39.5 77.5q-20 -49 -71 -79.5t-114 -30.5q-50 0 -90.5 23t-60.5 68q-27 -44 -77 -67.5t-107 -23.5q-91 0 -152 58q-62 59 -62 179v321h141v-307q0 -60 26 -91t75 -31q54 0 85 37t31 102v290h141
v-311q0 -57 25.5 -87.5t72.5 -30.5q54 0 86 38t32 101v290h141z" />
    <glyph glyph-name="uni044A" unicode="&#x44a;" horiz-adv-x="654" 
d="M397 444q98 0 162 -64q66 -63 66 -162q0 -96 -62 -164q-61 -67 -187 -67q-58 0 -102 17.5t-69.5 43.5t-41.5 63t-21.5 71t-5.5 71v173h-124v119h262v-135q56 34 123 34zM379 109q51 0 79 30t28 78q0 49 -29 77t-82 28q-54 0 -101 -25v-62q0 -126 105 -126z" />
    <glyph glyph-name="uni044B" unicode="&#x44b;" horiz-adv-x="796" 
d="M199 378h111q122 0 174 -63q46 -53 46 -125q0 -82 -57 -136q-55 -54 -158 -54h-251v545h135v-167zM592 0v545h140v-545h-140zM198 115h103q46 0 69 20t23 55q0 32 -22.5 52t-65.5 20h-107v-147z" />
    <glyph glyph-name="uni044C" unicode="&#x44c;" horiz-adv-x="575" 
d="M316 444q99 0 164 -64q66 -63 66 -162q0 -96 -62 -164q-61 -67 -187 -67q-70 0 -121 24.5t-76 67.5q-44 77 -44 174v292h139v-133q56 32 121 32zM300 109q50 0 78 29.5t28 78.5t-28.5 77t-81.5 28q-52 0 -101 -24v-63q0 -126 105 -126z" />
    <glyph glyph-name="uni044D" unicode="&#x44d;" horiz-adv-x="603" 
d="M280 559q128 0 207 -81q81 -80 81 -205t-80 -205t-205 -80q-86 0 -154.5 39t-104.5 105l111 66q18 -36 58.5 -60.5t85.5 -24.5q50 0 90 30t55 79h-195v102h195q-16 48 -56.5 78t-91.5 30q-91 0 -143 -85l-111 60q35 73 103.5 112.5t154.5 39.5z" />
    <glyph glyph-name="uni044E" unicode="&#x44e;" horiz-adv-x="881" 
d="M554 560q128 0 210 -84q82 -82 82 -203q0 -122 -82 -204q-83 -83 -210 -83q-111 0 -189 63q-78 66 -97 164h-65v-213h-139v760h139v-432h64q18 102 96 166q79 66 191 66zM446 162q44 -45 108 -45t107 45q44 47 44 111t-44 110q-44 45 -107 45q-64 0 -108 -45
q-43 -44 -43 -110q0 -65 43 -111z" />
    <glyph glyph-name="uni044F" unicode="&#x44f;" horiz-adv-x="580" 
d="M291 545h225v-545h-137v180q-53 -6 -91 -7l-111 -173h-154l133 193q-106 45 -106 166q0 86 62 136t179 50zM292 285q48 0 87 7v139h-84q-105 0 -105 -74q0 -72 102 -72z" />
    <glyph glyph-name="uni0451" unicode="&#x451;" horiz-adv-x="626" 
d="M136 682q0 34 24.5 58t59.5 24t59.5 -24t24.5 -58q0 -37 -24 -61t-60 -24t-60 24t-24 61zM438 597q-36 0 -60.5 24t-24.5 61q0 35 24.5 58.5t60.5 23.5q35 0 59 -24t24 -58q0 -37 -24 -61t-59 -24zM593 285q0 -25 -5 -62h-409q30 -116 159 -116q95 0 176 55l56 -99
q-104 -75 -238 -75q-143 0 -220 83q-76 82 -76 202q0 125 79 205q79 81 205 81q119 0 196 -74t77 -200zM320 442q-53 0 -90.5 -30.5t-50.5 -83.5h277q-10 53 -46 83.5t-90 30.5z" />
    <glyph glyph-name="Wgrave" unicode="&#x1e80;" horiz-adv-x="1065" 
d="M538 978l65 -183h-133l-97 183h165zM376 0h-125l-245 739h162l149 -497l168 497h94l171 -497l147 497h162l-244 -739h-125l-157 484z" />
    <glyph glyph-name="wgrave" unicode="&#x1e81;" horiz-adv-x="877" 
d="M447 802l62 -176h-125l-94 176h157zM317 1h-123l-186 544h148l109 -357l123 357h99l127 -357l106 357h148l-184 -544h-123l-123 341z" />
    <glyph glyph-name="Wacute" unicode="&#x1e82;" horiz-adv-x="1065" 
d="M604 794h-130l65 183h163zM376 0h-125l-245 739h162l149 -497l168 497h94l171 -497l147 497h162l-244 -739h-125l-157 484z" />
    <glyph glyph-name="wacute" unicode="&#x1e83;" horiz-adv-x="877" 
d="M504 626h-125l62 176h157zM317 1h-123l-186 544h148l109 -357l123 357h99l127 -357l106 357h148l-184 -544h-123l-123 341z" />
    <glyph glyph-name="Wdieresis" unicode="&#x1e84;" horiz-adv-x="1065" 
d="M343 880q0 34 24 57.5t59 23.5t59 -23.5t24 -57.5q0 -36 -24 -60t-59 -24t-59 24t-24 60zM640 796q-36 0 -59.5 24t-23.5 60q0 34 24 57.5t59 23.5q34 0 58 -23.5t24 -57.5q0 -36 -24 -60t-58 -24zM376 0h-125l-245 739h162l149 -497l168 497h94l171 -497l147 497h162
l-244 -739h-125l-157 484z" />
    <glyph glyph-name="wdieresis" unicode="&#x1e85;" horiz-adv-x="877" 
d="M246 701q0 34 24.5 58t59.5 24t59.5 -24t24.5 -58q0 -37 -24 -61t-60 -24t-60 24t-24 61zM548 616q-36 0 -60.5 24t-24.5 61q0 35 24.5 58.5t60.5 23.5q35 0 59 -24t24 -58q0 -37 -24 -61t-59 -24zM317 1h-123l-186 544h148l109 -357l123 357h99l127 -357l106 357h148
l-184 -544h-123l-123 341z" />
    <glyph glyph-name="Ygrave" unicode="&#x1ef2;" horiz-adv-x="679" 
d="M352 978l65 -183h-133l-97 183h165zM498 739h171l-256 -483v-256h-148v256l-253 483h171l156 -324z" />
    <glyph glyph-name="ygrave" unicode="&#x1ef3;" horiz-adv-x="599" 
d="M313 802l62 -176h-125l-94 176h157zM312 190l124 355h154l-219 -572q-40 -105 -95.5 -155t-135.5 -50q-62 0 -105 27l24 118q37 -18 70 -18q65 0 106 86l11 25l-238 539h163z" />
    <glyph glyph-name="uni2009" unicode="&#x2009;" horiz-adv-x="78" 
 />
    <glyph glyph-name="endash" unicode="&#x2013;" horiz-adv-x="720" 
d="M660 211h-600v132h600v-132z" />
    <glyph glyph-name="emdash" unicode="&#x2014;" horiz-adv-x="1039" 
d="M979 211h-919v132h919v-132z" />
    <glyph glyph-name="quoteleft" unicode="&#x2018;" horiz-adv-x="251" 
d="M131 673h2q29 0 49.5 -21.5t20.5 -51.5q0 -33 -24.5 -56.5t-58.5 -23.5q-38 0 -62.5 26.5t-24.5 66.5q0 105 147 199l40 -57q-69 -52 -89 -82z" />
    <glyph glyph-name="quoteright" unicode="&#x2019;" horiz-adv-x="249" 
d="M136 807q37 0 62 -26.5t25 -67.5q0 -104 -148 -198l-39 56q71 53 88 83l-1 -1q-28 0 -49 22t-21 52q0 33 24.5 56.5t58.5 23.5z" />
    <glyph glyph-name="quotesinglbase" unicode="&#x201a;" horiz-adv-x="258" 
d="M127 145q37 0 62 -26.5t25 -67.5q0 -104 -148 -198l-39 56q71 53 88 83l-1 -1q-28 0 -49 22t-21 52q0 33 24.5 56.5t58.5 23.5z" />
    <glyph glyph-name="quotedblleft" unicode="&#x201c;" horiz-adv-x="503" 
d="M183 812l40 -57q-69 -52 -89 -82h2q29 0 49.5 -21.5t20.5 -51.5q0 -33 -24.5 -56.5t-58.5 -23.5q-38 0 -62.5 26.5t-24.5 66.5q0 105 147 199zM383 673h2q29 0 49.5 -21.5t20.5 -51.5q0 -33 -24.5 -56.5t-58.5 -23.5q-38 0 -62.5 26.5t-24.5 66.5q0 105 147 199l40 -57
q-69 -52 -89 -82z" />
    <glyph glyph-name="quotedblright" unicode="&#x201d;" horiz-adv-x="497" 
d="M134 810q38 0 62.5 -26.5t24.5 -66.5q0 -105 -147 -199l-40 57q69 52 89 82h-2q-29 0 -49.5 21.5t-20.5 51.5q0 33 24.5 56.5t58.5 23.5zM383 810q38 0 62.5 -26.5t24.5 -66.5q0 -105 -147 -199l-40 57q69 52 89 82h-2q-29 0 -49.5 21.5t-20.5 51.5q0 33 24.5 56.5
t58.5 23.5z" />
    <glyph glyph-name="quotedblbase" unicode="&#x201e;" horiz-adv-x="505" 
d="M124 144q38 0 62.5 -26.5t24.5 -66.5q0 -105 -147 -199l-40 57q69 52 89 82h-2q-29 0 -49.5 21.5t-20.5 51.5q0 33 24.5 56.5t58.5 23.5zM373 144q38 0 62.5 -26.5t24.5 -66.5q0 -105 -147 -199l-40 57q69 52 89 82h-2q-29 0 -49.5 21.5t-20.5 51.5q0 33 24.5 56.5
t58.5 23.5z" />
    <glyph glyph-name="dagger" unicode="&#x2020;" horiz-adv-x="508" 
d="M323 534h148v-128h-148v-584h-138v584h-148v128h148v315h138v-315z" />
    <glyph glyph-name="daggerdbl" unicode="&#x2021;" horiz-adv-x="508" 
d="M471 576v-128h-148v-225h148v-128h-148v-273h-138v273h-148v128h148v225h-148v128h148v273h138v-273h148z" />
    <glyph glyph-name="bullet" unicode="&#x2022;" horiz-adv-x="458" 
d="M228 177q-67 0 -115 48t-48 115q0 68 48 116q48 49 115 49q68 0 116 -49q49 -48 49 -116q0 -67 -49 -115q-48 -48 -116 -48z" />
    <glyph glyph-name="ellipsis" unicode="&#x2026;" horiz-adv-x="744" 
d="M124 -16q-35 0 -59 23.5t-24 58.5q0 34 24 57t59 23q33 0 56.5 -23t23.5 -57q0 -35 -23.5 -58.5t-56.5 -23.5zM373 -16q-35 0 -59 23.5t-24 58.5q0 34 24 57t59 23q33 0 56.5 -23t23.5 -57q0 -35 -23.5 -58.5t-56.5 -23.5zM621 -16q-35 0 -59 23.5t-24 58.5q0 34 24 57
t59 23q33 0 56.5 -23t23.5 -57q0 -35 -23.5 -58.5t-56.5 -23.5z" />
    <glyph glyph-name="perthousand" unicode="&#x2030;" horiz-adv-x="1314" 
d="M31 567q0 77 56 131q55 54 135 54q78 0 134 -54t56 -131q0 -75 -56 -129q-56 -53 -134 -53q-79 0 -135 53q-56 54 -56 129zM248 0h-137l538 739h138zM222 483q34 0 59.5 25t25.5 60t-25.5 60t-59.5 25q-36 0 -61 -24.5t-25 -60.5t25 -60.5t61 -24.5zM491 170q0 76 55 130
q56 54 135 54t135 -54t56 -130q0 -75 -56 -129q-56 -53 -135 -53t-135 53q-55 54 -55 129zM908 170q0 76 56 129q56 54 135 54t135 -54q56 -53 56 -129q0 -75 -56 -129q-56 -53 -135 -53t-135 53q-56 54 -56 129zM1187 170q0 38 -26 63.5t-62 25.5t-62 -25.5t-26 -63.5
q0 -36 26 -61.5t62 -25.5t62 25.5t26 61.5zM767 171q0 36 -25 60.5t-61 24.5q-35 0 -60 -24.5t-25 -60.5t24.5 -60.5t60.5 -24.5t61 24.5t25 60.5z" />
    <glyph glyph-name="guilsinglleft" unicode="&#x2039;" horiz-adv-x="361" 
d="M316 88h-147l-136 203l136 203h147l-140 -203z" />
    <glyph glyph-name="guilsinglright" unicode="&#x203a;" horiz-adv-x="361" 
d="M328 291l-136 -203h-147l140 203l-140 203h147z" />
    <glyph glyph-name="fraction" unicode="&#x2044;" horiz-adv-x="213" 
d="M-123 0h-115l578 739h113z" />
    <glyph glyph-name="uni2070" unicode="&#x2070;" horiz-adv-x="386" 
d="M319 558q-43 -57 -126 -57t-127 57q-43 58 -43 148t43 148t127 58q83 0 126 -58q44 -59 44 -148t-44 -148zM193 588q73 0 73 118t-73 118q-72 0 -72 -118t72 -118z" />
    <glyph glyph-name="uni2074" unicode="&#x2074;" horiz-adv-x="370" 
d="M296 671h42v-75h-42v-89h-85v89h-178l-19 56l210 251h72v-232zM211 785l-95 -114h95v114z" />
    <glyph glyph-name="uni2075" unicode="&#x2075;" horiz-adv-x="341" 
d="M176 763q60 0 97.5 -36t37.5 -93q0 -58 -42.5 -96t-110.5 -38q-79 0 -140 46l37 72q53 -35 98 -35q32 0 50.5 15.5t18.5 39.5q0 22 -17.5 37.5t-46.5 15.5q-36 0 -67 -27l-46 43l24 194h216v-78h-153l-9 -69q27 9 53 9z" />
    <glyph glyph-name="uni2076" unicode="&#x2076;" horiz-adv-x="354" 
d="M329 635q0 -58 -41.5 -96.5t-105.5 -38.5q-75 0 -116.5 53t-41.5 139q0 93 47 157q47 63 136 63q67 0 114 -35l-36 -66q-35 23 -73 23q-44 0 -72.5 -31t-33.5 -78q30 38 89 38t96.5 -36t37.5 -92zM122 634q0 -24 17 -41t43 -17t43.5 17t17.5 42t-17.5 41t-43.5 16
t-43 -16.5t-17 -41.5z" />
    <glyph glyph-name="uni2077" unicode="&#x2077;" horiz-adv-x="299" 
d="M13 817v84h273v-64l-149 -328h-100l143 308h-167z" />
    <glyph glyph-name="uni2078" unicode="&#x2078;" horiz-adv-x="376" 
d="M188 501q-71 0 -113 32t-42 83q0 34 21 61t58 41v1q-62 29 -62 85q0 48 38 78t100 30t100 -30t38 -78q0 -58 -64 -85v-1q39 -15 60 -41.5t21 -59.5q0 -51 -42.5 -83.5t-112.5 -32.5zM241 794q0 20 -14.5 33t-38.5 13t-39 -13t-15 -33q0 -19 15 -32t39 -13t38.5 13
t14.5 32zM188 575q28 0 46 14.5t18 37.5t-17.5 37.5t-46.5 14.5q-30 0 -48 -14.5t-18 -37.5t18.5 -37.5t47.5 -14.5z" />
    <glyph glyph-name="uni2079" unicode="&#x2079;" horiz-adv-x="365" 
d="M174 912q76 0 116.5 -52.5t40.5 -141.5q0 -94 -46 -155q-47 -62 -135 -62q-68 0 -114 34l34 67q38 -23 76 -23q43 0 70.5 29.5t32.5 79.5q-36 -39 -90 -39q-59 0 -95.5 36t-36.5 91q0 60 41 98t106 38zM174 837q-26 0 -43.5 -17t-17.5 -42t17 -41t43 -16t43 16t17 41
t-17 42t-42 17z" />
    <glyph glyph-name="uni2080" unicode="&#x2080;" horiz-adv-x="386" 
d="M319 -103q-43 -58 -126 -58q-84 0 -127 58q-43 56 -43 147q0 90 43 148t127 58q83 0 126 -58q44 -59 44 -148t-44 -147zM193 -74q73 0 73 118t-73 118q-72 0 -72 -118t72 -118z" />
    <glyph glyph-name="uni2081" unicode="&#x2081;" horiz-adv-x="276" 
d="M10 130l144 109h70v-394h-94v264l-71 -53z" />
    <glyph glyph-name="uni2082" unicode="&#x2082;" horiz-adv-x="346" 
d="M251 12l-81 -84h139v-83h-272v75l129 130q46 46 46 75q0 18 -13.5 29.5t-33.5 11.5q-41 0 -96 -52l-45 68q63 68 147 68q59 0 97.5 -34.5t38.5 -89.5q0 -56 -56 -114z" />
    <glyph glyph-name="uni2083" unicode="&#x2083;" horiz-adv-x="333" 
d="M10 -122l38 73q55 -28 95 -28q38 -2 53.5 20.5t-0.5 45t-53 19.5h-53v79h47q25 0 42 10.5t17 29.5q0 18 -15 28t-37 10q-36 0 -79 -28l-45 66q56 47 135 47q59 0 97 -31q39 -30 39 -74q0 -32 -19.5 -55.5t-52.5 -33.5v-2q39 -9 60.5 -34.5t21.5 -61.5q2 -52 -43 -86
t-111 -33t-137 39z" />
    <glyph glyph-name="uni2084" unicode="&#x2084;" horiz-adv-x="370" 
d="M296 9h42v-75h-42v-89h-85v89h-178l-19 56l210 251h72v-232zM211 123l-95 -114h95v114z" />
    <glyph glyph-name="uni2085" unicode="&#x2085;" horiz-adv-x="341" 
d="M176 101q60 0 97.5 -36t37.5 -93q0 -58 -42.5 -96t-110.5 -38q-79 0 -140 46l37 72q53 -35 98 -35q32 0 50.5 15.5t18.5 39.5q0 22 -17.5 37.5t-46.5 15.5q-36 0 -67 -27l-46 43l24 194h216v-78h-153l-9 -69q27 9 53 9z" />
    <glyph glyph-name="uni2086" unicode="&#x2086;" horiz-adv-x="354" 
d="M329 -27q0 -58 -41.5 -96.5t-105.5 -38.5q-75 0 -116.5 53t-41.5 139q0 93 47 157q47 63 136 63q67 0 114 -35l-36 -66q-35 23 -73 23q-44 0 -72.5 -31t-33.5 -78q30 38 89 38t96.5 -36t37.5 -92zM122 -28q0 -24 17 -41t43 -17t43.5 17t17.5 42t-17.5 41t-43.5 16
t-43 -16.5t-17 -41.5z" />
    <glyph glyph-name="uni2087" unicode="&#x2087;" horiz-adv-x="299" 
d="M13 155v84h273v-64l-149 -328h-100l143 308h-167z" />
    <glyph glyph-name="uni2088" unicode="&#x2088;" horiz-adv-x="376" 
d="M188 -161q-71 0 -113 32t-42 83q0 34 21 61t58 41v1q-62 29 -62 85q0 48 38 78t100 30t100 -30t38 -78q0 -58 -64 -85v-1q39 -15 60 -41.5t21 -59.5q0 -51 -42.5 -83.5t-112.5 -32.5zM241 132q0 20 -14.5 33t-38.5 13t-39 -13t-15 -33q0 -19 15 -32t39 -13t38.5 13
t14.5 32zM188 -87q28 0 46 14.5t18 37.5t-17.5 37.5t-46.5 14.5q-30 0 -48 -14.5t-18 -37.5t18.5 -37.5t47.5 -14.5z" />
    <glyph glyph-name="uni2089" unicode="&#x2089;" horiz-adv-x="365" 
d="M174 250q76 0 116.5 -52.5t40.5 -141.5q0 -94 -46 -155q-47 -62 -135 -62q-68 0 -114 34l34 67q38 -23 76 -23q43 0 70.5 29.5t32.5 79.5q-36 -39 -90 -39q-59 0 -95.5 36t-36.5 91q0 60 41 98t106 38zM174 175q-26 0 -43.5 -17t-17.5 -42t17 -41t43 -16t43 16t17 41
t-17 42t-42 17z" />
    <glyph glyph-name="Euro" unicode="&#x20ac;" horiz-adv-x="767" 
d="M555 247h-246q30 -57 83.5 -89t118.5 -32q92 0 181 50v-140q-83 -47 -198 -47q-123 0 -218 71t-130 187h-118l39 95h62q-1 6 -1 27q0 20 1 26h-85l39 95h62q35 120 129 190q94 72 220 72q140 0 237 -69l-68 -116q-71 48 -151 48q-65 0 -119 -33.5t-84 -91.5h344l-43 -95
h-329q-1 -6 -1 -26q0 -21 1 -27h312z" />
    <glyph glyph-name="trademark" unicode="&#x2122;" horiz-adv-x="817" 
d="M130 660h-97v79h279v-79h-97v-271h-85v271zM545 547l140 192h59v-350h-83v180l-98 -133h-34l-98 133v-180h-83v350h59z" />
    <glyph glyph-name="estimated" unicode="&#x212e;" horiz-adv-x="953" 
d="M483 -17q-184 0 -312 110q-127 109 -127 273q0 165 127 274q127 111 312 111q183 0 310 -109q129 -110 129 -281v-21q0 -5 -7 -5h-686v-230q0 -3 4 -4q103 -72 250 -72q103 0 189 37t137 105l35 -29q-60 -75 -155.5 -117t-205.5 -42zM229 628v-243h508v244q0 3 -3 4
q-106 73 -251 73q-146 0 -252 -73q-2 -2 -2 -5z" />
    <glyph glyph-name="uni2150" unicode="&#x2150;" horiz-adv-x="885" 
d="M246 346h-94v265l-71 -53l-49 74l144 109h70v-395zM88 0l578 739h113l-576 -739h-115zM566 310v84h273v-64l-149 -328h-100l143 308h-167z" />
    <glyph glyph-name="uni2151" unicode="&#x2151;" horiz-adv-x="906" 
d="M244 346h-94v265l-71 -53l-49 74l144 109h70v-395zM90 0l578 739h113l-576 -739h-115zM710 405q76 0 116.5 -52.5t40.5 -141.5q0 -94 -46 -155q-47 -62 -135 -62q-68 0 -114 34l34 67q38 -23 76 -23q43 0 70.5 29.5t32.5 79.5q-36 -39 -90 -39q-59 0 -95.5 36t-36.5 91
q0 60 41 98t106 38zM710 330q-26 0 -43.5 -17t-17.5 -42t17 -41t43 -16t43 16t17 41t-17 42t-42 17z" />
    <glyph glyph-name="uni2153" unicode="&#x2153;" horiz-adv-x="875" 
d="M245 346h-94v265l-71 -53l-49 74l144 109h70v-395zM85 0l578 739h113l-576 -739h-115zM750 212v-2q39 -9 60.5 -34.5t21.5 -61.5q2 -52 -43 -86t-111 -33t-137 39l38 73q55 -28 95 -28q38 -2 53.5 20.5t-0.5 45t-53 19.5h-53v79h47q25 0 42 10.5t17 29.5q0 18 -15 28
t-37 10q-36 0 -79 -28l-45 66q56 47 135 47q59 0 97 -31q39 -30 39 -74q0 -32 -19.5 -55.5t-52.5 -33.5z" />
    <glyph glyph-name="uni2154" unicode="&#x2154;" horiz-adv-x="874" 
d="M46 347v75l129 130q46 46 46 75q0 18 -13.5 29.5t-33.5 11.5q-41 0 -96 -52l-45 68q63 68 147 68q59 0 97.5 -34.5t38.5 -89.5q0 -56 -56 -114l-81 -84h139v-83h-272zM115 0l578 739h113l-577 -739h-114zM739 210v-2q39 -9 60.5 -34.5t21.5 -61.5q2 -52 -43 -86t-111 -33
t-137 39l38 73q55 -28 95 -28q38 -2 53.5 20.5t-0.5 45t-53 19.5h-53v79h47q25 0 42 10.5t17 29.5q0 18 -15 28t-37 10q-36 0 -79 -28l-45 66q56 47 135 47q59 0 97 -31q39 -30 39 -74q0 -32 -19.5 -55.5t-52.5 -33.5z" />
    <glyph glyph-name="uni2155" unicode="&#x2155;" horiz-adv-x="869" 
d="M244 346h-94v265l-71 -53l-49 74l144 109h70v-395zM86 0l578 739h113l-577 -739h-114zM701 256q60 0 97.5 -36t37.5 -93q0 -58 -42.5 -96t-110.5 -38q-79 0 -140 46l37 72q53 -35 98 -35q32 0 50.5 15.5t18.5 39.5q0 23 -17.5 38t-46.5 15q-35 0 -67 -27l-46 43l24 194
h216v-78h-153l-9 -69q27 9 53 9z" />
    <glyph glyph-name="uni2156" unicode="&#x2156;" horiz-adv-x="868" 
d="M45 347v75l129 130q46 46 46 75q0 18 -13.5 29.5t-33.5 11.5q-41 0 -96 -52l-45 68q63 68 147 68q59 0 97.5 -34.5t38.5 -89.5q0 -56 -56 -114l-81 -84h139v-83h-272zM112 0l578 739h113l-576 -739h-115zM683 256q60 0 97.5 -36t37.5 -93q0 -58 -42.5 -96t-110.5 -38
q-79 0 -140 46l37 72q53 -35 98 -35q32 0 50.5 15.5t18.5 39.5q0 23 -17.5 38t-46.5 15q-35 0 -67 -27l-46 43l24 194h216v-78h-153l-9 -69q27 9 53 9z" />
    <glyph glyph-name="uni2157" unicode="&#x2157;" horiz-adv-x="836" 
d="M153 425q38 -2 53.5 20.5t-0.5 45t-53 19.5h-53v79h47q25 0 42 10.5t17 29.5q0 18 -15 28t-37 10q-36 0 -79 -28l-45 66q56 47 135 47q59 0 97 -31q39 -30 39 -74q0 -32 -19.5 -55.5t-52.5 -33.5v-2q39 -9 60.5 -34.5t21.5 -61.5q2 -52 -43 -86t-111 -33t-137 39l38 73
q55 -28 95 -28zM81 0l578 739h113l-576 -739h-115zM657 256q60 0 97.5 -36t37.5 -93q0 -58 -42.5 -96t-110.5 -38q-79 0 -140 46l37 72q53 -35 98 -35q32 0 50.5 15.5t18.5 39.5q0 23 -17.5 38t-46.5 15q-35 0 -67 -27l-46 43l24 194h216v-78h-153l-9 -69q27 9 53 9z" />
    <glyph glyph-name="uni2158" unicode="&#x2158;" horiz-adv-x="893" 
d="M309 347h-85v89h-178l-19 56l210 251h72v-232h42v-75h-42v-89zM131 0l578 739h113l-576 -739h-115zM224 625l-95 -114h95v114zM702 256q60 0 97.5 -36t37.5 -93q0 -58 -42.5 -96t-110.5 -38q-79 0 -140 46l37 72q53 -35 98 -35q32 0 50.5 15.5t18.5 39.5q0 23 -17.5 38
t-46.5 15q-36 0 -67 -27l-46 43l24 194h216v-78h-153l-9 -69q27 9 53 9z" />
    <glyph glyph-name="uni2159" unicode="&#x2159;" horiz-adv-x="862" 
d="M244 346h-94v265l-71 -53l-49 74l144 109h70v-395zM81 0l578 739h113l-577 -739h-114zM693 256q60 0 97.5 -36t37.5 -93q0 -58 -42.5 -96t-110.5 -38q-79 0 -140 46l37 72q53 -35 98 -35q32 0 50.5 15.5t18.5 39.5q0 23 -17.5 38t-46.5 15q-35 0 -67 -27l-46 43l24 194
h216v-78h-153l-9 -69q27 9 53 9z" />
    <glyph glyph-name="uni215A" unicode="&#x215a;" horiz-adv-x="874" 
d="M162 423q32 0 50.5 15.5t18.5 39.5q0 22 -17.5 37.5t-46.5 15.5q-35 0 -67 -27l-46 43l24 194h216v-78h-153l-9 -69q27 9 53 9q60 0 97.5 -36t37.5 -93q0 -58 -42.5 -96t-110.5 -38q-79 0 -140 46l37 72q53 -35 98 -35zM100 0l578 739h114l-577 -739h-115zM826 128
q0 -58 -41.5 -96.5t-105.5 -38.5q-75 0 -116.5 53t-41.5 139q0 93 47 157q46 63 136 63q67 0 114 -35l-36 -66q-35 23 -73 23q-44 0 -72.5 -31t-33.5 -78q30 38 89 38t96.5 -36t37.5 -92zM619 127q0 -24 17 -41t43 -17t43.5 17t17.5 42t-17.5 41t-43.5 16t-43 -16.5
t-17 -41.5z" />
    <glyph glyph-name="oneeighth" unicode="&#x215b;" horiz-adv-x="890" 
d="M244 346h-94v265l-71 -53l-49 74l144 109h70v-395zM92 0l578 739h113l-576 -739h-115zM772 212v-1q39 -15 60 -41.5t21 -59.5q0 -51 -42.5 -83.5t-112.5 -32.5q-71 0 -113 32t-42 83q0 34 21 61t58 41v1q-62 29 -62 85q0 48 38 78t100 30t100 -30t38 -78q0 -58 -64 -85z
M644 287q0 -19 15 -32t39 -13t38.5 13t14.5 32q0 20 -14.5 33t-38.5 13t-39 -13t-15 -33zM698 68q28 0 46 14.5t18 37.5t-17.5 37.5t-46.5 14.5q-30 0 -48 -14.5t-18 -37.5t18.5 -37.5t47.5 -14.5z" />
    <glyph glyph-name="threeeighths" unicode="&#x215c;" horiz-adv-x="870" 
d="M20 380l38 73q55 -28 95 -28q38 -2 53.5 20.5t-0.5 45t-53 19.5h-53v79h47q25 0 42 10.5t17 29.5q0 18 -15 28t-37 10q-36 0 -79 -28l-45 66q56 47 135 47q59 0 97 -31q39 -30 39 -74q0 -32 -19.5 -55.5t-52.5 -33.5v-2q39 -9 60.5 -34.5t21.5 -61.5q2 -52 -43 -86
t-111 -33t-137 39zM213 0h-115l578 739h114zM682 -6q-71 0 -113 32t-42 83q0 34 21 61t58 41v1q-62 29 -62 85q0 48 38 78t100 30t100 -30t38 -78q0 -58 -64 -85v-1q39 -15 60 -41.5t21 -59.5q0 -51 -42.5 -83.5t-112.5 -32.5zM735 287q0 20 -14.5 33t-38.5 13t-39 -13
t-15 -33q0 -19 15 -32t39 -13t38.5 13t14.5 32zM682 68q28 0 46 14.5t18 37.5t-17.5 37.5t-46.5 14.5q-30 0 -48 -14.5t-18 -37.5t18.5 -37.5t47.5 -14.5z" />
    <glyph glyph-name="fiveeighths" unicode="&#x215d;" horiz-adv-x="881" 
d="M162 423q32 0 50.5 15.5t18.5 39.5q0 22 -17.5 37.5t-46.5 15.5q-35 0 -67 -27l-46 43l24 194h216v-78h-153l-9 -69q27 9 53 9q60 0 97.5 -36t37.5 -93q0 -58 -42.5 -96t-110.5 -38q-79 0 -140 46l37 72q53 -35 98 -35zM110 0l578 739h113l-576 -739h-115zM767 212v-1
q39 -15 60 -41.5t21 -59.5q0 -51 -42.5 -83.5t-112.5 -32.5q-71 0 -113 32t-42 83q0 34 21 61t58 41v1q-62 29 -62 85q0 48 38 78t100 30t100 -30t38 -78q0 -58 -64 -85zM639 287q0 -19 15 -32t39 -13t38.5 13t14.5 32q0 20 -14.5 33t-38.5 13t-39 -13t-15 -33zM693 68
q28 0 46 14.5t18 37.5t-17.5 37.5t-46.5 14.5q-30 0 -48 -14.5t-18 -37.5t18.5 -37.5t47.5 -14.5z" />
    <glyph glyph-name="seveneighths" unicode="&#x215e;" horiz-adv-x="820" 
d="M154 349h-100l143 308h-167v84h273v-64zM42 0l578 739h114l-577 -739h-115zM706 212v-1q39 -15 60 -41.5t21 -59.5q0 -51 -42.5 -83.5t-112.5 -32.5q-71 0 -113 32t-42 83q0 34 21 61t58 41v1q-62 29 -62 85q0 48 38 78t100 30t100 -30t38 -78q0 -58 -64 -85zM578 287
q0 -19 15 -32t39 -13t38.5 13t14.5 32q0 20 -14.5 33t-38.5 13t-39 -13t-15 -33zM632 68q28 0 46 14.5t18 37.5t-17.5 37.5t-46.5 14.5q-30 0 -48 -14.5t-18 -37.5t18.5 -37.5t47.5 -14.5z" />
    <glyph glyph-name="partialdiff" unicode="&#x2202;" horiz-adv-x="622" 
d="M291 -12q-111 0 -184 72q-72 72 -72 181q0 107 68 180q67 71 172 73q101 0 158 -81q-22 90 -87.5 167.5t-160.5 126.5l84 99q106 -51 200 -158q52 -58 82 -139.5t30 -170.5q0 -150 -81 -250t-209 -100zM295 110q53 0 91 39q37 38 37 95q0 54 -37 91q-36 38 -88 38
t-90 -39q-36 -38 -36 -94q0 -54 35 -92t88 -38z" />
    <glyph glyph-name="product" unicode="&#x220f;" horiz-adv-x="756" 
d="M34 734h688v-143h-93v-709h-149v709h-204v-709h-149v709h-93v143z" />
    <glyph glyph-name="summation" unicode="&#x2211;" horiz-adv-x="654" 
d="M619 -179h-574v120l207 338l-207 340v120h574v-140h-389l187 -320l-187 -318h389v-140z" />
    <glyph glyph-name="minus" unicode="&#x2212;" horiz-adv-x="589" 
d="M525 267h-462v131h462v-131z" />
    <glyph glyph-name="radical" unicode="&#x221a;" horiz-adv-x="737" 
d="M420 -118h-125l-169 432h-124v131h232l126 -348l241 711h157z" />
    <glyph glyph-name="infinity" unicode="&#x221e;" horiz-adv-x="943" 
d="M693 576q86 0 147 -61q61 -60 61 -145q0 -84 -62 -146q-61 -61 -148 -61q-57 0 -104 30q-46 30 -115 100q-72 -72 -120 -101q-50 -29 -104 -29q-85 0 -146 61q-60 62 -60 145q0 85 61 146t148 61q51 0 100 -28q50 -27 121 -97q71 69 120 97t101 28zM249 277q29 0 61 21
t84 73q-53 51 -82.5 70t-56.5 19q-39 0 -66 -27.5t-27 -65.5t25 -64t62 -26zM686 277q39 0 67 27t28 66q0 38 -27 64t-66 26q-32 0 -61 -19t-78 -68q59 -61 83 -77q28 -19 54 -19z" />
    <glyph glyph-name="integral" unicode="&#x222b;" horiz-adv-x="479" 
d="M105 -210q-70 0 -126 32l33 117q35 -20 71 -20q41 0 65.5 28t24.5 85v570q0 108 53.5 165t142.5 57q71 0 133 -35l-40 -116q-34 20 -71 20q-41 0 -65 -28t-24 -86v-569q0 -111 -59 -165q-58 -55 -138 -55z" />
    <glyph glyph-name="approxequal" unicode="&#x2248;" horiz-adv-x="653" 
d="M415 385q-53 0 -116 31t-88 31q-24 0 -43 -13t-47 -48l-83 68q60 113 178 113q53 0 115 -31q65 -30 90 -30t44.5 14t45.5 51l85 -71q-67 -115 -181 -115zM420 165q-53 0 -116 31t-88 31q-24 0 -43 -13t-47 -48l-83 68q60 113 178 113q53 0 115 -31q64 -30 90 -30
q25 0 44.5 14t45.5 51l85 -71q-67 -115 -181 -115z" />
    <glyph glyph-name="notequal" unicode="&#x2260;" horiz-adv-x="590" 
d="M526 483v-117h-174l-32 -77h206v-117h-255l-44 -106h-84l44 106h-123v117h172l32 77h-204v117h253l45 107h84l-45 -107h125z" />
    <glyph glyph-name="lessequal" unicode="&#x2264;" horiz-adv-x="578" 
d="M508 326v-133l-452 186v94l452 189v-134l-276 -101zM508 156v-116h-457v116h457z" />
    <glyph glyph-name="greaterequal" unicode="&#x2265;" horiz-adv-x="578" 
d="M522 379l-452 -186v133l276 101l-276 101v134l452 -189v-94zM527 40h-457v116h457v-116z" />
    <glyph glyph-name="lozenge" unicode="&#x25ca;" horiz-adv-x="706" 
d="M412 -42h-118l-264 418l264 416h118l264 -416zM195 378l158 -255l158 255l-158 251z" />
    <glyph glyph-name="NULL" horiz-adv-x="0" 
 />
    <glyph glyph-name="Euro.osf" horiz-adv-x="590" 
d="M460 247h-247q14 -70 66.5 -112.5t128.5 -42.5q71 0 153 43v-109q-65 -37 -165 -37q-120 0 -202 72t-97 186h-90l36 81h1l2 4h50q13 118 99 193t203 75q118 0 198 -55l-48 -90q-65 39 -137 39q-76 0 -131.5 -45t-68.5 -117h293l-37 -81h-5z" />
    <glyph glyph-name="I_J.loclNLD" horiz-adv-x="895" 
d="M82 0v739h149v-739h-149zM544 -12q-138 0 -229 91l72 116q65 -65 146 -65q64 0 102 40.5t38 111.5v457h148v-462q0 -143 -78 -217q-78 -72 -199 -72z" />
    <glyph glyph-name="Iacute_J.loclNLD" horiz-adv-x="892" 
d="M220 795h-130l65 183h163zM807 794h-130l65 183h163zM82 0v739h149v-739h-149zM544 -12q-138 0 -229 91l72 116q65 -65 146 -65q64 0 102 40.5t38 111.5v457h148v-462q0 -143 -78 -217q-78 -72 -199 -72z" />
    <glyph glyph-name="J.loclNLD" horiz-adv-x="581" 
d="M496 794h-130l65 183h163zM233 -12q-138 0 -229 91l72 116q65 -65 146 -65q64 0 102 40.5t38 111.5v457h148v-462q0 -143 -78 -217q-78 -72 -199 -72z" />
    <glyph glyph-name="Jacute" horiz-adv-x="581" 
d="M498 794h-130l65 183h163zM233 -12q-138 0 -229 91l72 116q65 -65 146 -65q64 0 102 40.5t38 111.5v457h148v-462q0 -143 -78 -217q-78 -72 -199 -72z" />
    <glyph glyph-name="_1" horiz-adv-x="0" 
 />
    <glyph glyph-name="a.ss02" horiz-adv-x="583" 
d="M277 559q50 0 92 -12t78.5 -38t57.5 -73.5t21 -111.5v-324h-128v60q-62 -74 -174 -74q-91 0 -144 50q-52 49 -52 126q0 82 64.5 127t179.5 46q104 4 122 4q-10 97 -124 97q-88 0 -169 -45l-50 104q103 64 226 64zM248 100q59 0 100 38q40 37 45 97q-39 -4 -97 -4
q-70 -1 -101 -15t-31 -51q0 -30 23 -47.5t61 -17.5z" />
    <glyph glyph-name="aacute.ss02" horiz-adv-x="583" 
d="M282 802h157l-94 -176h-125zM277 559q50 0 92 -12t78.5 -38t57.5 -73.5t21 -111.5v-324h-128v60q-62 -74 -174 -74q-91 0 -144 50q-52 49 -52 126q0 82 64.5 127t179.5 46q104 4 122 4q-10 97 -124 97q-88 0 -169 -45l-50 104q103 64 226 64zM248 100q59 0 100 38
q40 37 45 97q-39 -4 -97 -4q-70 -1 -101 -15t-31 -51q0 -30 23 -47.5t61 -17.5z" />
    <glyph glyph-name="abreve.ss02" horiz-adv-x="583" 
d="M290 621q-82 0 -132.5 48.5t-55.5 132.5h111q2 -39 22 -62.5t55 -23.5t55 23.5t22 62.5h113q-5 -84 -56 -132.5t-134 -48.5zM277 559q50 0 92 -12t78.5 -38t57.5 -73.5t21 -111.5v-324h-128v60q-62 -74 -174 -74q-91 0 -144 50q-52 49 -52 126q0 82 64.5 127t179.5 46
q104 4 122 4q-10 97 -124 97q-88 0 -169 -45l-50 104q103 64 226 64zM248 100q59 0 100 38q40 37 45 97q-39 -4 -97 -4q-70 -1 -101 -15t-31 -51q0 -30 23 -47.5t61 -17.5z" />
    <glyph glyph-name="acircumflex.ss02" horiz-adv-x="583" 
d="M350 626l-65 86l-65 -86h-134l148 176h105l149 -176h-138zM277 559q50 0 92 -12t78.5 -38t57.5 -73.5t21 -111.5v-324h-128v60q-62 -74 -174 -74q-91 0 -144 50q-52 49 -52 126q0 82 64.5 127t179.5 46q104 4 122 4q-10 97 -124 97q-88 0 -169 -45l-50 104q103 64 226 64
zM248 100q59 0 100 38q40 37 45 97q-39 -4 -97 -4q-70 -1 -101 -15t-31 -51q0 -30 23 -47.5t61 -17.5z" />
    <glyph glyph-name="acute.case" horiz-adv-x="341" 
d="M170 795h-130l65 183h163z" />
    <glyph glyph-name="adieresis.ss02" horiz-adv-x="583" 
d="M99 702q0 34 24.5 58t59.5 24t59.5 -24t24.5 -58q0 -37 -24 -61t-60 -24t-60 24t-24 61zM401 617q-36 0 -60.5 24t-24.5 61q0 35 24.5 58.5t60.5 23.5q35 0 59 -24t24 -58q0 -37 -24 -61t-59 -24zM277 559q50 0 92 -12t78.5 -38t57.5 -73.5t21 -111.5v-324h-128v60
q-62 -74 -174 -74q-91 0 -144 50q-52 49 -52 126q0 82 64.5 127t179.5 46q104 4 122 4q-10 97 -124 97q-88 0 -169 -45l-50 104q103 64 226 64zM248 100q59 0 100 38q40 37 45 97q-39 -4 -97 -4q-70 -1 -101 -15t-31 -51q0 -30 23 -47.5t61 -17.5z" />
    <glyph glyph-name="agrave.ss02" horiz-adv-x="583" 
d="M305 803l62 -176h-125l-94 176h157zM277 559q50 0 92 -12t78.5 -38t57.5 -73.5t21 -111.5v-324h-128v60q-62 -74 -174 -74q-91 0 -144 50q-52 49 -52 126q0 82 64.5 127t179.5 46q104 4 122 4q-10 97 -124 97q-88 0 -169 -45l-50 104q103 64 226 64zM248 100q59 0 100 38
q40 37 45 97q-39 -4 -97 -4q-70 -1 -101 -15t-31 -51q0 -30 23 -47.5t61 -17.5z" />
    <glyph glyph-name="amacron.ss02" horiz-adv-x="583" 
d="M128 761h327v-122l-327 -2v124zM277 559q50 0 92 -12t78.5 -38t57.5 -73.5t21 -111.5v-324h-128v60q-62 -74 -174 -74q-91 0 -144 50q-52 49 -52 126q0 82 64.5 127t179.5 46q104 4 122 4q-10 97 -124 97q-88 0 -169 -45l-50 104q103 64 226 64zM248 100q59 0 100 38
q40 37 45 97q-39 -4 -97 -4q-70 -1 -101 -15t-31 -51q0 -30 23 -47.5t61 -17.5z" />
    <glyph glyph-name="aogonek.ss02" horiz-adv-x="581" 
d="M509 -144l31 -90q-50 -30 -106 -30q-57 0 -90 32t-33 83q0 86 98 149h-11v60q-62 -74 -174 -74q-91 0 -144 50q-52 49 -52 126q0 82 64.5 127t179.5 46q104 4 122 4q-10 97 -124 97q-88 0 -169 -45l-50 104q103 64 226 64q50 0 92 -12t78.5 -38t57.5 -73.5t21 -111.5
v-324h-1q-42 -19 -70 -51.5t-28 -62.5t23.5 -38t58.5 8zM248 100q59 0 100 38q40 37 45 97q-39 -4 -97 -4q-70 -1 -101 -15t-31 -51q0 -30 23 -47.5t61 -17.5z" />
    <glyph glyph-name="aring.ss02" horiz-adv-x="583" 
d="M291 607q-57 0 -95 37q-38 38 -38 90q0 53 38 91q40 38 95 38t93 -38q39 -37 39 -91q0 -52 -39 -90q-37 -37 -93 -37zM291 787q-22 0 -37.5 -14.5t-15.5 -36.5t15.5 -37.5t37.5 -15.5q21 0 36 15.5t15 37.5t-15 36.5t-36 14.5zM277 559q50 0 92 -12t78.5 -38t57.5 -73.5
t21 -111.5v-324h-128v60q-62 -74 -174 -74q-91 0 -144 50q-52 49 -52 126q0 82 64.5 127t179.5 46q104 4 122 4q-10 97 -124 97q-88 0 -169 -45l-50 104q103 64 226 64zM248 100q59 0 100 38q40 37 45 97q-39 -4 -97 -4q-70 -1 -101 -15t-31 -51q0 -30 23 -47.5t61 -17.5z
" />
    <glyph glyph-name="at.case" horiz-adv-x="966" 
d="M587 526v43h107v-258q0 -30 12.5 -46.5t32.5 -16.5q35 0 63 46t28 115q0 133 -99 224q-98 91 -238 89q-145 -1 -246 -106q-101 -104 -101 -249q0 -149 106 -254t257 -105q70 0 141 24.5t126 67.5l49 -82q-53 -46 -139 -76q-88 -32 -182 -32q-195 0 -329 134
q-134 136 -134 323q0 188 132 320q132 133 322 133q187 0 313 -120q126 -118 126 -286q0 -114 -62 -191q-61 -75 -151 -75q-88 0 -118 74q-53 -74 -151 -74q-86 0 -145 62q-58 61 -58 155t58 156q59 63 147 63q84 0 133 -58zM473 249q47 0 80 33q33 34 33 83q0 51 -33 85
q-32 35 -79 35q-48 0 -81 -34t-33 -85q0 -50 32.5 -83.5t80.5 -33.5z" />
    <glyph glyph-name="atilde.ss02" horiz-adv-x="583" 
d="M233 673q-39 0 -64 -51l-90 44q49 115 144 115q34 0 75 -22q43 -21 59 -21q33 0 59 47l89 -42q-20 -55 -55.5 -85t-79.5 -30q-32 0 -75 22q-44 23 -62 23zM277 559q50 0 92 -12t78.5 -38t57.5 -73.5t21 -111.5v-324h-128v60q-62 -74 -174 -74q-91 0 -144 50
q-52 49 -52 126q0 82 64.5 127t179.5 46q104 4 122 4q-10 97 -124 97q-88 0 -169 -45l-50 104q103 64 226 64zM248 100q59 0 100 38q40 37 45 97q-39 -4 -97 -4q-70 -1 -101 -15t-31 -51q0 -30 23 -47.5t61 -17.5z" />
    <glyph glyph-name="backslash.case" horiz-adv-x="596" 
d="M172 739l404 -739h-153l-405 739h154z" />
    <glyph glyph-name="braceleft.case" horiz-adv-x="415" 
d="M185 369v-3q42 -13 70.5 -46t28.5 -78q0 -19 -5 -91t-5 -91q0 -79 80 -79h28v-134h-69q-182 0 -182 188q0 37 4 92q4 56 4 88q0 49 -27 70t-88 27v112q61 7 88 27.5t27 69.5q0 32 -4 89t-4 98q0 181 190 181h61v-134h-28q-80 0 -80 -78q0 -20 5 -93q5 -72 5 -90
q0 -45 -28.5 -78.5t-70.5 -46.5z" />
    <glyph glyph-name="braceright.case" horiz-adv-x="415" 
d="M231 367v3q-42 13 -71 46.5t-29 78.5q0 18 5 90q6 66 6 93q0 78 -80 78h-28v134h61q190 0 190 -182q0 -25 -5 -97q-4 -57 -4 -89q0 -55 35 -74q30 -16 80 -23v-112q-60 -6 -87.5 -27t-27.5 -70q0 -32 4 -88q5 -68 5 -92q0 -188 -183 -188h-68v134h28q80 0 80 79
q0 27 -6 91q-5 72 -5 91q0 45 29 78t71 46z" />
    <glyph glyph-name="bracketleft.case" horiz-adv-x="417" 
d="M394 -147h-312v1038h312v-125h-167v-788h167v-125z" />
    <glyph glyph-name="bracketright.case" horiz-adv-x="417" 
d="M334 -147h-311v125h167v788h-167v125h311v-1038z" />
    <glyph glyph-name="breve.case" horiz-adv-x="482" 
d="M40 976h116q2 -41 23 -65t57 -24q35 0 56 24t23 65h118q-5 -88 -58 -138t-139 -50t-138 50t-58 138z" />
    <glyph glyph-name="brevecombcy" horiz-adv-x="0" 
d="M-239 590q-128 0 -219 115l75 78q38 -46 70.5 -65t73.5 -19t74 19t71 65l75 -78q-94 -115 -220 -115z" />
    <glyph glyph-name="caron.alt" horiz-adv-x="312" 
d="M144 624h-119l64 179h147z" />
    <glyph glyph-name="caron.case" horiz-adv-x="537" 
d="M217 792l-148 176h134l65 -86l65 86h138l-149 -176h-105z" />
    <glyph glyph-name="cedilla.case" horiz-adv-x="345" 
d="M229 18l-27 -66q47 -2 77.5 -29t30.5 -71q0 -50 -39.5 -85t-106.5 -35q-61 0 -124 31l31 81q42 -21 81 -21q25 0 38.5 10.5t13.5 27.5q0 34 -56 34h-54l-8 27l39 98z" />
    <glyph glyph-name="circumflex.case" horiz-adv-x="529" 
d="M178 796h-139l154 183h109l155 -183h-144l-67 89z" />
    <glyph glyph-name="colon.case" horiz-adv-x="292" 
d="M147 441q-35 0 -59 23.5t-24 58.5q0 34 24 57t59 23q33 0 56.5 -23t23.5 -57q0 -35 -23.5 -58.5t-56.5 -23.5zM147 102q-35 0 -59 23.5t-24 58.5q0 34 24 57t59 23q33 0 56.5 -23t23.5 -57q0 -35 -23.5 -58.5t-56.5 -23.5z" />
    <glyph glyph-name="comma.ss03" horiz-adv-x="253" 
d="M7 -180l79 315h138l-108 -315h-109z" />
    <glyph glyph-name="commaccent" horiz-adv-x="249" 
d="M137 -66q36 0 61 -25t25 -64q0 -46 -34.5 -90t-109.5 -97l-48 60q60 46 78 66q-23 6 -38.5 26.5t-15.5 45.5q0 33 23.5 55.5t58.5 22.5z" />
    <glyph glyph-name="commaccent.case" horiz-adv-x="228" 
d="M141 -68q37 0 62.5 -25t25.5 -66q0 -89 -147 -191l-49 61q54 39 81 68q-24 6 -40.5 27t-16.5 47q0 33 24 56t60 23z" />
    <glyph glyph-name="dieresis.case" horiz-adv-x="474" 
d="M43 885q0 34 24 57.5t59 23.5t59 -23.5t24 -57.5q0 -36 -24 -60t-59 -24t-59 24t-24 60zM340 801q-36 0 -59.5 23.5t-23.5 60.5q0 34 24 57.5t59 23.5q34 0 58 -23.5t24 -57.5q0 -36 -24 -60t-58 -24z" />
    <glyph glyph-name="dollar.osf" horiz-adv-x="520" 
d="M494 168q0 -64 -45 -111t-119 -63v-116h-122v113q-122 21 -184 120l86 81q57 -86 154 -86q39 0 62.5 15.5t23.5 41.5q0 19 -13 30.5t-46 27.5q-100 42 -139 64q-95 57 -95 142q0 65 42 109t115 58v109h123v-110q78 -15 143 -74l-73 -90q-65 55 -135 55q-37 0 -59 -14
t-22 -38q0 -18 16.5 -32.5t53.5 -30.5l68 -30q49 -21 73 -33q92 -53 92 -138z" />
    <glyph glyph-name="dotaccent.case" horiz-adv-x="301" 
d="M189 824q-25 -25 -62 -25t-62 25t-25 62t25 61q25 25 62 25t62 -25q25 -24 25 -61t-25 -62z" />
    <glyph glyph-name="eight.dnom" horiz-adv-x="376" 
d="M188 -6q-71 0 -113 32t-42 83q0 34 21 61t58 41v1q-62 29 -62 85q0 48 38 78t100 30t100 -30t38 -78q0 -58 -64 -85v-1q39 -15 60 -41.5t21 -59.5q0 -51 -42.5 -83.5t-112.5 -32.5zM241 287q0 20 -14.5 33t-38.5 13t-39 -13t-15 -33q0 -19 15 -32t39 -13t38.5 13t14.5 32
zM188 68q28 0 46 14.5t18 37.5t-17.5 37.5t-46.5 14.5q-30 0 -48 -14.5t-18 -37.5t18.5 -37.5t47.5 -14.5z" />
    <glyph glyph-name="eight.lf" horiz-adv-x="636" 
d="M42 203q0 63 37.5 114.5t101.5 74.5v2q-51 24 -79.5 66t-28.5 95q0 86 67 141q68 56 178 56q109 0 177 -56t68 -141q0 -53 -29 -95t-80 -66v-3q64 -22 102 -73.5t38 -114.5q0 -93 -77 -155q-77 -60 -199 -60q-123 0 -200 60q-76 61 -76 155zM208 539q0 -40 30 -66t79 -26
q50 0 79.5 26t29.5 66t-30 66t-78 26t-79 -26t-31 -66zM445 221q0 45 -35 73t-92 28t-92.5 -28t-35.5 -72q0 -46 35.5 -75t92.5 -29t92 29t35 74z" />
    <glyph glyph-name="eight.num" horiz-adv-x="376" 
d="M188 341q-71 0 -113 32t-42 83q0 34 21 61t58 41v1q-62 29 -62 85q0 48 38 78t100 30t100 -30t38 -78q0 -58 -64 -85v-1q39 -15 60 -41.5t21 -59.5q0 -51 -42.5 -83.5t-112.5 -32.5zM241 634q0 20 -14.5 33t-38.5 13t-39 -13t-15 -33q0 -19 15 -32t39 -13t38.5 13
t14.5 32zM188 415q28 0 46 14.5t18 37.5t-17.5 37.5t-46.5 14.5q-30 0 -48 -14.5t-18 -37.5t18.5 -37.5t47.5 -14.5z" />
    <glyph glyph-name="eight.osf" horiz-adv-x="629" 
d="M315 -11q-123 0 -200 57q-76 58 -76 149q0 60 37.5 109t101.5 71v2q-108 50 -108 153q0 84 67 136q68 53 178 53q109 0 177 -53t68 -136q0 -50 -29 -90.5t-80 -62.5v-3q63 -21 101 -70t38 -109q0 -90 -77 -149q-77 -57 -198 -57zM424 514q0 39 -30.5 63.5t-78.5 24.5
q-50 0 -80.5 -24.5t-30.5 -63.5q0 -37 30.5 -61.5t79.5 -24.5t79.5 24.5t30.5 61.5zM443 212q0 42 -35.5 68.5t-92.5 26.5q-59 0 -94 -26t-35 -68q0 -43 36 -70.5t93 -27.5t92.5 27.5t35.5 69.5z" />
    <glyph glyph-name="eight.tf" horiz-adv-x="619" 
d="M33 203q0 63 37.5 114.5t101.5 74.5v2q-51 24 -79.5 66t-28.5 95q0 86 67 141q68 56 178 56q109 0 177 -56t68 -141q0 -53 -29 -95t-80 -66v-3q64 -22 102 -73.5t38 -114.5q0 -93 -77 -155q-76 -60 -199 -60t-200 60q-76 61 -76 155zM199 539q0 -40 30 -66t79 -26
q50 0 79.5 26t29.5 66t-30 66t-78 26t-79 -26t-31 -66zM436 221q0 45 -35 73t-92 28t-92.5 -28t-35.5 -72q0 -46 35.5 -75t92.5 -29t92 29t35 74z" />
    <glyph glyph-name="eight_fraction_nine" horiz-adv-x="873" 
d="M345 457q0 -51 -42.5 -83.5t-112.5 -32.5q-71 0 -113 32t-42 83q0 34 21 61t58 41v1q-62 29 -62 85q0 48 38 78t100 30t100 -30t38 -78q0 -58 -64 -85v-1q39 -15 60 -41.5t21 -59.5zM94 -1l578 739h113l-576 -739h-115zM136 634q0 -19 15 -32t39 -13t38.5 13t14.5 32
q0 20 -14.5 33t-38.5 13t-39 -13t-15 -33zM190 415q28 0 46 14.5t18 37.5t-17.5 37.5t-46.5 14.5q-30 0 -48 -14.5t-18 -37.5t18.5 -37.5t47.5 -14.5zM678 405q76 0 116.5 -52.5t40.5 -141.5q0 -94 -46 -155q-47 -62 -135 -62q-68 0 -114 34l34 67q38 -23 76 -23
q43 0 70.5 29.5t32.5 79.5q-36 -39 -90 -39q-59 0 -95.5 36t-36.5 91q0 60 41 98t106 38zM678 330q-26 0 -43.5 -17t-17.5 -42t17 -41t43 -16t43 16t17 41t-17 42t-42 17z" />
    <glyph glyph-name="emdash.case" horiz-adv-x="1047" 
d="M983 303h-919v142h919v-142z" />
    <glyph glyph-name="endash.case" horiz-adv-x="728" 
d="M664 303h-600v142h600v-142z" />
    <glyph glyph-name="exclamdown.case" horiz-adv-x="301" 
d="M166 756q34 0 57.5 -23t23.5 -59q0 -34 -23.5 -57t-57.5 -23q-35 0 -59 23t-24 57q0 36 23.5 59t59.5 23zM91 -9l8 548h131l10 -548h-149z" />
    <glyph glyph-name="five.dnom" horiz-adv-x="341" 
d="M176 256q60 0 97.5 -36t37.5 -93q0 -58 -42.5 -96t-110.5 -38q-79 0 -140 46l37 72q53 -35 98 -35q32 0 50.5 15.5t18.5 39.5q0 23 -17.5 38t-46.5 15q-36 0 -67 -27l-46 43l24 194h216v-78h-153l-9 -69q27 9 53 9z" />
    <glyph glyph-name="five.lf" horiz-adv-x="588" 
d="M303 476q105 0 177 -66t72 -172q0 -109 -76 -179q-77 -71 -200 -71q-135 0 -248 82l59 118q94 -64 182 -64q61 0 97.5 32.5t36.5 81.5q0 48 -35.5 79.5t-89.5 31.5q-70 0 -122 -49l-86 69l40 370h391v-136h-281l-16 -145q46 18 99 18z" />
    <glyph glyph-name="five.num" horiz-adv-x="341" 
d="M176 603q60 0 97.5 -36t37.5 -93q0 -58 -42.5 -96t-110.5 -38q-79 0 -140 46l37 72q53 -35 98 -35q32 0 50.5 15.5t18.5 39.5q0 22 -17.5 37.5t-46.5 15.5q-36 0 -67 -27l-46 43l24 194h216v-78h-153l-9 -69q27 9 53 9z" />
    <glyph glyph-name="five.osf" horiz-adv-x="572" 
d="M295 341q105 0 176 -62q72 -61 72 -159q0 -101 -76 -167q-75 -66 -199 -66q-134 0 -247 75l59 112q91 -58 181 -58q61 0 97.5 29t36.5 73q0 42 -35.5 71.5t-89.5 29.5q-68 0 -122 -45l-85 67l39 344h390v-127h-280l-16 -135q46 18 99 18z" />
    <glyph glyph-name="five.tf" horiz-adv-x="619" 
d="M314 476q105 0 177 -66t72 -172q0 -109 -76 -179q-77 -71 -200 -71q-135 0 -248 82l59 118q94 -64 182 -64q61 0 97.5 32.5t36.5 81.5q0 48 -35.5 79.5t-89.5 31.5q-70 0 -122 -49l-86 69l40 370h391v-136h-281l-16 -145q47 18 99 18z" />
    <glyph glyph-name="five_fraction_nine" horiz-adv-x="871" 
d="M162 423q32 0 50.5 15.5t18.5 39.5q0 22 -17.5 37.5t-46.5 15.5q-35 0 -67 -27l-46 43l24 194h216v-78h-153l-9 -69q27 9 53 9q60 0 97.5 -36t37.5 -93q0 -58 -42.5 -96t-110.5 -38q-79 0 -140 46l37 72q53 -35 98 -35zM91 -1l578 739h113l-576 -739h-115zM675 405
q76 0 116.5 -52.5t40.5 -141.5q0 -94 -46 -155q-47 -62 -135 -62q-68 0 -114 34l34 67q38 -23 76 -23q43 0 70.5 29.5t32.5 79.5q-36 -39 -90 -39q-59 0 -95.5 36t-36.5 91q0 60 41 98t106 38zM675 330q-26 0 -43.5 -17t-17.5 -42t17 -41t43 -16t43 16t17 41t-17 42t-42 17z
" />
    <glyph glyph-name="five_fraction_seven" horiz-adv-x="867" 
d="M166 423q32 0 50.5 15.5t18.5 39.5q0 22 -17.5 37.5t-46.5 15.5q-35 0 -67 -27l-46 43l24 194h216v-78h-153l-9 -69q27 9 53 9q60 0 97.5 -36t37.5 -93q0 -58 -42.5 -96t-110.5 -38q-79 0 -140 46l37 72q53 -35 98 -35zM91 0l578 739h113l-577 -739h-114zM550 310v84h273
v-64l-149 -328h-100l143 308h-167z" />
    <glyph glyph-name="four.dnom" horiz-adv-x="370" 
d="M296 164h42v-75h-42v-89h-85v89h-178l-19 56l210 251h72v-232zM211 278l-95 -114h95v114z" />
    <glyph glyph-name="four.lf" horiz-adv-x="616" 
d="M497 295h80v-123h-80v-172h-138v172h-325l-29 95l386 472h106v-444zM359 525l-186 -230h186v230z" />
    <glyph glyph-name="four.num" horiz-adv-x="370" 
d="M296 511h42v-75h-42v-89h-85v89h-178l-19 56l210 251h72v-232zM211 625l-95 -114h95v114z" />
    <glyph glyph-name="four.osf" horiz-adv-x="616" 
d="M501 177h79v-117h-79v-159h-138v159h-320l-29 93l381 434h106v-410zM363 385l-180 -208h180v208z" />
    <glyph glyph-name="four.tf" horiz-adv-x="619" 
d="M509 295h80v-123h-80v-172h-138v172h-325l-29 95l386 472h106v-444zM371 525l-186 -230h186v230z" />
    <glyph glyph-name="four_fraction_nine" horiz-adv-x="949" 
d="M309 347h-85v89h-178l-19 56l210 251h72v-232h42v-75h-42v-89zM155 -1l578 739h113l-577 -739h-114zM224 625l-95 -114h95v114zM744 405q76 0 116.5 -52.5t40.5 -141.5q0 -94 -46 -155q-47 -62 -135 -62q-68 0 -114 34l34 67q38 -23 76 -23q43 0 70.5 29.5t32.5 79.5
q-36 -39 -90 -39q-59 0 -95.5 36t-36.5 91q0 60 41 98t106 38zM744 330q-26 0 -43.5 -17t-17.5 -42t17 -41t43 -16t43 16t17 41t-17 42t-42 17z" />
    <glyph glyph-name="four_fraction_seven" horiz-adv-x="912" 
d="M309 347h-85v89h-178l-19 56l210 251h72v-232h42v-75h-42v-89zM131 0l578 739h113l-576 -739h-115zM224 625l-95 -114h95v114zM590 310v84h273v-64l-149 -328h-100l143 308h-167z" />
    <glyph glyph-name="grave.case" horiz-adv-x="333" 
d="M205 978l65 -183h-133l-97 183h165z" />
    <glyph glyph-name="guillemotleft.case" horiz-adv-x="595" 
d="M320 173h-147l-136 203l137 203h146l-140 -203zM545 173h-148l-135 203l135 203h148l-140 -203z" />
    <glyph glyph-name="guillemotright.case" horiz-adv-x="595" 
d="M332 376l-134 -203h-148l139 203l-139 203h147zM557 376l-136 -203h-147l140 203l-140 203h147z" />
    <glyph glyph-name="guilsinglleft.case" horiz-adv-x="370" 
d="M320 173h-147l-136 203l137 203h146l-140 -203z" />
    <glyph glyph-name="guilsinglright.case" horiz-adv-x="370" 
d="M333 376l-136 -203h-147l140 203l-140 203h147z" />
    <glyph glyph-name="hungarumlaut.case" horiz-adv-x="557" 
d="M166 795h-121l45 183h156zM375 795h-123l59 183h162z" />
    <glyph glyph-name="hyphen.case" horiz-adv-x="538" 
d="M475 303h-411v142h411v-142z" />
    <glyph glyph-name="i.loclTRK" horiz-adv-x="269" 
d="M199 631q-25 -25 -62 -25t-62 25t-25 62t25 61q25 25 62 25t62 -25q25 -24 25 -61t-25 -62zM207 545v-545h-141v545h141z" />
    <glyph glyph-name="i_j.loclNLD" horiz-adv-x="586" 
d="M199 631q-25 -25 -62 -25t-62 25t-25 62t25 61q25 25 62 25t62 -25q25 -24 25 -61t-25 -62zM478 631q-25 -25 -62 -25t-62 25t-25 62t25 61q25 25 62 25t62 -25q25 -24 25 -61t-25 -62zM207 545v-545h-141v545h141zM279 -232q-81 0 -124 28l26 112q45 -16 75 -16
q91 0 91 107v546h141v-553q0 -108 -56.5 -166t-152.5 -58z" />
    <glyph glyph-name="iacute_j.loclNLD" horiz-adv-x="552" 
d="M195 626h-125l62 176h157zM483 626h-125l62 176h157zM205 545v-545h-141v545h141zM279 -232q-81 0 -124 28l26 112q45 -16 75 -16q91 0 91 107v546h141v-553q0 -108 -56.5 -166t-152.5 -58z" />
    <glyph glyph-name="j.loclNLD" horiz-adv-x="293" 
d="M219 631q-25 -25 -62 -25t-62 25t-25 62t25 61q25 25 62 25t62 -25q25 -24 25 -61t-25 -62zM20 -232q-81 0 -124 28l26 112q45 -16 75 -16q91 0 91 107v546h141v-553q0 -108 -56.5 -166t-152.5 -58z" />
    <glyph glyph-name="jacute" horiz-adv-x="293" 
d="M215 626h-125l62 176h157zM20 -232q-81 0 -124 28l26 112q45 -16 75 -16q91 0 91 107v546h141v-553q0 -108 -56.5 -166t-152.5 -58z" />
    <glyph glyph-name="macron.case" horiz-adv-x="479" 
d="M410 817l-368 -2v124h368v-122z" />
    <glyph glyph-name="nine.dnom" horiz-adv-x="365" 
d="M174 405q76 0 116.5 -52.5t40.5 -141.5q0 -94 -46 -155q-47 -62 -135 -62q-68 0 -114 34l34 67q38 -23 76 -23q43 0 70.5 29.5t32.5 79.5q-36 -39 -90 -39q-59 0 -95.5 36t-36.5 91q0 60 41 98t106 38zM174 330q-26 0 -43.5 -17t-17.5 -42t17 -41t43 -16t43 16t17 41
t-17 42t-42 17z" />
    <glyph glyph-name="nine.lf" horiz-adv-x="622" 
d="M303 752q135 0 207 -99t72 -258q0 -111 -32.5 -201t-105.5 -148t-177 -58q-119 0 -204 65l54 110q65 -45 141 -45q80 0 126.5 57.5t56.5 157.5q-27 -32 -71.5 -50t-94.5 -18q-102 0 -169 67t-67 170q0 109 73 179q74 71 191 71zM300 388q50 0 84.5 34t34.5 84
q0 51 -34 85.5t-84 34.5q-51 0 -85 -34t-34 -87q0 -51 33.5 -84t84.5 -33z" />
    <glyph glyph-name="nine.num" horiz-adv-x="365" 
d="M174 752q76 0 116.5 -52.5t40.5 -141.5q0 -94 -46 -155q-47 -62 -135 -62q-68 0 -114 34l34 67q38 -23 76 -23q43 0 70.5 29.5t32.5 79.5q-36 -39 -90 -39q-59 0 -95.5 36t-36.5 91q0 60 41 98t106 38zM174 677q-26 0 -43.5 -17t-17.5 -42t17 -41t43 -16t43 16t17 41
t-17 42t-42 17z" />
    <glyph glyph-name="nine.osf" horiz-adv-x="608" 
d="M293 611q134 0 204 -94q72 -94 72 -244q0 -104 -32 -191q-31 -84 -104 -140q-71 -55 -176 -55q-120 0 -202 61l55 107q62 -43 139 -43q79 0 125 54t56 149q-56 -65 -164 -65q-100 0 -168 63q-66 65 -66 162q0 103 73 169q73 67 188 67zM290 267q50 0 84 31.5t34 78.5
q0 48 -34 79q-35 32 -83 32q-51 0 -84.5 -31.5t-33.5 -80.5q0 -48 33 -78.5t84 -30.5z" />
    <glyph glyph-name="nine.tf" horiz-adv-x="619" 
d="M302 752q135 0 207 -99t72 -258q0 -111 -32.5 -201t-105.5 -148t-177 -58q-119 0 -204 65l54 110q64 -45 141 -45q80 0 126.5 57.5t56.5 157.5q-27 -32 -71.5 -50t-94.5 -18q-102 0 -169 67t-67 170q0 109 73 179q74 71 191 71zM299 388q50 0 84.5 34t34.5 84
q0 51 -34 85.5t-84 34.5q-51 0 -85 -34t-34 -87q0 -51 33.5 -84t84.5 -33z" />
    <glyph glyph-name="ogonek.case" horiz-adv-x="327" 
d="M238 -144l31 -90q-50 -30 -106 -30q-57 0 -90 32t-33 83q0 100 129 167l85 -18q-42 -19 -70 -51.5t-28 -62.5t23.5 -38t58.5 8z" />
    <glyph glyph-name="one.dnom" horiz-adv-x="276" 
d="M10 285l144 109h70v-395h-94v265l-71 -53z" />
    <glyph glyph-name="one.lf" horiz-adv-x="418" 
d="M-3 557l229 182h110v-739h-145v543l-118 -91z" />
    <glyph glyph-name="one.num" horiz-adv-x="276" 
d="M10 632l144 109h70v-394h-94v264l-71 -53z" />
    <glyph glyph-name="one.numalt" horiz-adv-x="338" 
d="M20 632l144 109h70v-395h-94v265l-71 -53z" />
    <glyph glyph-name="one.osf" horiz-adv-x="505" 
d="M358 591v-469h134v-122h-446v122h171v301l-149 -96l-66 105l241 159h115z" />
    <glyph glyph-name="one.tf" horiz-adv-x="619" 
d="M404 739v-603h152v-136h-456v136h159v407l-118 -91l-76 105l229 182h110z" />
    <glyph glyph-name="parenleft.case" horiz-adv-x="418" 
d="M406 -34l-65 -110q-147 79 -225.5 211.5t-78.5 303.5t79 303t229 212l61 -112q-215 -144 -215 -403q0 -253 215 -405z" />
    <glyph glyph-name="parenright.case" horiz-adv-x="418" 
d="M76 -144l-64 110q215 152 215 405q0 259 -215 403l60 112q151 -80 230 -212.5t79 -302.5t-78.5 -303t-226.5 -212z" />
    <glyph glyph-name="periodcentered.case" horiz-adv-x="265" 
d="M134 282q-35 0 -59 23.5t-24 58.5q0 34 24 57t59 23q33 0 56.5 -23t23.5 -57q0 -35 -23.5 -58.5t-56.5 -23.5z" />
    <glyph glyph-name="questiondown.case" horiz-adv-x="551" 
d="M387 675q0 -34 -24 -57.5t-59 -23.5q-34 0 -57.5 23.5t-23.5 57.5q0 35 23.5 58t57.5 23t58.5 -23t24.5 -58zM238 549h136v-66q0 -80 -65 -140q-5 -5 -31 -26.5t-34.5 -30.5t-24.5 -27.5t-22 -34.5t-6 -34q0 -39 28.5 -64.5t71.5 -25.5q74 0 149 87l87 -98
q-99 -122 -247 -122q-105 0 -172 61t-67 153q0 88 70 151q8 8 41 36.5t45.5 41.5t26.5 36.5t14 44.5v58z" />
    <glyph glyph-name="quotedblbase.ss03" horiz-adv-x="505" 
d="M22 -151l79 315h138l-108 -315h-109zM257 -151l79 315h138l-108 -315h-109z" />
    <glyph glyph-name="quotedblleft.ss03" horiz-adv-x="488" 
d="M247 850l-79 -315h-138l108 315h109zM484 850l-79 -315h-138l108 315h109z" />
    <glyph glyph-name="quotedblright.ss03" horiz-adv-x="497" 
d="M29 535l79 315h138l-108 -315h-109zM264 535l79 315h138l-108 -315h-109z" />
    <glyph glyph-name="quoteleft.ss03" horiz-adv-x="251" 
d="M242 850l-79 -315h-138l108 315h109z" />
    <glyph glyph-name="quoteright.ss03" horiz-adv-x="249" 
d="M29 535l79 315h138l-108 -315h-109z" />
    <glyph glyph-name="quotesinglbase.ss03" horiz-adv-x="258" 
d="M2 -151l79 315h138l-108 -315h-109z" />
    <glyph glyph-name="ring.case" horiz-adv-x="363" 
d="M40 908q0 56 40 95q41 39 98 39q58 0 97 -39q40 -39 40 -95q0 -57 -40 -94q-40 -38 -97 -38t-98 38q-40 39 -40 94zM178 855q22 0 37.5 16t15.5 39q0 22 -15.5 37.5t-37.5 15.5q-23 0 -39 -15.5t-16 -37.5q0 -23 16 -39t39 -16z" />
    <glyph glyph-name="semicolon.case" horiz-adv-x="305" 
d="M162 439q-36 0 -60.5 24t-24.5 60q0 34 25 58t60 24q34 0 58 -24t24 -58q0 -36 -24 -60t-58 -24zM158 274q38 0 63.5 -27.5t25.5 -68.5q0 -108 -154 -210l-42 56q79 60 97 94h-3q-29 0 -50.5 22t-21.5 52q0 35 24.5 58.5t60.5 23.5z" />
    <glyph glyph-name="semicolon.case.ss03" horiz-adv-x="305" 
d="M162 439q-36 0 -60.5 24t-24.5 60q0 34 25 58t60 24q34 0 58 -24t24 -58q0 -36 -24 -60t-58 -24zM10 -150l79 315h138l-108 -315h-109z" />
    <glyph glyph-name="semicolon.ss03" horiz-adv-x="289" 
d="M154 342q-36 0 -60.5 24t-24.5 60q0 34 25 58t60 24q34 0 58 -24t24 -58q0 -36 -24 -60t-58 -24zM8 -180l79 315h138l-108 -315h-109z" />
    <glyph glyph-name="seven.dnom" horiz-adv-x="299" 
d="M13 310v84h273v-64l-149 -328h-100l143 308h-167z" />
    <glyph glyph-name="seven.lf" horiz-adv-x="524" 
d="M21 603v136h482v-102l-264 -637h-155l254 603h-317z" />
    <glyph glyph-name="seven.num" horiz-adv-x="299" 
d="M13 657v84h273v-64l-149 -328h-100l143 308h-167z" />
    <glyph glyph-name="seven.osf" horiz-adv-x="513" 
d="M16 453v132h482v-100l-266 -584h-155l253 552h-314z" />
    <glyph glyph-name="seven.tf" horiz-adv-x="619" 
d="M70 606v133h500v-93l-312 -646h-156l299 606h-331z" />
    <glyph glyph-name="seven_fraction_nine" horiz-adv-x="830" 
d="M153 349h-100l143 308h-167v84h273v-64zM32 -1l578 739h114l-577 -739h-115zM633 405q76 0 116.5 -52.5t40.5 -141.5q0 -94 -46 -155q-47 -62 -135 -62q-68 0 -114 34l34 67q38 -23 76 -23q43 0 70.5 29.5t32.5 79.5q-36 -39 -90 -39q-59 0 -95.5 36t-36.5 91q0 60 41 98
t106 38zM633 330q-26 0 -43.5 -17t-17.5 -42t17 -41t43 -16t43 16t17 41t-17 42t-42 17z" />
    <glyph glyph-name="six.dnom" horiz-adv-x="354" 
d="M329 128q0 -58 -41.5 -96.5t-105.5 -38.5q-75 0 -116.5 53t-41.5 139q0 93 47 157q47 63 136 63q67 0 114 -35l-36 -66q-35 23 -73 23q-44 0 -72.5 -31t-33.5 -78q30 38 89 38t96.5 -36t37.5 -92zM122 127q0 -24 17 -41t43 -17t43.5 17t17.5 42t-17.5 41t-43.5 16
t-43 -16.5t-17 -41.5z" />
    <glyph glyph-name="six.lf" horiz-adv-x="627" 
d="M354 477q105 0 172 -67q69 -68 69 -170q0 -108 -75 -178q-74 -71 -191 -71q-138 0 -211 100t-73 256q0 79 19.5 150t58 129t101 92t142.5 34q115 0 204 -65l-64 -111q-65 44 -132 44q-84 0 -134 -66q-49 -66 -54 -158q54 81 168 81zM329 118q50 0 85 35t35 85t-34 83
t-85 33t-85.5 -33t-34.5 -84t34 -85t85 -34z" />
    <glyph glyph-name="six.num" horiz-adv-x="354" 
d="M329 475q0 -58 -41.5 -96.5t-105.5 -38.5q-75 0 -116.5 53t-41.5 139q0 93 47 157q47 63 136 63q67 0 114 -35l-36 -66q-35 23 -73 23q-44 0 -72.5 -31t-33.5 -78q30 38 89 38t96.5 -36t37.5 -92zM122 474q0 -24 17 -41t43 -17t43.5 17t17.5 42t-17.5 41t-43.5 16
t-43 -16.5t-17 -41.5z" />
    <glyph glyph-name="six.osf" horiz-adv-x="616" 
d="M341 455q101 0 169 -65t68 -162q0 -103 -74 -171q-73 -67 -189 -67q-136 0 -208 96t-72 244q0 102 33 188q33 87 106 143q74 57 178 57q112 0 202 -63l-64 -107q-62 41 -130 41q-85 0 -133 -62q-49 -62 -53 -150q52 78 167 78zM434 226q0 47 -33.5 78t-83.5 31
q-51 0 -85 -30.5t-34 -78.5q0 -49 34 -81t84 -32t84 32.5t34 80.5z" />
    <glyph glyph-name="six.tf" horiz-adv-x="619" 
d="M350 477q105 0 172 -67q69 -68 69 -170q0 -108 -75 -178q-74 -71 -191 -71q-138 0 -211 100t-73 256q0 79 19.5 150t58 129t101 92t142.5 34q115 0 204 -65l-64 -111q-65 44 -132 44q-84 0 -134 -66q-49 -66 -54 -158q54 81 168 81zM325 118q50 0 85 35t35 85t-34 83
t-85 33t-85.5 -33t-34.5 -84t34 -85t85 -34z" />
    <glyph glyph-name="six_fraction_seven" horiz-adv-x="870" 
d="M333 475q0 -58 -41.5 -96.5t-105.5 -38.5q-75 0 -116.5 53t-41.5 139q0 93 47 157q47 63 136 63q67 0 114 -35l-36 -66q-35 23 -73 23q-44 0 -72.5 -31t-33.5 -78q30 38 89 38t96.5 -36t37.5 -92zM92 0l578 739h113l-577 -739h-114zM126 474q0 -24 17 -41t43 -17t43.5 17
t17.5 42t-17.5 41t-43.5 16t-43 -16.5t-17 -41.5zM553 310v84h273v-64l-149 -328h-100l143 308h-167z" />
    <glyph glyph-name="slash.case" horiz-adv-x="596" 
d="M173 0h-153l404 739h154z" />
    <glyph glyph-name="sterling.osf" horiz-adv-x="495" 
d="M247 246v-9q0 -61 -53 -117h292v-120h-446v97q77 66 77 134q0 12 -1 15h-80v94h47q-12 34 -12 66q0 85 62 138t155 55q66 0 119.5 -28.5t84.5 -79.5l-89 -74q-37 63 -103 63q-42 0 -68.5 -27t-26.5 -66q0 -23 10 -47h213v-94h-181z" />
    <glyph glyph-name="three.dnom" horiz-adv-x="333" 
d="M10 33l38 73q55 -28 95 -28q38 -2 53.5 20.5t-0.5 45t-53 19.5h-53v79h47q25 0 42 10.5t17 29.5q0 18 -15 28t-37 10q-36 0 -79 -28l-45 66q56 47 135 47q59 0 97 -31q39 -30 39 -74q0 -32 -19.5 -55.5t-52.5 -33.5v-2q39 -9 60.5 -34.5t21.5 -61.5q2 -52 -43 -86
t-111 -33t-137 39z" />
    <glyph glyph-name="three.lf" horiz-adv-x="565" 
d="M254 -12q-126 0 -241 73l62 118q91 -55 171 -55q56 0 88 25.5t32 67.5q0 41 -31.5 66.5t-82.5 25.5h-94v132h81q51 0 81.5 24t30.5 63t-28.5 62t-74.5 23q-68 0 -147 -57l-71 106q45 42 107.5 66t128.5 24q99 0 167 -56q67 -55 67 -137q0 -58 -34.5 -102.5t-90.5 -63.5
v-4q68 -15 106.5 -64.5t38.5 -117.5q0 -96 -74 -158q-73 -61 -192 -61z" />
    <glyph glyph-name="three.num" horiz-adv-x="333" 
d="M10 380l38 73q55 -28 95 -28q38 -2 53.5 20.5t-0.5 45t-53 19.5h-53v79h47q25 0 42 10.5t17 29.5q0 18 -15 28t-37 10q-36 0 -79 -28l-45 66q56 47 135 47q59 0 97 -31q39 -30 39 -74q0 -32 -19.5 -55.5t-52.5 -33.5v-2q39 -9 60.5 -34.5t21.5 -61.5q2 -52 -43 -86
t-111 -33t-137 39z" />
    <glyph glyph-name="three.osf" horiz-adv-x="548" 
d="M246 -114q-123 0 -240 69l62 114q88 -51 174 -51q56 0 88.5 23t32.5 60t-31.5 59.5t-82.5 22.5h-98v128h85q50 0 80.5 22t30.5 56q0 35 -28.5 56t-73.5 21q-72 0 -151 -52l-71 102q43 39 105.5 61.5t129.5 22.5q99 0 166 -52t67 -128q0 -54 -34.5 -95t-89.5 -59v-4
q68 -14 106 -60t38 -110q0 -92 -74 -149t-191 -57z" />
    <glyph glyph-name="three.tf" horiz-adv-x="619" 
d="M276 -12q-126 0 -241 73l62 118q91 -55 171 -55q56 0 88 25.5t32 67.5q0 41 -31.5 66.5t-82.5 25.5h-94v132h81q51 0 81.5 24t30.5 63t-28.5 62t-74.5 23q-68 0 -147 -57l-71 106q45 42 107.5 66t128.5 24q99 0 167 -56q67 -55 67 -137q0 -58 -34.5 -102.5t-90.5 -63.5
v-4q68 -15 106.5 -64.5t38.5 -117.5q0 -96 -74 -158q-73 -61 -192 -61z" />
    <glyph glyph-name="three_fraction_seven" horiz-adv-x="877" 
d="M156 425q38 -2 53.5 20.5t-0.5 45t-53 19.5h-53v79h47q25 0 42 10.5t17 29.5q0 18 -15 28t-37 10q-36 0 -79 -28l-45 66q56 47 135 47q59 0 97 -31q39 -30 39 -74q0 -32 -19.5 -55.5t-52.5 -33.5v-2q39 -9 60.5 -34.5t21.5 -61.5q2 -52 -43 -86t-111 -33t-137 39l38 73
q55 -28 95 -28zM96 0l578 739h113l-577 -739h-114zM560 310v84h273v-64l-149 -328h-100l143 308h-167z" />
    <glyph glyph-name="tilde.case" horiz-adv-x="563" 
d="M132 811l-92 45q49 118 147 118q35 0 78 -22t59 -22q36 0 61 48l91 -43q-21 -56 -57 -87t-81 -31q-31 0 -77 23t-64 23q-40 0 -65 -52z" />
    <glyph glyph-name="two.dnom" horiz-adv-x="346" 
d="M251 167l-81 -84h139v-83h-272v75l129 130q46 46 46 75q0 18 -13.5 29.5t-33.5 11.5q-41 0 -96 -52l-45 68q63 68 147 68q59 0 97.5 -34.5t38.5 -89.5q0 -56 -56 -114z" />
    <glyph glyph-name="two.lf" horiz-adv-x="584" 
d="M387 275l-130 -139h275v-136h-482v123l230 241q42 44 47 50q13 15 30 47q17 31 17 57q0 42 -29 68.5t-73 26.5q-78 0 -166 -82l-81 106q115 115 259 115q106 0 173 -64q68 -63 68 -162q0 -107 -138 -251z" />
    <glyph glyph-name="two.num" horiz-adv-x="346" 
d="M251 514l-81 -84h139v-83h-272v75l129 130q46 46 46 75q0 18 -13.5 29.5t-33.5 11.5q-41 0 -96 -52l-45 68q63 68 147 68q59 0 97.5 -34.5t38.5 -89.5q0 -56 -56 -114z" />
    <glyph glyph-name="two.osf" horiz-adv-x="547" 
d="M340 194l-86 -72h245v-122h-449v111l195 165q60 51 81.5 76.5t21.5 54.5q0 28 -22.5 46.5t-58.5 18.5q-65 0 -168 -85l-74 101q121 111 249 111q98 0 159 -54q61 -52 61 -129q0 -53 -36.5 -104.5t-117.5 -117.5z" />
    <glyph glyph-name="two.tf" horiz-adv-x="619" 
d="M404 275l-130 -139h275v-136h-482v123l230 241q42 44 47 50q13 15 30 47q17 31 17 57q0 41 -29.5 68t-72.5 27q-78 0 -166 -82l-81 106q115 115 259 115q106 0 173 -64q68 -63 68 -162q0 -107 -138 -251z" />
    <glyph glyph-name="two_fraction_nine" horiz-adv-x="914" 
d="M45 347v75l129 130q46 46 46 75q0 18 -13.5 29.5t-33.5 11.5q-41 0 -96 -52l-45 68q63 68 147 68q59 0 97.5 -34.5t38.5 -89.5q0 -56 -56 -114l-81 -84h139v-83h-272zM130 0l578 739h113l-576 -739h-115zM719 405q76 0 116.5 -52.5t40.5 -141.5q0 -94 -46 -155
q-47 -62 -135 -62q-68 0 -114 34l34 67q38 -23 76 -23q43 0 70.5 29.5t32.5 79.5q-36 -39 -90 -39q-59 0 -95.5 36t-36.5 91q0 60 41 98t106 38zM719 330q-26 0 -43.5 -17t-17.5 -42t17 -41t43 -16t43 16t17 41t-17 42t-42 17z" />
    <glyph glyph-name="two_fraction_seven" horiz-adv-x="906" 
d="M49 347v75l129 130q46 46 46 75q0 18 -13.5 29.5t-33.5 11.5q-41 0 -96 -52l-45 68q63 68 147 68q59 0 97.5 -34.5t38.5 -89.5q0 -56 -56 -114l-81 -84h139v-83h-272zM129 0l578 739h114l-577 -739h-115zM588 310v84h273v-64l-149 -328h-100l143 308h-167z" />
    <glyph glyph-name="uni0414.ss01" horiz-adv-x="779" 
d="M661 739v-600h78v-289h-148v150h-412v-150h-148v289h63q34 61 60 162q26 104 47 279l19 159h441zM252 139h261v460h-163l-7 -48q-37 -281 -91 -412z" />
    <glyph glyph-name="uni0416.ss01" horiz-adv-x="937" 
d="M656 377l290 -377h-173l-232 308v-308h-144v308l-232 -308h-173l290 377l-275 362h168l222 -302v302h144v-302l221 302h169z" />
    <glyph glyph-name="uni041B.ss01" horiz-adv-x="746" 
d="M76 -9q-26 0 -43 4l-25 127q22 -2 23 -2q63 0 97 55q15 23 27 60q11 35 19 71q10 45 16 95l12 100l12 118l12 120h438v-739h-150v596h-155l-8 -76l-9 -82q-2 -24 -9 -73q-6 -49 -12 -78q-7 -35 -16 -67q-16 -70 -46 -121q-63 -108 -183 -108z" />
    <glyph glyph-name="uni0424.ss01" horiz-adv-x="973" 
d="M561 40v-120h-149v120q-170 8 -274 95q-103 88 -103 236q0 147 102 234q104 89 275 96v118h149v-118q169 -7 273 -96t104 -234q0 -147 -105 -235q-103 -88 -272 -96zM561 568v-396q103 3 165 57q62 56 62 142q0 85 -62 138q-62 55 -165 59zM185 371q0 -89 61 -142.5
t166 -56.5v396q-105 -5 -166 -57.5t-61 -139.5z" />
    <glyph glyph-name="uni042A.ss01" horiz-adv-x="757" 
d="M327 487h141q74 0 129.5 -23t83.5 -63q53 -74 53 -159q0 -103 -68 -173q-68 -69 -185 -69h-300v610h-166v129h312v-252zM327 131h129q59 0 92 32t33 82t-31.5 80.5t-89.5 30.5h-133v-225z" />
    <glyph glyph-name="uni042C.ss01" horiz-adv-x="658" 
d="M228 487h141q74 0 129.5 -23t83.5 -63q53 -74 53 -159q0 -103 -68 -173q-68 -69 -185 -69h-300v739h146v-252zM228 131h129q59 0 92 32t33 82t-31.5 80.5t-89.5 30.5h-133v-225z" />
    <glyph glyph-name="uni0431.ss01" horiz-adv-x="678" 
d="M370 536q69 0 130 -31q63 -31 102.5 -95.5t39.5 -145.5q0 -116 -80 -198q-80 -80 -207 -80q-79 0 -141.5 32.5t-99.5 88.5q-72 109 -72 253q-1 143 49.5 226.5t139.5 128.5q80 39 178 62q104 24 183 56v-134q-48 -21 -106 -37l-106 -28q-82 -22 -138 -65.5t-73 -126.5
q32 45 85 69.5t116 24.5zM356 113q61 0 105 44q43 44 43 108q0 62 -43 105q-42 43 -103 43q-62 0 -106 -42q-44 -41 -44 -105q0 -63 42 -108t106 -45z" />
    <glyph glyph-name="uni0432.ss01" horiz-adv-x="586" 
d="M441 302q53 -12 81.5 -49.5t28.5 -89.5q0 -71 -52 -117t-141 -46h-294v545h286q78 0 123.5 -38.5t45.5 -95.5q0 -40 -20.5 -68.5t-57.5 -40.5zM336 436h-140v-102h140q28 0 43 15t15 37q0 21 -15 35.5t-43 14.5zM196 111h150q32 0 50.5 17.5t18.5 45.5t-17.5 45t-49.5 17
h-152v-125z" />
    <glyph glyph-name="uni0433.ss01" horiz-adv-x="451" 
d="M64 545h375v-125h-235v-420h-140v545z" />
    <glyph glyph-name="uni0434.ss01" horiz-adv-x="658" 
d="M563 546v-425h59v-240h-133v119h-332v-119h-133v240h60q55 97 90 328l14 97h375zM305 433l-7 -36q-26 -174 -70 -276h197v312h-120z" />
    <glyph glyph-name="uni0436.ss01" horiz-adv-x="784" 
d="M565 278l225 -278h-157l-176 222v-222h-130v221l-176 -221h-157l225 278l-209 267h152l165 -220v220h130v-220l164 220h153z" />
    <glyph glyph-name="uni0437.ss01" horiz-adv-x="528" 
d="M245 -12q-123 0 -227 57l46 103q99 -44 182 -44q51 0 80 17t29 47q0 54 -95 54h-117v108h86q107 0 107 57q0 26 -24.5 40t-66.5 14q-75 0 -155 -43l-58 94q43 31 104 49t122 18q96 0 154 -43q59 -44 59 -102q0 -38 -27 -68.5t-76 -46.5v-3q58 -14 91.5 -51t33.5 -86
q0 -71 -66 -121q-67 -50 -182 -50z" />
    <glyph glyph-name="uni0438.ss01" horiz-adv-x="649" 
d="M154 0h-90v545h137v-329l294 329h91v-545h-138v325z" />
    <glyph glyph-name="uni0439.ss01" horiz-adv-x="649" 
d="M333 579q-115 0 -197 103l68 71q33 -42 62.5 -59t66.5 -17t66.5 17t64.5 59l67 -71q-84 -103 -198 -103zM154 0h-90v545h137v-329l294 329h91v-545h-138v325z" />
    <glyph glyph-name="uni043A.ss01" horiz-adv-x="573" 
d="M581 0h-167l-170 224l-43 -41v-183h-137v545h137v-201l204 201h170l-238 -230z" />
    <glyph glyph-name="uni043B.ss01" horiz-adv-x="627" 
d="M73 -8q-16 0 -34 3l-34 106h22q53 0 81 43q20 30 35 87q15 58 21 110q6 40 19 158l5 46h375v-545h-141v419h-112l-6 -46l-6 -49l-7 -45q-3 -25 -8 -47q-11 -54 -22 -86q-16 -42 -34 -71q-53 -83 -154 -83z" />
    <glyph glyph-name="uni043F.ss01" horiz-adv-x="618" 
d="M64 545h490v-545h-140v419h-210v-419h-140v545z" />
    <glyph glyph-name="uni0442.ss01" horiz-adv-x="495" 
d="M12 545h471v-122h-166v-423h-140v423h-165v122z" />
    <glyph glyph-name="uni0444.ss01" horiz-adv-x="853" 
d="M817 272q0 -129 -88 -204q-89 -74 -236 -80v-146h-133v146q-147 6 -236 81q-88 75 -88 204t88 205q89 77 236 81v146h133v-146q147 -5 235 -81q89 -77 89 -206zM493 437v-330q87 1 137 45.5t50 120.5q0 75 -48.5 118.5t-138.5 45.5zM360 108v329q-90 -2 -138.5 -45
t-48.5 -119q0 -75 50 -119t137 -46z" />
    <glyph glyph-name="uni0446.ss01" horiz-adv-x="667" 
d="M645 -180h-135v180h-446v545h141v-415h211v415h141v-415h88v-310z" />
    <glyph glyph-name="uni0448.ss01" horiz-adv-x="931" 
d="M867 0h-803v545h141v-415h190v415h141v-415h190v415h141v-545z" />
    <glyph glyph-name="uni0449.ss01" horiz-adv-x="977" 
d="M867 545v-415h87v-310h-135v180h-755v545h141v-415h190v415h141v-415h190v415h141z" />
    <glyph glyph-name="uni044A.ss01" horiz-adv-x="620" 
d="M272 378h106q61 0 106 -17t69 -45.5t35 -60t11 -65.5q0 -82 -57 -136q-56 -54 -158 -54h-248v420h-119v125h255v-167zM271 115h99q91 0 91 75q0 31 -23 51.5t-64 20.5h-103v-147z" />
    <glyph glyph-name="uni044C.ss01" horiz-adv-x="551" 
d="M199 378h111q122 0 174 -63q46 -53 46 -125q0 -82 -57 -136q-55 -54 -158 -54h-251v545h135v-167zM198 115h103q46 0 69 20t23 55q0 32 -22.5 52t-65.5 20h-107v-147z" />
    <glyph glyph-name="uni044E.ss01" horiz-adv-x="881" 
d="M554 560q128 0 210 -84q82 -82 82 -203q0 -122 -82 -204q-83 -83 -210 -83q-111 0 -189 63q-78 66 -97 164h-65v-213h-139v545h139v-217h64q18 102 96 166q79 66 191 66zM446 162q44 -45 108 -45t107 45q44 47 44 111t-44 110q-44 45 -107 45q-64 0 -108 -45
q-43 -44 -43 -110q0 -65 43 -111z" />
    <glyph glyph-name="yen.osf" horiz-adv-x="510" 
d="M383 591h143l-145 -260h83v-92h-134l-6 -10v-22h140v-92h-140v-115h-135v115h-141v92h141v23l-5 9h-136v92h85l-144 260h144l124 -245z" />
    <glyph glyph-name="zero.dnom" horiz-adv-x="386" 
d="M319 52q-43 -57 -126 -57t-127 57q-43 58 -43 148t43 148t127 58q83 0 126 -58q44 -59 44 -148t-44 -148zM193 82q73 0 73 118t-73 118q-72 0 -72 -118t72 -118z" />
    <glyph glyph-name="zero.lf" horiz-adv-x="688" 
d="M344 -12q-99 0 -168 54q-131 103 -131 328q0 107 31 190q32 87 102 139.5t166 52.5q60 0 110 -20t84.5 -55.5t58.5 -84t35 -104.5t11 -118t-11 -118t-35 -104.5t-58.5 -84t-84.5 -55.5t-110 -20zM496 370q0 107 -38 175t-114 68q-75 0 -113 -68t-38 -175
q0 -111 38.5 -177t112.5 -66t113 66t39 177z" />
    <glyph glyph-name="zero.num" horiz-adv-x="386" 
d="M319 398q-43 -57 -126 -57t-127 57q-43 58 -43 148t43 148t127 58q83 0 126 -58q44 -59 44 -148t-44 -148zM193 428q73 0 73 118t-73 118q-72 0 -72 -118t72 -118z" />
    <glyph glyph-name="zero.osf" horiz-adv-x="623" 
d="M311 -12q-129 0 -198 86q-68 88 -68 220t68 220q69 87 198 87q131 0 198 -87q69 -87 69 -220t-69 -220q-68 -86 -198 -86zM311 111q64 0 95 49q33 49 33 134q0 83 -32 133t-95 50q-62 0 -94.5 -48.5t-32.5 -134.5q0 -85 32.5 -134t93.5 -49z" />
    <glyph glyph-name="zero.slash" horiz-adv-x="688" 
d="M344 752q60 0 110 -20t84.5 -55.5t58.5 -84t35 -104.5t11 -118t-11 -118t-35 -104.5t-58.5 -84t-84.5 -55.5t-110 -20q-99 0 -168 54q-131 103 -131 328q0 107 31 190q32 87 102 139.5t166 52.5zM344 628q-80 0 -120 -72q-40 -71 -40 -186q0 -83 21 -146l236 363
q-39 41 -97 41zM344 112q80 0 121 71q40 71 40 187q0 75 -18 135l-233 -359q37 -34 90 -34z" />
    <glyph glyph-name="zero.tf" horiz-adv-x="619" 
d="M309 -12q-93 0 -159 54q-125 102 -125 328q0 105 29 190q31 87 98 139.5t157 52.5q94 0 160 -54q126 -103 126 -328q0 -104 -30 -190q-31 -87 -98 -139.5t-158 -52.5zM451 370q0 108 -36 175q-35 68 -105 68q-71 0 -107 -68q-35 -68 -35 -175q0 -111 36.5 -177t105.5 -66
t105 65.5t36 177.5z" />
    </font>
</defs>
</svg>
