<?xml version="1.0" standalone="no"?>
<!DOCTYPE svg PUBLIC "-//W3C//DTD SVG 1.1//EN" "http://www.w3.org/Graphics/SVG/1.1/DTD/svg11.dtd" >
<svg xmlns="http://www.w3.org/2000/svg" xmlns:xlink="http://www.w3.org/1999/xlink" version="1.1">
<metadata>
Created by FontForge 20170731 at Mon Mar 20 08:01:25 2017
 By Aleksey,,,
Copyright (c) 2017 by Kastelov. All rights reserved.
</metadata>
<defs>
<font id="Axiforma-Medium" horiz-adv-x="618" >
  <font-face 
    font-family="Axiforma Medium"
    font-weight="500"
    font-stretch="normal"
    units-per-em="1000"
    panose-1="0 0 6 0 0 0 0 0 0 0"
    ascent="771"
    descent="-229"
    x-height="538"
    cap-height="739"
    bbox="-428 -328 1277 1018"
    underline-thickness="50"
    underline-position="-200"
    unicode-range="U+000D-25CA"
  />
<missing-glyph horiz-adv-x="130" 
 />
    <glyph glyph-name="f_b" unicode="fb" horiz-adv-x="1078" 
d="M117 539v27q0 99 50.5 153.5t137.5 54.5q70 0 129 -32l-32 -88q-48 20 -80 20q-46 0 -70.5 -27t-24.5 -79v-29h171v-94h-171v-445h-110v445h-90v94h90zM770 552q116 0 192 -82q77 -83 77 -201t-77 -201q-76 -81 -193 -81q-111 0 -182 90v-77h-109v758h110v-297
q72 91 182 91zM755 90q77 0 123 52q48 52 48 128t-48 128q-46 52 -123 52t-125 -53q-47 -53 -47 -127q0 -75 47 -128q48 -52 125 -52z" />
    <glyph glyph-name="f_f" unicode="ff" horiz-adv-x="791" 
d="M721 674q-52 0 -80.5 -27.5t-28.5 -78.5v-29h170v-94h-170v-445h-110v445h-275v-445h-110v445h-90v94h90v31q0 98 60 151.5t163 52.5q81 0 156 -39l-37 -88q-67 27 -108 27q-58 0 -91 -28t-33 -78v-29h275v31q0 97 55.5 150.5t149.5 53.5q69 0 131 -32l-35 -89
q-49 21 -82 21z" />
    <glyph glyph-name="f_f_i" unicode="ffi" horiz-adv-x="1052" 
d="M707 674q-95 0 -95 -106v-29h193v-94h-193v-445h-110v445h-275v-445h-110v445h-90v94h90v31q0 97 60 150.5t162 53.5q80 0 158 -39l-38 -89q-65 28 -109 28q-57 0 -90 -28t-33 -78v-29h275v27q0 98 51.5 153t138.5 55q70 0 129 -32l-34 -88q-48 20 -80 20zM927 611
q-32 0 -53.5 21.5t-21.5 53.5q0 31 21.5 52t53.5 21q31 0 52.5 -21t21.5 -52q0 -32 -21.5 -53.5t-52.5 -21.5zM981 0h-110v539h110v-539z" />
    <glyph glyph-name="f_f_j" unicode="ffj" horiz-adv-x="1052" 
d="M792 539v-94h-180v-445h-111v445h-274v-445h-110v445h-90v94h90v31q0 97 60 150.5t162 53.5q83 0 156 -39l-36 -89q-65 28 -109 28q-57 0 -90 -28t-33 -78v-29h274v27q0 99 51.5 153.5t139.5 54.5q70 0 129 -32l-34 -88q-48 20 -80 20q-95 0 -95 -106v-29h180zM927 611
q-32 0 -54 21.5t-22 53.5q0 31 22 52t54 21q31 0 52.5 -21t21.5 -52q0 -32 -21.5 -53.5t-52.5 -21.5zM870 -21v560h111v-558q0 -101 -50.5 -156t-136.5 -55q-70 0 -105 24l21 90q42 -14 68 -14q92 0 92 109z" />
    <glyph glyph-name="f_h" unicode="fh" horiz-adv-x="1031" 
d="M117 539v27q0 99 50.5 153.5t138.5 54.5q69 0 128 -32l-32 -88q-48 20 -80 20q-46 0 -70.5 -27t-24.5 -79v-29h171v-94h-171v-445h-110v445h-90v94h90zM756 553q89 0 150 -58t61 -167v-328h-110v297q0 73 -35 113.5t-94 40.5q-62 0 -101 -43t-39 -112v-296h-110v758h107
v-287q24 38 69.5 60t101.5 22z" />
    <glyph glyph-name="f_i" unicode="fi" horiz-adv-x="667" 
d="M117 539v27q0 98 51.5 153t138.5 55q70 0 129 -32l-34 -88q-48 20 -80 20q-46 0 -70.5 -27t-24.5 -79v-29h171v-94h-171v-445h-110v445h-90v94h90zM467 685q0 31 21.5 52.5t53.5 21.5t53 -21.5t21 -52.5q0 -32 -21 -53.5t-53 -21.5t-53.5 21.5t-21.5 53.5zM596 0h-110
v539h110v-539z" />
    <glyph glyph-name="f_j" unicode="fj" horiz-adv-x="667" 
d="M407 539v-94h-180v-445h-110v445h-90v94h90v27q0 98 51.5 153t138.5 55q70 0 129 -32l-34 -88q-48 20 -80 20q-46 0 -70.5 -27t-24.5 -79v-29h180zM467 685q0 31 21.5 52.5t53.5 21.5t53 -21.5t21 -52.5q0 -32 -21 -53.5t-53 -21.5t-53.5 21.5t-21.5 53.5zM486 -21v560
h110v-558q0 -103 -49.5 -157t-137.5 -54q-67 0 -105 24l22 90q42 -14 68 -14q92 0 92 109z" />
    <glyph glyph-name="f_k" unicode="fk" horiz-adv-x="964" 
d="M117 539v27q0 99 50.5 153.5t137.5 54.5q70 0 129 -32l-32 -88q-48 20 -80 20q-46 0 -70.5 -27t-24.5 -79v-29h171v-94h-171v-445h-110v445h-90v94h90zM971 0h-142l-194 245l-47 -43v-202h-110v758h110v-427l227 208h145l-248 -224z" />
    <glyph glyph-name="f_l" unicode="fl" horiz-adv-x="659" 
d="M117 539v27q0 100 49 154t137 54q66 0 128 -32l-29 -88q-48 20 -80 20q-46 0 -70.5 -27t-24.5 -79v-29h171v-94h-171v-445h-110v445h-90v94h90zM478 0v758h110v-758h-110z" />
    <glyph glyph-name=".notdef" horiz-adv-x="130" 
 />
    <glyph glyph-name=".null" horiz-adv-x="0" 
 />
    <glyph glyph-name="nonmarkingreturn" horiz-adv-x="333" 
 />
    <glyph glyph-name="CR.001" horiz-adv-x="130" 
 />
    <glyph glyph-name="CR.001" horiz-adv-x="130" 
 />
    <glyph glyph-name="CR" unicode="&#xd;" horiz-adv-x="333" 
 />
    <glyph glyph-name="space" unicode=" " horiz-adv-x="247" 
 />
    <glyph glyph-name="exclam" unicode="!" horiz-adv-x="301" 
d="M205 188h-108l-5 557h119zM153 -12q-30 0 -50.5 20t-20.5 50q0 29 20.5 48.5t50.5 19.5q29 0 48.5 -19.5t19.5 -48.5q0 -30 -19.5 -50t-48.5 -20z" />
    <glyph glyph-name="quotedbl" unicode="&#x22;" horiz-adv-x="495" 
d="M146 440h-104l84 298h131zM366 440h-104l84 298h131z" />
    <glyph glyph-name="numbersign" unicode="#" horiz-adv-x="717" 
d="M684 549l-18 -92h-105l-32 -165h106l-17 -91h-106l-38 -201h-105l39 201h-159l-39 -201h-106l40 201h-110l17 91h111l32 165h-112l18 92h112l38 190h103l-37 -190h159l37 190h102l-36 -190h106zM267 292h159l31 165h-159z" />
    <glyph glyph-name="dollar" unicode="$" horiz-adv-x="573" 
d="M533 204q0 -83 -54 -140q-53 -56 -138 -71v-105h-91v102q-71 8 -129 46.5t-91 103.5l83 72q27 -55 73 -84.5t98 -29.5q56 0 89 28.5t33 71.5q0 55 -72 94l-71 34q-60 29 -86 47q-108 70 -108 176q0 79 51 134q53 56 137 66v94h91v-95q102 -18 169 -102l-72 -77
q-64 75 -148 75q-46 0 -76 -24.5t-30 -65.5q0 -50 68 -91q15 -9 80 -42q70 -34 91 -47q103 -64 103 -170z" />
    <glyph glyph-name="percent" unicode="%" horiz-adv-x="888" 
d="M355 440q-56 -53 -133 -53q-78 0 -134 53q-55 54 -55 129t55 129q56 54 134 54t133 -54t55 -129t-55 -129zM225 0h-111l542 739h113zM222 468q42 0 71.5 29t29.5 72t-29.5 72t-71.5 29q-43 0 -72.5 -29t-29.5 -72t29.5 -72t72.5 -29zM666 -12q-78 0 -134 53
q-55 52 -55 128q0 75 55 129q56 54 134 54t133 -54q56 -54 56 -129t-56 -128t-133 -53zM768 169q0 44 -29.5 73t-72.5 29t-72.5 -29t-29.5 -73q0 -42 30 -71t72 -29t72 29t30 71z" />
    <glyph glyph-name="ampersand" unicode="&#x26;" horiz-adv-x="699" 
d="M581 161l115 -101l-61 -70l-116 103q-109 -103 -235 -103q-104 0 -175 63q-70 63 -70 154q0 135 134 215q-43 64 -43 138q0 78 57 134q59 56 142 56q71 0 124 -45q52 -45 52 -112q6 -64 -59 -122q-15 -13 -42 -29q-11 -7 -26 -15l-16 -8q-1 0 -48 -23l21 -20
q21 -19 30 -26l147 -128q37 46 73 104l72 -58q-45 -70 -76 -107zM325 668q-42 0 -70.5 -31t-28.5 -77q0 -53 28 -96l48 22q1 1 38 20q26 14 36 24q29 33 29 61q0 33 -22.5 55t-57.5 22zM294 84q80 0 156 72l-165 147q-24 21 -52 49q-85 -57 -85 -138q0 -55 41 -93
q41 -37 105 -37z" />
    <glyph glyph-name="quotesingle" unicode="'" horiz-adv-x="274" 
d="M145 440h-104l84 298h131z" />
    <glyph glyph-name="parenleft" unicode="(" horiz-adv-x="400" 
d="M393 -136l-49 -84q-147 78 -226 212t-79 302q0 170 79.5 303.5t227.5 211.5l47 -85q-234 -153 -234 -430q0 -273 234 -430z" />
    <glyph glyph-name="parenright" unicode=")" horiz-adv-x="400" 
d="M55 -220l-48 84q234 157 234 430q0 277 -234 430l46 85q149 -79 228.5 -212.5t79.5 -302.5t-79.5 -302.5t-226.5 -211.5z" />
    <glyph glyph-name="asterisk" unicode="*" horiz-adv-x="468" 
d="M235 498l-95 -117l-64 54l94 108l-133 59l36 76l122 -61l-3 144h85l-3 -144l123 61l34 -76l-132 -59l93 -108l-65 -54z" />
    <glyph glyph-name="plus" unicode="+" horiz-adv-x="549" 
d="M327 400h188v-104h-188v-188l-104 -2v190h-190v104h190v189h104v-189z" />
    <glyph glyph-name="comma" unicode="," horiz-adv-x="249" 
d="M123 120q32 0 53.5 -23t21.5 -58q0 -93 -134 -180l-34 47q71 54 86 83h-4q-25 0 -43 18.5t-18 44.5q0 28 21.5 48t50.5 20z" />
    <glyph glyph-name="hyphen" unicode="-" horiz-adv-x="522" 
d="M458 225h-394v104h394v-104z" />
    <glyph glyph-name="period" unicode="." horiz-adv-x="237" 
d="M119 -16q-30 0 -50.5 20t-20.5 50q0 29 20.5 49t50.5 20q29 0 49 -20t20 -49q0 -30 -20 -50t-49 -20z" />
    <glyph glyph-name="slash" unicode="/" horiz-adv-x="627" 
d="M132 -123h-113l475 948h113z" />
    <glyph glyph-name="zero" unicode="0" horiz-adv-x="682" 
d="M475 21q-59 -33 -134 -33t-134 33q-102 59 -142 210q-15 69 -15 139.5t15 137.5t51.5 123t90.5 88q58 33 134 33q75 0 134 -33q105 -58 141 -210q36 -139 0 -278q-36 -152 -141 -210zM341 96q89 0 132 76q44 77 44 198q0 120 -44 197t-132 77t-132 -77q-43 -76 -43 -197
q-2 -120 42.5 -196.5t132.5 -77.5z" />
    <glyph glyph-name="one" unicode="1" horiz-adv-x="396" 
d="M2 561l215 178h89v-739h-114v584l-128 -104z" />
    <glyph glyph-name="two" unicode="2" horiz-adv-x="566" 
d="M394 305l-182 -199h305v-106h-468v96l235 250l56 62q21 24 37.5 59t16.5 63q0 50 -35.5 82.5t-88.5 32.5q-86 0 -175 -83l-63 82q110 108 243 108q102 0 167 -62q66 -62 66 -161q0 -101 -114 -224z" />
    <glyph glyph-name="three" unicode="3" horiz-adv-x="557" 
d="M250 -12q-122 0 -232 73l51 93q95 -60 177 -60q65 0 103 31.5t38 83.5t-39 84.5t-101 32.5h-92v104h88q58 0 94 30t36 79q0 48 -35 77t-88 29q-74 0 -157 -62l-58 81q41 41 101.5 64.5t124.5 23.5q99 0 164 -56t65 -138q0 -59 -35 -104.5t-92 -63.5v-4q68 -16 106 -64.5
t38 -117.5q0 -94 -72 -156q-71 -60 -185 -60z" />
    <glyph glyph-name="four" unicode="4" horiz-adv-x="601" 
d="M479 280h82v-99h-82v-181h-110v181h-338l-23 72l398 486h73v-459zM369 547l-218 -267h218v267z" />
    <glyph glyph-name="five" unicode="5" horiz-adv-x="578" 
d="M291 480q106 0 177 -68t71 -174q0 -110 -75 -180q-73 -70 -192 -70q-132 0 -240 87l51 90q94 -71 185 -71q68 0 112 41q43 40 43 102q0 59 -42 100q-41 40 -106 40q-78 0 -132 -55l-72 48l41 369h377v-104h-289l-22 -180q51 25 113 25z" />
    <glyph glyph-name="six" unicode="6" horiz-adv-x="621" 
d="M345 477q100 0 168 -68q67 -67 67 -170q0 -108 -73 -178q-71 -70 -184 -70q-131 0 -203.5 101.5t-69.5 254.5q0 106 32 196t104 149q74 60 175 60q113 0 193 -63l-49 -86q-64 48 -137 48q-66 0 -116 -45q-89 -82 -91 -231q25 48 73.5 75t110.5 27zM324 92q60 0 101 42
q41 43 41 104q0 60 -41 101q-40 40 -100 40q-62 0 -102 -40q-41 -41 -41 -102q0 -60 41 -103q41 -42 101 -42z" />
    <glyph glyph-name="seven" unicode="7" horiz-adv-x="510" 
d="M21 635v104h470v-73l-280 -666h-122l273 635h-341z" />
    <glyph glyph-name="eight" unicode="8" horiz-adv-x="628" 
d="M315 -12q-119 0 -194 60t-75 152q0 62 39 114.5t104 76.5v2q-52 25 -82 68t-30 96q0 85 66 140q65 55 172 55q106 0 170 -55q66 -55 66 -140q0 -53 -30 -96.5t-83 -67.5v-3q66 -23 105 -75t39 -115q0 -92 -75 -152q-73 -60 -192 -60zM442 546q0 48 -35.5 79t-92.5 31
q-58 0 -94 -31t-36 -79t36 -79t94 -31t93 31t35 79zM315 89q67 0 110 35.5t43 90.5q0 54 -42.5 88t-111.5 34t-111.5 -34t-42.5 -88q0 -55 43 -90.5t112 -35.5z" />
    <glyph glyph-name="nine" unicode="9" horiz-adv-x="617" 
d="M298 752q131 0 200 -99q69 -97 69 -260q0 -82 -18 -153t-53.5 -128.5t-95 -90.5t-137.5 -33q-119 0 -196 63l43 88q70 -50 148 -50q97 0 147 77q49 76 54 194q-27 -43 -76.5 -69t-108.5 -26q-101 0 -167 67q-66 68 -66 171q0 107 72 178q73 71 185 71zM436 505
q0 61 -41 104q-40 43 -99 43q-62 0 -102 -42q-41 -43 -41 -105q0 -61 40 -101.5t101 -40.5t101 40q41 41 41 102z" />
    <glyph glyph-name="colon" unicode=":" horiz-adv-x="266" 
d="M133 350q-30 0 -50.5 20t-20.5 50q0 29 20.5 49t50.5 20q29 0 49 -20t20 -49q0 -30 -20 -50t-49 -20zM133 -16q-30 0 -50.5 20t-20.5 50q0 29 20.5 49t50.5 20q29 0 49 -20t20 -49q0 -30 -20 -50t-49 -20z" />
    <glyph glyph-name="semicolon" unicode=";" horiz-adv-x="291" 
d="M149 349q-30 0 -51 20.5t-21 50.5q0 29 21 49t51 20q29 0 49.5 -20t20.5 -49q0 -30 -20.5 -50.5t-49.5 -20.5zM146 120q32 0 53.5 -23t21.5 -58q0 -93 -134 -180l-34 47q71 54 86 83h-4q-25 0 -43 18.5t-18 44.5q0 28 21.5 48t50.5 20z" />
    <glyph glyph-name="less" unicode="&#x3c;" horiz-adv-x="567" 
d="M497 169v-114l-464 225v98l464 226v-113l-346 -161z" />
    <glyph glyph-name="equal" unicode="=" horiz-adv-x="598" 
d="M530 370h-462v96h462v-96zM530 189h-462v96h462v-96z" />
    <glyph glyph-name="greater" unicode="&#x3e;" horiz-adv-x="545" 
d="M515 280l-454 -236v114l320 161l-320 160v114l454 -237v-76z" />
    <glyph glyph-name="question" unicode="?" horiz-adv-x="524" 
d="M278 176h-105v71q0 74 68 135q6 5 24.5 20.5t26 22.5l22.5 21t22.5 24.5t16 24t12 27.5t3.5 29q0 49 -35 80t-88 31q-76 0 -151 -82l-68 77q42 51 102 80t125 29q96 0 162 -60q67 -58 67 -150q0 -87 -72 -152q-11 -10 -35 -30t-37 -32t-29 -29.5t-23.5 -34.5t-7.5 -34
v-68zM228 -12q-30 0 -51 20t-21 50q0 29 21 48.5t51 19.5q28 0 48 -19.5t20 -48.5q0 -30 -20 -50t-48 -20z" />
    <glyph glyph-name="at" unicode="@" horiz-adv-x="971" 
d="M607 441v48h87v-270q0 -32 15 -51t37 -19q42 0 73 51q31 50 31 128q0 137 -103 233q-103 97 -250 96q-151 -1 -256 -109t-105 -262q0 -153 110 -263q109 -109 270 -109q156 0 274 96l44 -69q-54 -47 -142 -78q-86 -33 -183 -32.5t-183 36.5q-126 50 -203 165t-78 253
q0 187 131 321q132 134 319 134q183 0 313 -122q130 -121 130 -289q0 -112 -60 -187q-60 -74 -146 -74q-43 0 -73 21.5t-42 56.5q-55 -78 -156 -78q-86 0 -145 62t-59 155q0 91 59 155q60 64 148 64q92 0 143 -63zM607 284q0 59 -37 99t-92 40q-56 0 -93 -39
q-37 -38 -37 -98q0 -58 36.5 -97.5t91.5 -39.5q56 0 93 39q38 40 38 96z" />
    <glyph glyph-name="A" unicode="A" horiz-adv-x="681" 
d="M670 0h-124l-70 182h-272l-70 -182h-124l294 739h75zM441 288l-100 268l-100 -268h200z" />
    <glyph glyph-name="B" unicode="B" horiz-adv-x="678" 
d="M496 404q66 -18 103 -70t37 -121q0 -86 -62 -150q-62 -63 -169 -63h-315v739h301q97 0 151 -55q55 -55 55 -129q0 -50 -27.5 -92t-73.5 -59zM374 634h-170v-191h166q50 0 80 29t30 70q0 39 -29 65.5t-77 26.5zM204 105h181q59 0 95 34t36 83q0 51 -35.5 85t-98.5 34h-178
v-236z" />
    <glyph glyph-name="C" unicode="C" horiz-adv-x="773" 
d="M424 -11q-161 0 -270 106q-110 107 -110 272q0 168 112 276q112 109 271 109q99 0 185 -44q85 -43 133 -115l-82 -74q-91 121 -233 121q-112 0 -190 -78q-77 -79 -77 -195q0 -117 76 -192q77 -75 190 -75q147 0 238 120l82 -72q-53 -73 -139 -116t-186 -43z" />
    <glyph glyph-name="D" unicode="D" horiz-adv-x="762" 
d="M360 0h-270v739h279q161 0 252 -100q93 -100 93 -271q0 -169 -95 -269q-95 -99 -259 -99zM205 629v-519h160q108 0 168 73q61 73 61 188q0 112 -61 185q-60 73 -167 73h-161z" />
    <glyph glyph-name="E" unicode="E" 
d="M563 0h-473v739h472v-109h-357v-201h331v-109h-331v-211h358v-109z" />
    <glyph glyph-name="F" unicode="F" horiz-adv-x="582" 
d="M205 0h-115v739h465v-111h-350v-202h305v-110h-305v-316z" />
    <glyph glyph-name="G" unicode="G" horiz-adv-x="811" 
d="M425 -11q-164 0 -273 107q-108 108 -108 273q0 166 112 274q112 109 274 109q91 0 172.5 -35.5t132.5 -95.5l-79 -78q-88 97 -225 97q-115 0 -192 -77t-77 -194t76 -193t190 -76q63 0 123 25.5t102 70.5v132h-233v104h340v-290q-138 -153 -335 -153z" />
    <glyph glyph-name="H" unicode="H" horiz-adv-x="762" 
d="M205 0h-115v739h115v-307h352v307h115v-739h-115v321h-352v-321z" />
    <glyph glyph-name="I" unicode="I" horiz-adv-x="295" 
d="M90 0v739h115v-739h-115z" />
    <glyph glyph-name="J" unicode="J" horiz-adv-x="567" 
d="M228 -12q-133 0 -218 94l65 86q60 -70 149 -70q66 0 105 42.5t39 116.5v482h116v-487q0 -128 -72 -196q-71 -68 -184 -68z" />
    <glyph glyph-name="K" unicode="K" horiz-adv-x="675" 
d="M687 0h-142l-242 314l-98 -117v-197h-115v739h115v-385l320 385h138l-285 -344z" />
    <glyph glyph-name="L" unicode="L" horiz-adv-x="609" 
d="M595 0h-505v739h115v-628h390v-111z" />
    <glyph glyph-name="M" unicode="M" horiz-adv-x="925" 
d="M204 0h-114v739h63l310 -453l308 453h65v-739h-116v473l-241 -352h-34l-241 352v-473z" />
    <glyph glyph-name="N" unicode="N" horiz-adv-x="785" 
d="M581 234v505h114v-739h-68l-423 501v-501h-114v739h60z" />
    <glyph glyph-name="O" unicode="O" horiz-adv-x="853" 
d="M423 -12q-162 0 -271 109t-109 269q0 161 112 273q113 113 271 113q160 0 272 -112t112 -271t-112 -270t-275 -111zM426 101q111 0 187 76q77 77 77 191q0 116 -77 193t-187 77q-111 0 -187 -78q-76 -76 -76 -192q0 -114 75 -190q77 -77 188 -77z" />
    <glyph glyph-name="P" unicode="P" 
d="M90 739h255q121 0 183 -69q63 -68 63 -165q0 -96 -65 -164q-64 -67 -191 -67h-130v-274h-115v739zM205 380h133q64 0 100 36.5t36 90.5t-33 89t-91 35h-145v-251z" />
    <glyph glyph-name="Q" unicode="Q" horiz-adv-x="853" 
d="M799 -19l15 -96q-49 -21 -115 -21q-149 0 -257 124h-15q-160 2 -272 112q-112 112 -112 270t112 270t272 112q159 0 271 -112t112 -270q0 -118 -66 -216q-65 -97 -173 -139q59 -51 136 -51q43 0 92 17zM163 368q0 -116 76 -192t188 -76q111 0 187 76q77 77 77 192
q0 116 -77 193q-76 78 -187 78q-112 0 -188 -78q-76 -76 -76 -193z" />
    <glyph glyph-name="R" unicode="R" horiz-adv-x="652" 
d="M622 0h-139l-180 290h-98v-290h-115v739h261q115 0 177 -66q62 -67 62 -159q0 -75 -43.5 -133.5t-121.5 -79.5zM351 630h-146v-233h128q67 0 102.5 32.5t35.5 85.5q0 50 -32 82.5t-88 32.5z" />
    <glyph glyph-name="S" unicode="S" horiz-adv-x="578" 
d="M285 -12q-82 0 -152 38.5t-109 108.5l78 75q30 -55 78.5 -84t104.5 -29t91 29t35 72q0 56 -73 95q-18 9 -75 33q-60 28 -85 42q-112 67 -112 179q0 88 64 146q65 59 168 59q140 0 225 -106l-71 -79q-61 76 -153 76q-49 0 -79.5 -24.5t-30.5 -65.5q0 -53 62 -88
q33 -18 83 -41q58 -25 91 -44q113 -62 113 -176q0 -94 -71 -156q-71 -60 -182 -60z" />
    <glyph glyph-name="T" unicode="T" horiz-adv-x="577" 
d="M230 0v627h-216v112h549v-112h-216v-627h-117z" />
    <glyph glyph-name="U" unicode="U" horiz-adv-x="712" 
d="M356 -13q-121 0 -198 71q-76 70 -76 198v483h115v-468q0 -83 41.5 -127t117.5 -44q74 0 116 45t42 126v468h116v-483q0 -129 -76 -199t-198 -70z" />
    <glyph glyph-name="V" unicode="V" horiz-adv-x="718" 
d="M361 190l220 549h128l-311 -739h-77l-314 739h132z" />
    <glyph glyph-name="W" unicode="W" horiz-adv-x="1041" 
d="M339 0h-79l-251 739h124l169 -527l187 527h61l191 -527l166 527h124l-250 -739h-77l-183 530z" />
    <glyph glyph-name="X" unicode="X" horiz-adv-x="641" 
d="M145 0h-138l243 374l-230 365h134l167 -277l170 277h138l-239 -365l240 -374h-134l-175 282z" />
    <glyph glyph-name="Y" unicode="Y" horiz-adv-x="652" 
d="M507 739h130l-254 -476v-263h-115v263l-251 476h130l179 -358z" />
    <glyph glyph-name="Z" unicode="Z" horiz-adv-x="628" 
d="M593 0h-561v76l391 555h-374v108h533v-78l-384 -553h395v-108z" />
    <glyph glyph-name="bracketleft" unicode="[" horiz-adv-x="382" 
d="M364 -227h-280v1038h280v-94h-167v-850h167v-94z" />
    <glyph glyph-name="backslash" unicode="\" horiz-adv-x="623" 
d="M133 825l471 -948h-112l-472 948h113z" />
    <glyph glyph-name="bracketright" unicode="]" horiz-adv-x="382" 
d="M298 -227h-280v94h167v850h-167v94h280v-1038z" />
    <glyph glyph-name="asciicircum" unicode="^" horiz-adv-x="527" 
d="M148 431h-110l192 318h68l191 -318h-109l-116 204z" />
    <glyph glyph-name="underscore" unicode="_" horiz-adv-x="585" 
d="M585 -177h-585v101h585v-101z" />
    <glyph glyph-name="grave" unicode="`" horiz-adv-x="411" 
d="M170 790l60 -170h-97l-93 170h130z" />
    <glyph glyph-name="a" unicode="a" horiz-adv-x="669" 
d="M492 464v75h106v-539h-106v74q-73 -87 -184 -87q-117 0 -193 82t-76 204q0 121 76 200t193 79q111 0 184 -88zM323 88q75 0 125 53q49 52 49 129q0 76 -49 128q-50 53 -125 53q-77 0 -125 -53q-48 -52 -48 -129t48 -129t125 -52z" />
    <glyph glyph-name="b" unicode="b" horiz-adv-x="671" 
d="M363 552q116 0 192 -82q77 -83 77 -201t-77 -201q-77 -81 -193 -81q-112 0 -182 90v-77h-109v758h110v-297q72 91 182 91zM348 90q77 0 123 52q48 52 48 128t-48 128q-46 52 -123 52t-125 -53q-47 -53 -47 -127q0 -75 47 -128q48 -52 125 -52z" />
    <glyph glyph-name="c" unicode="c" horiz-adv-x="600" 
d="M324 -12q-126 0 -205 79q-80 80 -80 202q0 123 81 203q82 80 208 80q81 0 148.5 -39t99.5 -105l-91 -51q-25 43 -66.5 68.5t-89.5 25.5q-77 0 -128 -52q-51 -53 -51 -130q0 -75 50 -128q49 -52 125 -52q48 0 92 26t65 66l91 -53q-33 -63 -100.5 -101.5t-148.5 -38.5z" />
    <glyph glyph-name="d" unicode="d" horiz-adv-x="670" 
d="M488 464v294h111v-758h-109v75q-70 -88 -181 -88q-117 0 -193 81q-77 83 -77 202q0 118 77 200q76 82 192 82q107 0 180 -88zM496 270q0 76 -48 128q-48 53 -125 53t-125 -53q-48 -52 -48 -128q0 -78 48 -130t125 -52t125 52t48 130z" />
    <glyph glyph-name="e" unicode="e" horiz-adv-x="616" 
d="M579 280q0 -26 -4 -53h-421q12 -65 57.5 -103t121.5 -38q46 0 96.5 16t86.5 42l46 -81q-101 -75 -233 -75q-142 0 -215.5 83t-73.5 200q0 122 76 201q77 80 199 80q117 0 190 -73q74 -74 74 -199zM315 457q-62 0 -105.5 -38.5t-55.5 -101.5h314q-7 63 -49.5 101.5
t-103.5 38.5z" />
    <glyph glyph-name="f" unicode="f" horiz-adv-x="407" 
d="M338 674q-54 0 -82.5 -27.5t-28.5 -78.5v-29h170v-94h-170v-445h-110v445h-90v94h90v31q0 97 56 151t151 54q68 0 131 -33l-35 -89q-49 21 -82 21z" />
    <glyph glyph-name="g" unicode="g" horiz-adv-x="670" 
d="M493 470v69h106v-484q0 -130 -80 -207t-212 -77q-134 0 -241 77l48 85q89 -64 191 -64q85 0 135 47.5t50 123.5v39q-71 -80 -181 -80q-118 0 -194 79t-76 198t79 197q79 79 196 79q107 0 179 -82zM323 97q75 0 124 51q49 50 49 127q0 78 -49 127q-50 50 -124 50
q-73 0 -123 -51q-49 -49 -49 -126q0 -78 49 -128q50 -50 123 -50z" />
    <glyph glyph-name="h" unicode="h" horiz-adv-x="625" 
d="M181 0h-110v758h107v-287q24 38 69.5 60t101.5 22q89 0 150 -58t61 -167v-328h-110v297q0 73 -35 113.5t-94 40.5q-62 0 -101 -43t-39 -112v-296z" />
    <glyph glyph-name="i" unicode="i" horiz-adv-x="253" 
d="M129 610q-32 0 -54 21.5t-22 53.5q0 31 22 52t54 21q31 0 52 -21t21 -52q0 -32 -21 -53.5t-52 -21.5zM182 539v-539h-110v539h110z" />
    <glyph glyph-name="j" unicode="j" horiz-adv-x="277" 
d="M151 610q-32 0 -54 21.5t-22 53.5q0 31 22 52t54 21q31 0 52 -21t21 -52q0 -32 -21 -53.5t-52 -21.5zM18 -230q-68 0 -105 24l22 90q42 -14 68 -14q92 0 92 109v560h110v-558q0 -103 -49.5 -157t-137.5 -54z" />
    <glyph glyph-name="k" unicode="k" horiz-adv-x="557" 
d="M564 0h-142l-194 245l-47 -43v-202h-110v758h110v-427l227 208h145l-248 -224z" />
    <glyph glyph-name="l" unicode="l" horiz-adv-x="252" 
d="M181 758v-758h-110v758h110z" />
    <glyph glyph-name="m" unicode="m" horiz-adv-x="983" 
d="M703 554q97 0 156 -63q60 -61 60 -169v-322h-110v304q0 70 -33 108.5t-90 38.5q-60 0 -97.5 -41t-37.5 -109v-301h-110v302q0 69 -33.5 109t-90.5 40q-60 0 -98 -41.5t-38 -110.5v-299h-110v539h108v-78q24 43 67 68t96 25q55 -1 100 -27t66 -72q28 45 80.5 72t114.5 27z
" />
    <glyph glyph-name="n" unicode="n" horiz-adv-x="626" 
d="M181 0h-110v539h108v-76q24 42 69 66t102 24q89 0 150 -58q62 -59 62 -167v-328h-111v297q0 73 -35 113.5t-94 40.5q-62 0 -101.5 -43.5t-39.5 -112.5v-295z" />
    <glyph glyph-name="o" unicode="o" horiz-adv-x="648" 
d="M39 270q0 117 80 200q81 83 205 83t204 -83q81 -82 81 -200q0 -120 -81 -202q-79 -82 -204 -82q-124 0 -205 82q-80 83 -80 202zM498 270q0 74 -51 127q-49 54 -123 54q-73 0 -124 -54q-50 -53 -50 -127q0 -75 50 -128q51 -53 124 -53t123 53q51 53 51 128z" />
    <glyph glyph-name="p" unicode="p" horiz-adv-x="673" 
d="M366 552q115 0 191 -82q77 -83 77 -201q0 -117 -77 -200q-76 -82 -192 -82q-114 0 -184 88v-297h-110v761h110v-78q73 91 185 91zM523 270q0 76 -48 128q-48 53 -125 53t-125 -53q-47 -53 -47 -128q0 -77 47 -130q48 -52 125 -52t125 52t48 130z" />
    <glyph glyph-name="q" unicode="q" horiz-adv-x="673" 
d="M492 462v77h110v-761h-110v297q-73 -88 -185 -88q-116 0 -192 82t-76 201q0 118 76 200t193 82q109 0 184 -90zM324 88q76 0 124 52t48 130q0 76 -48 128q-48 53 -124 53q-77 0 -125 -53q-48 -52 -48 -128q0 -78 48 -130t125 -52z" />
    <glyph glyph-name="r" unicode="r" horiz-adv-x="399" 
d="M181 0h-110v539h105v-77q48 91 153 91q34 0 64 -9l-10 -107q-27 10 -59 10q-65 0 -104 -44t-39 -127v-276z" />
    <glyph glyph-name="s" unicode="s" horiz-adv-x="468" 
d="M231 -13q-64 0 -119 29t-88 84l71 64q24 -39 61.5 -60.5t76.5 -21.5t64 19.5t25 47.5q0 40 -46 62q-12 7 -65 27q-54 23 -68 31q-86 45 -86 133q0 67 50 111q52 44 134 44q115 0 177 -83l-64 -68q-48 59 -118 59q-33 0 -52.5 -17t-19.5 -42q0 -40 45 -59l55 -23
q53 -22 76 -34q92 -48 92 -136q0 -71 -56 -119t-145 -48z" />
    <glyph glyph-name="t" unicode="t" horiz-adv-x="438" 
d="M397 118l38 -86q-60 -45 -149 -45q-87 0 -132 53t-45 153v252h-93v94h94v191h109v-191h186v-94h-186v-254q0 -103 83 -103q44 0 95 30z" />
    <glyph glyph-name="u" unicode="u" horiz-adv-x="601" 
d="M300 -13q-108 0 -172 63t-64 171v318h110v-317q0 -61 33.5 -97t92.5 -36q60 0 93 35t33 98v317h111v-318q0 -110 -63 -172t-174 -62z" />
    <glyph glyph-name="v" unicode="v" horiz-adv-x="574" 
d="M288 154l154 385h121l-236 -538h-80l-236 538h122z" />
    <glyph glyph-name="w" unicode="w" horiz-adv-x="852" 
d="M288 1h-94l-184 538h116l121 -387l139 387h78l143 -387l117 387h116l-181 -538h-94l-140 382z" />
    <glyph glyph-name="x" unicode="x" horiz-adv-x="522" 
d="M329 272l181 -272h-128l-121 194l-124 -194h-131l186 278l-167 261h128l110 -182l114 182h128z" />
    <glyph glyph-name="y" unicode="y" horiz-adv-x="569" 
d="M297 150l138 389h121l-223 -588q-36 -95 -84 -137.5t-117 -42.5q-57 0 -92 23l16 95q39 -17 67 -17q65 0 106 92l17 40l-234 535h127z" />
    <glyph glyph-name="z" unicode="z" horiz-adv-x="518" 
d="M475 469l-294 -375h303v-94h-453v73l295 371h-279v94h428v-69z" />
    <glyph glyph-name="braceleft" unicode="{" horiz-adv-x="383" 
d="M140 292v-4q46 -15 75.5 -50t29.5 -83q0 -37 -4 -100t-4 -100q0 -89 90 -89h31v-97h-51q-179 0 -179 180q0 45 4 106t4 93q0 54 -37 76q-24 15 -78 26v80q52 10 78 26q37 22 37 76q0 31 -4 94t-4 108q0 177 182 177h48v-97h-31q-90 0 -90 -89q0 -38 4 -101t4 -99
q0 -48 -30 -83.5t-75 -49.5z" />
    <glyph glyph-name="bar" unicode="|" horiz-adv-x="271" 
d="M187 -179h-103v1026h103v-1026z" />
    <glyph glyph-name="braceright" unicode="}" horiz-adv-x="383" 
d="M243 288v4q-45 13 -75.5 49t-30.5 84q0 36 4 99q5 78 5 101q0 89 -90 89h-31v97h49q181 0 181 -177q0 -45 -4 -108t-4 -94q0 -36 18 -58q17 -20 37 -28t60 -16v-80q-54 -11 -79 -26q-36 -22 -36 -76q0 -32 4 -93t4 -106q0 -180 -179 -180h-51v97h31q90 0 90 89
q0 22 -5 100q-4 63 -4 100q0 48 30 83t76 50z" />
    <glyph glyph-name="asciitilde" unicode="~" horiz-adv-x="678" 
d="M444 244q-52 0 -119 33q-67 34 -96 34t-50.5 -13.5t-49.5 -47.5l-70 53q60 105 176 105q51 0 119 -33t96 -33q30 0 51.5 13.5t48.5 48.5l72 -54q-64 -106 -178 -106z" />
    <glyph glyph-name="exclamdown" unicode="&#xa1;" horiz-adv-x="266" 
d="M147 526q29 0 48.5 -20t19.5 -50q0 -29 -19.5 -48.5t-48.5 -19.5q-30 0 -50.5 19.5t-20.5 48.5q0 30 20.5 50t50.5 20zM86 -231l5 557h108l6 -557h-119z" />
    <glyph glyph-name="cent" unicode="&#xa2;" horiz-adv-x="613" 
d="M365 448v-355q38 8 71 32t50 56l91 -53q-29 -56 -86 -93t-126 -45v-79h-71v79q-110 10 -182 88q-69 77 -69 191q0 115 69 191q71 78 182 90v81h71v-81q73 -8 129.5 -45t85.5 -97l-91 -51q-45 76 -124 91zM294 92v355q-62 -13 -101 -62t-39 -116t39 -116t101 -61z" />
    <glyph glyph-name="sterling" unicode="&#xa3;" horiz-adv-x="576" 
d="M185 106h349v-106h-480v91q42 33 68 86q27 53 27 103q0 23 -6 47h-90v92h59q-25 72 -25 117q2 92 67 153q68 62 164 63q67 1 124.5 -30.5t90.5 -86.5l-80 -64q-21 34 -54.5 54t-71.5 20q-54 0 -88.5 -35t-34.5 -88q0 -37 23 -103h237v-92h-208q6 -31 5 -58
q-1 -96 -76 -163z" />
    <glyph glyph-name="currency" unicode="&#xa4;" horiz-adv-x="639" 
d="M547 367q0 -68 -38 -124l73 -72l-58 -57l-71 70q-61 -43 -136 -43q-73 0 -132 42l-71 -69l-56 57l70 69q-39 58 -39 127q0 75 44 136l-75 74l56 57l77 -76q58 38 126 38q71 0 129 -39l78 77l58 -57l-78 -77q43 -58 43 -133zM317 227q57 0 98 41q40 41 40 101t-40 100
q-41 41 -98 41q-56 0 -97 -41q-39 -41 -39 -100t39 -101q41 -41 97 -41z" />
    <glyph glyph-name="yen" unicode="&#xa5;" horiz-adv-x="657" 
d="M503 739h125l-190 -359h120v-85h-165l-7 -13v-40h172v-86h-172v-156h-115v156h-175v86h175v40l-7 13h-168v85h123l-189 359h126l173 -343z" />
    <glyph glyph-name="brokenbar" unicode="&#xa6;" horiz-adv-x="271" 
d="M187 434h-103v413h103v-413zM84 234h103v-413h-103v413z" />
    <glyph glyph-name="section" unicode="&#xa7;" horiz-adv-x="580" 
d="M543 213q0 -86 -74 -133q29 -46 29 -100q0 -86 -62 -142q-62 -57 -163 -57q-145 0 -230 112l75 74q66 -81 154 -81q48 0 78 26.5t30 66.5q0 47 -48 80q-21 16 -45 29q-52 28 -58 31q-45 23 -68 36q-21 12 -56 39q-60 49 -60 122q0 87 73 133q-30 43 -30 101q0 89 62 145
q64 56 162 56q130 0 210 -102l-78 -70q-55 67 -127 67q-50 0 -81 -26.5t-31 -66.5q0 -45 46 -80q28 -20 45 -29l57 -30l16 -8q76 -39 117 -74q57 -47 57 -119zM279 214q83 -41 117 -65q30 20 30 53q0 31 -25.5 54.5t-85.5 53.5q-104 54 -127 71q-30 -21 -30 -54
q0 -23 19 -45q19 -21 39 -34q14 -9 63 -34z" />
    <glyph glyph-name="dieresis" unicode="&#xa8;" horiz-adv-x="500" 
d="M122 628q-32 0 -53 21t-21 53q0 31 21 51.5t53 20.5q31 0 52 -20.5t21 -51.5q0 -32 -21 -53t-52 -21zM327 628q-32 0 -53 21t-21 53q0 31 21 51.5t53 20.5q30 0 51 -20.5t21 -51.5q0 -32 -21 -53t-51 -21z" />
    <glyph glyph-name="copyright" unicode="&#xa9;" horiz-adv-x="857" 
d="M43 369q0 157 113 270t272 113t272 -113t113 -270q0 -156 -113 -269q-112 -112 -272 -112t-272 112q-113 113 -113 269zM428 60q129 0 220 91t91 218q0 128 -91 219t-220 91t-220 -91t-91 -219q0 -127 91 -218t220 -91zM432 164q-88 0 -147 59t-59 146q0 89 58 147
q59 59 147 59q105 0 162 -80l-56 -42q-43 51 -105 51q-56 0 -92.5 -38t-36.5 -97t36.5 -96.5t92.5 -37.5q66 0 107 48l53 -46q-26 -34 -68.5 -53.5t-91.5 -19.5z" />
    <glyph glyph-name="ordfeminine" unicode="&#xaa;" horiz-adv-x="411" 
d="M195 736q70 0 112 -41.5t42 -115.5v-188h-67v36q-39 -45 -112 -45q-57 0 -91.5 31.5t-34.5 80.5q0 48 37.5 75t103.5 27q40 0 96 -7q-6 80 -92 80q-57 0 -100 -27l-25 56q53 38 131 38zM180 448q43 0 69 23t31 64q-39 7 -89 7q-36 0 -55.5 -12.5t-19.5 -33.5
q0 -22 17.5 -35t46.5 -13z" />
    <glyph glyph-name="guillemotleft" unicode="&#xab;" horiz-adv-x="539" 
d="M290 88h-112l-140 203l140 203h112l-142 -203zM488 88h-113l-138 203l138 203h113l-141 -203z" />
    <glyph glyph-name="logicalnot" unicode="&#xac;" horiz-adv-x="606" 
d="M435 266h-367v103h466v-221h-99v118z" />
    <glyph glyph-name="uni00AD" unicode="&#xad;" horiz-adv-x="508" 
d="M445 277h-382v102h382v-102z" />
    <glyph glyph-name="registered" unicode="&#xae;" horiz-adv-x="576" 
d="M115 696q72 72 173 72t173 -72q73 -72 73 -173t-73 -173q-72 -72 -173 -72t-173 72t-72 173t72 173zM153 387q56 -56 135 -56t135 56q56 58 56 136q0 79 -56 135q-55 57 -135 57t-135 -57q-56 -56 -56 -135q0 -78 56 -136zM386 566q0 -53 -46 -72l52 -89h-57l-45 81h-38
v-81h-51v241h101q36 0 60 -22.5t24 -57.5zM290 604h-38v-77h38q45 0 45 40q0 37 -45 37z" />
    <glyph glyph-name="overscore" unicode="&#xaf;" horiz-adv-x="466" 
d="M354 644l-314 -1v98h314v-97z" />
    <glyph glyph-name="degree" unicode="&#xb0;" horiz-adv-x="364" 
d="M183 538q-60 0 -104 41q-43 40 -43 100q0 61 43 101q44 42 104 42t102 -42q43 -40 43 -101q0 -60 -43 -100q-43 -41 -102 -41zM183 605q30 0 52 21.5t22 52.5q0 32 -22 54t-52 22q-31 0 -53 -22t-22 -54q0 -31 22 -52.5t53 -21.5z" />
    <glyph glyph-name="plusminus" unicode="&#xb1;" horiz-adv-x="605" 
d="M355 676v-189h188v-104h-188v-187l-103 -2v189h-190v104h190v189h103zM543 72h-481v100h481v-100z" />
    <glyph glyph-name="uni00B2" unicode="&#xb2;" horiz-adv-x="345" 
d="M246 677l-95 -99h153v-71h-265v63l130 132q52 53 52 87q0 22 -16 36.5t-41 14.5q-44 0 -94 -47l-40 58q61 61 139 61q58 0 95 -34t37 -88q0 -58 -55 -113z" />
    <glyph glyph-name="uni00B3" unicode="&#xb3;" horiz-adv-x="332" 
d="M147 501q-67 0 -132 39l32 61q56 -30 97 -30q32 0 51 14.5t19 38.5q0 23 -19.5 38t-50.5 15h-52v67h48q27 0 46.5 13.5t19.5 35.5t-17 35t-43 13q-40 0 -83 -31l-38 55q53 47 130 47q56 0 93.5 -30.5t37.5 -74.5q0 -32 -19.5 -56t-52.5 -34v-2q38 -8 59.5 -34.5
t21.5 -62.5q0 -52 -41.5 -84.5t-106.5 -32.5z" />
    <glyph glyph-name="acute" unicode="&#xb4;" horiz-adv-x="435" 
d="M137 620h-97l60 170h130z" />
    <glyph glyph-name="paragraph" unicode="&#xb6;" horiz-adv-x="693" 
d="M255 734h387v-105h-71v-832h-109v832h-74v-832h-109v500h-29q-93 0 -158 62q-63 61 -63 157q0 95 64 156q65 62 162 62z" />
    <glyph glyph-name="middot" unicode="&#xb7;" horiz-adv-x="259" 
d="M130 -16q-30 0 -50.5 20t-20.5 50q0 29 20.5 49t50.5 20q29 0 49 -20t20 -49q0 -30 -20 -50t-49 -20z" />
    <glyph glyph-name="cedilla" unicode="&#xb8;" horiz-adv-x="324" 
d="M183 -48h3q46 0 76 -25.5t30 -69.5q0 -48 -36 -80.5t-99 -32.5q-53 0 -117 29l27 69q43 -21 81 -21q26 0 41 11.5t15 30.5q0 36 -53 36h-56l-8 23l39 98l84 -2z" />
    <glyph glyph-name="uni00B9" unicode="&#xb9;" horiz-adv-x="269" 
d="M15 793l136 107h60v-393h-80v283l-74 -58z" />
    <glyph glyph-name="ordmasculine" unicode="&#xba;" horiz-adv-x="436" 
d="M40 557q0 76 51 127t127 51t127 -51q52 -51 52 -127q0 -75 -52 -126q-52 -50 -127 -50t-127 50q-51 51 -51 126zM217 449q47 0 78 31t31 78t-31.5 78.5t-77.5 31.5t-76.5 -31.5t-30.5 -78.5t31 -78t76 -31z" />
    <glyph glyph-name="guillemotright" unicode="&#xbb;" horiz-adv-x="539" 
d="M302 291l-138 -203h-113l141 203l-141 203h113zM501 291l-140 -203h-112l142 203l-142 203h112z" />
    <glyph glyph-name="onequarter" unicode="&#xbc;" horiz-adv-x="866" 
d="M228 346h-79v284l-74 -58l-42 61l136 107h59v-394zM106 0l578 739h93l-576 -739h-95zM781 158h43v-63h-43v-95h-70v95h-183l-16 46l213 255h56v-238zM711 288l-109 -130h109v130z" />
    <glyph glyph-name="onehalf" unicode="&#xbd;" horiz-adv-x="847" 
d="M229 346h-79v284l-74 -58l-42 61l136 107h59v-394zM83 0l578 739h93l-576 -739h-95zM747 170l-95 -99h153v-71h-265v63l130 132q52 53 52 87q0 22 -16 36.5t-41 14.5q-44 0 -94 -47l-40 58q61 61 139 61q58 0 95 -34t37 -88q0 -58 -55 -113z" />
    <glyph glyph-name="threequarters" unicode="&#xbe;" horiz-adv-x="843" 
d="M150 411q32 0 51 14.5t19 38.5q0 23 -19.5 38t-50.5 15h-52v67h48q27 0 46.5 13.5t19.5 35.5t-17 35t-43 13q-40 0 -83 -31l-38 55q53 47 130 47q56 0 93.5 -30.5t37.5 -74.5q0 -32 -19.5 -56t-52.5 -34v-2q38 -8 59.5 -34.5t21.5 -62.5q0 -52 -41.5 -84.5t-106.5 -32.5
q-67 0 -132 39l32 61q55 -30 97 -30zM127 0l578 739h93l-576 -739h-95zM687 396h56v-238h43v-63h-43v-95h-70v95h-183l-16 46zM673 288l-109 -130h109v130z" />
    <glyph glyph-name="questiondown" unicode="&#xbf;" horiz-adv-x="516" 
d="M290 527q30 0 51 -20t21 -50q0 -29 -21 -48.5t-51 -19.5q-28 0 -48 19.5t-20 48.5q0 30 20 50t48 20zM240 339h105v-71q0 -77 -69 -135q-7 -6 -27.5 -24t-30 -26.5t-25.5 -25.5t-23.5 -29.5t-13.5 -29.5t-6 -34q0 -49 35 -80t88 -31q76 0 151 82l68 -77q-42 -51 -102 -80
t-125 -29q-95 0 -163 60q-66 59 -66 150q0 87 72 152q11 10 35 30t37 32t29 29.5t23.5 34.5t7.5 34v68z" />
    <glyph glyph-name="Agrave" unicode="&#xc0;" horiz-adv-x="681" 
d="M332 967l61 -173h-100l-95 173h134zM670 0h-124l-70 182h-272l-70 -182h-124l294 739h75zM441 288l-100 268l-100 -268h200z" />
    <glyph glyph-name="Aacute" unicode="&#xc1;" horiz-adv-x="681" 
d="M362 966h132l-95 -173h-98zM670 0h-124l-70 182h-272l-70 -182h-124l294 739h75zM441 288l-100 268l-100 -268h200z" />
    <glyph glyph-name="Acircumflex" unicode="&#xc2;" horiz-adv-x="681" 
d="M411 793l-71 90l-71 -90h-113l145 171h81l145 -171h-116zM670 0h-124l-70 182h-272l-70 -182h-124l294 739h75zM441 288l-100 268l-100 -268h200z" />
    <glyph glyph-name="Atilde" unicode="&#xc3;" horiz-adv-x="681" 
d="M271 846q-38 0 -62 -49l-72 35q36 103 129 103q32 0 76 -23q43 -22 62 -22q36 0 59 47l70 -34q-16 -48 -49 -75.5t-75 -27.5q-31 0 -75 23t-63 23zM670 0h-124l-70 182h-272l-70 -182h-124l294 739h75zM441 288l-100 268l-100 -268h200z" />
    <glyph glyph-name="Adieresis" unicode="&#xc4;" horiz-adv-x="681" 
d="M176 872q0 28 20 47.5t49 19.5t48.5 -19.5t19.5 -47.5q0 -30 -19.5 -49.5t-48.5 -19.5t-49 19.5t-20 49.5zM367 872q0 29 19.5 48t48.5 19t48 -19.5t19 -47.5q0 -30 -19 -49.5t-48 -19.5t-48.5 19.5t-19.5 49.5zM670 0h-124l-70 182h-272l-70 -182h-124l294 739h75z
M441 288l-100 268l-100 -268h200z" />
    <glyph glyph-name="Aring" unicode="&#xc5;" horiz-adv-x="681" 
d="M432 814q-34 -34 -87 -34t-88 34q-36 34 -36 84t36 85q37 35 88 35q52 0 87 -35q36 -35 36 -85t-36 -84zM345 953q-23 0 -39 -15.5t-16 -37.5q0 -23 16 -39t39 -16q21 0 37 16t16 39q0 22 -16 37.5t-37 15.5zM670 0h-124l-70 182h-272l-70 -182h-124l294 739h75zM441 288
l-100 268l-100 -268h200z" />
    <glyph glyph-name="AE" unicode="&#xc6;" horiz-adv-x="1026" 
d="M971 739v-109h-365v-201h336v-109h-336v-211h365v-109h-481v204h-255l-122 -204h-129l458 739h529zM490 631l-192 -321h192v321z" />
    <glyph glyph-name="Ccedilla" unicode="&#xc7;" horiz-adv-x="772" 
d="M667 220l82 -72q-48 -67 -124.5 -109t-166.5 -49l-16 -38h3q46 0 76 -25.5t30 -69.5q0 -48 -36 -80.5t-99 -32.5q-53 0 -117 29l27 69q44 -21 81 -21q26 0 41 11.5t15 30.5q0 36 -53 36h-56l-8 23l28 70q-142 16 -237 119q-93 104 -93 256q0 168 112 276q112 109 271 109
q99 0 185 -44q85 -43 133 -115l-82 -74q-91 121 -233 121q-112 0 -190 -78q-77 -79 -77 -195q0 -117 76 -192q77 -75 190 -75q147 0 238 120z" />
    <glyph glyph-name="Egrave" unicode="&#xc8;" 
d="M327 967l61 -173h-100l-95 173h134zM563 0h-473v739h472v-109h-357v-201h331v-109h-331v-211h358v-109z" />
    <glyph glyph-name="Eacute" unicode="&#xc9;" 
d="M368 793h-98l61 173h132zM563 0h-473v739h472v-109h-357v-201h331v-109h-331v-211h358v-109z" />
    <glyph glyph-name="Ecircumflex" unicode="&#xca;" 
d="M255 793h-113l145 171h81l145 -171h-116l-71 90zM563 0h-473v739h472v-109h-357v-201h331v-109h-331v-211h358v-109z" />
    <glyph glyph-name="Edieresis" unicode="&#xcb;" 
d="M164 872q0 28 20 47.5t49 19.5t48.5 -19.5t19.5 -47.5q0 -30 -19.5 -49.5t-48.5 -19.5t-49 19.5t-20 49.5zM355 872q0 29 19.5 48t48.5 19t48 -19.5t19 -47.5q0 -30 -19 -49.5t-48 -19.5t-48.5 19.5t-19.5 49.5zM563 0h-473v739h472v-109h-357v-201h331v-109h-331v-211
h358v-109z" />
    <glyph glyph-name="Igrave" unicode="&#xcc;" horiz-adv-x="295" 
d="M140 968l61 -173h-100l-95 173h134zM92 0v739h115v-739h-115z" />
    <glyph glyph-name="Iacute" unicode="&#xcd;" horiz-adv-x="292" 
d="M193 795h-98l61 173h132zM90 0v739h115v-739h-115z" />
    <glyph glyph-name="Icircumflex" unicode="&#xce;" horiz-adv-x="295" 
d="M78 795h-113l145 171h81l145 -171h-116l-71 90zM92 0v739h115v-739h-115z" />
    <glyph glyph-name="Idieresis" unicode="&#xcf;" horiz-adv-x="295" 
d="M51 800q-31 0 -51 20t-20 51q0 30 20 50t51 20q30 0 50.5 -20t20.5 -50q0 -31 -20.5 -51t-50.5 -20zM178 871q0 30 20.5 50t50.5 20q29 0 49.5 -20t20.5 -50q0 -31 -20 -51t-50 -20t-50.5 20t-20.5 51zM92 0v739h115v-739h-115z" />
    <glyph glyph-name="Eth" unicode="&#xd0;" horiz-adv-x="780" 
d="M108 739h279q161 0 252 -100q93 -100 93 -271q0 -169 -95 -269q-95 -99 -259 -99h-270v321h-94v98h94v320zM223 110h160q108 0 168 73q61 73 61 188q0 112 -61 185q-60 73 -167 73h-161v-210h206v-98h-206v-211z" />
    <glyph glyph-name="Ntilde" unicode="&#xd1;" horiz-adv-x="785" 
d="M268 798l-72 35q36 103 129 103q32 0 76 -23q43 -22 62 -22q36 0 59 47l70 -34q-16 -48 -49 -75.5t-75 -27.5q-31 0 -75 23t-63 23q-38 0 -62 -49zM581 234v505h114v-739h-68l-423 501v-501h-114v739h60z" />
    <glyph glyph-name="Ograve" unicode="&#xd2;" horiz-adv-x="853" 
d="M429 967l61 -173h-100l-95 173h134zM423 -12q-162 0 -271 109t-109 269q0 161 112 273q113 113 271 113q160 0 272 -112t112 -271t-112 -270t-275 -111zM426 101q111 0 187 76q77 77 77 191q0 116 -77 193t-187 77q-111 0 -187 -78q-76 -76 -76 -192q0 -114 75 -190
q77 -77 188 -77z" />
    <glyph glyph-name="Oacute" unicode="&#xd3;" horiz-adv-x="853" 
d="M473 793h-98l61 173h132zM423 -12q-162 0 -271 109t-109 269q0 161 112 273q113 113 271 113q160 0 272 -112t112 -271t-112 -270t-275 -111zM426 101q111 0 187 76q77 77 77 191q0 116 -77 193t-187 77q-111 0 -187 -78q-76 -76 -76 -192q0 -114 75 -190q77 -77 188 -77
z" />
    <glyph glyph-name="Ocircumflex" unicode="&#xd4;" horiz-adv-x="853" 
d="M354 793h-113l145 171h81l145 -171h-116l-71 90zM423 -12q-162 0 -271 109t-109 269q0 161 112 273q113 113 271 113q160 0 272 -112t112 -271t-112 -270t-275 -111zM426 101q111 0 187 76q77 77 77 191q0 116 -77 193t-187 77q-111 0 -187 -78q-76 -76 -76 -192
q0 -114 75 -190q77 -77 188 -77z" />
    <glyph glyph-name="Otilde" unicode="&#xd5;" horiz-adv-x="853" 
d="M304 797l-72 35q36 103 129 103q32 0 76 -23q43 -22 62 -22q36 0 59 47l70 -34q-16 -48 -49 -75.5t-75 -27.5q-31 0 -75 23t-63 23q-38 0 -62 -49zM423 -12q-162 0 -271 109t-109 269q0 161 112 273q113 113 271 113q160 0 272 -112t112 -271t-112 -270t-275 -111z
M426 101q111 0 187 76q77 77 77 191q0 116 -77 193t-187 77q-111 0 -187 -78q-76 -76 -76 -192q0 -114 75 -190q77 -77 188 -77z" />
    <glyph glyph-name="Odieresis" unicode="&#xd6;" horiz-adv-x="853" 
d="M268 872q0 28 20 47.5t49 19.5t48.5 -19.5t19.5 -47.5q0 -30 -19.5 -49.5t-48.5 -19.5t-49 19.5t-20 49.5zM459 872q0 29 19.5 48t48.5 19t48 -19.5t19 -47.5q0 -30 -19 -49.5t-48 -19.5t-48.5 19.5t-19.5 49.5zM423 -12q-162 0 -271 109t-109 269q0 161 112 273
q113 113 271 113q160 0 272 -112t112 -271t-112 -270t-275 -111zM426 101q111 0 187 76q77 77 77 191q0 116 -77 193t-187 77q-111 0 -187 -78q-76 -76 -76 -192q0 -114 75 -190q77 -77 188 -77z" />
    <glyph glyph-name="multiply" unicode="&#xd7;" horiz-adv-x="531" 
d="M412 554l68 -66l-148 -149l148 -148l-66 -69l-149 150l-149 -150l-66 69l148 148l-147 147l65 68l148 -148z" />
    <glyph glyph-name="Oslash" unicode="&#xd8;" horiz-adv-x="853" 
d="M747 740l-62 -88q125 -114 125 -283q0 -159 -112 -270t-275 -111q-92 0 -176 41l-57 -80l-72 49l56 79q-62 52 -96.5 127.5t-34.5 161.5q0 161 112 273q113 113 271 113q101 0 189 -49l61 86zM163 368q0 -118 79 -194l307 435q-61 29 -123 29q-111 0 -187 -78
q-76 -76 -76 -192zM426 101q111 0 187 76q77 77 77 191q0 113 -72 188l-304 -431q54 -24 112 -24z" />
    <glyph glyph-name="Ugrave" unicode="&#xd9;" horiz-adv-x="712" 
d="M354 967l61 -173h-100l-95 173h134zM356 -13q-121 0 -198 71q-76 70 -76 198v483h115v-468q0 -83 41.5 -127t117.5 -44q74 0 116 45t42 126v468h116v-483q0 -129 -76 -199t-198 -70z" />
    <glyph glyph-name="Uacute" unicode="&#xda;" horiz-adv-x="712" 
d="M401 793h-98l61 173h132zM356 -13q-121 0 -198 71q-76 70 -76 198v483h115v-468q0 -83 41.5 -127t117.5 -44q74 0 116 45t42 126v468h116v-483q0 -129 -76 -199t-198 -70z" />
    <glyph glyph-name="Ucircumflex" unicode="&#xdb;" horiz-adv-x="712" 
d="M284 793h-113l145 171h81l145 -171h-116l-71 90zM356 -13q-121 0 -198 71q-76 70 -76 198v483h115v-468q0 -83 41.5 -127t117.5 -44q74 0 116 45t42 126v468h116v-483q0 -129 -76 -199t-198 -70z" />
    <glyph glyph-name="Udieresis" unicode="&#xdc;" horiz-adv-x="712" 
d="M192 872q0 28 20 47.5t49 19.5t48.5 -19.5t19.5 -47.5q0 -30 -19.5 -49.5t-48.5 -19.5t-49 19.5t-20 49.5zM383 872q0 29 19.5 48t48.5 19t48 -19.5t19 -47.5q0 -30 -19 -49.5t-48 -19.5t-48.5 19.5t-19.5 49.5zM356 -13q-121 0 -198 71q-76 70 -76 198v483h115v-468
q0 -83 41.5 -127t117.5 -44q74 0 116 45t42 126v468h116v-483q0 -129 -76 -199t-198 -70z" />
    <glyph glyph-name="Yacute" unicode="&#xdd;" horiz-adv-x="652" 
d="M368 793h-98l61 173h132zM507 739h130l-254 -476v-263h-115v263l-251 476h130l179 -358z" />
    <glyph glyph-name="Thorn" unicode="&#xde;" horiz-adv-x="631" 
d="M205 612h143q120 0 181 -69q63 -68 63 -163q0 -97 -65 -165q-64 -67 -189 -67h-133v-148h-115v739h115v-127zM205 256h135q64 0 99.5 36t35.5 90q0 52 -33 86.5t-91 34.5h-146v-247z" />
    <glyph glyph-name="germandbls" unicode="&#xdf;" horiz-adv-x="651" 
d="M482 396q59 -21 94.5 -73t35.5 -118q0 -97 -73 -161q-73 -63 -181 -63q-62 0 -122 23l25 96q33 -16 91 -16q66 0 107 38q41 39 41 92q0 57 -50 92t-129 35v91q62 0 102.5 36.5t40.5 90.5q0 52 -35.5 84t-91.5 32q-72 0 -113 -55t-41 -155v-642h-112v665q0 143 79 216
q80 74 191 74q104 0 170 -60q66 -58 66 -150q0 -55 -25 -100.5t-70 -71.5z" />
    <glyph glyph-name="agrave" unicode="&#xe0;" horiz-adv-x="669" 
d="M322 794l60 -170h-97l-93 170h130zM492 464v75h106v-539h-106v74q-73 -87 -184 -87q-117 0 -193 82t-76 204q0 121 76 200t193 79q111 0 184 -88zM323 88q75 0 125 53q49 52 49 129q0 76 -49 128q-50 53 -125 53q-77 0 -125 -53q-48 -52 -48 -129t48 -129t125 -52z" />
    <glyph glyph-name="aacute" unicode="&#xe1;" horiz-adv-x="669" 
d="M342 794h130l-93 -170h-97zM492 464v75h106v-539h-106v74q-73 -87 -184 -87q-117 0 -193 82t-76 204q0 121 76 200t193 79q111 0 184 -88zM323 88q75 0 125 53q49 52 49 129q0 76 -49 128q-50 53 -125 53q-77 0 -125 -53q-48 -52 -48 -129t48 -129t125 -52z" />
    <glyph glyph-name="acircumflex" unicode="&#xe2;" horiz-adv-x="669" 
d="M400 623l-69 89l-70 -89h-112l143 168h80l143 -168h-115zM492 464v75h106v-539h-106v74q-73 -87 -184 -87q-117 0 -193 82t-76 204q0 121 76 200t193 79q111 0 184 -88zM323 88q75 0 125 53q49 52 49 129q0 76 -49 128q-50 53 -125 53q-77 0 -125 -53q-48 -52 -48 -129
t48 -129t125 -52z" />
    <glyph glyph-name="atilde" unicode="&#xe3;" horiz-adv-x="669" 
d="M269 676q-37 0 -61 -48l-71 34q35 102 127 102q32 0 75 -22t62 -22q37 0 58 46l70 -33q-16 -48 -48.5 -75t-74.5 -27q-31 0 -74 22q-44 23 -63 23zM492 464v75h106v-539h-106v74q-73 -87 -184 -87q-117 0 -193 82t-76 204q0 121 76 200t193 79q111 0 184 -88zM323 88
q75 0 125 53q49 52 49 129q0 76 -49 128q-50 53 -125 53q-77 0 -125 -53q-48 -52 -48 -129t48 -129t125 -52z" />
    <glyph glyph-name="adieresis" unicode="&#xe4;" horiz-adv-x="669" 
d="M232 618q-32 0 -53 21t-21 53q0 31 21 51.5t53 20.5q31 0 52 -20.5t21 -51.5q0 -32 -21 -53t-52 -21zM437 618q-32 0 -53 21t-21 53q0 31 21 51.5t53 20.5q30 0 51 -20.5t21 -51.5q0 -32 -21 -53t-51 -21zM492 464v75h106v-539h-106v74q-73 -87 -184 -87q-117 0 -193 82
t-76 204q0 121 76 200t193 79q111 0 184 -88zM323 88q75 0 125 53q49 52 49 129q0 76 -49 128q-50 53 -125 53q-77 0 -125 -53q-48 -52 -48 -129t48 -129t125 -52z" />
    <glyph glyph-name="aring" unicode="&#xe5;" horiz-adv-x="669" 
d="M419 637q-35 -33 -86 -33t-87 33q-35 35 -35 83t35 83q37 35 87 35q51 0 86 -35q36 -34 36 -83q0 -48 -36 -83zM333 774q-23 0 -38.5 -15t-15.5 -37q0 -23 15.5 -38.5t38.5 -15.5q21 0 37 15.5t16 38.5q0 21 -16 36.5t-37 15.5zM492 464v75h106v-539h-106v74
q-73 -87 -184 -87q-117 0 -193 82t-76 204q0 121 76 200t193 79q111 0 184 -88zM323 88q75 0 125 53q49 52 49 129q0 76 -49 128q-50 53 -125 53q-77 0 -125 -53q-48 -52 -48 -129t48 -129t125 -52z" />
    <glyph glyph-name="ae" unicode="&#xe6;" horiz-adv-x="990" 
d="M954 290q0 -29 -4 -54l-418 1q10 -68 56 -110t117 -42q44 0 92.5 16t85.5 43l48 -82q-41 -32 -104 -53t-127 -21q-159 0 -234 120q-35 -59 -95.5 -90t-133.5 -31q-96 0 -151 49q-56 50 -56 126q0 47 23.5 81.5t63.5 50.5q69 28 151 28h150q-22 133 -154 133
q-101 0 -165 -49l-46 82q40 28 100.5 46t115.5 18q66 0 122 -27t87 -77q77 104 220 104q112 0 184 -69q72 -67 72 -193zM697 456q-63 0 -106.5 -36.5t-56.5 -97.5h314q-6 63 -47 98.5t-104 35.5zM246 85q68 0 115.5 41.5t57.5 110.5h-150q-132 0 -132 -76q0 -34 30.5 -55
t78.5 -21z" />
    <glyph glyph-name="ccedilla" unicode="&#xe7;" horiz-adv-x="600" 
d="M325 89q48 0 92 26t65 66l91 -53q-30 -58 -89 -95t-132 -44l-15 -37h3q46 0 76 -25.5t30 -69.5q0 -48 -36 -80.5t-99 -32.5q-53 0 -117 29l27 69q43 -21 81 -21q26 0 41 11.5t15 30.5q0 36 -53 36h-56l-8 23l28 70q-102 16 -167 93q-63 77 -63 184q0 123 81 203
q82 80 208 80q81 0 148.5 -39t99.5 -105l-91 -51q-25 43 -66.5 68.5t-89.5 25.5q-77 0 -128 -52q-51 -53 -51 -130q0 -75 50 -128q49 -52 125 -52z" />
    <glyph glyph-name="egrave" unicode="&#xe8;" horiz-adv-x="616" 
d="M308 792l60 -170h-97l-93 170h130zM579 280q0 -26 -4 -53h-421q12 -65 57.5 -103t121.5 -38q46 0 96.5 16t86.5 42l46 -81q-101 -75 -233 -75q-142 0 -215.5 83t-73.5 200q0 122 76 201q77 80 199 80q117 0 190 -73q74 -74 74 -199zM315 457q-62 0 -105.5 -38.5
t-55.5 -101.5h314q-7 63 -49.5 101.5t-103.5 38.5z" />
    <glyph glyph-name="eacute" unicode="&#xe9;" horiz-adv-x="616" 
d="M324 794h130l-93 -170h-97zM579 280q0 -26 -4 -53h-421q12 -65 57.5 -103t121.5 -38q46 0 96.5 16t86.5 42l46 -81q-101 -75 -233 -75q-142 0 -215.5 83t-73.5 200q0 122 76 201q77 80 199 80q117 0 190 -73q74 -74 74 -199zM315 457q-62 0 -105.5 -38.5t-55.5 -101.5
h314q-7 63 -49.5 101.5t-103.5 38.5z" />
    <glyph glyph-name="ecircumflex" unicode="&#xea;" horiz-adv-x="616" 
d="M386 625l-69 89l-70 -89h-112l143 168h80l143 -168h-115zM579 280q0 -26 -4 -53h-421q12 -65 57.5 -103t121.5 -38q46 0 96.5 16t86.5 42l46 -81q-101 -75 -233 -75q-142 0 -215.5 83t-73.5 200q0 122 76 201q77 80 199 80q117 0 190 -73q74 -74 74 -199zM315 457
q-62 0 -105.5 -38.5t-55.5 -101.5h314q-7 63 -49.5 101.5t-103.5 38.5z" />
    <glyph glyph-name="edieresis" unicode="&#xeb;" horiz-adv-x="616" 
d="M225 613q-32 0 -53 21t-21 53q0 31 21 51.5t53 20.5q31 0 52 -20.5t21 -51.5q0 -32 -21 -53t-52 -21zM430 613q-32 0 -53 21t-21 53q0 31 21 51.5t53 20.5q30 0 51 -20.5t21 -51.5q0 -32 -21 -53t-51 -21zM579 280q0 -26 -4 -53h-421q12 -65 57.5 -103t121.5 -38
q46 0 96.5 16t86.5 42l46 -81q-101 -75 -233 -75q-142 0 -215.5 83t-73.5 200q0 122 76 201q77 80 199 80q117 0 190 -73q74 -74 74 -199zM315 457q-62 0 -105.5 -38.5t-55.5 -101.5h314q-7 63 -49.5 101.5t-103.5 38.5z" />
    <glyph glyph-name="igrave" unicode="&#xec;" horiz-adv-x="254" 
d="M118 792l60 -170h-97l-93 170h130zM182 539v-539h-110v539h110z" />
    <glyph glyph-name="iacute" unicode="&#xed;" horiz-adv-x="252" 
d="M174 624h-97l60 170h130zM181 539v-539h-110v539h110z" />
    <glyph glyph-name="icircumflex" unicode="&#xee;" horiz-adv-x="253" 
d="M56 622h-112l143 168h80l143 -168h-115l-69 89zM182 539v-539h-110v539h110z" />
    <glyph glyph-name="idieresis" unicode="&#xef;" horiz-adv-x="253" 
d="M25 616q-32 0 -53 21t-21 53q0 31 21 51.5t53 20.5q31 0 52 -20.5t21 -51.5q0 -32 -21 -53t-52 -21zM230 616q-32 0 -53 21t-21 53q0 31 21 51.5t53 20.5q30 0 51 -20.5t21 -51.5q0 -32 -21 -53t-51 -21zM182 539v-539h-110v539h110z" />
    <glyph glyph-name="eth" unicode="&#xf0;" horiz-adv-x="656" 
d="M572 750l-87 -60q126 -160 126 -343q0 -154 -86 -258q-85 -102 -218 -102q-115 0 -192 75q-75 75 -75 187t74 186q76 74 183 74q66 0 120 -32t83 -87q-10 112 -88 220l-15 20l-95 -66l-45 60l91 62q-48 49 -105 91l77 74q64 -49 116 -105l93 64zM311 86q69 0 116 48
q48 50 48 120q0 68 -48 115q-47 47 -114 47q-71 0 -117 -48q-46 -47 -46 -118q0 -69 45 -117q47 -47 116 -47z" />
    <glyph glyph-name="ntilde" unicode="&#xf1;" horiz-adv-x="626" 
d="M193 625l-71 34q34 102 127 102q32 0 75 -22t62 -22q37 0 58 46l70 -33q-16 -48 -48.5 -75t-74.5 -27q-31 0 -74 22q-44 23 -63 23q-37 0 -61 -48zM181 0h-110v539h108v-76q24 42 69 66t102 24q89 0 150 -58q62 -59 62 -167v-328h-111v297q0 73 -35 113.5t-94 40.5
q-62 0 -101.5 -43.5t-39.5 -112.5v-295z" />
    <glyph glyph-name="ograve" unicode="&#xf2;" horiz-adv-x="648" 
d="M317 792l60 -170h-97l-93 170h130zM39 270q0 117 80 200q81 83 205 83t204 -83q81 -82 81 -200q0 -120 -81 -202q-79 -82 -204 -82q-124 0 -205 82q-80 83 -80 202zM498 270q0 74 -51 127q-49 54 -123 54q-73 0 -124 -54q-50 -53 -50 -127q0 -75 50 -128q51 -53 124 -53
t123 53q51 53 51 128z" />
    <glyph glyph-name="oacute" unicode="&#xf3;" horiz-adv-x="648" 
d="M364 624h-97l60 170h130zM39 270q0 117 80 200q81 83 205 83t204 -83q81 -82 81 -200q0 -120 -81 -202q-79 -82 -204 -82q-124 0 -205 82q-80 83 -80 202zM498 270q0 74 -51 127q-49 54 -123 54q-73 0 -124 -54q-50 -53 -50 -127q0 -75 50 -128q51 -53 124 -53t123 53
q51 53 51 128z" />
    <glyph glyph-name="ocircumflex" unicode="&#xf4;" horiz-adv-x="648" 
d="M254 626h-112l143 168h80l143 -168h-115l-69 89zM39 270q0 117 80 200q81 83 205 83t204 -83q81 -82 81 -200q0 -120 -81 -202q-79 -82 -204 -82q-124 0 -205 82q-80 83 -80 202zM498 270q0 74 -51 127q-49 54 -123 54q-73 0 -124 -54q-50 -53 -50 -127q0 -75 50 -128
q51 -53 124 -53t123 53q51 53 51 128z" />
    <glyph glyph-name="otilde" unicode="&#xf5;" horiz-adv-x="648" 
d="M201 627l-71 34q34 102 127 102q32 0 75 -22t62 -22q37 0 58 46l70 -33q-16 -48 -48.5 -75t-74.5 -27q-31 0 -74 22q-44 23 -63 23q-37 0 -61 -48zM39 270q0 117 80 200q81 83 205 83t204 -83q81 -82 81 -200q0 -120 -81 -202q-79 -82 -204 -82q-124 0 -205 82
q-80 83 -80 202zM498 270q0 74 -51 127q-49 54 -123 54q-73 0 -124 -54q-50 -53 -50 -127q0 -75 50 -128q51 -53 124 -53t123 53q51 53 51 128z" />
    <glyph glyph-name="odieresis" unicode="&#xf6;" horiz-adv-x="648" 
d="M224 616q-32 0 -53 21t-21 53q0 31 21 51.5t53 20.5q31 0 52 -20.5t21 -51.5q0 -32 -21 -53t-52 -21zM429 616q-32 0 -53 21t-21 53q0 31 21 51.5t53 20.5q30 0 51 -20.5t21 -51.5q0 -32 -21 -53t-51 -21zM39 270q0 117 80 200q81 83 205 83t204 -83q81 -82 81 -200
q0 -120 -81 -202q-79 -82 -204 -82q-124 0 -205 82q-80 83 -80 202zM498 270q0 74 -51 127q-49 54 -123 54q-73 0 -124 -54q-50 -53 -50 -127q0 -75 50 -128q51 -53 124 -53t123 53q51 53 51 128z" />
    <glyph glyph-name="divide" unicode="&#xf7;" horiz-adv-x="551" 
d="M275 443q-30 0 -50 20t-20 49t20 48.5t50 19.5q28 0 47.5 -20t19.5 -48q0 -29 -19.5 -49t-47.5 -20zM503 285h-454v96h454v-96zM276 88q-30 0 -50 20t-20 49t20 48.5t50 19.5q28 0 47.5 -20t19.5 -48q0 -29 -19.5 -49t-47.5 -20z" />
    <glyph glyph-name="oslash" unicode="&#xf8;" horiz-adv-x="648" 
d="M566 558l-51 -74q94 -82 94 -214q0 -120 -81 -202q-79 -82 -204 -82q-72 0 -133 30l-54 -78l-57 39l54 78q-95 83 -95 215q0 117 80 200q81 83 205 83q70 0 132 -30l50 73zM150 270q0 -72 46 -124l199 289q-33 16 -71 16q-73 0 -124 -54q-50 -53 -50 -127zM324 89
q73 0 123 53q51 53 51 128q0 71 -46 123l-200 -288q33 -16 72 -16z" />
    <glyph glyph-name="ugrave" unicode="&#xf9;" horiz-adv-x="601" 
d="M298 794l60 -170h-97l-93 170h130zM300 -13q-108 0 -172 63t-64 171v318h110v-317q0 -61 33.5 -97t92.5 -36q60 0 93 35t33 98v317h111v-318q0 -110 -63 -172t-174 -62z" />
    <glyph glyph-name="uacute" unicode="&#xfa;" horiz-adv-x="601" 
d="M345 624h-97l60 170h130zM300 -13q-108 0 -172 63t-64 171v318h110v-317q0 -61 33.5 -97t92.5 -36q60 0 93 35t33 98v317h111v-318q0 -110 -63 -172t-174 -62z" />
    <glyph glyph-name="ucircumflex" unicode="&#xfb;" horiz-adv-x="601" 
d="M231 622h-112l143 168h80l143 -168h-115l-69 89zM300 -13q-108 0 -172 63t-64 171v318h110v-317q0 -61 33.5 -97t92.5 -36q60 0 93 35t33 98v317h111v-318q0 -110 -63 -172t-174 -62z" />
    <glyph glyph-name="udieresis" unicode="&#xfc;" horiz-adv-x="601" 
d="M199 616q-32 0 -53 21t-21 53q0 31 21 51.5t53 20.5q31 0 52 -20.5t21 -51.5q0 -32 -21 -53t-52 -21zM404 616q-32 0 -53 21t-21 53q0 31 21 51.5t53 20.5q30 0 51 -20.5t21 -51.5q0 -32 -21 -53t-51 -21zM300 -13q-108 0 -172 63t-64 171v318h110v-317q0 -61 33.5 -97
t92.5 -36q60 0 93 35t33 98v317h111v-318q0 -110 -63 -172t-174 -62z" />
    <glyph glyph-name="yacute" unicode="&#xfd;" horiz-adv-x="569" 
d="M292 792h130l-93 -170h-97zM297 150l138 389h121l-223 -588q-36 -95 -84 -137.5t-117 -42.5q-57 0 -92 23l16 95q39 -17 67 -17q65 0 106 92l17 40l-234 535h127z" />
    <glyph glyph-name="thorn" unicode="&#xfe;" horiz-adv-x="672" 
d="M361 552q119 0 195 -82q77 -82 77 -200t-78 -201q-76 -82 -194 -82q-105 0 -180 87v-296h-110v980h110v-294q76 88 180 88zM349 88q76 0 124 52t48 130q0 76 -48 128q-48 53 -124 53q-77 0 -125 -53q-48 -52 -48 -128q0 -77 47 -130q48 -52 126 -52z" />
    <glyph glyph-name="ydieresis" unicode="&#xff;" horiz-adv-x="569" 
d="M188 616q-32 0 -53 21t-21 53q0 31 21 51.5t53 20.5q31 0 52 -20.5t21 -51.5q0 -32 -21 -53t-52 -21zM393 616q-32 0 -53 21t-21 53q0 31 21 51.5t53 20.5q30 0 51 -20.5t21 -51.5q0 -32 -21 -53t-51 -21zM297 150l138 389h121l-223 -588q-36 -95 -84 -137.5t-117 -42.5
q-57 0 -92 23l16 95q39 -17 67 -17q65 0 106 92l17 40l-234 535h127z" />
    <glyph glyph-name="Amacron" unicode="&#x100;" horiz-adv-x="681" 
d="M167 908h349v-97l-349 -1v98zM670 0h-124l-70 182h-272l-70 -182h-124l294 739h75zM441 288l-100 268l-100 -268h200z" />
    <glyph glyph-name="amacron" unicode="&#x101;" horiz-adv-x="669" 
d="M175 735h314v-97l-314 -1v98zM492 464v75h106v-539h-106v74q-73 -87 -184 -87q-117 0 -193 82t-76 204q0 121 76 200t193 79q111 0 184 -88zM323 88q75 0 125 53q49 52 49 129q0 76 -49 128q-50 53 -125 53q-77 0 -125 -53q-48 -52 -48 -129t48 -129t125 -52z" />
    <glyph glyph-name="Abreve" unicode="&#x102;" horiz-adv-x="681" 
d="M161 964h93q2 -45 25.5 -71t62.5 -26q40 0 63.5 26t25.5 71h94q-3 -83 -52.5 -131t-130.5 -48q-80 0 -129 48t-52 131zM670 0h-124l-70 182h-272l-70 -182h-124l294 739h75zM441 288l-100 268l-100 -268h200z" />
    <glyph glyph-name="abreve" unicode="&#x103;" horiz-adv-x="669" 
d="M153 794h92q2 -45 25 -70t62 -25t62 25t25 70h93q-3 -81 -52 -128.5t-128 -47.5t-127.5 47.5t-51.5 128.5zM492 464v75h106v-539h-106v74q-73 -87 -184 -87q-117 0 -193 82t-76 204q0 121 76 200t193 79q111 0 184 -88zM323 88q75 0 125 53q49 52 49 129q0 76 -49 128
q-50 53 -125 53q-77 0 -125 -53q-48 -52 -48 -129t48 -129t125 -52z" />
    <glyph glyph-name="Aogonek" unicode="&#x104;" horiz-adv-x="679" 
d="M650 -157l35 -75q-49 -29 -99 -29q-53 0 -86 31t-33 80q0 88 104 150h-25l-70 182h-272l-70 -182h-124l294 739h75l291 -739q-47 -20 -77 -54.5t-30 -67.5q0 -21 12.5 -34t32.5 -13q16 0 42 12zM441 288l-100 268l-100 -268h200z" />
    <glyph glyph-name="aogonek" unicode="&#x105;" horiz-adv-x="665" 
d="M578 -157l35 -75q-49 -29 -99 -29q-53 0 -86 31t-33 80q0 88 104 150h-7v74q-73 -87 -184 -87q-117 0 -193 82t-76 204q0 121 76 200t193 79q111 0 184 -88v75h106v-539q-47 -20 -77 -54.5t-30 -67.5q0 -21 12.5 -34t32.5 -13q16 0 42 12zM323 88q75 0 125 53
q49 52 49 129q0 76 -49 128q-50 53 -125 53q-77 0 -125 -53q-48 -52 -48 -129t48 -129t125 -52z" />
    <glyph glyph-name="Cacute" unicode="&#x106;" horiz-adv-x="773" 
d="M482 793h-98l61 173h132zM424 -11q-161 0 -270 106q-110 107 -110 272q0 168 112 276q112 109 271 109q99 0 185 -44q85 -43 133 -115l-82 -74q-91 121 -233 121q-112 0 -190 -78q-77 -79 -77 -195q0 -117 76 -192q77 -75 190 -75q147 0 238 120l82 -72
q-53 -73 -139 -116t-186 -43z" />
    <glyph glyph-name="cacute" unicode="&#x107;" horiz-adv-x="600" 
d="M372 624h-97l60 170h130zM324 -12q-126 0 -205 79q-80 80 -80 202q0 123 81 203q82 80 208 80q81 0 148.5 -39t99.5 -105l-91 -51q-25 43 -66.5 68.5t-89.5 25.5q-77 0 -128 -52q-51 -53 -51 -130q0 -75 50 -128q49 -52 125 -52q48 0 92 26t65 66l91 -53
q-33 -63 -100.5 -101.5t-148.5 -38.5z" />
    <glyph glyph-name="Ccircumflex" unicode="&#x108;" horiz-adv-x="773" 
d="M349 793h-113l145 171h81l145 -171h-116l-71 90zM424 -11q-161 0 -270 106q-110 107 -110 272q0 168 112 276q112 109 271 109q99 0 185 -44q85 -43 133 -115l-82 -74q-91 121 -233 121q-112 0 -190 -78q-77 -79 -77 -195q0 -117 76 -192q77 -75 190 -75q147 0 238 120
l82 -72q-53 -73 -139 -116t-186 -43z" />
    <glyph glyph-name="ccircumflex" unicode="&#x109;" horiz-adv-x="600" 
d="M253 624h-112l143 168h80l143 -168h-115l-69 89zM324 -12q-126 0 -205 79q-80 80 -80 202q0 123 81 203q82 80 208 80q81 0 148.5 -39t99.5 -105l-91 -51q-25 43 -66.5 68.5t-89.5 25.5q-77 0 -128 -52q-51 -53 -51 -130q0 -75 50 -128q49 -52 125 -52q48 0 92 26t65 66
l91 -53q-33 -63 -100.5 -101.5t-148.5 -38.5z" />
    <glyph glyph-name="Cdotaccent" unicode="&#x10a;" horiz-adv-x="773" 
d="M423 797q-32 0 -54 21.5t-22 53.5q0 31 22 52t54 21q31 0 52 -21t21 -52q0 -32 -21 -53.5t-52 -21.5zM424 -11q-161 0 -270 106q-110 107 -110 272q0 168 112 276q112 109 271 109q99 0 185 -44q85 -43 133 -115l-82 -74q-91 121 -233 121q-112 0 -190 -78
q-77 -79 -77 -195q0 -117 76 -192q77 -75 190 -75q147 0 238 120l82 -72q-53 -73 -139 -116t-186 -43z" />
    <glyph glyph-name="cdotaccent" unicode="&#x10b;" horiz-adv-x="600" 
d="M326 611q-32 0 -54 21.5t-22 53.5q0 31 22 52t54 21q31 0 52 -21t21 -52q0 -32 -21 -53.5t-52 -21.5zM324 -12q-126 0 -205 79q-80 80 -80 202q0 123 81 203q82 80 208 80q81 0 148.5 -39t99.5 -105l-91 -51q-25 43 -66.5 68.5t-89.5 25.5q-77 0 -128 -52
q-51 -53 -51 -130q0 -75 50 -128q49 -52 125 -52q48 0 92 26t65 66l91 -53q-33 -63 -100.5 -101.5t-148.5 -38.5z" />
    <glyph glyph-name="Ccaron" unicode="&#x10c;" horiz-adv-x="773" 
d="M384 794l-143 168h112l70 -89l69 89h115l-143 -168h-80zM424 -11q-161 0 -270 106q-110 107 -110 272q0 168 112 276q112 109 271 109q99 0 185 -44q85 -43 133 -115l-82 -74q-91 121 -233 121q-112 0 -190 -78q-77 -79 -77 -195q0 -117 76 -192q77 -75 190 -75
q147 0 238 120l82 -72q-53 -73 -139 -116t-186 -43z" />
    <glyph glyph-name="ccaron" unicode="&#x10d;" horiz-adv-x="600" 
d="M285 624l-143 168h112l70 -89l69 89h115l-143 -168h-80zM324 -12q-126 0 -205 79q-80 80 -80 202q0 123 81 203q82 80 208 80q81 0 148.5 -39t99.5 -105l-91 -51q-25 43 -66.5 68.5t-89.5 25.5q-77 0 -128 -52q-51 -53 -51 -130q0 -75 50 -128q49 -52 125 -52q48 0 92 26
t65 66l91 -53q-33 -63 -100.5 -101.5t-148.5 -38.5z" />
    <glyph glyph-name="Dcaron" unicode="&#x10e;" horiz-adv-x="762" 
d="M308 794l-143 168h112l70 -89l69 89h115l-143 -168h-80zM360 0h-270v739h279q161 0 252 -100q93 -100 93 -271q0 -169 -95 -269q-95 -99 -259 -99zM205 629v-519h160q108 0 168 73q61 73 61 188q0 112 -61 185q-60 73 -167 73h-161z" />
    <glyph glyph-name="dcaron" unicode="&#x10f;" horiz-adv-x="702" 
d="M639 624l58 171h120l-85 -171h-93zM488 464v294h111v-758h-109v75q-70 -88 -181 -88q-117 0 -193 81q-77 83 -77 202q0 118 77 200q76 82 192 82q107 0 180 -88zM496 270q0 76 -48 128q-48 53 -125 53t-125 -53q-48 -52 -48 -128q0 -78 48 -130t125 -52t125 52t48 130z
" />
    <glyph glyph-name="Dcroat" unicode="&#x110;" horiz-adv-x="780" 
d="M108 739h279q161 0 252 -100q93 -100 93 -271q0 -169 -95 -269q-95 -99 -259 -99h-270v321h-94v98h94v320zM223 110h160q108 0 168 73q61 73 61 188q0 112 -61 185q-60 73 -167 73h-161v-210h206v-98h-206v-211z" />
    <glyph glyph-name="dslash" unicode="&#x111;" horiz-adv-x="672" 
d="M599 670h80v-76h-80v-594h-109v75q-70 -88 -181 -88q-117 0 -193 81q-77 83 -77 202q0 118 77 200q76 82 192 82q107 0 180 -88v130h-153v76h153v88h111v-88zM496 270q0 76 -48 128q-48 53 -125 53t-125 -53q-48 -52 -48 -128q0 -78 48 -130t125 -52t125 52t48 130z" />
    <glyph glyph-name="Emacron" unicode="&#x112;" 
d="M505 811l-349 -1v98h349v-97zM563 0h-473v739h472v-109h-357v-201h331v-109h-331v-211h358v-109z" />
    <glyph glyph-name="emacron" unicode="&#x113;" horiz-adv-x="616" 
d="M158 734h314v-97l-314 -1v98zM579 280q0 -26 -4 -53h-421q12 -65 57.5 -103t121.5 -38q46 0 96.5 16t86.5 42l46 -81q-101 -75 -233 -75q-142 0 -215.5 83t-73.5 200q0 122 76 201q77 80 199 80q117 0 190 -73q74 -74 74 -199zM315 457q-62 0 -105.5 -38.5t-55.5 -101.5
h314q-7 63 -49.5 101.5t-103.5 38.5z" />
    <glyph glyph-name="Ebreve" unicode="&#x114;" 
d="M152 964h93q2 -45 25.5 -71t62.5 -26q40 0 63.5 26t25.5 71h94q-3 -83 -52.5 -131t-130.5 -48q-80 0 -129 48t-52 131zM563 0h-473v739h472v-109h-357v-201h331v-109h-331v-211h358v-109z" />
    <glyph glyph-name="ebreve" unicode="&#x115;" horiz-adv-x="616" 
d="M141 792h92q2 -45 25 -70t62 -25t62 25t25 70h93q-3 -81 -52 -128.5t-128 -47.5t-127.5 47.5t-51.5 128.5zM579 280q0 -26 -4 -53h-421q12 -65 57.5 -103t121.5 -38q46 0 96.5 16t86.5 42l46 -81q-101 -75 -233 -75q-142 0 -215.5 83t-73.5 200q0 122 76 201
q77 80 199 80q117 0 190 -73q74 -74 74 -199zM315 457q-62 0 -105.5 -38.5t-55.5 -101.5h314q-7 63 -49.5 101.5t-103.5 38.5z" />
    <glyph glyph-name="Edotaccent" unicode="&#x116;" 
d="M330 797q-32 0 -54 21.5t-22 53.5q0 31 22 52t54 21q31 0 52 -21t21 -52q0 -32 -21 -53.5t-52 -21.5zM563 0h-473v739h472v-109h-357v-201h331v-109h-331v-211h358v-109z" />
    <glyph glyph-name="edotaccent" unicode="&#x117;" horiz-adv-x="616" 
d="M322 612q-32 0 -54 21.5t-22 53.5q0 31 22 52t54 21q31 0 52 -21t21 -52q0 -32 -21 -53.5t-52 -21.5zM579 280q0 -26 -4 -53h-421q12 -65 57.5 -103t121.5 -38q46 0 96.5 16t86.5 42l46 -81q-101 -75 -233 -75q-142 0 -215.5 83t-73.5 200q0 122 76 201q77 80 199 80
q117 0 190 -73q74 -74 74 -199zM315 457q-62 0 -105.5 -38.5t-55.5 -101.5h314q-7 63 -49.5 101.5t-103.5 38.5z" />
    <glyph glyph-name="Eogonek" unicode="&#x118;" horiz-adv-x="615" 
d="M543 -157l35 -75q-49 -29 -99 -29q-53 0 -86 31t-33 80q0 88 104 150h-374v739h472v-109h-357v-201h331v-109h-331v-211h358v-109q-47 -20 -77 -54.5t-30 -67.5q0 -21 12.5 -34t32.5 -13q17 0 42 12z" />
    <glyph glyph-name="eogonek" unicode="&#x119;" horiz-adv-x="616" 
d="M579 280q0 -26 -4 -53h-421q12 -65 57.5 -103t121.5 -38q46 0 96.5 16t86.5 42l46 -81q-50 -39 -118 -58q-47 -20 -77 -54.5t-30 -67.5q0 -21 12.5 -34t32.5 -13q16 0 42 12l35 -75q-49 -29 -99 -29q-53 0 -86 31t-33 80q0 75 78 133q-93 1 -158 43.5t-93 104t-28 135.5
q0 122 76 201q77 80 199 80q117 0 190 -73q74 -74 74 -199zM315 457q-62 0 -105.5 -38.5t-55.5 -101.5h314q-7 63 -49.5 101.5t-103.5 38.5z" />
    <glyph glyph-name="Ecaron" unicode="&#x11a;" 
d="M290 794l-143 168h112l70 -89l69 89h115l-143 -168h-80zM563 0h-473v739h472v-109h-357v-201h331v-109h-331v-211h358v-109z" />
    <glyph glyph-name="ecaron" unicode="&#x11b;" horiz-adv-x="616" 
d="M502 792l-143 -168h-80l-143 168h112l70 -89l69 89h115zM579 280q0 -26 -4 -53h-421q12 -65 57.5 -103t121.5 -38q46 0 96.5 16t86.5 42l46 -81q-101 -75 -233 -75q-142 0 -215.5 83t-73.5 200q0 122 76 201q77 80 199 80q117 0 190 -73q74 -74 74 -199zM315 457
q-62 0 -105.5 -38.5t-55.5 -101.5h314q-7 63 -49.5 101.5t-103.5 38.5z" />
    <glyph glyph-name="Gcircumflex" unicode="&#x11c;" horiz-adv-x="811" 
d="M360 795h-113l145 171h81l145 -171h-116l-71 90zM425 -11q-164 0 -273 107q-108 108 -108 273q0 166 112 274q112 109 274 109q91 0 172.5 -35.5t132.5 -95.5l-79 -78q-88 97 -225 97q-115 0 -192 -77t-77 -194t76 -193t190 -76q63 0 123 25.5t102 70.5v132h-233v104h340
v-290q-138 -153 -335 -153z" />
    <glyph glyph-name="gcircumflex" unicode="&#x11d;" horiz-adv-x="670" 
d="M389 623l-69 89l-70 -89h-112l143 168h80l143 -168h-115zM493 470v69h106v-484q0 -130 -80 -207t-212 -77q-134 0 -241 77l48 85q89 -64 191 -64q85 0 135 47.5t50 123.5v39q-71 -80 -181 -80q-118 0 -194 79t-76 198t79 197q79 79 196 79q107 0 179 -82zM323 97
q75 0 124 51q49 50 49 127q0 78 -49 127q-50 50 -124 50q-73 0 -123 -51q-49 -49 -49 -126q0 -78 49 -128q50 -50 123 -50z" />
    <glyph glyph-name="Gbreve" unicode="&#x11e;" horiz-adv-x="811" 
d="M248 966h93q2 -45 25.5 -71t62.5 -26q40 0 63.5 26t25.5 71h94q-3 -83 -52.5 -131t-130.5 -48q-80 0 -129 48t-52 131zM425 -11q-164 0 -273 107q-108 108 -108 273q0 166 112 274q112 109 274 109q91 0 172.5 -35.5t132.5 -95.5l-79 -78q-88 97 -225 97q-115 0 -192 -77
t-77 -194t76 -193t190 -76q63 0 123 25.5t102 70.5v132h-233v104h340v-290q-138 -153 -335 -153z" />
    <glyph glyph-name="gbreve" unicode="&#x11f;" horiz-adv-x="670" 
d="M138 795h92q2 -45 25 -70t62 -25t62 25t25 70h93q-3 -81 -52 -128.5t-128 -47.5t-127.5 47.5t-51.5 128.5zM493 470v69h106v-484q0 -130 -80 -207t-212 -77q-134 0 -241 77l48 85q89 -64 191 -64q85 0 135 47.5t50 123.5v39q-71 -80 -181 -80q-118 0 -194 79t-76 198
t79 197q79 79 196 79q107 0 179 -82zM323 97q75 0 124 51q49 50 49 127q0 78 -49 127q-50 50 -124 50q-73 0 -123 -51q-49 -49 -49 -126q0 -78 49 -128q50 -50 123 -50z" />
    <glyph glyph-name="Gdotaccent" unicode="&#x120;" horiz-adv-x="811" 
d="M432 797q-32 0 -54 21.5t-22 53.5q0 31 22 52t54 21q31 0 52 -21t21 -52q0 -32 -21 -53.5t-52 -21.5zM425 -11q-164 0 -273 107q-108 108 -108 273q0 166 112 274q112 109 274 109q91 0 172.5 -35.5t132.5 -95.5l-79 -78q-88 97 -225 97q-115 0 -192 -77t-77 -194
t76 -193t190 -76q63 0 123 25.5t102 70.5v132h-233v104h340v-290q-138 -153 -335 -153z" />
    <glyph glyph-name="gdotaccent" unicode="&#x121;" horiz-adv-x="670" 
d="M321 614q-32 0 -54 21.5t-22 53.5q0 31 22 52t54 21q31 0 52 -21t21 -52q0 -32 -21 -53.5t-52 -21.5zM493 470v69h106v-484q0 -130 -80 -207t-212 -77q-134 0 -241 77l48 85q89 -64 191 -64q85 0 135 47.5t50 123.5v39q-71 -80 -181 -80q-118 0 -194 79t-76 198t79 197
q79 79 196 79q107 0 179 -82zM323 97q75 0 124 51q49 50 49 127q0 78 -49 127q-50 50 -124 50q-73 0 -123 -51q-49 -49 -49 -126q0 -78 49 -128q50 -50 123 -50z" />
    <glyph glyph-name="Gcommaaccent" unicode="&#x122;" horiz-adv-x="811" 
d="M420 328v104h340v-290q-138 -153 -335 -153q-164 0 -273 107q-108 108 -108 273q0 166 112 274q112 109 274 109q91 0 172.5 -35.5t132.5 -95.5l-79 -78q-88 97 -225 97q-115 0 -192 -77t-77 -194t76 -193t190 -76q63 0 123 25.5t102 70.5v132h-233zM429 -39
q31 0 53 -22.5t22 -57.5q0 -87 -132 -174l-38 50q62 47 81 72q-24 2 -41 20.5t-17 43.5q0 28 21 48t51 20z" />
    <glyph glyph-name="gcommaaccent" unicode="&#x123;" horiz-adv-x="670" 
d="M319 600q-31 0 -52.5 22.5t-21.5 56.5q0 84 131 173l37 -50q-64 -49 -80 -71q24 -2 41 -20t17 -43q0 -28 -21 -48t-51 -20zM493 470v69h106v-484q0 -130 -80 -207t-212 -77q-134 0 -241 77l48 85q89 -64 191 -64q85 0 135 47.5t50 123.5v39q-71 -80 -181 -80
q-118 0 -194 79t-76 198t79 197q79 79 196 79q107 0 179 -82zM323 97q75 0 124 51q49 50 49 127q0 78 -49 127q-50 50 -124 50q-73 0 -123 -51q-49 -49 -49 -126q0 -78 49 -128q50 -50 123 -50z" />
    <glyph glyph-name="Hcircumflex" unicode="&#x124;" horiz-adv-x="762" 
d="M310 793h-113l145 171h81l145 -171h-116l-71 90zM205 0h-115v739h115v-307h352v307h115v-739h-115v321h-352v-321z" />
    <glyph glyph-name="hcircumflex" unicode="&#x125;" horiz-adv-x="626" 
d="M54 795h-113l145 171h81l145 -171h-116l-71 90zM182 0h-110v758h107v-287q24 38 69.5 60t101.5 22q89 0 150 -58t61 -167v-328h-110v297q0 73 -35 113.5t-94 40.5q-62 0 -101 -43t-39 -112v-296z" />
    <glyph glyph-name="Hbar" unicode="&#x126;" horiz-adv-x="797" 
d="M682 624h90v-88h-90v-536h-115v321h-352v-321h-115v536h-89v88h89v115h115v-115h352v115h115v-115zM215 432h352v104h-352v-104z" />
    <glyph glyph-name="hbar" unicode="&#x127;" horiz-adv-x="626" 
d="M350 553q89 0 150 -58t61 -167v-328h-110v297q0 73 -35 113.5t-94 40.5q-62 0 -101 -43t-39 -112v-296h-110v594h-65v76h65v88h107v-88h172v-76h-172v-123q24 38 69.5 60t101.5 22z" />
    <glyph glyph-name="Itilde" unicode="&#x128;" horiz-adv-x="295" 
d="M23 812l-72 35q36 103 129 103q32 0 76 -23q43 -22 62 -22q36 0 59 47l70 -34q-16 -48 -49 -75.5t-75 -27.5q-31 0 -75 23t-63 23q-38 0 -62 -49zM92 0v739h115v-739h-115z" />
    <glyph glyph-name="itilde" unicode="&#x129;" horiz-adv-x="253" 
d="M2 627l-71 34q35 102 127 102q32 0 75 -22t62 -22q37 0 58 46l70 -33q-16 -48 -48.5 -75t-74.5 -27q-31 0 -74 22q-44 23 -63 23q-37 0 -61 -48zM182 539v-539h-110v539h110z" />
    <glyph glyph-name="Imacron" unicode="&#x12a;" horiz-adv-x="295" 
d="M325 826l-349 -1v98h349v-97zM92 0v739h115v-739h-115z" />
    <glyph glyph-name="imacron" unicode="&#x12b;" horiz-adv-x="253" 
d="M285 637l-314 -1v98h314v-97zM182 539v-539h-110v539h110z" />
    <glyph glyph-name="Ibreve" unicode="&#x12c;" horiz-adv-x="295" 
d="M-32 968h93q2 -45 25.5 -71t62.5 -26q40 0 63.5 26t25.5 71h94q-3 -83 -52.5 -131t-130.5 -48q-80 0 -129 48t-52 131zM92 0v739h115v-739h-115z" />
    <glyph glyph-name="ibreve" unicode="&#x12d;" horiz-adv-x="253" 
d="M-51 793h92q2 -45 25 -70t62 -25t62 25t25 70h93q-3 -81 -52 -128.5t-128 -47.5t-127.5 47.5t-51.5 128.5zM182 539v-539h-110v539h110z" />
    <glyph glyph-name="Iogonek" unicode="&#x12e;" horiz-adv-x="295" 
d="M187 -157l35 -75q-49 -29 -99 -29q-53 0 -86 31t-33 80q0 88 104 150h-16v739h115v-739q-47 -20 -77 -54.5t-30 -67.5q0 -21 12.5 -34t32.5 -13q17 0 42 12z" />
    <glyph glyph-name="iogonek" unicode="&#x12f;" horiz-adv-x="253" 
d="M129 610q-32 0 -54 21.5t-22 53.5q0 31 22 52t54 21q31 0 52 -21t21 -52q0 -32 -21 -53.5t-52 -21.5zM121 -169q17 0 42 12l35 -75q-49 -29 -99 -29q-53 0 -86 31t-33 80q0 88 104 150h-12v539h110v-539h1q-47 -20 -77 -54.5t-30 -67.5q0 -21 12.5 -34t32.5 -13z" />
    <glyph glyph-name="Idot" unicode="&#x130;" horiz-adv-x="295" 
d="M153 795q-32 0 -54 21.5t-22 53.5q0 31 22 52t54 21q31 0 52 -21t21 -52q0 -32 -21 -53.5t-52 -21.5zM95 0v739h115v-739h-115z" />
    <glyph glyph-name="dotlessi" unicode="&#x131;" horiz-adv-x="253" 
d="M181 539v-539h-110v539h110z" />
    <glyph glyph-name="IJ" unicode="&#x132;" horiz-adv-x="857" 
d="M90 0v739h115v-739h-115zM519 -12q-133 0 -218 94l65 86q60 -70 149 -70q66 0 105 42.5t39 116.5v482h116v-487q0 -128 -72 -196q-71 -68 -184 -68z" />
    <glyph glyph-name="ij" unicode="&#x133;" horiz-adv-x="535" 
d="M129 610q-32 0 -54 21.5t-22 53.5q0 31 22 52t54 21q31 0 52 -21t21 -52q0 -32 -21 -53.5t-52 -21.5zM399 610q-32 0 -54 21.5t-22 53.5q0 31 22 52t54 21q31 0 52 -21t21 -52q0 -32 -21 -53.5t-52 -21.5zM182 539v-539h-110v539h110zM266 -230q-68 0 -105 24l22 90
q42 -14 68 -14q92 0 92 109v560h110v-558q0 -103 -49.5 -157t-137.5 -54z" />
    <glyph glyph-name="Jcircumflex" unicode="&#x134;" horiz-adv-x="565" 
d="M354 793h-113l145 171h81l145 -171h-116l-71 90zM228 -12q-133 0 -218 94l65 86q60 -70 149 -70q66 0 105 42.5t39 116.5v482h116v-487q0 -128 -72 -196q-71 -68 -184 -68z" />
    <glyph glyph-name="jcircumflex" unicode="&#x135;" horiz-adv-x="277" 
d="M78 622h-112l143 168h80l143 -168h-115l-69 89zM18 -230q-68 0 -105 24l22 90q42 -14 68 -14q92 0 92 109v560h110v-558q0 -103 -49.5 -157t-137.5 -54z" />
    <glyph glyph-name="Kcommaaccent" unicode="&#x136;" horiz-adv-x="675" 
d="M663 739l-285 -344l309 -395h-142l-242 314l-98 -117v-197h-115v739h115v-385l320 385h138zM368 -34q31 0 53 -22.5t22 -57.5q0 -87 -132 -174l-38 50q61 46 81 72q-24 2 -41 20.5t-17 43.5q0 28 21 48t51 20z" />
    <glyph glyph-name="kcommaaccent" unicode="&#x137;" horiz-adv-x="557" 
d="M553 539l-248 -224l259 -315h-142l-194 245l-47 -43v-202h-110v758h110v-427l227 208h145zM294 -17q31 0 52.5 -22.5t21.5 -56.5q0 -84 -131 -173l-37 50q64 49 80 71q-24 2 -41 20t-17 43q0 28 21 48t51 20z" />
    <glyph glyph-name="kgreenlandic" unicode="&#x138;" horiz-adv-x="552" 
d="M556 0h-137l-191 241l-48 -45v-196h-109v539h109v-213l228 213h143l-245 -227z" />
    <glyph glyph-name="Lacute" unicode="&#x139;" horiz-adv-x="609" 
d="M197 793h-98l61 173h132zM595 0h-505v739h115v-628h390v-111z" />
    <glyph glyph-name="lacute" unicode="&#x13a;" horiz-adv-x="250" 
d="M175 796h-98l61 173h132zM181 758v-758h-110v758h110z" />
    <glyph glyph-name="Lcommaaccent" unicode="&#x13b;" horiz-adv-x="609" 
d="M205 739v-628h390v-111h-505v739h115zM350 -35q31 0 53 -22.5t22 -57.5q0 -87 -132 -174l-38 50q61 47 81 72q-24 2 -41 20.5t-17 43.5q0 28 21 48t51 20z" />
    <glyph glyph-name="lcommaaccent" unicode="&#x13c;" horiz-adv-x="252" 
d="M73 758h110v-758h-110v758zM126 -40q31 0 52.5 -22.5t21.5 -56.5q0 -84 -131 -173l-37 50q64 49 80 71q-24 2 -41 20t-17 43q0 28 21 48t51 20z" />
    <glyph glyph-name="Lcaron" unicode="&#x13d;" horiz-adv-x="614" 
d="M498 622h-93l58 171h120zM595 0h-505v739h115v-628h390v-111z" />
    <glyph glyph-name="lcaron" unicode="&#x13e;" horiz-adv-x="280" 
d="M307 623h-93l58 171h120zM181 758v-758h-110v758h110z" />
    <glyph glyph-name="Ldot" unicode="&#x13f;" horiz-adv-x="611" 
d="M595 0h-505v739h115v-628h390v-111zM453 327q-30 0 -50.5 20t-20.5 50q0 29 20.5 49t50.5 20q29 0 49 -20t20 -49q0 -30 -20 -50t-49 -20z" />
    <glyph glyph-name="ldot" unicode="&#x140;" horiz-adv-x="375" 
d="M181 758v-758h-110v758h110zM314 294q-30 0 -50.5 20t-20.5 50q0 29 20.5 49t50.5 20q29 0 49 -20t20 -49q0 -30 -20 -50t-49 -20z" />
    <glyph glyph-name="Lslash" unicode="&#x141;" horiz-adv-x="619" 
d="M215 354v-243h390v-111h-505v279l-72 -47v109l72 47v351h115v-276l113 74v-110z" />
    <glyph glyph-name="lslash" unicode="&#x142;" horiz-adv-x="317" 
d="M212 475l69 51v-109l-69 -51v-366h-110v286l-61 -45v109l61 45v363h110v-283z" />
    <glyph glyph-name="Nacute" unicode="&#x143;" horiz-adv-x="785" 
d="M432 793h-98l61 173h132zM581 234v505h114v-739h-68l-423 501v-501h-114v739h60z" />
    <glyph glyph-name="nacute" unicode="&#x144;" horiz-adv-x="626" 
d="M358 624h-97l60 170h130zM181 0h-110v539h108v-76q24 42 69 66t102 24q89 0 150 -58q62 -59 62 -167v-328h-111v297q0 73 -35 113.5t-94 40.5q-62 0 -101.5 -43.5t-39.5 -112.5v-295z" />
    <glyph glyph-name="Ncommaaccent" unicode="&#x145;" horiz-adv-x="785" 
d="M581 234v505h114v-739h-68l-423 501v-501h-114v739h60zM404 -25q31 0 53 -22.5t22 -57.5q0 -87 -132 -174l-38 50q61 47 81 72q-24 2 -41 20.5t-17 43.5q0 28 21 48t51 20z" />
    <glyph glyph-name="ncommaaccent" unicode="&#x146;" horiz-adv-x="626" 
d="M350 553q89 0 150 -58q62 -59 62 -167v-328h-111v297q0 73 -35 113.5t-94 40.5q-62 0 -101.5 -43.5t-39.5 -112.5v-295h-110v539h108v-76q24 42 69 66t102 24zM323 -28q31 0 52.5 -22.5t21.5 -56.5q0 -84 -131 -173l-37 50q64 49 80 71q-24 2 -41 20t-17 43q0 28 21 48
t51 20z" />
    <glyph glyph-name="Ncaron" unicode="&#x147;" horiz-adv-x="785" 
d="M361 794l-143 168h112l70 -89l69 89h115l-143 -168h-80zM581 234v505h114v-739h-68l-423 501v-501h-114v739h60z" />
    <glyph glyph-name="ncaron" unicode="&#x148;" horiz-adv-x="626" 
d="M280 623l-143 168h112l70 -89l69 89h115l-143 -168h-80zM181 0h-110v539h108v-76q24 42 69 66t102 24q89 0 150 -58q62 -59 62 -167v-328h-111v297q0 73 -35 113.5t-94 40.5q-62 0 -101.5 -43.5t-39.5 -112.5v-295z" />
    <glyph glyph-name="napostrophe" unicode="&#x149;" horiz-adv-x="662" 
d="M62 622h-93l58 171h120zM217 0h-110v539h108v-76q24 42 69 66t102 24q89 0 150 -58q62 -59 62 -167v-328h-111v297q0 73 -35 113.5t-94 40.5q-62 0 -101.5 -43.5t-39.5 -112.5v-295z" />
    <glyph glyph-name="Eng" unicode="&#x14a;" horiz-adv-x="785" 
d="M581 222v517h114v-725q0 -127 -71 -196q-70 -69 -180 -69q-79 0 -147 40l38 100q49 -30 106 -30q62 0 101 40.5t39 113.5v32l-377 457v-502h-114v739h60z" />
    <glyph glyph-name="eng" unicode="&#x14b;" horiz-adv-x="625" 
d="M332 -226l3 99q116 -9 116 106v326q0 69 -34.5 107.5t-92.5 38.5q-63 0 -103 -43.5t-40 -112.5v-295h-110v539h107v-70q24 39 69.5 61.5t101.5 22.5q88 0 150 -59t62 -167v-348q0 -112 -61 -165t-168 -40z" />
    <glyph glyph-name="Omacron" unicode="&#x14c;" horiz-adv-x="853" 
d="M600 811l-349 -1v98h349v-97zM423 -12q-162 0 -271 109t-109 269q0 161 112 273q113 113 271 113q160 0 272 -112t112 -271t-112 -270t-275 -111zM426 101q111 0 187 76q77 77 77 191q0 116 -77 193t-187 77q-111 0 -187 -78q-76 -76 -76 -192q0 -114 75 -190
q77 -77 188 -77z" />
    <glyph glyph-name="omacron" unicode="&#x14d;" horiz-adv-x="648" 
d="M482 637l-314 -1v98h314v-97zM39 270q0 117 80 200q81 83 205 83t204 -83q81 -82 81 -200q0 -120 -81 -202q-79 -82 -204 -82q-124 0 -205 82q-80 83 -80 202zM498 270q0 74 -51 127q-49 54 -123 54q-73 0 -124 -54q-50 -53 -50 -127q0 -75 50 -128q51 -53 124 -53
t123 53q51 53 51 128z" />
    <glyph glyph-name="Obreve" unicode="&#x14e;" horiz-adv-x="853" 
d="M249 964h93q2 -45 25.5 -71t62.5 -26q40 0 63.5 26t25.5 71h94q-3 -83 -52.5 -131t-130.5 -48q-80 0 -129 48t-52 131zM423 -12q-162 0 -271 109t-109 269q0 161 112 273q113 113 271 113q160 0 272 -112t112 -271t-112 -270t-275 -111zM426 101q111 0 187 76
q77 77 77 191q0 116 -77 193t-187 77q-111 0 -187 -78q-76 -76 -76 -192q0 -114 75 -190q77 -77 188 -77z" />
    <glyph glyph-name="obreve" unicode="&#x14f;" horiz-adv-x="648" 
d="M146 793h92q2 -45 25 -70t62 -25t62 25t25 70h93q-3 -81 -52 -128.5t-128 -47.5t-127.5 47.5t-51.5 128.5zM39 270q0 117 80 200q81 83 205 83t204 -83q81 -82 81 -200q0 -120 -81 -202q-79 -82 -204 -82q-124 0 -205 82q-80 83 -80 202zM498 270q0 74 -51 127
q-49 54 -123 54q-73 0 -124 -54q-50 -53 -50 -127q0 -75 50 -128q51 -53 124 -53t123 53q51 53 51 128z" />
    <glyph glyph-name="Ohungarumlaut" unicode="&#x150;" horiz-adv-x="853" 
d="M383 795h-93l42 173h131zM571 795h-94l51 173h132zM423 -12q-162 0 -271 109t-109 269q0 161 112 273q113 113 271 113q160 0 272 -112t112 -271t-112 -270t-275 -111zM426 101q111 0 187 76q77 77 77 191q0 116 -77 193t-187 77q-111 0 -187 -78q-76 -76 -76 -192
q0 -114 75 -190q77 -77 188 -77z" />
    <glyph glyph-name="ohungarumlaut" unicode="&#x151;" horiz-adv-x="648" 
d="M280 623h-92l42 170h128zM465 623h-93l50 170h130zM39 270q0 117 80 200q81 83 205 83t204 -83q81 -82 81 -200q0 -120 -81 -202q-79 -82 -204 -82q-124 0 -205 82q-80 83 -80 202zM498 270q0 74 -51 127q-49 54 -123 54q-73 0 -124 -54q-50 -53 -50 -127q0 -75 50 -128
q51 -53 124 -53t123 53q51 53 51 128z" />
    <glyph glyph-name="OE" unicode="&#x152;" horiz-adv-x="996" 
d="M583 320v-211h358v-109h-468q-48 -2 -52 -2q-188 0 -281 101q-92 101 -92 269q0 170 91 271q92 102 274 102q5 0 51 -2h476v-109h-357v-201h331v-109h-331zM168 370q0 -114 60 -188q62 -74 194 -74q4 0 46 2v519q-42 2 -46 2q-69 0 -120 -21.5t-79 -59t-41.5 -82.5
t-13.5 -98z" />
    <glyph glyph-name="oe" unicode="&#x153;" horiz-adv-x="1071" 
d="M1034 280q0 -26 -4 -53h-421q12 -65 57.5 -103t121.5 -38q46 0 96.5 16t86.5 42l46 -81q-101 -75 -233 -75q-159 0 -235 106q-39 -51 -98 -79t-128 -28q-125 0 -204 82q-80 83 -80 201q0 117 80 200q79 82 204 82q142 0 226 -107q77 107 221 107q117 0 190 -73
q74 -74 74 -199zM770 457q-62 0 -105.5 -38.5t-55.5 -101.5h314q-7 63 -49.5 101.5t-103.5 38.5zM323 90q67 0 117 47q51 49 55 118v16v15q-4 69 -55 116q-50 47 -117 47q-72 0 -123 -53q-50 -53 -50 -126q0 -75 50 -128q51 -52 123 -52z" />
    <glyph glyph-name="Racute" unicode="&#x154;" horiz-adv-x="652" 
d="M308 966h132l-95 -173h-98zM622 0h-139l-180 290h-98v-290h-115v739h261q115 0 177 -66q62 -67 62 -159q0 -75 -43.5 -133.5t-121.5 -79.5zM351 630h-146v-233h128q67 0 102.5 32.5t35.5 85.5q0 50 -32 82.5t-88 32.5z" />
    <glyph glyph-name="racute" unicode="&#x155;" horiz-adv-x="408" 
d="M272 624h-97l60 170h130zM181 0h-110v539h105v-77q48 91 153 91q34 0 64 -9l-10 -107q-27 10 -59 10q-65 0 -104 -44t-39 -127v-276z" />
    <glyph glyph-name="Rcommaaccent" unicode="&#x156;" horiz-adv-x="652" 
d="M425 301l197 -301h-139l-180 290h-98v-290h-115v739h261q115 0 177 -66q62 -67 62 -159q0 -75 -43.5 -133.5t-121.5 -79.5zM351 630h-146v-233h128q67 0 102.5 32.5t35.5 85.5q0 50 -32 82.5t-88 32.5zM339 -27q31 0 53 -22.5t22 -57.5q0 -87 -132 -174l-38 50
q62 47 81 72q-24 2 -41 20.5t-17 43.5q0 28 21 48t51 20z" />
    <glyph glyph-name="rcommaaccent" unicode="&#x157;" horiz-adv-x="410" 
d="M330 553q34 0 64 -9l-10 -107q-27 10 -59 10q-65 0 -104 -44t-39 -127v-276h-110v539h105v-77q48 91 153 91zM127 -38q31 0 52.5 -22.5t21.5 -56.5q0 -84 -131 -173l-37 50q64 49 80 71q-24 2 -41 20t-17 43q0 28 21 48t51 20z" />
    <glyph glyph-name="Rcaron" unicode="&#x158;" horiz-adv-x="652" 
d="M496 962l-143 -168h-80l-143 168h112l70 -89l69 89h115zM622 0h-139l-180 290h-98v-290h-115v739h261q115 0 177 -66q62 -67 62 -159q0 -75 -43.5 -133.5t-121.5 -79.5zM351 630h-146v-233h128q67 0 102.5 32.5t35.5 85.5q0 50 -32 82.5t-88 32.5z" />
    <glyph glyph-name="rcaron" unicode="&#x159;" horiz-adv-x="408" 
d="M190 624l-143 168h112l70 -89l69 89h115l-143 -168h-80zM182 0h-110v539h105v-77q48 91 153 91q34 0 64 -9l-10 -107q-27 10 -59 10q-65 0 -104 -44t-39 -127v-276z" />
    <glyph glyph-name="Sacute" unicode="&#x15a;" horiz-adv-x="574" 
d="M332 793h-98l61 173h132zM285 -12q-82 0 -152 38.5t-109 108.5l78 75q30 -55 78.5 -84t104.5 -29t91 29t35 72q0 56 -73 95q-18 9 -75 33q-60 28 -85 42q-112 67 -112 179q0 88 64 146q65 59 168 59q140 0 225 -106l-71 -79q-61 76 -153 76q-49 0 -79.5 -24.5
t-30.5 -65.5q0 -53 62 -88q33 -18 83 -41q58 -25 91 -44q113 -62 113 -176q0 -94 -71 -156q-71 -60 -182 -60z" />
    <glyph glyph-name="sacute" unicode="&#x15b;" horiz-adv-x="465" 
d="M284 624h-97l60 170h130zM231 -13q-64 0 -119 29t-88 84l71 64q24 -39 61.5 -60.5t76.5 -21.5t64 19.5t25 47.5q0 40 -46 62q-12 7 -65 27q-54 23 -68 31q-86 45 -86 133q0 67 50 111q52 44 134 44q115 0 177 -83l-64 -68q-48 59 -118 59q-33 0 -52.5 -17t-19.5 -42
q0 -40 45 -59l55 -23q53 -22 76 -34q92 -48 92 -136q0 -71 -56 -119t-145 -48z" />
    <glyph glyph-name="Scircumflex" unicode="&#x15c;" horiz-adv-x="574" 
d="M231 792h-113l145 171h81l145 -171h-116l-71 90zM285 -12q-82 0 -152 38.5t-109 108.5l78 75q30 -55 78.5 -84t104.5 -29t91 29t35 72q0 56 -73 95q-18 9 -75 33q-60 28 -85 42q-112 67 -112 179q0 88 64 146q65 59 168 59q140 0 225 -106l-71 -79q-61 76 -153 76
q-49 0 -79.5 -24.5t-30.5 -65.5q0 -53 62 -88q33 -18 83 -41q58 -25 91 -44q113 -62 113 -176q0 -94 -71 -156q-71 -60 -182 -60z" />
    <glyph glyph-name="scircumflex" unicode="&#x15d;" horiz-adv-x="464" 
d="M168 624h-112l143 168h80l143 -168h-115l-69 89zM231 -13q-64 0 -119 29t-88 84l71 64q24 -39 61.5 -60.5t76.5 -21.5t64 19.5t25 47.5q0 40 -46 62q-12 7 -65 27q-54 23 -68 31q-86 45 -86 133q0 67 50 111q52 44 134 44q115 0 177 -83l-64 -68q-48 59 -118 59
q-33 0 -52.5 -17t-19.5 -42q0 -40 45 -59l55 -23q53 -22 76 -34q92 -48 92 -136q0 -71 -56 -119t-145 -48z" />
    <glyph glyph-name="Scedilla" unicode="&#x15e;" horiz-adv-x="574" 
d="M538 204q0 -88 -61 -146q-59 -57 -157 -68l-15 -38h3q46 0 76 -25.5t30 -69.5q0 -48 -36 -80.5t-99 -32.5q-53 0 -117 29l27 69q43 -21 81 -21q26 0 41 11.5t15 30.5q0 36 -53 36h-56l-8 23l28 70q-68 9 -124 46t-89 97l78 75q30 -55 78.5 -84t104.5 -29t91 29t35 72
q0 56 -73 95q-18 9 -75 33q-60 28 -85 42q-112 67 -112 179q0 88 64 146q65 59 168 59q140 0 225 -106l-71 -79q-61 76 -153 76q-49 0 -79.5 -24.5t-30.5 -65.5q0 -53 62 -88q33 -18 83 -41q58 -25 91 -44q113 -62 113 -176z" />
    <glyph glyph-name="scedilla" unicode="&#x15f;" horiz-adv-x="465" 
d="M432 154q0 -67 -48.5 -113t-128.5 -53l-14 -35h3q46 0 76 -25.5t30 -69.5q0 -48 -36 -80.5t-99 -32.5q-53 0 -117 29l27 69q43 -21 81 -21q26 0 41 11.5t15 30.5q0 36 -53 36h-56l-8 23l28 70q-99 24 -149 107l71 64q24 -39 61.5 -60.5t76.5 -21.5t64 19.5t25 47.5
q0 40 -46 62q-12 7 -65 27q-54 23 -68 31q-86 45 -86 133q0 67 50 111q52 44 134 44q115 0 177 -83l-64 -68q-48 59 -118 59q-33 0 -52.5 -17t-19.5 -42q0 -40 45 -59l55 -23q53 -22 76 -34q92 -48 92 -136z" />
    <glyph glyph-name="Scaron" unicode="&#x160;" horiz-adv-x="574" 
d="M267 794l-143 168h112l70 -89l69 89h115l-143 -168h-80zM285 -12q-82 0 -152 38.5t-109 108.5l78 75q30 -55 78.5 -84t104.5 -29t91 29t35 72q0 56 -73 95q-18 9 -75 33q-60 28 -85 42q-112 67 -112 179q0 88 64 146q65 59 168 59q140 0 225 -106l-71 -79q-61 76 -153 76
q-49 0 -79.5 -24.5t-30.5 -65.5q0 -53 62 -88q33 -18 83 -41q58 -25 91 -44q113 -62 113 -176q0 -94 -71 -156q-71 -60 -182 -60z" />
    <glyph glyph-name="scaron" unicode="&#x161;" horiz-adv-x="464" 
d="M200 623l-143 168h112l70 -89l69 89h115l-143 -168h-80zM231 -13q-64 0 -119 29t-88 84l71 64q24 -39 61.5 -60.5t76.5 -21.5t64 19.5t25 47.5q0 40 -46 62q-12 7 -65 27q-54 23 -68 31q-86 45 -86 133q0 67 50 111q52 44 134 44q115 0 177 -83l-64 -68q-48 59 -118 59
q-33 0 -52.5 -17t-19.5 -42q0 -40 45 -59l55 -23q53 -22 76 -34q92 -48 92 -136q0 -71 -56 -119t-145 -48z" />
    <glyph glyph-name="Tcaron" unicode="&#x164;" horiz-adv-x="577" 
d="M250 794l-143 168h112l70 -89l69 89h115l-143 -168h-80zM230 0v627h-216v112h549v-112h-216v-627h-117z" />
    <glyph glyph-name="tcaron" unicode="&#x165;" horiz-adv-x="438" 
d="M378 794h120l-85 -171h-93zM302 88q44 0 95 30l38 -86q-60 -45 -149 -45q-87 0 -132 53t-45 153v252h-93v94h94v191h109v-191h186v-94h-186v-254q0 -103 83 -103z" />
    <glyph glyph-name="Tbar" unicode="&#x166;" horiz-adv-x="603" 
d="M576 739v-112h-216v-193h150v-98h-150v-336h-117v336h-148v98h148v193h-216v112h549z" />
    <glyph glyph-name="tbar" unicode="&#x167;" horiz-adv-x="445" 
d="M402 118l38 -86q-60 -45 -149 -45q-87 0 -132 53t-45 153v70h-91v86h91v96h-93v94h94v191h109v-191h186v-94h-186v-96h184v-86h-184v-72q0 -103 83 -103q44 0 95 30z" />
    <glyph glyph-name="Utilde" unicode="&#x168;" horiz-adv-x="712" 
d="M233 798l-72 35q36 103 129 103q32 0 76 -23q43 -22 62 -22q36 0 59 47l70 -34q-16 -48 -49 -75.5t-75 -27.5q-31 0 -75 23t-63 23q-38 0 -62 -49zM356 -13q-121 0 -198 71q-76 70 -76 198v483h115v-468q0 -83 41.5 -127t117.5 -44q74 0 116 45t42 126v468h116v-483
q0 -129 -76 -199t-198 -70z" />
    <glyph glyph-name="utilde" unicode="&#x169;" horiz-adv-x="601" 
d="M176 624l-71 34q35 102 127 102q32 0 75 -22t62 -22q37 0 58 46l70 -33q-16 -48 -48.5 -75t-74.5 -27q-31 0 -74 22q-44 23 -63 23q-37 0 -61 -48zM300 -13q-108 0 -172 63t-64 171v318h110v-317q0 -61 33.5 -97t92.5 -36q60 0 93 35t33 98v317h111v-318q0 -110 -63 -172
t-174 -62z" />
    <glyph glyph-name="Umacron" unicode="&#x16a;" horiz-adv-x="712" 
d="M530 812l-349 -1v98h349v-97zM356 -13q-121 0 -198 71q-76 70 -76 198v483h115v-468q0 -83 41.5 -127t117.5 -44q74 0 116 45t42 126v468h116v-483q0 -129 -76 -199t-198 -70z" />
    <glyph glyph-name="umacron" unicode="&#x16b;" horiz-adv-x="601" 
d="M458 637l-314 -1v98h314v-97zM300 -13q-108 0 -172 63t-64 171v318h110v-317q0 -61 33.5 -97t92.5 -36q60 0 93 35t33 98v317h111v-318q0 -110 -63 -172t-174 -62z" />
    <glyph glyph-name="Ubreve" unicode="&#x16c;" horiz-adv-x="712" 
d="M175 964h93q2 -45 25.5 -71t62.5 -26q40 0 63.5 26t25.5 71h94q-3 -83 -52.5 -131t-130.5 -48q-80 0 -129 48t-52 131zM356 -13q-121 0 -198 71q-76 70 -76 198v483h115v-468q0 -83 41.5 -127t117.5 -44q74 0 116 45t42 126v468h116v-483q0 -129 -76 -199t-198 -70z" />
    <glyph glyph-name="ubreve" unicode="&#x16d;" horiz-adv-x="601" 
d="M122 793h92q2 -45 25 -70t62 -25t62 25t25 70h93q-3 -81 -52 -128.5t-128 -47.5t-127.5 47.5t-51.5 128.5zM300 -13q-108 0 -172 63t-64 171v318h110v-317q0 -61 33.5 -97t92.5 -36q60 0 93 35t33 98v317h111v-318q0 -110 -63 -172t-174 -62z" />
    <glyph glyph-name="Uring" unicode="&#x16e;" horiz-adv-x="712" 
d="M444 814q-34 -34 -87 -34t-88 34q-36 34 -36 84t36 85q37 35 88 35q52 0 87 -35q36 -35 36 -85t-36 -84zM357 845q21 0 37 16t16 39q0 22 -16 37.5t-37 15.5q-23 0 -39 -15.5t-16 -37.5q0 -23 16 -39t39 -16zM356 -13q-121 0 -198 71q-76 70 -76 198v483h115v-468
q0 -83 41.5 -127t117.5 -44q74 0 116 45t42 126v468h116v-483q0 -129 -76 -199t-198 -70z" />
    <glyph glyph-name="uring" unicode="&#x16f;" horiz-adv-x="601" 
d="M387 626q-35 -33 -86 -33t-87 33q-35 35 -35 83t35 83q37 35 87 35q51 0 86 -35q36 -35 36 -83q0 -49 -36 -83zM301 657q21 0 37 15.5t16 38.5q0 21 -16 36.5t-37 15.5q-23 0 -38.5 -15t-15.5 -37q0 -23 15.5 -38.5t38.5 -15.5zM300 -13q-108 0 -172 63t-64 171v318h110
v-317q0 -61 33.5 -97t92.5 -36q60 0 93 35t33 98v317h111v-318q0 -110 -63 -172t-174 -62z" />
    <glyph glyph-name="Uhungarumlaut" unicode="&#x170;" horiz-adv-x="712" 
d="M306 795h-93l42 173h131zM494 795h-94l51 173h132zM356 -13q-121 0 -198 71q-76 70 -76 198v483h115v-468q0 -83 41.5 -127t117.5 -44q74 0 116 45t42 126v468h116v-483q0 -129 -76 -199t-198 -70z" />
    <glyph glyph-name="uhungarumlaut" unicode="&#x171;" horiz-adv-x="599" 
d="M247 623h-92l42 170h128zM432 623h-93l50 170h130zM300 -13q-108 0 -172 63t-64 171v318h110v-317q0 -61 33.5 -97t92.5 -36q60 0 93 35t33 98v317h111v-318q0 -110 -63 -172t-174 -62z" />
    <glyph glyph-name="Uogonek" unicode="&#x172;" horiz-adv-x="712" 
d="M514 271v468h116v-483q0 -95 -44.5 -160t-122.5 -92q-45 -21 -73.5 -54.5t-28.5 -65.5q0 -21 12.5 -34t32.5 -13q16 0 42 12l35 -75q-49 -29 -99 -29q-53 0 -86 31t-33 80q0 74 76 131q-115 4 -187 75t-72 194v483h115v-468q0 -83 41.5 -127t117.5 -44q74 0 116 45
t42 126z" />
    <glyph glyph-name="uogonek" unicode="&#x173;" horiz-adv-x="601" 
d="M426 222v317h111v-318q0 -83 -37 -140t-106 -80q-47 -20 -77 -54.5t-30 -67.5q0 -21 12.5 -34t32.5 -13q16 0 42 12l35 -75q-49 -29 -99 -29q-53 0 -86 31t-33 80q0 79 84 137q-99 8 -155 69.5t-56 163.5v318h110v-317q0 -61 33.5 -97t92.5 -36q60 0 93 35t33 98z" />
    <glyph glyph-name="Wcircumflex" unicode="&#x174;" horiz-adv-x="1041" 
d="M449 793h-113l145 171h81l145 -171h-116l-71 90zM339 0h-79l-251 739h124l169 -527l187 527h61l191 -527l166 527h124l-250 -739h-77l-183 530z" />
    <glyph glyph-name="wcircumflex" unicode="&#x175;" horiz-adv-x="852" 
d="M356 623h-112l143 168h80l143 -168h-115l-69 89zM288 1h-94l-184 538h116l121 -387l139 387h78l143 -387l117 387h116l-181 -538h-94l-140 382z" />
    <glyph glyph-name="Ycircumflex" unicode="&#x176;" horiz-adv-x="652" 
d="M253 793h-113l145 171h81l145 -171h-116l-71 90zM507 739h130l-254 -476v-263h-115v263l-251 476h130l179 -358z" />
    <glyph glyph-name="ycircumflex" unicode="&#x177;" horiz-adv-x="569" 
d="M360 621l-69 89l-70 -89h-112l143 168h80l143 -168h-115zM297 150l138 389h121l-223 -588q-36 -95 -84 -137.5t-117 -42.5q-57 0 -92 23l16 95q39 -17 67 -17q65 0 106 92l17 40l-234 535h127z" />
    <glyph glyph-name="Ydieresis" unicode="&#x178;" horiz-adv-x="652" 
d="M162 872q0 28 20 47.5t49 19.5t48.5 -19.5t19.5 -47.5q0 -30 -19.5 -49.5t-48.5 -19.5t-49 19.5t-20 49.5zM353 872q0 29 19.5 48t48.5 19t48 -19.5t19 -47.5q0 -30 -19 -49.5t-48 -19.5t-48.5 19.5t-19.5 49.5zM507 739h130l-254 -476v-263h-115v263l-251 476h130
l179 -358z" />
    <glyph glyph-name="Zacute" unicode="&#x179;" horiz-adv-x="628" 
d="M364 794h-98l61 173h132zM593 0h-561v76l391 555h-374v108h533v-78l-384 -553h395v-108z" />
    <glyph glyph-name="zacute" unicode="&#x17a;" horiz-adv-x="518" 
d="M298 624h-97l60 170h130zM475 469l-294 -375h303v-94h-453v73l295 371h-279v94h428v-69z" />
    <glyph glyph-name="Zdotaccent" unicode="&#x17b;" horiz-adv-x="628" 
d="M321 797q-32 0 -54 21.5t-22 53.5q0 31 22 52t54 21q31 0 52 -21t21 -52q0 -32 -21 -53.5t-52 -21.5zM593 0h-561v76l391 555h-374v108h533v-78l-384 -553h395v-108z" />
    <glyph glyph-name="zdotaccent" unicode="&#x17c;" horiz-adv-x="518" 
d="M269 611q-32 0 -54 21.5t-22 53.5q0 31 22 52t54 21q31 0 52 -21t21 -52q0 -32 -21 -53.5t-52 -21.5zM475 469l-294 -375h303v-94h-453v73l295 371h-279v94h428v-69z" />
    <glyph glyph-name="Zcaron" unicode="&#x17d;" horiz-adv-x="628" 
d="M283 795l-143 168h112l70 -89l69 89h115l-143 -168h-80zM593 0h-561v76l391 555h-374v108h533v-78l-384 -553h395v-108z" />
    <glyph glyph-name="zcaron" unicode="&#x17e;" horiz-adv-x="518" 
d="M220 624l-143 168h112l70 -89l69 89h115l-143 -168h-80zM475 469l-294 -375h303v-94h-453v73l295 371h-279v94h428v-69z" />
    <glyph glyph-name="Scommaaccent" unicode="&#x218;" horiz-adv-x="574" 
d="M425 380q113 -62 113 -176q0 -94 -71 -156q-71 -60 -182 -60q-82 0 -152 38.5t-109 108.5l78 75q30 -55 78.5 -84t104.5 -29t91 29t35 72q0 56 -73 95q-18 9 -75 33q-60 28 -85 42q-112 67 -112 179q0 88 64 146q65 59 168 59q140 0 225 -106l-71 -79q-61 76 -153 76
q-49 0 -79.5 -24.5t-30.5 -65.5q0 -53 62 -88q33 -18 83 -41q58 -25 91 -44zM286 -42q31 0 53 -22.5t22 -57.5q0 -87 -132 -174l-38 50q61 46 81 72q-24 2 -41 20.5t-17 43.5q0 28 21 48t51 20z" />
    <glyph glyph-name="scommaaccent" unicode="&#x219;" horiz-adv-x="465" 
d="M340 290q92 -48 92 -136q0 -71 -56 -119t-145 -48q-64 0 -119 29t-88 84l71 64q24 -39 61.5 -60.5t76.5 -21.5t64 19.5t25 47.5q0 40 -46 62q-12 7 -65 27q-54 23 -68 31q-86 45 -86 133q0 67 50 111q52 44 134 44q115 0 177 -83l-64 -68q-48 59 -118 59q-33 0 -52.5 -17
t-19.5 -42q0 -40 45 -59l55 -23q53 -22 76 -34zM236 -48q31 0 52.5 -22.5t21.5 -56.5q0 -84 -131 -173l-37 50q64 49 80 71q-24 2 -41 20t-17 43q0 28 21 48t51 20z" />
    <glyph glyph-name="uni021A" unicode="&#x21a;" horiz-adv-x="577" 
d="M14 627v112h549v-112h-216v-627h-117v627h-216zM287 -29q31 0 53 -22.5t22 -57.5q0 -87 -132 -174l-38 50q62 47 81 72q-24 2 -41 20.5t-17 43.5q0 28 21 48t51 20z" />
    <glyph glyph-name="uni021B" unicode="&#x21b;" horiz-adv-x="438" 
d="M397 118l38 -86q-60 -45 -149 -45q-87 0 -132 53t-45 153v252h-93v94h94v191h109v-191h186v-94h-186v-254q0 -103 83 -103q44 0 95 30zM272 -53q31 0 52.5 -22.5t21.5 -56.5q0 -84 -131 -173l-37 50q64 49 80 71q-24 2 -41 20t-17 43q0 28 21 48t51 20z" />
    <glyph glyph-name="uni0237" unicode="&#x237;" horiz-adv-x="277" 
d="M18 -230q-68 0 -105 24l22 90q42 -14 68 -14q92 0 92 109v560h110v-558q0 -103 -49.5 -157t-137.5 -54z" />
    <glyph glyph-name="circumflex" unicode="&#x2c6;" horiz-adv-x="569" 
d="M151 622h-112l143 168h80l143 -168h-115l-69 89z" />
    <glyph glyph-name="caron" unicode="&#x2c7;" horiz-adv-x="548" 
d="M182 624l-143 168h112l70 -89l69 89h115l-143 -168h-80z" />
    <glyph glyph-name="breve" unicode="&#x2d8;" horiz-adv-x="453" 
d="M40 791h92q2 -45 25 -70t62 -25t62 25t25 70h93q-3 -81 -52 -128.5t-128 -47.5t-127.5 47.5t-51.5 128.5z" />
    <glyph glyph-name="dotaccent" unicode="&#x2d9;" horiz-adv-x="300" 
d="M116 610q-32 0 -54 21.5t-22 53.5q0 31 22 52t54 21q31 0 52 -21t21 -52q0 -32 -21 -53.5t-52 -21.5z" />
    <glyph glyph-name="ring" unicode="&#x2da;" horiz-adv-x="380" 
d="M248 632q-34 -33 -86 -33q-51 0 -87 33q-35 35 -35 83t35 83q37 35 87 35q51 0 86 -35q36 -34 36 -83t-36 -83zM162 663q21 0 37 15.5t16 38.5q0 21 -16 36.5t-37 15.5q-23 0 -38.5 -15t-15.5 -37q0 -23 15.5 -38.5t38.5 -15.5z" />
    <glyph glyph-name="ogonek" unicode="&#x2db;" horiz-adv-x="376" 
d="M223 -157l35 -75q-49 -29 -99 -29q-53 0 -86 31t-33 80q0 100 135 167l68 -17q-47 -20 -77 -54.5t-30 -67.5q0 -21 12.5 -34t32.5 -13q17 0 42 12z" />
    <glyph glyph-name="tilde" unicode="&#x2dc;" horiz-adv-x="545" 
d="M111 642l-71 34q34 102 127 102q32 0 75 -22t62 -22q37 0 58 46l70 -33q-16 -48 -48.5 -75t-74.5 -27q-31 0 -74 22q-44 23 -63 23q-37 0 -61 -48z" />
    <glyph glyph-name="hungarumlaut" unicode="&#x2dd;" horiz-adv-x="526" 
d="M141 620h-92l42 170h128zM326 620h-93l50 170h130z" />
    <glyph glyph-name="uni0394" unicode="&#x394;" horiz-adv-x="741" 
d="M719 0h-697v82l307 657h84l306 -657v-82zM370 602l-218 -494h437z" />
    <glyph glyph-name="uni03A9" unicode="&#x3a9;" horiz-adv-x="864" 
d="M380 0h-326v102h160q-71 41 -113 119t-42 169q0 151 108 256q107 106 265 106t265 -106q108 -105 108 -256q0 -91 -42 -169t-113 -119h160v-102h-326v100q88 31 145 109q55 76 55 172q0 110 -72 182q-72 73 -180 73t-180 -73q-72 -72 -72 -182q0 -96 55 -172
q57 -78 145 -109v-100z" />
    <glyph glyph-name="uni03BC" unicode="&#x3bc;" horiz-adv-x="631" 
d="M450 257v278h110v-535h-105v79q-49 -90 -156 -90q-76 0 -119 54v-261h-109v753h110v-300q0 -71 33 -108t93 -37q65 0 104 44t39 123z" />
    <glyph glyph-name="pi" unicode="&#x3c0;" horiz-adv-x="626" 
d="M223 0h-110v439h-83v96h566v-96h-83v-439h-111v439h-179v-439z" />
    <glyph glyph-name="uni0401" unicode="&#x401;" 
d="M164 872q0 28 20 47.5t49 19.5t48.5 -19.5t19.5 -47.5q0 -30 -19.5 -49.5t-48.5 -19.5t-49 19.5t-20 49.5zM355 872q0 29 19.5 48t48.5 19t48 -19.5t19 -47.5q0 -30 -19 -49.5t-48 -19.5t-48.5 19.5t-19.5 49.5zM563 0h-473v739h472v-109h-357v-201h331v-109h-331v-211
h358v-109z" />
    <glyph glyph-name="uni0410" unicode="&#x410;" horiz-adv-x="681" 
d="M670 0h-124l-70 182h-272l-70 -182h-124l294 739h75zM441 288l-100 268l-100 -268h200z" />
    <glyph glyph-name="uni0411" unicode="&#x411;" horiz-adv-x="654" 
d="M204 463h153q122 0 187 -58q76 -67 76 -178q0 -95 -67 -161q-66 -66 -186 -66h-277v739h464v-105h-350v-171zM204 105h144q72 0 112 35t40 91q0 55 -37.5 90.5t-108.5 35.5h-150v-252z" />
    <glyph glyph-name="uni0412" unicode="&#x412;" horiz-adv-x="678" 
d="M496 404q66 -18 103 -70t37 -121q0 -86 -62 -150q-62 -63 -169 -63h-315v739h301q97 0 151 -55q55 -55 55 -129q0 -50 -27.5 -92t-73.5 -59zM374 634h-170v-191h166q50 0 80 29t30 70q0 39 -29 65.5t-77 26.5zM204 105h181q59 0 95 34t36 83q0 51 -35.5 85t-98.5 34h-178
v-236z" />
    <glyph glyph-name="uni0413" unicode="&#x413;" horiz-adv-x="547" 
d="M204 0h-114v739h444v-106h-330v-633z" />
    <glyph glyph-name="uni0414" unicode="&#x414;" horiz-adv-x="773" 
d="M430 739l232 -633h81v-256h-113v150h-487v-150h-113v256h80l236 633h84zM387 561l-156 -455h310z" />
    <glyph glyph-name="uni0415" unicode="&#x415;" 
d="M563 0h-473v739h472v-109h-357v-201h331v-109h-331v-211h358v-109z" />
    <glyph glyph-name="uni0416" unicode="&#x416;" horiz-adv-x="1008" 
d="M985 104l6 -100q-35 -15 -75 -15q-77 0 -126 53q-29 34 -44 58q-19 30 -49 83l-17 30q-38 66 -56 83q-21 18 -44 18h-18v-316h-115v316h-19q-29 0 -51 -25q-3 -4 -6.5 -8t-6.5 -8t-7 -11l-9 -15q-2 -2 -10 -17t-10 -17l-19 -33q-29 -51 -49 -82q-15 -24 -43 -56
q-27 -30 -57 -42q-70 -27 -142 4l6 100q24 -8 53 -8q40 0 70 36q29 35 117 185q31 40 44 50q-35 25 -62 78l-22 48l-17 40q-33 65 -52 86q-20 23 -59 23q-16 0 -42 -6l-14 97q36 17 72 17q73 0 112 -43q39 -42 92 -161l14 -35l13 -30l12 -21q11 -17 29 -28q15 -9 50 -9h13
v314h115v-314h12q41 0 65 19q13 11 25 39q3 5 13 30q10 20 15 35q28 62 45 93q17 32 42 61q23 28 50 39t68 11q35 0 71 -17l-14 -97q-26 6 -42 6q-38 0 -59 -23q-23 -26 -52 -86l-23 -52q-37 -87 -72 -118q16 -13 39 -46q82 -143 116 -185q31 -36 70 -36q28 0 54 8z" />
    <glyph glyph-name="uni0417" unicode="&#x417;" horiz-adv-x="603" 
d="M273 -12q-131 0 -253 75l47 94q109 -64 210 -64q72 0 115.5 33t43.5 87q0 52 -41.5 82.5t-110.5 30.5h-128v102h108q67 0 110 32t43 82q0 46 -38.5 75t-96.5 29q-89 0 -189 -64l-53 84q48 40 115.5 63t135.5 23q109 0 176 -57q67 -55 67 -138q0 -57 -32.5 -99t-92.5 -63
v-4q69 -16 107.5 -64.5t38.5 -117.5q0 -97 -77 -159t-205 -62z" />
    <glyph glyph-name="uni0418" unicode="&#x418;" horiz-adv-x="780" 
d="M160 0h-70v739h114v-535l419 535h68v-739h-114v531z" />
    <glyph glyph-name="uni0419" unicode="&#x419;" horiz-adv-x="780" 
d="M402 776q-119 0 -205 107l60 64q67 -82 145 -82t145 82l61 -64q-90 -107 -206 -107zM160 0h-70v739h114v-535l419 535h68v-739h-114v531z" />
    <glyph glyph-name="uni041A" unicode="&#x41a;" horiz-adv-x="675" 
d="M687 0h-142l-242 314l-98 -117v-197h-115v739h115v-385l320 385h138l-285 -344z" />
    <glyph glyph-name="uni041B" unicode="&#x41b;" horiz-adv-x="656" 
d="M139 0h-126l275 739h84l271 -739h-126l-188 547z" />
    <glyph glyph-name="uni041C" unicode="&#x41c;" horiz-adv-x="925" 
d="M204 0h-114v739h63l310 -453l308 453h65v-739h-116v473l-241 -352h-34l-241 352v-473z" />
    <glyph glyph-name="uni041D" unicode="&#x41d;" horiz-adv-x="762" 
d="M205 0h-115v739h115v-307h352v307h115v-739h-115v321h-352v-321z" />
    <glyph glyph-name="uni041E" unicode="&#x41e;" horiz-adv-x="853" 
d="M423 -12q-162 0 -271 109t-109 269q0 161 112 273q113 113 271 113q160 0 272 -112t112 -271t-112 -270t-275 -111zM426 101q111 0 187 76q77 77 77 191q0 116 -77 193t-187 77q-111 0 -187 -78q-76 -76 -76 -192q0 -114 75 -190q77 -77 188 -77z" />
    <glyph glyph-name="uni041F" unicode="&#x41f;" horiz-adv-x="762" 
d="M205 0h-115v739h582v-739h-115v628h-352v-628z" />
    <glyph glyph-name="uni0420" unicode="&#x420;" 
d="M90 739h255q121 0 183 -69q63 -68 63 -165q0 -96 -65 -164q-64 -67 -191 -67h-130v-274h-115v739zM205 380h133q64 0 100 36.5t36 90.5t-33 89t-91 35h-145v-251z" />
    <glyph glyph-name="uni0421" unicode="&#x421;" horiz-adv-x="773" 
d="M424 -11q-161 0 -270 106q-110 107 -110 272q0 168 112 276q112 109 271 109q99 0 185 -44q85 -43 133 -115l-82 -74q-91 121 -233 121q-112 0 -190 -78q-77 -79 -77 -195q0 -117 76 -192q77 -75 190 -75q147 0 238 120l82 -72q-53 -73 -139 -116t-186 -43z" />
    <glyph glyph-name="uni0422" unicode="&#x422;" horiz-adv-x="577" 
d="M230 0v627h-216v112h549v-112h-216v-627h-117z" />
    <glyph glyph-name="uni0423" unicode="&#x423;" horiz-adv-x="611" 
d="M125 -12q-48 0 -83 19l10 98q36 -14 61 -14q51 0 88 47q32 39 64 102l-239 498h134l166 -373l156 373h130l-79 -177q-114 -254 -167 -364q-43 -89 -92 -144q-59 -65 -149 -65z" />
    <glyph glyph-name="uni0424" unicode="&#x424;" horiz-adv-x="924" 
d="M884 371q0 -149 -102 -251q-103 -102 -262 -112v-88h-116v88q-159 12 -262 113q-102 102 -102 250q0 147 102 248q104 103 262 113v87h116v-87q158 -10 261 -113q103 -100 103 -248zM520 625v-510q111 8 179 77q68 71 68 178q0 106 -68 176q-67 70 -179 79zM157 370
q0 -106 68 -177q67 -70 179 -78v510q-113 -11 -179 -80q-68 -70 -68 -175z" />
    <glyph glyph-name="uni0425" unicode="&#x425;" horiz-adv-x="641" 
d="M145 0h-138l243 374l-230 365h134l167 -277l170 277h138l-239 -365l240 -374h-134l-175 282z" />
    <glyph glyph-name="uni0426" unicode="&#x426;" horiz-adv-x="724" 
d="M680 -150h-115v150h-475v739h115v-628h286v628h116v-628h73v-261z" />
    <glyph glyph-name="uni0427" unicode="&#x427;" horiz-adv-x="686" 
d="M480 364v375h116v-739h-116v252q-90 -33 -168 -33q-124 0 -193 62.5t-69 186.5v271h116v-244q0 -89 37 -126t114 -37q76 0 163 32z" />
    <glyph glyph-name="uni0428" unicode="&#x428;" horiz-adv-x="1091" 
d="M1001 0h-911v739h115v-628h283v628h115v-628h283v628h115v-739z" />
    <glyph glyph-name="uni0429" unicode="&#x429;" horiz-adv-x="1118" 
d="M1075 -150h-115v150h-870v739h115v-628h283v628h115v-628h283v628h115v-628h74v-261z" />
    <glyph glyph-name="uni042A" unicode="&#x42a;" horiz-adv-x="751" 
d="M459 499q114 0 188 -67q75 -68 75 -186q0 -105 -67 -175q-68 -71 -198 -71h-265v634h-177v105h291v-270q74 30 153 30zM306 107h131q82 0 123.5 37.5t41.5 105.5q0 69 -40.5 105t-113.5 36q-71 0 -142 -31v-253z" />
    <glyph glyph-name="uni042B" unicode="&#x42b;" horiz-adv-x="923" 
d="M206 478h152q62 0 110 -16.5t76.5 -42t46.5 -59.5t24.5 -64t6.5 -61q0 -99 -66 -167t-187 -68h-277v739h114v-261zM719 0v739h115v-739h-115zM206 106h144q73 0 112.5 36.5t39.5 97.5q0 59 -37.5 95.5t-109.5 36.5h-149v-266z" />
    <glyph glyph-name="uni042C" unicode="&#x42c;" horiz-adv-x="649" 
d="M357 499q114 0 188 -67q75 -68 75 -186q0 -105 -67 -175q-68 -71 -198 -71h-265v739h114v-270q74 30 153 30zM204 107h131q82 0 123.5 37.5t41.5 105.5q0 69 -40.5 105t-113.5 36q-71 0 -142 -31v-253z" />
    <glyph glyph-name="uni042D" unicode="&#x42d;" horiz-adv-x="777" 
d="M350 752q159 0 271 -109q112 -108 112 -276q0 -165 -110 -272q-109 -106 -270 -106q-100 0 -186 43t-139 116l82 72q92 -120 238 -120q100 0 173 60q72 59 89 156h-407v107h406q-20 97 -92 156q-73 61 -170 61q-142 0 -233 -121l-82 74q48 72 133 115q86 44 185 44z" />
    <glyph glyph-name="uni042E" unicode="&#x42e;" horiz-adv-x="1114" 
d="M687 752q160 0 272 -112t112 -271t-112 -270q-113 -111 -275 -111q-146 0 -253 92q-105 93 -123 233h-103v-313h-115v739h115v-315h103q21 140 128 234q106 94 251 94zM687 101q111 0 187 76q77 77 77 191q0 116 -77 193t-187 77q-111 0 -187 -78q-76 -76 -76 -192
q0 -114 75 -190q77 -77 188 -77z" />
    <glyph glyph-name="uni042F" unicode="&#x42f;" horiz-adv-x="656" 
d="M320 739h247v-739h-114v275q-61 -11 -124 -11l-158 -264h-137l177 280q-75 24 -113.5 83.5t-38.5 137.5q0 101 66 169q66 69 195 69zM335 370q74 0 118 10v251h-123q-76 0 -114.5 -34.5t-38.5 -94.5q0 -132 158 -132z" />
    <glyph glyph-name="uni0430" unicode="&#x430;" horiz-adv-x="669" 
d="M492 464v75h106v-539h-106v74q-73 -87 -184 -87q-117 0 -193 82t-76 204q0 121 76 200t193 79q111 0 184 -88zM323 88q75 0 125 53q49 52 49 129q0 76 -49 128q-50 53 -125 53q-77 0 -125 -53q-48 -52 -48 -129t48 -129t125 -52z" />
    <glyph glyph-name="uni0431" unicode="&#x431;" horiz-adv-x="675" 
d="M369 529q106 0 185 -73q81 -72 81 -194q0 -118 -79 -197q-78 -79 -206 -79q-103 0 -173 55q-131 103 -131 331q0 146 61.5 236.5t178.5 117.5l64 12q47 8 63 13q68 19 132 71l43 -96q-30 -30 -64 -47q-33 -16 -61 -24l-106 -23q-48 -10 -75 -21t-58 -34q-59 -45 -71 -177
q29 61 87.5 95t128.5 34zM523 261q0 71 -49 120q-50 50 -119 50t-120 -48q-51 -47 -51 -120q0 -70 47 -123q48 -53 121 -53q72 0 122 51q49 50 49 123z" />
    <glyph glyph-name="uni0432" unicode="&#x432;" horiz-adv-x="629" 
d="M455 417q62 -17 98 -69.5t36 -127.5q0 -100 -70 -167q-69 -66 -190 -66q-128 0 -198.5 78.5t-70.5 231.5v179q0 138 71 218q72 81 195 81q105 0 167.5 -56t62.5 -152q0 -48 -28 -91q-29 -44 -73 -59zM326 673q-71 0 -113.5 -55.5t-42.5 -160.5v-8h153q61 0 92 31.5
t31 80.5q0 52 -31.5 82t-88.5 30zM331 88q67 0 107 38t40 99q0 57 -35 91.5t-103 34.5h-170v-53q0 -62 14.5 -105.5t40 -65t51 -30.5t55.5 -9z" />
    <glyph glyph-name="uni0433" unicode="&#x433;" horiz-adv-x="500" 
d="M242 -13q-97 0 -153 38.5t-56 109.5q0 49 29 87t75 58q19 9 51 21.5t53 21.5t43 21t33 26t11 30q0 26 -22.5 41t-66.5 15q-71 0 -157 -31l-26 89q94 38 196 38q90 0 145 -36.5t55 -103.5q0 -46 -29 -81.5t-75 -55.5q-15 -7 -50 -20t-54 -21t-42 -21.5t-33.5 -29.5
t-10.5 -35q0 -64 99 -64q93 0 183 45l28 -89q-112 -53 -226 -53z" />
    <glyph glyph-name="uni0434" unicode="&#x434;" horiz-adv-x="669" 
d="M493 470v69h106v-478q0 -142 -78 -216.5t-222 -74.5q-101 0 -214 39l24 93q95 -33 186 -33q195 0 195 171v39q-71 -80 -181 -80q-118 0 -194 79t-76 198t79 197q79 79 196 79q107 0 179 -82zM323 97q75 0 124 51q49 50 49 127q0 78 -49 127q-50 50 -124 50
q-73 0 -123 -51q-49 -49 -49 -126q0 -78 49 -128q50 -50 123 -50z" />
    <glyph glyph-name="uni0435" unicode="&#x435;" horiz-adv-x="616" 
d="M579 280q0 -26 -4 -53h-421q12 -65 57.5 -103t121.5 -38q46 0 96.5 16t86.5 42l46 -81q-101 -75 -233 -75q-142 0 -215.5 83t-73.5 200q0 122 76 201q77 80 199 80q117 0 190 -73q74 -74 74 -199zM315 457q-62 0 -105.5 -38.5t-55.5 -101.5h314q-7 63 -49.5 101.5
t-103.5 38.5z" />
    <glyph glyph-name="uni0436" unicode="&#x436;" horiz-adv-x="852" 
d="M829 87l5 -84q-34 -12 -66 -12q-70 0 -109 39q-28 28 -68 92l-9 15q-19 29 -22 33q-5 9 -18 23q-20 25 -48 25h-16v-220h-104v220h-16q-28 0 -49 -25l-18 -23l-21 -33q-46 -75 -68 -99q-47 -47 -118 -47q-33 0 -66 12l4 84q24 -6 46 -6q32 0 54 28q22 27 27 34l16 24
l46 66q13 19 32 34q-25 15 -46 47q-12 19 -14 29q-1 2 -7 15.5t-6 14.5q-19 42 -32 61q-16 24 -53 24q-9 0 -36 -5l-12 82q29 13 63 13q64 0 98 -29q33 -29 62 -98q2 -5 8.5 -21.5t7.5 -18.5l7 -15l15 -25q17 -24 65 -24h11v222h104v-222h11q48 0 65 24l15 25l7 15
q1 2 7.5 18.5t8.5 21.5q29 69 62 98q34 29 97 29q35 0 64 -13l-12 -82q-27 5 -36 5q-37 0 -53 -24q-13 -19 -32 -61q0 -1 -6 -14.5t-7 -15.5q-4 -15 -15 -29q-15 -28 -45 -47q19 -15 32 -34q78 -116 93 -131q21 -21 50 -21q22 0 45 6z" />
    <glyph glyph-name="uni0437" unicode="&#x437;" horiz-adv-x="549" 
d="M253 -228q-132 0 -242 79l44 87q95 -66 186 -66q72 0 115.5 36.5t43.5 94.5q0 55 -39.5 86.5t-105.5 31.5h-116v99h80q74 0 117.5 34t43.5 88q0 50 -37 80t-95 30q-82 0 -171 -68l-55 77q44 40 109 65.5t130 25.5q101 0 166 -58q66 -57 66 -140q0 -57 -32.5 -101.5
t-89.5 -66.5v-4q65 -14 104 -66t39 -122q0 -95 -72 -158q-70 -64 -189 -64z" />
    <glyph glyph-name="uni0438" unicode="&#x438;" horiz-adv-x="639" 
d="M458 539h110v-539h-106v77q-24 -40 -75.5 -65t-113.5 -25q-91 0 -149 54q-59 56 -59 174v324h110v-314q0 -67 31.5 -101.5t91.5 -34.5q75 0 117.5 44.5t42.5 124.5v281z" />
    <glyph glyph-name="uni0439" unicode="&#x439;" horiz-adv-x="639" 
d="M322 576q-109 0 -185 97l54 57q61 -74 131 -74q68 0 130 74l55 -57q-81 -97 -185 -97zM458 539h110v-539h-106v77q-24 -40 -75.5 -65t-113.5 -25q-91 0 -149 54q-59 56 -59 174v324h110v-314q0 -67 31.5 -101.5t91.5 -34.5q75 0 117.5 44.5t42.5 124.5v281z" />
    <glyph glyph-name="uni043A" unicode="&#x43a;" horiz-adv-x="557" 
d="M564 0h-142l-194 245l-47 -43v-202h-110v758h110v-427l227 208h145l-248 -224z" />
    <glyph glyph-name="uni043B" unicode="&#x43b;" horiz-adv-x="580" 
d="M132 0h-122l239 539h85l236 -539h-121l-157 385z" />
    <glyph glyph-name="uni043C" unicode="&#x43c;" horiz-adv-x="774" 
d="M179 0h-108v539h71l246 -320l243 320h72v-539h-109v327l-190 -246h-35l-190 246v-327z" />
    <glyph glyph-name="uni043D" unicode="&#x43d;" horiz-adv-x="617" 
d="M436 321v218h110v-539h-110v223h-255v-223h-110v539h110v-218h255z" />
    <glyph glyph-name="uni043E" unicode="&#x43e;" horiz-adv-x="648" 
d="M39 270q0 117 80 200q81 83 205 83t204 -83q81 -82 81 -200q0 -120 -81 -202q-79 -82 -204 -82q-124 0 -205 82q-80 83 -80 202zM498 270q0 74 -51 127q-49 54 -123 54q-73 0 -124 -54q-50 -53 -50 -127q0 -75 50 -128q51 -53 124 -53t123 53q51 53 51 128z" />
    <glyph glyph-name="uni043F" unicode="&#x43f;" horiz-adv-x="626" 
d="M181 0h-110v539h108v-76q24 42 69 66t102 24q89 0 150 -58q62 -59 62 -167v-328h-111v297q0 73 -35 113.5t-94 40.5q-62 0 -101.5 -43.5t-39.5 -112.5v-295z" />
    <glyph glyph-name="uni0440" unicode="&#x440;" horiz-adv-x="673" 
d="M366 552q115 0 191 -82q77 -83 77 -201q0 -117 -77 -200q-76 -82 -192 -82q-114 0 -184 88v-297h-110v761h110v-78q73 91 185 91zM523 270q0 76 -48 128q-48 53 -125 53t-125 -53q-47 -53 -47 -128q0 -77 47 -130q48 -52 125 -52t125 52t48 130z" />
    <glyph glyph-name="uni0441" unicode="&#x441;" horiz-adv-x="600" 
d="M324 -12q-126 0 -205 79q-80 80 -80 202q0 123 81 203q82 80 208 80q81 0 148.5 -39t99.5 -105l-91 -51q-25 43 -66.5 68.5t-89.5 25.5q-77 0 -128 -52q-51 -53 -51 -130q0 -75 50 -128q49 -52 125 -52q48 0 92 26t65 66l91 -53q-33 -63 -100.5 -101.5t-148.5 -38.5z" />
    <glyph glyph-name="uni0442" unicode="&#x442;" horiz-adv-x="983" 
d="M703 554q97 0 156 -63q60 -61 60 -169v-322h-110v304q0 70 -33 108.5t-90 38.5q-60 0 -97.5 -41t-37.5 -109v-301h-110v302q0 69 -33.5 109t-90.5 40q-60 0 -98 -41.5t-38 -110.5v-299h-110v539h108v-78q24 43 67 68t96 25q55 -1 100 -27t66 -72q28 45 80.5 72t114.5 27z
" />
    <glyph glyph-name="uni0443" unicode="&#x443;" horiz-adv-x="569" 
d="M296 150l138 389h121l-223 -588q-36 -95 -84 -137.5t-117 -42.5q-57 0 -92 23l16 95q39 -17 67 -17q65 0 106 92l17 40l-234 535h127z" />
    <glyph glyph-name="uni0444" unicode="&#x444;" horiz-adv-x="830" 
d="M466 -12v-213h-102v213q-150 5 -237 80q-88 76 -88 201q0 127 90 203q90 77 235 81v205h102v-205q145 -4 235 -81q90 -76 90 -203t-89 -202q-90 -75 -236 -79zM466 457v-375q101 1 160.5 51.5t59.5 137.5q0 86 -58 135t-162 51zM144 270q0 -87 60 -137t160 -51v375
q-103 -2 -161.5 -51.5t-58.5 -135.5z" />
    <glyph glyph-name="uni0445" unicode="&#x445;" horiz-adv-x="523" 
d="M330 272l181 -272h-128l-121 194l-124 -194h-131l186 278l-167 261h128l110 -182l114 182h128z" />
    <glyph glyph-name="uni0446" unicode="&#x446;" horiz-adv-x="691" 
d="M568 539v-397q-1 -39 28 -54.5t88 -15.5v-252h-99v172q-46 0 -79 27.5t-37 68.5q-21 -44 -76 -72q-56 -29 -120 -29q-91 0 -149 54q-59 56 -59 174v324h110v-314q0 -67 31.5 -101.5t91.5 -34.5q75 0 117.5 44.5t42.5 124.5v281h110z" />
    <glyph glyph-name="uni0447" unicode="&#x447;" horiz-adv-x="569" 
d="M387 275v264h111v-539h-111v176q-67 -19 -132 -19q-215 0 -215 206v176h110v-168q0 -60 28.5 -86.5t86.5 -26.5q62 0 122 17z" />
    <glyph glyph-name="uni0448" unicode="&#x448;" horiz-adv-x="969" 
d="M788 255v284h110v-539h-104v77q-21 -39 -69.5 -64.5t-102.5 -25.5q-55 0 -97.5 24.5t-62.5 72.5q-26 -47 -77 -72t-112 -25q-40 0 -75.5 12t-66 38t-48.5 72t-18 108v322h111v-309q0 -141 115 -141q63 0 99 44t36 122v284h111v-316q0 -65 29.5 -99.5t84.5 -34.5
q62 0 99.5 46t37.5 120z" />
    <glyph glyph-name="uni0449" unicode="&#x449;" horiz-adv-x="1023" 
d="M898 539v-397q0 -39 28.5 -54.5t86.5 -15.5v-252h-99v172q-46 0 -78 27.5t-36 68.5q-22 -45 -72 -73t-110 -28q-53 0 -95 24.5t-62 71.5q-26 -46 -77 -71t-110 -25q-88 0 -149 55q-60 56 -60 175v322h110v-309q0 -141 116 -141q63 0 99 44t36 122v284h111v-316
q0 -65 29.5 -99.5t83.5 -34.5q63 0 100.5 45.5t37.5 120.5v284h110z" />
    <glyph glyph-name="uni044A" unicode="&#x44a;" horiz-adv-x="647" 
d="M388 435q98 0 162 -64q64 -63 64 -160q0 -93 -60 -159q-60 -65 -179 -65q-56 0 -98.5 17t-67 42.5t-39.5 61t-20 67t-5 66.5v200h-134v98h244v-142q61 38 133 38zM377 85q59 0 92.5 35.5t33.5 91.5q0 57 -33.5 91t-95.5 34q-64 0 -119 -35v-69q0 -148 122 -148z" />
    <glyph glyph-name="uni044B" unicode="&#x44b;" horiz-adv-x="769" 
d="M179 363h124q61 0 105.5 -16.5t67.5 -44.5t33.5 -57.5t10.5 -62.5q0 -78 -54 -130q-53 -52 -158 -52h-237v539h108v-176zM589 0v539h110v-539h-110zM179 93h117q115 0 115 90q0 38 -27.5 62.5t-81.5 24.5h-123v-177z" />
    <glyph glyph-name="uni044C" unicode="&#x44c;" horiz-adv-x="565" 
d="M306 435q99 0 162 -64q64 -63 64 -160q0 -93 -60 -159q-60 -65 -179 -65q-108 0 -165 59q-24 25 -39 62q-25 60 -25 133v298h109v-141q61 37 133 37zM295 85q60 0 93.5 35t33.5 92t-34 91t-95 34q-67 0 -120 -36v-68q0 -148 122 -148z" />
    <glyph glyph-name="uni044D" unicode="&#x44d;" horiz-adv-x="603" 
d="M280 552q124 0 204 -80t80 -203t-79 -202t-201 -79q-84 0 -151.5 38.5t-101.5 101.5l89 52q21 -40 66 -66t96 -26q60 0 107 38q48 40 61 99h-220v90h220q-14 61 -62 99t-111 38q-51 0 -93 -25.5t-67 -68.5l-89 50q33 68 100.5 106t151.5 38z" />
    <glyph glyph-name="uni044E" unicode="&#x44e;" horiz-adv-x="856" 
d="M532 553q124 0 204 -83q81 -82 81 -200q0 -120 -81 -202q-79 -82 -204 -82q-112 0 -188 66q-77 68 -93 169h-70v-221h-110v758h110v-445h69q15 103 92 171q78 69 190 69zM706 270q0 74 -51 127q-49 54 -123 54q-73 0 -124 -54q-50 -53 -50 -127q0 -75 50 -128
q51 -53 124 -53t123 53q51 53 51 128z" />
    <glyph glyph-name="uni044F" unicode="&#x44f;" horiz-adv-x="562" 
d="M276 539h215v-539h-108v195q-46 -7 -107 -7l-123 -188h-125l141 201q-57 20 -87 63t-30 99q0 78 58 127t166 49zM280 279q50 0 103 8v159h-105q-116 0 -116 -83q0 -84 118 -84z" />
    <glyph glyph-name="uni0451" unicode="&#x451;" horiz-adv-x="616" 
d="M220 594q-32 0 -53 21t-21 53q0 31 21 51.5t53 20.5q31 0 52 -20.5t21 -51.5q0 -32 -21 -53t-52 -21zM425 594q-32 0 -53 21t-21 53q0 31 21 51.5t53 20.5q30 0 51 -20.5t21 -51.5q0 -32 -21 -53t-51 -21zM579 280q0 -26 -4 -53h-421q12 -65 57.5 -103t121.5 -38
q46 0 96.5 16t86.5 42l46 -81q-101 -75 -233 -75q-142 0 -215.5 83t-73.5 200q0 122 76 201q77 80 199 80q117 0 190 -73q74 -74 74 -199zM315 457q-62 0 -105.5 -38.5t-55.5 -101.5h314q-7 63 -49.5 101.5t-103.5 38.5z" />
    <glyph glyph-name="Wgrave" unicode="&#x1e80;" horiz-adv-x="1041" 
d="M514 967l61 -173h-100l-95 173h134zM339 0h-79l-251 739h124l169 -527l187 527h61l191 -527l166 527h124l-250 -739h-77l-183 530z" />
    <glyph glyph-name="wgrave" unicode="&#x1e81;" horiz-adv-x="852" 
d="M424 793l60 -170h-97l-93 170h130zM288 1h-94l-184 538h116l121 -387l139 387h78l143 -387l117 387h116l-181 -538h-94l-140 382z" />
    <glyph glyph-name="Wacute" unicode="&#x1e82;" horiz-adv-x="1041" 
d="M576 793h-98l61 173h132zM339 0h-79l-251 739h124l169 -527l187 527h61l191 -527l166 527h124l-250 -739h-77l-183 530z" />
    <glyph glyph-name="wacute" unicode="&#x1e83;" horiz-adv-x="852" 
d="M479 624h-97l60 170h130zM288 1h-94l-184 538h116l121 -387l139 387h78l143 -387l117 387h116l-181 -538h-94l-140 382z" />
    <glyph glyph-name="Wdieresis" unicode="&#x1e84;" horiz-adv-x="1041" 
d="M357 872q0 28 20 47.5t49 19.5t48.5 -19.5t19.5 -47.5q0 -30 -19.5 -49.5t-48.5 -19.5t-49 19.5t-20 49.5zM548 872q0 29 19.5 48t48.5 19q28 0 47.5 -19.5t19.5 -47.5q0 -30 -19 -49.5t-48 -19.5t-48.5 19.5t-19.5 49.5zM339 0h-79l-251 739h124l169 -527l187 527h61
l191 -527l166 527h124l-250 -739h-77l-183 530z" />
    <glyph glyph-name="wdieresis" unicode="&#x1e85;" horiz-adv-x="852" 
d="M323 616q-32 0 -53 21t-21 53q0 31 21 51.5t53 20.5q31 0 52 -20.5t21 -51.5q0 -32 -21 -53t-52 -21zM528 616q-32 0 -53 21t-21 53q0 31 21 51.5t53 20.5q30 0 51 -20.5t21 -51.5q0 -32 -21 -53t-51 -21zM288 1h-94l-184 538h116l121 -387l139 387h78l143 -387l117 387
h116l-181 -538h-94l-140 382z" />
    <glyph glyph-name="Ygrave" unicode="&#x1ef2;" horiz-adv-x="652" 
d="M325 967l61 -173h-100l-95 173h134zM507 739h130l-254 -476v-263h-115v263l-251 476h130l179 -358z" />
    <glyph glyph-name="ygrave" unicode="&#x1ef3;" horiz-adv-x="569" 
d="M290 794l60 -170h-97l-93 170h130zM297 150l138 389h121l-223 -588q-36 -95 -84 -137.5t-117 -42.5q-57 0 -92 23l16 95q39 -17 67 -17q65 0 106 92l17 40l-234 535h127z" />
    <glyph glyph-name="uni2009" unicode="&#x2009;" horiz-adv-x="78" 
 />
    <glyph glyph-name="endash" unicode="&#x2013;" horiz-adv-x="717" 
d="M653 225h-589v104h589v-104z" />
    <glyph glyph-name="emdash" unicode="&#x2014;" horiz-adv-x="1036" 
d="M972 225h-908v104h908v-104z" />
    <glyph glyph-name="quoteleft" unicode="&#x2018;" horiz-adv-x="241" 
d="M123 653h2q25 0 42.5 -18.5t17.5 -44.5q0 -28 -20.5 -48t-49.5 -20q-32 0 -53.5 23t-21.5 58q0 89 131 175l34 -48q-66 -49 -82 -77z" />
    <glyph glyph-name="quoteright" unicode="&#x2019;" horiz-adv-x="239" 
d="M132 775q32 0 53.5 -23t21.5 -58q0 -92 -132 -175l-33 47q69 52 83 79q-1 -1 -4 -1q-24 0 -42 18.5t-18 44.5q0 28 21 48t50 20z" />
    <glyph glyph-name="quotesinglbase" unicode="&#x201a;" horiz-adv-x="247" 
d="M122 121q32 0 53.5 -23t21.5 -58q0 -92 -132 -175l-33 47q69 52 83 79q-1 -1 -4 -1q-24 0 -42 18.5t-18 44.5q0 28 21 48t50 20z" />
    <glyph glyph-name="quotedblleft" unicode="&#x201c;" horiz-adv-x="485" 
d="M174 778l34 -48q-66 -49 -82 -77h2q25 0 42.5 -18.5t17.5 -44.5q0 -28 -20.5 -48t-49.5 -20q-32 0 -53.5 23t-21.5 58q0 89 131 175zM367 653h2q25 0 42.5 -18.5t17.5 -44.5q0 -28 -20.5 -48t-49.5 -20q-32 0 -53.5 23t-21.5 58q0 89 131 175l34 -48q-66 -49 -82 -77z
" />
    <glyph glyph-name="quotedblright" unicode="&#x201d;" horiz-adv-x="476" 
d="M129 778q32 0 53.5 -23t21.5 -58q0 -89 -131 -175l-34 48q66 49 82 77h-2q-25 0 -42.5 18.5t-17.5 44.5q0 28 20.5 48t49.5 20zM368 778q32 0 53.5 -23t21.5 -58q0 -89 -131 -175l-34 48q66 49 82 77h-2q-25 0 -42.5 18.5t-17.5 44.5q0 28 20.5 48t49.5 20z" />
    <glyph glyph-name="quotedblbase" unicode="&#x201e;" horiz-adv-x="482" 
d="M117 119q32 0 53.5 -23t21.5 -58q0 -89 -131 -175l-34 48q66 49 82 77h-2q-25 0 -42.5 18.5t-17.5 44.5q0 28 20.5 48t49.5 20zM356 119q32 0 53.5 -23t21.5 -58q0 -89 -131 -175l-34 48q66 49 82 77h-2q-25 0 -42.5 18.5t-17.5 44.5q0 28 20.5 48t49.5 20z" />
    <glyph glyph-name="dagger" unicode="&#x2020;" horiz-adv-x="490" 
d="M297 519h156v-98h-156v-599h-104v599h-157v98h157v330h104v-330z" />
    <glyph glyph-name="daggerdbl" unicode="&#x2021;" horiz-adv-x="490" 
d="M454 561v-98h-157v-255h157v-98h-157v-288h-104v288h-157v98h157v255h-157v98h157v288h104v-288h157z" />
    <glyph glyph-name="bullet" unicode="&#x2022;" horiz-adv-x="432" 
d="M215 197q-59 0 -102 42q-42 42 -42 102t42 102q43 43 102 43q60 0 102 -43q43 -42 43 -102t-43 -102q-42 -42 -102 -42z" />
    <glyph glyph-name="ellipsis" unicode="&#x2026;" horiz-adv-x="713" 
d="M118 -16q-30 0 -50.5 20t-20.5 50q0 29 20.5 49t50.5 20q29 0 49 -20t20 -49q0 -30 -20 -50t-49 -20zM356 -16q-30 0 -50.5 20t-20.5 50q0 29 20.5 49t50.5 20q29 0 49 -20t20 -49q0 -30 -20 -50t-49 -20zM594 -16q-30 0 -50.5 20t-20.5 50q0 29 20.5 49t50.5 20
q29 0 49 -20t20 -49q0 -30 -20 -50t-49 -20z" />
    <glyph glyph-name="perthousand" unicode="&#x2030;" horiz-adv-x="1301" 
d="M355 440q-56 -53 -133 -53q-78 0 -134 53q-55 54 -55 129t55 129q56 54 134 54t133 -54t55 -129t-55 -129zM225 0h-111l542 739h113zM222 468q42 0 71.5 29t29.5 72t-29.5 72t-71.5 29q-43 0 -72.5 -29t-29.5 -72t29.5 -72t72.5 -29zM666 -12q-78 0 -134 53
q-55 52 -55 128q0 75 55 129q56 54 134 54t133 -54q56 -54 56 -129t-56 -128t-133 -53zM1088 -12q-78 0 -134 53q-55 52 -55 128t55 128q56 54 134 54t133 -54q56 -53 56 -128t-56 -128t-133 -53zM1191 169q0 44 -30 73.5t-73 29.5q-44 0 -73.5 -29.5t-29.5 -73.5
q0 -43 30 -72t73 -29t73 29t30 72zM768 169q0 44 -29.5 73t-72.5 29t-72.5 -29t-29.5 -73q0 -42 30 -71t72 -29t72 29t30 71z" />
    <glyph glyph-name="guilsinglleft" unicode="&#x2039;" horiz-adv-x="340" 
d="M290 88h-112l-140 203l140 203h112l-142 -203z" />
    <glyph glyph-name="guilsinglright" unicode="&#x203a;" horiz-adv-x="340" 
d="M302 291l-140 -203h-112l142 203l-142 203h112z" />
    <glyph glyph-name="fraction" unicode="&#x2044;" horiz-adv-x="198" 
d="M-140 0h-95l578 739h93z" />
    <glyph glyph-name="uni2070" unicode="&#x2070;" horiz-adv-x="377" 
d="M188 501q-81 0 -123 59q-41 59 -41 146t41 146q42 60 123 60q82 0 123 -59q42 -59 42 -147t-42 -146q-41 -59 -123 -59zM188 575q83 0 83 131q0 60 -20.5 95.5t-62.5 35.5q-41 0 -61.5 -35.5t-20.5 -95.5t20.5 -95.5t61.5 -35.5z" />
    <glyph glyph-name="uni2074" unicode="&#x2074;" horiz-adv-x="367" 
d="M288 665h43v-63h-43v-95h-70v95h-183l-16 46l213 255h56v-238zM218 795l-109 -130h109v130z" />
    <glyph glyph-name="uni2075" unicode="&#x2075;" horiz-adv-x="345" 
d="M176 763q60 0 97.5 -36t37.5 -93q0 -58 -41.5 -96t-107.5 -38q-75 0 -136 46l32 60q50 -36 99 -36q35 0 56.5 18.5t21.5 47.5q0 28 -20 46t-52 18q-39 0 -70 -28l-42 33l24 197h210v-65h-156l-11 -86q27 12 58 12z" />
    <glyph glyph-name="uni2076" unicode="&#x2076;" horiz-adv-x="350" 
d="M192 763q58 0 95 -36t37 -92q0 -59 -40.5 -97t-104.5 -38q-75 0 -116 54q-40 55 -40 138q0 94 46 156q46 64 134 64q65 0 111 -34l-31 -57q-34 25 -76 25q-50 0 -80 -39q-30 -37 -33 -90q31 46 98 46zM179 565q31 0 51.5 20t20.5 49t-20.5 48t-50.5 19q-31 0 -51.5 -19
t-20.5 -48t20.5 -49t50.5 -20z" />
    <glyph glyph-name="uni2077" unicode="&#x2077;" horiz-adv-x="292" 
d="M13 831v69h266v-53l-154 -339h-82l149 323h-179z" />
    <glyph glyph-name="uni2078" unicode="&#x2078;" horiz-adv-x="381" 
d="M38 616q0 33 21.5 60.5t59.5 41.5v1q-29 12 -46.5 35t-17.5 51q0 47 37.5 77t97.5 30t97.5 -30t37.5 -77q0 -58 -64 -86v-2q38 -14 59.5 -41t21.5 -60q0 -50 -42 -82.5t-110 -32.5t-110 32t-42 83zM145 761q17 -15 45 -15t45 15t17 37t-18 37q-17 15 -44 15t-45 -15
q-17 -15 -17 -37t17 -37zM265 625q0 25 -21 42t-54 17t-54 -17t-21 -42q0 -26 21 -43t54 -17t54 17t21 43z" />
    <glyph glyph-name="uni2079" unicode="&#x2079;" horiz-adv-x="372" 
d="M179 912q73 0 113 -52.5t40 -141.5q0 -93 -44 -155t-131 -62q-69 0 -112 34l29 57q37 -25 79 -25q50 0 78.5 35.5t31.5 94.5q-36 -48 -98 -48q-59 0 -95.5 36t-36.5 91q0 60 41 98t105 38zM177 711q30 0 50.5 19.5t20.5 47.5q0 29 -20 49.5t-50 20.5q-31 0 -51 -20
t-20 -50q0 -29 19.5 -48t50.5 -19z" />
    <glyph glyph-name="uni2080" unicode="&#x2080;" horiz-adv-x="377" 
d="M188 -161q-81 0 -123 59q-41 59 -41 146t41 146q42 60 123 60q82 0 123 -59q42 -59 42 -147q0 -87 -42 -146q-41 -59 -123 -59zM188 -87q83 0 83 131q0 60 -20.5 95.5t-62.5 35.5q-41 0 -61.5 -35.5t-20.5 -95.5t20.5 -95.5t61.5 -35.5z" />
    <glyph glyph-name="uni2081" unicode="&#x2081;" horiz-adv-x="269" 
d="M15 131l136 107h60v-393h-80v283l-74 -58z" />
    <glyph glyph-name="uni2082" unicode="&#x2082;" horiz-adv-x="345" 
d="M246 15l-95 -99h153v-71h-265v63l130 132q52 53 52 87q0 22 -16 36.5t-41 14.5q-44 0 -94 -47l-40 58q61 61 139 61q58 0 95 -34t37 -88q0 -58 -55 -113z" />
    <glyph glyph-name="uni2083" unicode="&#x2083;" horiz-adv-x="332" 
d="M147 -161q-67 0 -132 39l32 61q55 -30 97 -30q32 0 51 14.5t19 38.5q0 23 -19.5 38t-50.5 15h-52v67h48q27 0 46.5 13.5t19.5 35.5t-17 35t-43 13q-40 0 -83 -31l-38 55q53 47 130 47q56 0 93.5 -30.5t37.5 -74.5q0 -32 -19.5 -56t-52.5 -34v-2q38 -8 59.5 -34.5
t21.5 -62.5q0 -52 -41.5 -84.5t-106.5 -32.5z" />
    <glyph glyph-name="uni2084" unicode="&#x2084;" horiz-adv-x="367" 
d="M288 3h43v-63h-43v-95h-70v95h-183l-16 46l213 255h56v-238zM218 133l-109 -130h109v130z" />
    <glyph glyph-name="uni2085" unicode="&#x2085;" horiz-adv-x="345" 
d="M176 101q60 0 97.5 -36t37.5 -93q0 -58 -41.5 -96t-107.5 -38q-75 0 -136 46l32 60q50 -36 99 -36q35 0 56.5 18.5t21.5 47.5q0 28 -20 46t-52 18q-39 0 -70 -28l-42 33l24 197h210v-65h-156l-11 -86q27 12 58 12z" />
    <glyph glyph-name="uni2086" unicode="&#x2086;" horiz-adv-x="350" 
d="M192 101q58 0 95 -36t37 -92q0 -59 -40.5 -97t-104.5 -38q-76 0 -116 55q-40 53 -40 137q0 94 46 156q46 64 134 64q65 0 111 -34l-31 -57q-34 25 -76 25q-50 0 -80 -39q-30 -37 -33 -90q31 46 98 46zM179 -97q31 0 51.5 20t20.5 49t-20.5 48t-50.5 19q-31 0 -51.5 -19
t-20.5 -48t20.5 -49t50.5 -20z" />
    <glyph glyph-name="uni2087" unicode="&#x2087;" horiz-adv-x="292" 
d="M13 169v69h266v-53l-154 -339h-82l149 323h-179z" />
    <glyph glyph-name="uni2088" unicode="&#x2088;" horiz-adv-x="381" 
d="M38 -46q0 33 21.5 60.5t59.5 41.5v1q-29 12 -46.5 35t-17.5 51q0 47 37.5 77t97.5 30t97.5 -30t37.5 -77q0 -58 -64 -86v-2q38 -14 59.5 -41t21.5 -60q0 -50 -42 -82.5t-110 -32.5t-110 32t-42 83zM145 99q17 -15 45 -15t45 15t17 37t-18 37q-17 15 -44 15t-45 -15
q-17 -15 -17 -37t17 -37zM265 -37q0 25 -21 42t-54 17t-54 -17t-21 -42q0 -26 21 -43t54 -17t54 17t21 43z" />
    <glyph glyph-name="uni2089" unicode="&#x2089;" horiz-adv-x="372" 
d="M179 250q73 0 113 -52.5t40 -141.5q0 -93 -44 -155t-131 -62q-69 0 -112 34l29 57q37 -25 79 -25q50 0 78.5 35.5t31.5 94.5q-36 -48 -98 -48q-59 0 -95.5 36t-36.5 91q0 60 41 98t105 38zM177 49q30 0 50.5 19.5t20.5 47.5q0 29 -20 49.5t-50 20.5q-31 0 -51 -20
t-20 -50q0 -29 19.5 -48t50.5 -19z" />
    <glyph glyph-name="Euro" unicode="&#x20ac;" horiz-adv-x="754" 
d="M543 252h-280q30 -73 92.5 -115.5t140.5 -42.5q93 0 187 53v-110q-85 -48 -196 -48q-123 0 -217 72q-96 75 -130 191h-109l35 85h58q-2 34 0 63h-83l35 85h62q34 120 129 194q95 73 220 73q133 0 231 -69l-53 -91q-76 55 -168 55q-77 0 -141 -45q-63 -44 -93 -117h372
l-38 -85h-355q-2 -26 -2 -32q0 -4 0.5 -16t0.5 -15h335z" />
    <glyph glyph-name="trademark" unicode="&#x2122;" horiz-adv-x="816" 
d="M133 675h-99v64h271v-64h-98v-286h-74v286zM539 533l161 206h38v-350h-71v199l-115 -147h-25l-114 147v-199h-71v350h38z" />
    <glyph glyph-name="estimated" unicode="&#x212e;" horiz-adv-x="958" 
d="M486 -17q-184 0 -312 110q-127 109 -127 273q0 165 127 274q128 111 312 111q183 0 310 -109q129 -110 129 -281v-21q0 -5 -7 -5h-686v-230q0 -3 4 -4q104 -72 250 -72q103 0 189 37t137 105l35 -29q-60 -75 -155.5 -117t-205.5 -42zM232 628v-243h508v244q0 3 -3 4
q-106 73 -251 73q-146 0 -252 -73q-2 -2 -2 -5z" />
    <glyph glyph-name="uni2150" unicode="&#x2150;" horiz-adv-x="863" 
d="M232 346h-79v284l-74 -58l-42 61l136 107h59v-394zM93 0l578 739h93l-576 -739h-95zM549 324v69h266v-53l-154 -339h-82l149 323h-179z" />
    <glyph glyph-name="uni2151" unicode="&#x2151;" horiz-adv-x="878" 
d="M229 346h-79v284l-74 -58l-42 61l136 107h59v-394zM85 0l578 739h93l-576 -739h-95zM688 405q73 0 113 -52.5t40 -141.5q0 -93 -44 -155t-131 -62q-69 0 -112 34l29 57q37 -25 79 -25q50 0 78.5 35.5t31.5 94.5q-36 -48 -98 -48q-59 0 -95.5 36t-36.5 91q0 60 41 98
t105 38zM686 204q30 0 50.5 19.5t20.5 47.5q0 29 -20 49.5t-50 20.5q-31 0 -51 -20t-20 -50q0 -29 19.5 -48t50.5 -19z" />
    <glyph glyph-name="uni2153" unicode="&#x2153;" horiz-adv-x="850" 
d="M229 346h-79v284l-74 -58l-42 61l136 107h59v-394zM83 0l578 739h93l-577 -739h-94zM729 211v-2q38 -8 59.5 -34.5t21.5 -62.5q0 -52 -41.5 -84.5t-106.5 -32.5q-68 0 -132 39l32 61q56 -30 97 -30q32 0 51 14.5t19 38.5q0 23 -19.5 38t-50.5 15h-52v67h48
q27 0 46.5 13.5t19.5 35.5t-17 35t-43 13q-40 0 -83 -31l-38 55q53 47 130 47q56 0 93.5 -30.5t37.5 -74.5q0 -32 -19.5 -56t-52.5 -34z" />
    <glyph glyph-name="uni2154" unicode="&#x2154;" horiz-adv-x="851" 
d="M45 347v63l130 132q52 53 52 87q0 22 -16 36.5t-41 14.5q-44 0 -94 -47l-40 58q61 61 139 61q58 0 95 -34t37 -88q0 -58 -55 -113l-95 -99h153v-71h-265zM118 0l578 739h93l-576 -739h-95zM714 209v-2q38 -8 59.5 -34.5t21.5 -62.5q0 -52 -41.5 -84.5t-106.5 -32.5
q-67 0 -132 39l32 61q55 -30 97 -30q32 0 51 14.5t19 38.5q0 23 -19.5 38t-50.5 15h-52v67h48q27 0 46.5 13.5t19.5 35.5t-17 35t-43 13q-40 0 -83 -31l-38 55q53 47 130 47q56 0 93.5 -30.5t37.5 -74.5q0 -32 -19.5 -56t-52.5 -34z" />
    <glyph glyph-name="uni2155" unicode="&#x2155;" horiz-adv-x="848" 
d="M229 346h-79v284l-74 -58l-42 61l136 107h59v-394zM81 0l578 739h93l-577 -739h-94zM684 256q60 0 97.5 -36t37.5 -93q0 -58 -41.5 -96t-107.5 -38q-75 0 -136 46l32 60q50 -36 99 -36q35 0 56.5 18.5t21.5 47.5q0 28 -20 46t-52 18q-39 0 -70 -28l-42 33l24 197h210v-65
h-156l-11 -86q27 12 58 12z" />
    <glyph glyph-name="uni2156" unicode="&#x2156;" horiz-adv-x="853" 
d="M45 347v63l130 132q52 53 52 87q0 22 -16 36.5t-41 14.5q-44 0 -94 -47l-40 58q61 61 139 61q58 0 95 -34t37 -88q0 -58 -55 -113l-95 -99h153v-71h-265zM117 0l578 739h93l-576 -739h-95zM675 256q60 0 97.5 -36t37.5 -93q0 -58 -41.5 -96t-107.5 -38q-75 0 -136 46
l32 60q49 -36 99 -36q35 0 56.5 18.5t21.5 47.5q0 28 -20 46t-52 18q-39 0 -70 -28l-42 33l24 197h210v-65h-156l-11 -86q27 12 58 12z" />
    <glyph glyph-name="uni2157" unicode="&#x2157;" horiz-adv-x="831" 
d="M151 411q32 0 51 14.5t19 38.5q0 23 -19.5 38t-50.5 15h-52v67h48q27 0 46.5 13.5t19.5 35.5t-17 35t-43 13q-40 0 -83 -31l-38 55q53 47 130 47q56 0 93.5 -30.5t37.5 -74.5q0 -32 -19.5 -56t-52.5 -34v-2q38 -8 59.5 -34.5t21.5 -62.5q0 -52 -41.5 -84.5t-106.5 -32.5
q-68 0 -132 39l32 61q55 -30 97 -30zM93 0l578 739h94l-577 -739h-95zM654 256q60 0 97.5 -36t37.5 -93q0 -58 -41.5 -96t-107.5 -38q-75 0 -136 46l32 60q50 -36 99 -36q35 0 56.5 18.5t21.5 47.5q0 28 -20 46t-52 18q-39 0 -70 -28l-42 33l24 197h210v-65h-156l-11 -86
q27 12 58 12z" />
    <glyph glyph-name="uni2158" unicode="&#x2158;" horiz-adv-x="884" 
d="M298 347h-70v95h-183l-16 46l213 255h56v-238h43v-63h-43v-95zM142 0l578 739h93l-576 -739h-95zM228 635l-109 -130h109v130zM696 256q60 0 97.5 -36t37.5 -93q0 -58 -41.5 -96t-107.5 -38q-75 0 -136 46l32 60q50 -36 99 -36q35 0 56.5 18.5t21.5 47.5q0 28 -20 46
t-52 18q-39 0 -70 -28l-42 33l24 197h210v-65h-156l-11 -86q27 12 58 12z" />
    <glyph glyph-name="uni2159" unicode="&#x2159;" horiz-adv-x="849" 
d="M150 346v284l-74 -58l-42 61l136 107h59v-394h-79zM75 0l578 739h93l-576 -739h-95zM672 256q60 0 97.5 -36t37.5 -93q0 -58 -41.5 -96t-107.5 -38q-75 0 -136 46l32 60q50 -36 99 -36q35 0 56.5 18.5t21.5 47.5q0 28 -20 46t-52 18q-39 0 -70 -28l-42 33l24 197h210v-65
h-156l-11 -86q27 12 58 12z" />
    <glyph glyph-name="uni215A" unicode="&#x215a;" horiz-adv-x="863" 
d="M163 410q35 0 56.5 18.5t21.5 47.5q0 28 -20 46t-52 18q-39 0 -70 -28l-42 33l24 197h210v-65h-156l-11 -86q27 12 58 12q60 0 97.5 -36t37.5 -93q0 -58 -41.5 -96t-107.5 -38q-75 0 -136 46l32 60q50 -36 99 -36zM107 0l578 739h93l-576 -739h-95zM675 256q58 0 95 -36
t37 -92q0 -59 -40.5 -97t-104.5 -38q-76 0 -116 54q-40 55 -40 138q0 94 46 156q46 64 134 64q65 0 111 -34l-31 -57q-34 25 -76 25q-50 0 -80 -39q-30 -38 -33 -90q31 46 98 46zM662 58q31 0 51.5 20t20.5 49t-20.5 48t-50.5 19q-31 0 -51.5 -19t-20.5 -48t20.5 -49
t50.5 -20z" />
    <glyph glyph-name="oneeighth" unicode="&#x215b;" horiz-adv-x="875" 
d="M229 346h-79v284l-74 -58l-42 61l136 107h59v-394zM91 0l578 739h93l-576 -739h-95zM756 212v-2q38 -14 59.5 -41t21.5 -60q0 -50 -42 -82.5t-110 -32.5t-110 32t-42 83q0 33 21.5 60.5t59.5 41.5v1q-29 12 -46.5 35t-17.5 51q0 47 37.5 77t97.5 30t97.5 -30t37.5 -77
q0 -58 -64 -86zM729 328q-17 15 -44 15t-45 -15q-17 -15 -17 -37t17 -37t45 -15t45 15t17 37t-18 37zM760 118q0 25 -21 42t-54 17t-54 -17t-21 -42q0 -26 21 -43t54 -17t54 17t21 43z" />
    <glyph glyph-name="threeeighths" unicode="&#x215c;" horiz-adv-x="866" 
d="M153 341q-67 0 -132 39l32 61q55 -30 97 -30q32 0 51 14.5t19 38.5q0 23 -19.5 38t-50.5 15h-52v67h48q27 0 46.5 13.5t19.5 35.5t-17 35t-43 13q-40 0 -83 -31l-38 55q53 47 130 47q56 0 93.5 -30.5t37.5 -74.5q0 -32 -19.5 -56t-52.5 -34v-2q38 -8 59.5 -34.5
t21.5 -62.5q0 -52 -41.5 -84.5t-106.5 -32.5zM200 0h-95l578 739h93zM527 109q0 33 21.5 60.5t59.5 41.5v1q-29 12 -46.5 35t-17.5 51q0 47 37.5 77t97.5 30t97.5 -30t37.5 -77q0 -58 -64 -86v-2q38 -14 59.5 -41t21.5 -60q0 -50 -42 -82.5t-110 -32.5t-110 32t-42 83z
M634 254q17 -15 45 -15t45 15t17 37t-18 37q-17 15 -44 15t-45 -15q-17 -15 -17 -37t17 -37zM754 118q0 25 -21 42t-54 17t-54 -17t-21 -42q0 -26 21 -43t54 -17t54 17t21 43z" />
    <glyph glyph-name="fiveeighths" unicode="&#x215d;" horiz-adv-x="869" 
d="M163 410q35 0 56.5 18.5t21.5 47.5q0 28 -20 46t-52 18q-39 0 -70 -28l-42 33l24 197h210v-65h-156l-11 -86q27 12 58 12q60 0 97.5 -36t37.5 -93q0 -58 -41.5 -96t-107.5 -38q-75 0 -136 46l32 60q50 -36 99 -36zM109 0l578 739h93l-576 -739h-95zM753 212v-2
q38 -14 59.5 -41t21.5 -60q0 -50 -42 -82.5t-110 -32.5t-110 32t-42 83q0 33 21.5 60.5t59.5 41.5v1q-29 12 -46.5 35t-17.5 51q0 47 37.5 77t97.5 30t97.5 -30t37.5 -77q0 -58 -64 -86zM726 328q-17 15 -44 15t-45 -15q-17 -15 -17 -37t17 -37t45 -15t45 15t17 37t-18 37z
M757 118q0 25 -21 42t-54 17t-54 -17t-21 -42q0 -26 21 -43t54 -17t54 17t21 43z" />
    <glyph glyph-name="seveneighths" unicode="&#x215e;" horiz-adv-x="816" 
d="M136 348h-82l149 323h-179v69h266v-53zM47 0l578 739h93l-576 -739h-95zM700 212v-2q38 -14 59.5 -41t21.5 -60q0 -50 -42 -82.5t-110 -32.5t-110 32t-42 83q0 33 21.5 60.5t59.5 41.5v1q-29 12 -46.5 35t-17.5 51q0 47 37.5 77t97.5 30t97.5 -30t37.5 -77q0 -58 -64 -86
zM673 328q-17 15 -44 15t-45 -15q-17 -15 -17 -37t17 -37t45 -15t45 15t17 37t-18 37zM704 118q0 25 -21 42t-54 17t-54 -17t-21 -42q0 -26 21 -43t54 -17t54 17t21 43z" />
    <glyph glyph-name="partialdiff" unicode="&#x2202;" horiz-adv-x="624" 
d="M291 -12q-108 0 -180 72q-71 73 -71 180q0 109 69 181q69 71 173 73q61 0 111 -29.5t76 -79.5q-10 102 -81 194q-70 93 -184 146l65 74q85 -39 158 -112q149 -140 150 -349q0 -150 -81 -250q-79 -100 -205 -100zM293 84q64 0 109 46t45 114q0 65 -44 109q-44 45 -107 45
q-65 0 -108 -46q-43 -44 -43 -112q0 -63 42 -110q43 -46 106 -46z" />
    <glyph glyph-name="product" unicode="&#x220f;" horiz-adv-x="741" 
d="M35 734h671v-112h-95v-740h-116v740h-249v-740h-116v740h-95v112z" />
    <glyph glyph-name="summation" unicode="&#x2211;" horiz-adv-x="643" 
d="M608 -179h-563v98l215 360l-215 362v98h563v-112h-419l201 -348l-201 -346h419v-112z" />
    <glyph glyph-name="minus" unicode="&#x2212;" horiz-adv-x="598" 
d="M530 285h-462v103h462v-103z" />
    <glyph glyph-name="radical" unicode="&#x221a;" horiz-adv-x="698" 
d="M383 -118h-97l-169 432h-115v104h198l136 -363l256 753h123z" />
    <glyph glyph-name="infinity" unicode="&#x221e;" horiz-adv-x="922" 
d="M680 566q78 0 137 -59t59 -138q0 -80 -59 -139q-58 -58 -139 -58q-52 0 -99.5 30t-117.5 104q-70 -73 -119 -104q-50 -30 -102 -30q-79 0 -137 58t-58 139q0 79 59 138t139 59q51 0 100 -29t119 -102q69 72 118 101.5t100 29.5zM241 262q33 0 68 23q36 23 92 84
q-58 61 -92 84q-32 22 -62 22q-44 0 -76 -32q-31 -31 -31 -76q0 -44 29 -74.5t72 -30.5zM674 262q45 0 76.5 31t31.5 77q0 43 -30.5 74t-73.5 31q-36 0 -68 -22q-34 -23 -90 -82q59 -63 92 -87q31 -22 62 -22z" />
    <glyph glyph-name="integral" unicode="&#x222b;" horiz-adv-x="445" 
d="M94 -210q-65 0 -115 32l31 88q34 -21 70 -21q41 0 65.5 28t24.5 85v618q0 97 49.5 150.5t129.5 53.5q65 0 118 -34l-34 -87q-32 21 -70 21q-41 0 -65 -28t-24 -86v-618q0 -99 -53 -150q-52 -52 -127 -52z" />
    <glyph glyph-name="approxequal" unicode="&#x2248;" horiz-adv-x="656" 
d="M426 391q-48 0 -116 33q-66 33 -92 33q-27 0 -48 -13t-49 -47l-68 52q58 103 170 103q48 0 115 -32t93 -32q29 0 50 13t47 47l70 -53q-63 -104 -172 -104zM429 187q-49 0 -116 33q-66 33 -92 33q-27 0 -48 -13t-49 -47l-68 52q58 103 170 103q48 0 115 -32t93 -32
q29 0 50 13t47 47l70 -53q-63 -104 -172 -104z" />
    <glyph glyph-name="notequal" unicode="&#x2260;" horiz-adv-x="598" 
d="M530 466v-96h-175l-37 -85h212v-96h-254l-48 -110h-78l48 110h-130v96h172l37 85h-209v96h251l49 111h78l-49 -111h133z" />
    <glyph glyph-name="lessequal" unicode="&#x2264;" horiz-adv-x="586" 
d="M511 301v-109l-450 196v69l450 196v-110l-303 -120zM511 146v-96h-457v96h457z" />
    <glyph glyph-name="greaterequal" unicode="&#x2265;" horiz-adv-x="586" 
d="M525 388l-450 -196v109l303 122l-303 120v110l450 -196v-69zM532 50h-457v96h457v-96z" />
    <glyph glyph-name="lozenge" unicode="&#x25ca;" horiz-adv-x="702" 
d="M396 -42h-90l-275 418l275 416h90l275 -416zM160 378l191 -298l192 298l-192 294z" />
    <glyph glyph-name="NULL" horiz-adv-x="0" 
 />
    <glyph glyph-name="Euro.osf" horiz-adv-x="574" 
d="M440 220h-253q27 -104 133.5 -138t228.5 32v-87q-71 -38 -165 -38q-113 0 -192 64q-80 65 -101 167h-85l30 67h-28l30 70h53q23 107 103 171q82 66 192 66t193 -56l-41 -71q-67 43 -144 43q-73 0 -130 -42q-58 -42 -77 -111h310l-33 -67h6z" />
    <glyph glyph-name="I_J.loclNLD" horiz-adv-x="858" 
d="M90 0v739h115v-739h-115zM519 -12q-133 0 -218 94l65 86q60 -70 149 -70q66 0 105 42.5t39 116.5v482h116v-487q0 -128 -72 -196q-71 -68 -184 -68z" />
    <glyph glyph-name="Iacute_J.loclNLD" horiz-adv-x="857" 
d="M196 795h-98l61 173h132zM763 793h-98l61 173h132zM90 0v739h115v-739h-115zM519 -12q-133 0 -218 94l65 86q60 -70 149 -70q66 0 105 42.5t39 116.5v482h116v-487q0 -128 -72 -196q-71 -68 -184 -68z" />
    <glyph glyph-name="J.loclNLD" horiz-adv-x="565" 
d="M472 793h-98l61 173h132zM228 -12q-133 0 -218 94l65 86q60 -70 149 -70q66 0 105 42.5t39 116.5v482h116v-487q0 -128 -72 -196q-71 -68 -184 -68z" />
    <glyph glyph-name="Jacute" horiz-adv-x="565" 
d="M474 793h-98l61 173h132zM228 -12q-133 0 -218 94l65 86q60 -70 149 -70q66 0 105 42.5t39 116.5v482h116v-487q0 -128 -72 -196q-71 -68 -184 -68z" />
    <glyph glyph-name="_1" horiz-adv-x="0" 
 />
    <glyph glyph-name="a.ss02" horiz-adv-x="577" 
d="M270 552q105 0 173 -56q69 -55 69 -172v-324h-102v68q-62 -83 -182 -83q-90 0 -145 50q-53 50 -53 126q0 77 61.5 122.5t173.5 46.5q100 0 142 6q-10 118 -140 118q-87 0 -166 -48l-46 82q89 64 215 64zM242 80q69 0 114 47q46 47 50 119q-42 -5 -102 -5
q-88 0 -125.5 -16.5t-37.5 -63.5q0 -38 27.5 -59.5t73.5 -21.5z" />
    <glyph glyph-name="aacute.ss02" horiz-adv-x="577" 
d="M287 794h130l-93 -170h-97zM270 552q105 0 173 -56q69 -55 69 -172v-324h-102v68q-62 -83 -182 -83q-90 0 -145 50q-53 50 -53 126q0 77 61.5 122.5t173.5 46.5q100 0 142 6q-10 118 -140 118q-87 0 -166 -48l-46 82q89 64 215 64zM242 80q69 0 114 47q46 47 50 119
q-42 -5 -102 -5q-88 0 -125.5 -16.5t-37.5 -63.5q0 -38 27.5 -59.5t73.5 -21.5z" />
    <glyph glyph-name="abreve.ss02" horiz-adv-x="577" 
d="M105 794h92q2 -45 25 -70t62 -25t62 25t25 70h93q-3 -81 -52 -128.5t-128 -47.5t-127.5 47.5t-51.5 128.5zM270 552q105 0 173 -56q69 -55 69 -172v-324h-102v68q-62 -83 -182 -83q-90 0 -145 50q-53 50 -53 126q0 77 61.5 122.5t173.5 46.5q100 0 142 6
q-10 118 -140 118q-87 0 -166 -48l-46 82q89 64 215 64zM242 80q69 0 114 47q46 47 50 119q-42 -5 -102 -5q-88 0 -125.5 -16.5t-37.5 -63.5q0 -38 27.5 -59.5t73.5 -21.5z" />
    <glyph glyph-name="acircumflex.ss02" horiz-adv-x="577" 
d="M351 623l-69 89l-70 -89h-112l143 168h80l143 -168h-115zM270 552q105 0 173 -56q69 -55 69 -172v-324h-102v68q-62 -83 -182 -83q-90 0 -145 50q-53 50 -53 126q0 77 61.5 122.5t173.5 46.5q100 0 142 6q-10 118 -140 118q-87 0 -166 -48l-46 82q89 64 215 64zM242 80
q69 0 114 47q46 47 50 119q-42 -5 -102 -5q-88 0 -125.5 -16.5t-37.5 -63.5q0 -38 27.5 -59.5t73.5 -21.5z" />
    <glyph glyph-name="acute.case" horiz-adv-x="323" 
d="M139 795h-98l61 173h132z" />
    <glyph glyph-name="adieresis.ss02" horiz-adv-x="577" 
d="M182 618q-32 0 -53 21t-21 53q0 31 21 51.5t53 20.5q31 0 52 -20.5t21 -51.5q0 -32 -21 -53t-52 -21zM387 618q-32 0 -53 21t-21 53q0 31 21 51.5t53 20.5q30 0 51 -20.5t21 -51.5q0 -32 -21 -53t-51 -21zM270 552q105 0 173 -56q69 -55 69 -172v-324h-102v68
q-62 -83 -182 -83q-90 0 -145 50q-53 50 -53 126q0 77 61.5 122.5t173.5 46.5q100 0 142 6q-10 118 -140 118q-87 0 -166 -48l-46 82q89 64 215 64zM242 80q69 0 114 47q46 47 50 119q-42 -5 -102 -5q-88 0 -125.5 -16.5t-37.5 -63.5q0 -38 27.5 -59.5t73.5 -21.5z" />
    <glyph glyph-name="agrave.ss02" horiz-adv-x="577" 
d="M285 794l60 -170h-97l-93 170h130zM270 552q105 0 173 -56q69 -55 69 -172v-324h-102v68q-62 -83 -182 -83q-90 0 -145 50q-53 50 -53 126q0 77 61.5 122.5t173.5 46.5q100 0 142 6q-10 118 -140 118q-87 0 -166 -48l-46 82q89 64 215 64zM242 80q69 0 114 47
q46 47 50 119q-42 -5 -102 -5q-88 0 -125.5 -16.5t-37.5 -63.5q0 -38 27.5 -59.5t73.5 -21.5z" />
    <glyph glyph-name="amacron.ss02" horiz-adv-x="577" 
d="M126 736h314v-97l-314 -1v98zM270 552q105 0 173 -56q69 -55 69 -172v-324h-102v68q-62 -83 -182 -83q-90 0 -145 50q-53 50 -53 126q0 77 61.5 122.5t173.5 46.5q100 0 142 6q-10 118 -140 118q-87 0 -166 -48l-46 82q89 64 215 64zM242 80q69 0 114 47q46 47 50 119
q-42 -5 -102 -5q-88 0 -125.5 -16.5t-37.5 -63.5q0 -38 27.5 -59.5t73.5 -21.5z" />
    <glyph glyph-name="aogonek.ss02" horiz-adv-x="576" 
d="M493 -157l35 -75q-49 -29 -99 -29q-53 0 -86 31t-33 80q0 88 104 150h-4v68q-62 -83 -182 -83q-90 0 -145 50q-53 50 -53 126q0 77 61.5 122.5t173.5 46.5q100 0 142 6q-10 118 -140 118q-87 0 -166 -48l-46 82q89 64 215 64q105 0 173 -56q69 -55 69 -172v-324h1
q-47 -20 -77 -54.5t-30 -67.5q0 -21 12.5 -34t32.5 -13q17 0 42 12zM242 80q69 0 114 47q46 47 50 119q-42 -5 -102 -5q-88 0 -125.5 -16.5t-37.5 -63.5q0 -38 27.5 -59.5t73.5 -21.5z" />
    <glyph glyph-name="aring.ss02" horiz-adv-x="577" 
d="M371 637q-35 -33 -86 -33t-87 33q-35 35 -35 83t35 83q37 35 87 35q51 0 86 -35q36 -34 36 -83q0 -48 -36 -83zM285 774q-23 0 -38.5 -15t-15.5 -37q0 -23 15.5 -38.5t38.5 -15.5q21 0 37 15.5t16 38.5q0 21 -16 36.5t-37 15.5zM270 552q105 0 173 -56q69 -55 69 -172
v-324h-102v68q-62 -83 -182 -83q-90 0 -145 50q-53 50 -53 126q0 77 61.5 122.5t173.5 46.5q100 0 142 6q-10 118 -140 118q-87 0 -166 -48l-46 82q89 64 215 64zM242 80q69 0 114 47q46 47 50 119q-42 -5 -102 -5q-88 0 -125.5 -16.5t-37.5 -63.5q0 -38 27.5 -59.5
t73.5 -21.5z" />
    <glyph glyph-name="at.case" horiz-adv-x="971" 
d="M607 519v48h87v-270q0 -32 15 -51t37 -19q41 0 73 50q31 50 31 129q0 136 -103 232q-103 97 -250 96q-151 -1 -256 -109q-105 -107 -105 -262q0 -152 110 -262q109 -109 270 -109q156 0 274 96l44 -69q-54 -47 -142 -78q-86 -33 -183 -32.5t-183 36.5
q-127 50 -203.5 164.5t-77.5 252.5q0 124 60 229q59 104 164 166q103 61 226 61q183 0 313 -122q130 -121 130 -289q0 -112 -60 -187q-60 -74 -146 -74q-44 0 -74.5 21.5t-40.5 55.5q-56 -77 -156 -77q-86 0 -145 62t-59 155q0 91 59 155q60 64 148 64q92 0 143 -63z
M607 362q0 59 -37 99t-92 40q-56 0 -93 -40q-37 -38 -37 -97t36 -98q38 -39 92 -39q56 0 93 39q38 40 38 96z" />
    <glyph glyph-name="atilde.ss02" horiz-adv-x="577" 
d="M225 676q-37 0 -61 -48l-71 34q35 102 127 102q32 0 75 -22t62 -22q37 0 58 46l70 -33q-16 -48 -48.5 -75t-74.5 -27q-31 0 -74 22q-44 23 -63 23zM270 552q105 0 173 -56q69 -55 69 -172v-324h-102v68q-62 -83 -182 -83q-90 0 -145 50q-53 50 -53 126q0 77 61.5 122.5
t173.5 46.5q100 0 142 6q-10 118 -140 118q-87 0 -166 -48l-46 82q89 64 215 64zM242 80q69 0 114 47q46 47 50 119q-42 -5 -102 -5q-88 0 -125.5 -16.5t-37.5 -63.5q0 -38 27.5 -59.5t73.5 -21.5z" />
    <glyph glyph-name="backslash.case" horiz-adv-x="561" 
d="M133 739l406 -739h-113l-406 739h113z" />
    <glyph glyph-name="braceleft.case" horiz-adv-x="390" 
d="M144 365v-4q45 -14 75 -49.5t30 -83.5q0 -21 -5 -99q-4 -63 -4 -100q0 -89 90 -89h32v-98h-52q-178 0 -178 180q0 45 4 106t4 93q0 54 -37 76q-24 15 -78 26v80q49 11 78 26q37 22 37 76q0 31 -4 94t-4 109q0 176 181 176h49v-97h-32q-90 0 -90 -88q0 -39 4 -102
q5 -78 5 -98q0 -48 -30 -83.5t-75 -50.5z" />
    <glyph glyph-name="braceright.case" horiz-adv-x="390" 
d="M247 362v3q-45 13 -75.5 49.5t-30.5 84.5q0 36 4 99q5 78 5 101q0 88 -90 88h-31v98h48q181 0 181 -177q0 -45 -4 -108q-3 -70 -3 -94q0 -36 18 -58q17 -20 37 -28t60 -16v-80q-54 -11 -79 -26q-36 -22 -36 -76q0 -23 3 -94q4 -61 4 -106q0 -179 -178 -179h-51v97h31
q90 0 90 89q0 22 -5 100q-4 63 -4 100q0 47 30.5 83.5t75.5 49.5z" />
    <glyph glyph-name="bracketleft.case" horiz-adv-x="391" 
d="M370 -153h-280v1038h280v-94h-167v-850h167v-94z" />
    <glyph glyph-name="bracketright.case" horiz-adv-x="391" 
d="M301 -153h-280v94h167v850h-167v94h280v-1038z" />
    <glyph glyph-name="breve.case" horiz-adv-x="458" 
d="M41 967h93q2 -45 25.5 -71t62.5 -26q40 0 63.5 26t25.5 71h94q-3 -83 -52.5 -131t-130.5 -48q-80 0 -129 48t-52 131z" />
    <glyph glyph-name="brevecombcy" horiz-adv-x="0" 
d="M-223 596q-119 0 -205 107l60 64q67 -82 145 -82t145 82l61 -64q-90 -107 -206 -107z" />
    <glyph glyph-name="caron.alt" horiz-adv-x="304" 
d="M121 622h-93l58 171h120z" />
    <glyph glyph-name="caron.case" horiz-adv-x="502" 
d="M209 790l-143 168h112l70 -89l69 89h115l-143 -168h-80z" />
    <glyph glyph-name="cedilla.case" horiz-adv-x="324" 
d="M183 -48h3q46 0 76 -25.5t30 -69.5q0 -48 -36 -80.5t-99 -32.5q-53 0 -117 29l27 69q43 -21 81 -21q26 0 41 11.5t15 30.5q0 36 -53 36h-56l-8 23l39 98l84 -2z" />
    <glyph glyph-name="circumflex.case" horiz-adv-x="499" 
d="M152 795h-113l145 171h81l145 -171h-116l-71 90z" />
    <glyph glyph-name="colon.case" horiz-adv-x="276" 
d="M139 452q-30 0 -50.5 20t-20.5 50q0 29 20.5 49t50.5 20q29 0 49 -20t20 -49q0 -30 -20 -50t-49 -20zM139 112q-30 0 -50.5 20t-20.5 50q0 29 20.5 49t50.5 20q29 0 49 -20t20 -49q0 -30 -20 -50t-49 -20z" />
    <glyph glyph-name="comma.ss03" horiz-adv-x="221" 
d="M12 -177l74 301h108l-101 -301h-81z" />
    <glyph glyph-name="commaccent" horiz-adv-x="237" 
d="M131 -73q31 0 52.5 -22.5t21.5 -56.5q0 -84 -131 -173l-37 50q64 49 80 71q-24 2 -41 20t-17 43q0 28 21 48t51 20z" />
    <glyph glyph-name="commaccent.case" horiz-adv-x="190" 
d="M133 -74q31 0 53 -22.5t22 -57.5q0 -87 -132 -174l-38 50q62 46 81 72q-24 2 -41 20.5t-17 43.5q0 28 21 48t51 20z" />
    <glyph glyph-name="dieresis.case" horiz-adv-x="426" 
d="M45 880q0 28 20 47.5t49 19.5t48.5 -19.5t19.5 -47.5q0 -30 -19.5 -49.5t-48.5 -19.5t-49 19.5t-20 49.5zM236 880q0 29 19.5 48t48.5 19q28 0 47.5 -19.5t19.5 -47.5q0 -30 -19 -49.5t-48 -19.5t-48.5 19.5t-19.5 49.5z" />
    <glyph glyph-name="dollar.osf" horiz-adv-x="500" 
d="M473 161q0 -63 -46 -109t-121 -59v-115h-96v113q-130 20 -186 122l74 64q53 -93 157 -93q48 0 76 20t28 53q0 23 -15 38t-50 31l-64 27q-53 23 -76 36q-96 55 -96 140q0 64 43.5 107t117.5 54v106h97v-108q84 -17 142 -80l-64 -69q-60 61 -134 61q-42 0 -68.5 -17.5
t-26.5 -47.5q0 -39 65 -71q21 -11 73 -33q47 -19 77 -35q93 -52 93 -135z" />
    <glyph glyph-name="dotaccent.case" horiz-adv-x="302" 
d="M116 806q-32 0 -54 21.5t-22 53.5q0 31 22 52t54 21q31 0 52 -21t21 -52q0 -32 -21 -53.5t-52 -21.5z" />
    <glyph glyph-name="eight.dnom" horiz-adv-x="381" 
d="M38 109q0 33 21.5 60.5t59.5 41.5v1q-29 12 -46.5 35t-17.5 51q0 47 37.5 77t97.5 30t97.5 -30t37.5 -77q0 -58 -64 -86v-2q38 -14 59.5 -41t21.5 -60q0 -50 -42 -82.5t-110 -32.5t-110 32t-42 83zM145 254q17 -15 45 -15t45 15t17 37t-18 37q-17 15 -44 15t-45 -15
q-17 -15 -17 -37t17 -37zM265 118q0 25 -21 42t-54 17t-54 -17t-21 -42q0 -26 21 -43t54 -17t54 17t21 43z" />
    <glyph glyph-name="eight.lf" horiz-adv-x="628" 
d="M315 -12q-119 0 -194 60t-75 152q0 62 39 114.5t104 76.5v2q-52 25 -82 68t-30 96q0 85 66 140q65 55 172 55q106 0 170 -55q66 -55 66 -140q0 -53 -30 -96.5t-83 -67.5v-3q66 -23 105 -75t39 -115q0 -92 -75 -152q-73 -60 -192 -60zM442 546q0 48 -35.5 79t-92.5 31
q-58 0 -94 -31t-36 -79t36 -79t94 -31t93 31t35 79zM315 89q67 0 110 35.5t43 90.5q0 54 -42.5 88t-111.5 34t-111.5 -34t-42.5 -88q0 -55 43 -90.5t112 -35.5z" />
    <glyph glyph-name="eight.num" horiz-adv-x="381" 
d="M38 456q0 33 21.5 60.5t59.5 41.5v1q-29 12 -46.5 35t-17.5 51q0 47 37.5 77t97.5 30t97.5 -30t37.5 -77q0 -58 -64 -86v-2q38 -14 59.5 -41t21.5 -60q0 -50 -42 -82.5t-110 -32.5t-110 32t-42 83zM145 601q17 -15 45 -15t45 15t17 37t-18 37q-17 15 -44 15t-45 -15
q-17 -15 -17 -37t17 -37zM265 465q0 25 -21 42t-54 17t-54 -17t-21 -42q0 -26 21 -43t54 -17t54 17t21 43z" />
    <glyph glyph-name="eight.osf" horiz-adv-x="622" 
d="M312 -11q-119 0 -194 57q-75 58 -75 146q0 60 39 110t104 72v2q-52 24 -82 65t-30 91q0 82 66 134q67 53 172 53t170 -53q66 -53 66 -134q0 -50 -30 -91.5t-83 -64.5v-3q65 -21 104.5 -71t39.5 -110q0 -88 -75 -146q-74 -57 -192 -57zM440 522q0 46 -36 75.5t-93 29.5
t-93.5 -29.5t-36.5 -75.5t35.5 -75t94.5 -29q58 0 93.5 29t35.5 75zM312 87q67 0 110 33.5t43 85.5q0 51 -42.5 83.5t-111.5 32.5t-112 -32.5t-43 -83.5q0 -52 43.5 -85.5t112.5 -33.5z" />
    <glyph glyph-name="eight.tf" horiz-adv-x="602" 
d="M301 -12q-119 0 -194 60t-75 152q0 62 39 114.5t104 76.5v2q-52 25 -82 68t-30 96q0 85 66 140q65 55 172 55q106 0 170 -55q66 -55 66 -140q0 -53 -30 -96.5t-83 -67.5v-3q66 -23 105 -75t39 -115q0 -92 -75 -152q-73 -60 -192 -60zM428 546q0 48 -35.5 79t-92.5 31
q-58 0 -94 -31t-36 -79t36 -79t94 -31t93 31t35 79zM301 89q67 0 110 35.5t43 90.5q0 54 -42.5 88t-111.5 34t-111.5 -34t-42.5 -88q0 -55 43 -90.5t112 -35.5z" />
    <glyph glyph-name="eight_fraction_nine" horiz-adv-x="857" 
d="M341 456q0 -50 -42 -82.5t-110 -32.5t-110 32t-42 83q0 33 21.5 60.5t59.5 41.5v1q-29 12 -46.5 35t-17.5 51q0 47 37.5 77t97.5 30t97.5 -30t37.5 -77q0 -58 -64 -86v-2q38 -14 59.5 -41t21.5 -60zM99 -1l578 739h93l-576 -739h-95zM233 675q-17 15 -44 15t-45 -15
q-17 -15 -17 -37t17 -37t45 -15t45 15t17 37t-18 37zM114 465q0 -26 21 -43t54 -17t54 17t21 43q0 25 -21 42t-54 17t-54 -17t-21 -42zM666 405q73 0 113 -52.5t40 -141.5q0 -93 -44 -155t-131 -62q-69 0 -112 34l29 57q37 -25 79 -25q50 0 78.5 35.5t31.5 94.5
q-36 -48 -98 -48q-59 0 -95.5 36t-36.5 91q0 60 41 98t105 38zM664 204q30 0 50.5 19.5t20.5 47.5q0 29 -20 49.5t-50 20.5q-31 0 -51 -20t-20 -50q0 -29 19.5 -48t50.5 -19z" />
    <glyph glyph-name="emdash.case" horiz-adv-x="1044" 
d="M976 322h-908v111h908v-111z" />
    <glyph glyph-name="endash.case" horiz-adv-x="725" 
d="M657 322h-589v111h589v-111z" />
    <glyph glyph-name="exclamdown.case" horiz-adv-x="291" 
d="M159 756q29 0 48.5 -20t19.5 -50q0 -29 -19.5 -48.5t-48.5 -19.5q-30 0 -50.5 19.5t-20.5 48.5q0 30 20.5 50t50.5 20zM98 -1l5 557h108l6 -557h-119z" />
    <glyph glyph-name="five.dnom" horiz-adv-x="345" 
d="M176 256q60 0 97.5 -36t37.5 -93q0 -58 -41.5 -96t-107.5 -38q-75 0 -136 46l32 60q50 -36 99 -36q35 0 56.5 18.5t21.5 47.5q0 28 -20 46t-52 18q-39 0 -70 -28l-42 33l24 197h210v-65h-156l-11 -86q27 12 58 12z" />
    <glyph glyph-name="five.lf" horiz-adv-x="578" 
d="M291 480q106 0 177 -68t71 -174q0 -110 -75 -180q-73 -70 -192 -70q-132 0 -240 87l51 90q94 -71 185 -71q68 0 112 41q43 40 43 102q0 59 -42 100q-41 40 -106 40q-78 0 -132 -55l-72 48l41 369h377v-104h-289l-22 -180q51 25 113 25z" />
    <glyph glyph-name="five.num" horiz-adv-x="345" 
d="M176 603q60 0 97.5 -36t37.5 -93q0 -58 -41.5 -96t-107.5 -38q-75 0 -136 46l32 60q50 -36 99 -36q35 0 56.5 18.5t21.5 47.5q0 28 -20 46t-52 18q-39 0 -70 -28l-42 33l24 197h210v-65h-156l-11 -86q27 12 58 12z" />
    <glyph glyph-name="five.osf" horiz-adv-x="560" 
d="M281 341q105 0 176 -63q71 -62 71 -160q0 -101 -74 -166t-191 -65q-129 0 -238 80l50 85q92 -65 184 -65q69 0 110 37q43 37 43 92t-41.5 91.5t-105.5 36.5q-76 0 -130 -51l-72 46l41 340h374v-97h-287l-21 -165q52 24 111 24z" />
    <glyph glyph-name="five.tf" horiz-adv-x="602" 
d="M302 480q106 0 177 -68t71 -174q0 -110 -75 -180q-73 -70 -192 -70q-132 0 -240 87l51 90q94 -71 185 -71q68 0 112 41q43 40 43 102q0 59 -42 100q-41 40 -106 40q-78 0 -132 -55l-72 48l41 369h377v-104h-289l-22 -180q51 25 113 25z" />
    <glyph glyph-name="five_fraction_nine" horiz-adv-x="855" 
d="M163 410q35 0 56.5 18.5t21.5 47.5q0 28 -20 46t-52 18q-39 0 -70 -28l-42 33l24 197h210v-65h-156l-11 -86q27 12 58 12q60 0 97.5 -36t37.5 -93q0 -58 -41.5 -96t-107.5 -38q-75 0 -136 46l32 60q50 -36 99 -36zM97 -1l578 739h93l-576 -739h-95zM664 405
q73 0 113 -52.5t40 -141.5q0 -93 -44 -155t-131 -62q-69 0 -112 34l29 57q37 -25 79 -25q50 0 78.5 35.5t31.5 94.5q-36 -48 -98 -48q-59 0 -95.5 36t-36.5 91q0 60 41 98t105 38zM662 204q30 0 50.5 19.5t20.5 47.5q0 29 -20 49.5t-50 20.5q-31 0 -51 -20t-20 -50
q0 -29 19.5 -48t50.5 -19z" />
    <glyph glyph-name="five_fraction_seven" horiz-adv-x="856" 
d="M168 410q35 0 56.5 18.5t21.5 47.5q0 28 -20 46t-52 18q-39 0 -70 -28l-42 33l24 197h210v-65h-156l-11 -86q27 12 58 12q60 0 97.5 -36t37.5 -93q0 -58 -41.5 -96t-107.5 -38q-75 0 -136 46l32 60q49 -36 99 -36zM102 0l578 739h93l-576 -739h-95zM542 324v69h266v-53
l-154 -339h-82l149 323h-179z" />
    <glyph glyph-name="four.dnom" horiz-adv-x="367" 
d="M288 158h43v-63h-43v-95h-70v95h-183l-16 46l213 255h56v-238zM218 288l-109 -130h109v130z" />
    <glyph glyph-name="four.lf" horiz-adv-x="601" 
d="M479 280h82v-99h-82v-181h-110v181h-338l-23 72l398 486h73v-459zM369 547l-218 -267h218v267z" />
    <glyph glyph-name="four.num" horiz-adv-x="367" 
d="M288 505h43v-63h-43v-95h-70v95h-183l-16 46l213 255h56v-238zM218 635l-109 -130h109v130z" />
    <glyph glyph-name="four.osf" horiz-adv-x="599" 
d="M478 152h82v-91h-82v-160h-109v160h-329l-24 69l390 452h72v-430zM369 400l-212 -248h212v248z" />
    <glyph glyph-name="four.tf" horiz-adv-x="602" 
d="M491 280h82v-99h-82v-181h-110v181h-338l-23 72l398 486h73v-459zM381 547l-218 -267h218v267z" />
    <glyph glyph-name="four_fraction_nine" horiz-adv-x="919" 
d="M299 347h-70v95h-183l-16 46l213 255h56v-238h43v-63h-43v-95zM150 -1l578 739h93l-577 -739h-94zM229 635l-109 -130h109v130zM718 405q73 0 113 -52.5t40 -141.5q0 -93 -44 -155t-131 -62q-69 0 -112 34l29 57q37 -25 79 -25q50 0 78.5 35.5t31.5 94.5q-36 -48 -98 -48
q-59 0 -95.5 36t-36.5 91q0 60 41 98t105 38zM716 204q30 0 50.5 19.5t20.5 47.5q0 29 -20 49.5t-50 20.5q-31 0 -51 -20t-20 -50q0 -29 19.5 -48t50.5 -19z" />
    <glyph glyph-name="four_fraction_seven" horiz-adv-x="888" 
d="M299 347h-70v95h-183l-16 46l213 255h56v-238h43v-63h-43v-95zM130 0l578 739h93l-576 -739h-95zM229 635l-109 -130h109v130zM571 324v69h266v-53l-154 -339h-82l149 323h-179z" />
    <glyph glyph-name="grave.case" horiz-adv-x="310" 
d="M174 968l61 -173h-100l-95 173h134z" />
    <glyph glyph-name="guillemotleft.case" horiz-adv-x="550" 
d="M295 176h-111l-140 203l140 203h111l-141 -203zM493 176h-112l-139 203l139 203h112l-141 -203z" />
    <glyph glyph-name="guillemotright.case" horiz-adv-x="550" 
d="M307 379l-138 -203h-113l141 203l-141 203h113zM506 379l-140 -203h-112l142 203l-142 203h112z" />
    <glyph glyph-name="guilsinglleft.case" horiz-adv-x="352" 
d="M295 176h-111l-140 203l140 203h111l-141 -203z" />
    <glyph glyph-name="guilsinglright.case" horiz-adv-x="352" 
d="M308 379l-140 -203h-112l142 203l-142 203h112z" />
    <glyph glyph-name="hungarumlaut.case" horiz-adv-x="525" 
d="M142 795h-93l42 173h131zM330 795h-94l51 173h132z" />
    <glyph glyph-name="hyphen.case" horiz-adv-x="530" 
d="M462 322h-394v111h394v-111z" />
    <glyph glyph-name="i.loclTRK" horiz-adv-x="253" 
d="M129 610q-32 0 -54 21.5t-22 53.5q0 31 22 52t54 21q31 0 52 -21t21 -52q0 -32 -21 -53.5t-52 -21.5zM182 539v-539h-110v539h110z" />
    <glyph glyph-name="i_j.loclNLD" horiz-adv-x="551" 
d="M129 610q-32 0 -54 21.5t-22 53.5q0 31 22 52t54 21q31 0 52 -21t21 -52q0 -32 -21 -53.5t-52 -21.5zM398 610q-32 0 -54 21.5t-22 53.5q0 31 22 52t54 21q31 0 52 -21t21 -52q0 -32 -21 -53.5t-52 -21.5zM182 539v-539h-110v539h110zM266 -230q-68 0 -105 24l22 90
q42 -14 68 -14q92 0 92 109v560h110v-558q0 -103 -49.5 -157t-137.5 -54z" />
    <glyph glyph-name="iacute_j.loclNLD" horiz-adv-x="525" 
d="M175 624h-97l60 170h130zM451 624h-97l60 170h130zM181 539v-539h-110v539h110zM266 -230q-68 0 -105 24l22 90q42 -14 68 -14q92 0 92 109v560h110v-558q0 -103 -49.5 -157t-137.5 -54z" />
    <glyph glyph-name="j.loclNLD" horiz-adv-x="277" 
d="M150 610q-32 0 -54 21.5t-22 53.5q0 31 22 52t54 21q31 0 52 -21t21 -52q0 -32 -21 -53.5t-52 -21.5zM18 -230q-68 0 -105 24l22 90q42 -14 68 -14q92 0 92 109v560h110v-558q0 -103 -49.5 -157t-137.5 -54z" />
    <glyph glyph-name="jacute" horiz-adv-x="277" 
d="M195 624h-97l60 170h130zM18 -230q-68 0 -105 24l22 90q42 -14 68 -14q92 0 92 109v560h110v-558q0 -103 -49.5 -157t-137.5 -54z" />
    <glyph glyph-name="macron.case" horiz-adv-x="476" 
d="M392 822l-349 -1v98h349v-97z" />
    <glyph glyph-name="nine.dnom" horiz-adv-x="372" 
d="M179 405q73 0 113 -52.5t40 -141.5q0 -93 -44 -155t-131 -62q-69 0 -112 34l29 57q37 -25 79 -25q50 0 78.5 35.5t31.5 94.5q-36 -48 -98 -48q-59 0 -95.5 36t-36.5 91q0 60 41 98t105 38zM177 204q30 0 50.5 19.5t20.5 47.5q0 29 -20 49.5t-50 20.5q-31 0 -51 -20
t-20 -50q0 -29 19.5 -48t50.5 -19z" />
    <glyph glyph-name="nine.lf" horiz-adv-x="615" 
d="M298 752q131 0 200 -99q69 -97 69 -260q0 -82 -18 -153t-53.5 -128.5t-95 -90.5t-137.5 -33q-119 0 -196 63l43 88q70 -50 148 -50q97 0 147 77q49 76 54 194q-27 -43 -76.5 -69t-108.5 -26q-101 0 -167 67q-66 68 -66 171q0 107 72 178q73 71 185 71zM436 505
q0 61 -41 104q-40 43 -99 43q-62 0 -102 -42q-41 -43 -41 -105q0 -61 40 -101.5t101 -40.5t101 40q41 41 41 102z" />
    <glyph glyph-name="nine.num" horiz-adv-x="372" 
d="M179 752q73 0 113 -52.5t40 -141.5q0 -93 -44 -155t-131 -62q-69 0 -112 34l29 57q37 -25 79 -25q50 0 78.5 35.5t31.5 94.5q-36 -48 -98 -48q-59 0 -95.5 36t-36.5 91q0 60 41 98t105 38zM177 551q30 0 50.5 19.5t20.5 47.5q0 29 -20 49.5t-50 20.5q-31 0 -51 -20
t-20 -50q0 -29 19.5 -48t50.5 -19z" />
    <glyph glyph-name="nine.osf" horiz-adv-x="600" 
d="M289 611q132 0 199 -94q69 -93 69 -246q0 -105 -30.5 -189.5t-100.5 -139.5t-172 -55q-116 0 -195 59l43 85q71 -47 147 -47q98 0 147 73q50 74 53 184q-26 -42 -75 -66.5t-108 -24.5q-102 0 -167 64q-65 65 -65 162q0 102 71 168q71 67 184 67zM285 244q60 0 101 38
t41 95q0 58 -41 97q-40 40 -99 40q-61 0 -101.5 -38.5t-40.5 -98.5q0 -58 40 -95.5t100 -37.5z" />
    <glyph glyph-name="nine.tf" horiz-adv-x="602" 
d="M292 752q131 0 200 -99q69 -97 69 -260q0 -82 -18 -153t-53.5 -128.5t-95 -90.5t-137.5 -33q-119 0 -196 63l43 88q70 -50 148 -50q97 0 147 77q49 76 54 194q-27 -43 -76.5 -69t-108.5 -26q-101 0 -167 67q-66 68 -66 171q0 107 72 178q73 71 185 71zM430 505
q0 61 -41 104q-40 43 -99 43q-62 0 -102 -42q-41 -43 -41 -105q0 -61 40 -101.5t101 -40.5t101 40q41 41 41 102z" />
    <glyph glyph-name="ogonek.case" horiz-adv-x="325" 
d="M223 -157l35 -75q-49 -29 -99 -29q-53 0 -86 31t-33 80q0 100 135 167l68 -17q-47 -20 -77 -54.5t-30 -67.5q0 -21 12.5 -34t32.5 -13q17 0 42 12z" />
    <glyph glyph-name="one.dnom" horiz-adv-x="269" 
d="M15 286l136 107h59v-394h-79v284l-74 -58z" />
    <glyph glyph-name="one.lf" horiz-adv-x="396" 
d="M2 561l215 178h89v-739h-114v584l-128 -104z" />
    <glyph glyph-name="one.num" horiz-adv-x="269" 
d="M15 633l136 107h60v-393h-80v283l-74 -58z" />
    <glyph glyph-name="one.numalt" horiz-adv-x="333" 
d="M27 633l136 107h59v-394h-79v284l-74 -58z" />
    <glyph glyph-name="one.osf" horiz-adv-x="481" 
d="M327 585v-490h141v-95h-428v95h177v357l-165 -109l-54 83l237 159h92z" />
    <glyph glyph-name="one.tf" horiz-adv-x="602" 
d="M379 739v-633h156v-106h-433v106h163v478l-128 -104l-62 81l215 178h89z" />
    <glyph glyph-name="parenleft.case" horiz-adv-x="402" 
d="M391 -65l-49 -84q-145 78 -223 211.5t-78 302.5q0 170 78.5 303.5t224.5 211.5l47 -85q-230 -155 -230 -430q0 -272 230 -430z" />
    <glyph glyph-name="parenright.case" horiz-adv-x="402" 
d="M59 -149l-48 84q230 158 230 430q0 275 -230 430l46 85q147 -78 225.5 -212t78.5 -303t-78 -302.5t-224 -211.5z" />
    <glyph glyph-name="periodcentered.case" horiz-adv-x="259" 
d="M130 298q-30 0 -50.5 20t-20.5 50q0 29 20.5 49t50.5 20q29 0 49 -20t20 -49q0 -30 -20 -50t-49 -20z" />
    <glyph glyph-name="questiondown.case" horiz-adv-x="524" 
d="M296 756q30 0 51 -20t21 -50q0 -29 -21 -48.5t-51 -19.5q-28 0 -48 19.5t-20 48.5q0 30 20 50t48 20zM246 568h105v-71q0 -77 -69 -135q-7 -6 -27.5 -24t-30 -26.5t-25.5 -25.5t-23.5 -29.5t-13.5 -29.5t-6 -34q0 -49 35 -80t88 -31q76 0 151 82l68 -77q-42 -51 -102 -80
t-125 -29q-95 0 -163 59q-66 60 -66 151q0 87 72 152q11 10 35 30t37 32t29 29.5t23.5 34.5t7.5 34v68z" />
    <glyph glyph-name="quotedblbase.ss03" horiz-adv-x="482" 
d="M36 -148l74 301h108l-101 -301h-81zM262 -148l74 301h108l-101 -301h-81z" />
    <glyph glyph-name="quotedblleft.ss03" horiz-adv-x="461" 
d="M221 837l-74 -301h-108l101 301h81zM449 837l-74 -301h-108l101 301h81z" />
    <glyph glyph-name="quotedblright.ss03" horiz-adv-x="476" 
d="M39 537l74 301h108l-101 -301h-81zM265 537l74 301h108l-101 -301h-81z" />
    <glyph glyph-name="quoteleft.ss03" horiz-adv-x="241" 
d="M217 837l-74 -301h-108l101 301h81z" />
    <glyph glyph-name="quoteright.ss03" horiz-adv-x="239" 
d="M44 537l74 301h108l-101 -301h-81z" />
    <glyph glyph-name="quotesinglbase.ss03" horiz-adv-x="247" 
d="M10 -148l74 301h108l-101 -301h-81z" />
    <glyph glyph-name="ring.case" horiz-adv-x="338" 
d="M252 812q-34 -34 -87 -34t-88 34q-36 34 -36 84t36 85q37 35 88 35q52 0 87 -35q36 -35 36 -85t-36 -84zM165 843q21 0 37 16t16 39q0 22 -16 37.5t-37 15.5q-23 0 -39 -15.5t-16 -37.5q0 -23 16 -39t39 -16z" />
    <glyph glyph-name="semicolon.case" horiz-adv-x="293" 
d="M155 453q-30 0 -51 20.5t-21 50.5q0 29 21 49t51 20q29 0 49.5 -20t20.5 -49q0 -30 -20.5 -50.5t-49.5 -20.5zM152 263q32 0 53.5 -23t21.5 -58q0 -93 -134 -180l-34 47q71 54 86 83h-4q-25 0 -43 18.5t-18 44.5q0 28 21.5 48t50.5 20z" />
    <glyph glyph-name="semicolon.case.ss03" horiz-adv-x="293" 
d="M155 453q-30 0 -51 20.5t-21 50.5q0 29 21 49t51 20q29 0 49.5 -20t20.5 -49q0 -30 -20.5 -50.5t-49.5 -20.5zM22 -146l74 301h108l-101 -301h-81z" />
    <glyph glyph-name="semicolon.ss03" horiz-adv-x="275" 
d="M149 349q-30 0 -51 20.5t-21 50.5q0 29 21 49t51 20q29 0 49.5 -20t20.5 -49q0 -30 -20.5 -50.5t-49.5 -20.5zM22 -177l74 301h108l-101 -301h-81z" />
    <glyph glyph-name="seven.dnom" horiz-adv-x="292" 
d="M13 324v69h266v-53l-154 -339h-82l149 323h-179z" />
    <glyph glyph-name="seven.lf" horiz-adv-x="510" 
d="M21 635v104h470v-73l-280 -666h-122l273 635h-341z" />
    <glyph glyph-name="seven.num" horiz-adv-x="292" 
d="M13 671v69h266v-53l-154 -339h-82l149 323h-179z" />
    <glyph glyph-name="seven.osf" horiz-adv-x="502" 
d="M16 479v100h470v-71l-280 -607h-123l272 578h-339z" />
    <glyph glyph-name="seven.tf" horiz-adv-x="602" 
d="M70 636v103h487v-70l-329 -669h-123l319 636h-354z" />
    <glyph glyph-name="seven_fraction_nine" horiz-adv-x="810" 
d="M135 348h-82l149 323h-179v69h266v-53zM32 -1l578 739h93l-576 -739h-95zM617 405q73 0 113 -52.5t40 -141.5q0 -93 -44 -155t-131 -62q-69 0 -112 34l29 57q37 -25 79 -25q50 0 78.5 35.5t31.5 94.5q-36 -48 -98 -48q-59 0 -95.5 36t-36.5 91q0 60 41 98t105 38z
M615 204q30 0 50.5 19.5t20.5 47.5q0 29 -20 49.5t-50 20.5q-31 0 -51 -20t-20 -50q0 -29 19.5 -48t50.5 -19z" />
    <glyph glyph-name="six.dnom" horiz-adv-x="350" 
d="M192 256q58 0 95 -36t37 -92q0 -59 -40.5 -97t-104.5 -38q-75 0 -116 54q-40 55 -40 138q0 94 46 156q46 64 134 64q65 0 111 -34l-31 -57q-34 25 -76 25q-50 0 -80 -39q-30 -38 -33 -90q31 46 98 46zM179 58q31 0 51.5 20t20.5 49t-20.5 48t-50.5 19q-31 0 -51.5 -19
t-20.5 -48t20.5 -49t50.5 -20z" />
    <glyph glyph-name="six.lf" 
d="M345 477q100 0 168 -68q67 -67 67 -170q0 -108 -73 -178q-71 -70 -184 -70q-131 0 -203.5 101.5t-69.5 254.5q0 106 32 196t104 149q74 60 175 60q113 0 193 -63l-49 -86q-64 48 -137 48q-66 0 -116 -45q-89 -82 -91 -231q25 48 73.5 75t110.5 27zM324 92q60 0 101 42
q41 43 41 104q0 60 -41 101q-40 40 -100 40q-62 0 -102 -40q-41 -41 -41 -102q0 -60 41 -103q41 -42 101 -42z" />
    <glyph glyph-name="six.num" horiz-adv-x="350" 
d="M192 603q58 0 95 -36t37 -92q0 -59 -40.5 -97t-104.5 -38q-75 0 -116 54q-40 55 -40 138q0 94 46 156q46 64 134 64q65 0 111 -34l-31 -57q-34 25 -76 25q-50 0 -80 -39q-30 -37 -33 -90q31 46 98 46zM179 405q31 0 51.5 20t20.5 49t-20.5 48t-50.5 19q-31 0 -51.5 -19
t-20.5 -48t20.5 -49t50.5 -20z" />
    <glyph glyph-name="six.osf" horiz-adv-x="608" 
d="M333 456q100 0 167 -65q67 -64 67 -164q0 -101 -72 -169q-71 -67 -183 -67q-132 0 -202 96q-70 95 -70 244q0 100 32 187q32 86 104 143t173 57q111 0 193 -60l-49 -83q-65 45 -137 45q-68 0 -117 -43q-87 -78 -89 -220l-1 -1q25 47 73.5 73.5t110.5 26.5zM312 88
q62 0 102 40q41 41 41 99q0 57 -41 95t-100 38q-61 0 -102 -38t-41 -96q0 -57 41 -98q40 -40 100 -40z" />
    <glyph glyph-name="six.tf" horiz-adv-x="602" 
d="M337 477q100 0 168 -68q67 -67 67 -170q0 -108 -73 -178q-71 -70 -184 -70q-131 0 -203.5 101.5t-69.5 254.5q0 106 32 196t104 149q74 60 175 60q113 0 193 -63l-49 -86q-64 48 -137 48q-66 0 -116 -45q-89 -82 -91 -231q25 48 73.5 75t110.5 27zM316 92q60 0 101 42
q41 43 41 104q0 60 -41 101q-40 40 -100 40q-62 0 -102 -40q-41 -41 -41 -102q0 -60 41 -103q40 -42 101 -42z" />
    <glyph glyph-name="six_fraction_seven" horiz-adv-x="861" 
d="M326 475q0 -59 -40.5 -97t-104.5 -38q-75 0 -116 54q-40 55 -40 138q0 94 46 156q46 64 134 64q65 0 111 -34l-31 -57q-34 25 -76 25q-50 0 -80 -39q-30 -37 -33 -90q31 46 98 46q58 0 95 -36t37 -92zM103 0l578 739h93l-576 -739h-95zM181 405q31 0 51.5 20t20.5 49
t-20.5 48t-50.5 19q-31 0 -51.5 -19t-20.5 -48t20.5 -49t50.5 -20zM548 324v69h266v-53l-154 -339h-82l149 323h-179z" />
    <glyph glyph-name="slash.case" horiz-adv-x="561" 
d="M135 0h-113l405 739h114z" />
    <glyph glyph-name="sterling.osf" horiz-adv-x="480" 
d="M161 94h309v-94h-437v75q40 28 63 65.5t23 73.5q0 20 -7 41h-80v77h48q-15 38 -15 70q0 84 59 137q58 52 148 54q135 2 197 -113l-75 -52q-39 75 -116 75q-47 0 -77 -31t-30 -77q0 -29 14 -63h221v-77h-190q5 -20 5 -36q0 -71 -60 -125z" />
    <glyph glyph-name="three.dnom" horiz-adv-x="332" 
d="M147 -6q-67 0 -132 39l32 61q55 -30 97 -30q32 0 51 14.5t19 38.5q0 23 -19.5 38t-50.5 15h-52v67h48q27 0 46.5 13.5t19.5 35.5t-17 35t-43 13q-40 0 -83 -31l-38 55q53 47 130 47q56 0 93.5 -30.5t37.5 -74.5q0 -32 -19.5 -56t-52.5 -34v-2q38 -8 59.5 -34.5
t21.5 -62.5q0 -52 -41.5 -84.5t-106.5 -32.5z" />
    <glyph glyph-name="three.lf" horiz-adv-x="557" 
d="M250 -12q-122 0 -232 73l51 93q95 -60 177 -60q65 0 103 31.5t38 83.5t-39 84.5t-101 32.5h-92v104h88q58 0 94 30t36 79q0 48 -35 77t-88 29q-74 0 -157 -62l-58 81q41 41 101.5 64.5t124.5 23.5q99 0 164 -56t65 -138q0 -59 -35 -104.5t-92 -63.5v-4q68 -16 106 -64.5
t38 -117.5q0 -94 -72 -156q-71 -60 -185 -60z" />
    <glyph glyph-name="three.num" horiz-adv-x="332" 
d="M147 341q-67 0 -132 39l32 61q56 -30 97 -30q32 0 51 14.5t19 38.5q0 23 -19.5 38t-50.5 15h-52v67h48q27 0 46.5 13.5t19.5 35.5t-17 35t-43 13q-40 0 -83 -31l-38 55q53 47 130 47q56 0 93.5 -30.5t37.5 -74.5q0 -32 -19.5 -56t-52.5 -34v-2q38 -8 59.5 -34.5
t21.5 -62.5q0 -52 -41.5 -84.5t-106.5 -32.5z" />
    <glyph glyph-name="three.osf" horiz-adv-x="539" 
d="M241 -112q-123 0 -230 67l51 88q94 -55 177 -55q64 0 102 29t38 76t-38.5 76.5t-100.5 29.5h-93v98h88q58 0 94 27.5t36 70.5q0 44 -34.5 70.5t-87.5 26.5q-75 0 -158 -57l-57 77q40 38 100 60t124 22q99 0 163 -52t64 -128q0 -54 -34.5 -96t-91.5 -59v-3
q68 -14 105.5 -59t37.5 -109q0 -88 -71 -144t-184 -56z" />
    <glyph glyph-name="three.tf" horiz-adv-x="602" 
d="M267 -12q-122 0 -232 73l51 93q94 -60 177 -60q65 0 103 31.5t38 83.5t-39 84.5t-101 32.5h-92v104h88q58 0 94 30t36 79q0 48 -35 77t-88 29q-74 0 -157 -62l-58 81q41 41 101.5 64.5t124.5 23.5q99 0 164 -56t65 -138q0 -59 -35 -104.5t-92 -63.5v-4q68 -16 106 -64.5
t38 -117.5q0 -94 -72 -156q-70 -60 -185 -60z" />
    <glyph glyph-name="three_fraction_seven" horiz-adv-x="865" 
d="M155 411q32 0 51 14.5t19 38.5q0 23 -19.5 38t-50.5 15h-52v67h48q27 0 46.5 13.5t19.5 35.5t-17 35t-43 13q-40 0 -83 -31l-38 55q53 47 130 47q56 0 93.5 -30.5t37.5 -74.5q0 -32 -19.5 -56t-52.5 -34v-2q38 -8 59.5 -34.5t21.5 -62.5q0 -52 -41.5 -84.5t-106.5 -32.5
q-68 0 -132 39l32 61q56 -30 97 -30zM104 0l578 739h93l-576 -739h-95zM552 324v69h266v-53l-154 -339h-82l149 323h-179z" />
    <glyph glyph-name="tilde.case" horiz-adv-x="547" 
d="M112 819l-72 35q36 103 129 103q32 0 76 -23q43 -22 62 -22q36 0 59 47l70 -34q-16 -48 -49 -75.5t-75 -27.5q-31 0 -75 23t-63 23q-38 0 -62 -49z" />
    <glyph glyph-name="two.dnom" horiz-adv-x="345" 
d="M246 170l-95 -99h153v-71h-265v63l130 132q52 53 52 87q0 22 -16 36.5t-41 14.5q-44 0 -94 -47l-40 58q61 61 139 61q58 0 95 -34t37 -88q0 -58 -55 -113z" />
    <glyph glyph-name="two.lf" horiz-adv-x="568" 
d="M394 305l-182 -199h305v-106h-468v96l235 250l56 62q21 24 37.5 59t16.5 63q0 50 -35.5 82.5t-88.5 32.5q-86 0 -175 -83l-63 82q110 108 243 108q102 0 167 -62q66 -62 66 -161q0 -101 -114 -224z" />
    <glyph glyph-name="two.num" horiz-adv-x="345" 
d="M246 517l-95 -99h153v-71h-265v63l130 132q52 53 52 87q0 22 -16 36.5t-41 14.5q-44 0 -94 -47l-40 58q61 61 139 61q58 0 95 -34t37 -88q0 -58 -55 -113z" />
    <glyph glyph-name="two.osf" horiz-adv-x="536" 
d="M349 213l-136 -118h274v-95h-435v87l203 174q67 57 90.5 86.5t23.5 63.5q0 36 -28.5 58.5t-73.5 22.5q-43 0 -82.5 -20.5t-93.5 -67.5l-59 82q118 107 237 107q94 0 152 -52q59 -51 59 -127q0 -47 -30.5 -94t-100.5 -107z" />
    <glyph glyph-name="two.tf" horiz-adv-x="602" 
d="M411 305l-182 -199h305v-106h-468v96l235 250l56 62q21 24 37.5 59t16.5 63q0 50 -35.5 82.5t-88.5 32.5q-86 0 -175 -83l-63 82q109 108 243 108q102 0 167 -62q66 -62 66 -161q0 -101 -114 -224z" />
    <glyph glyph-name="two_fraction_nine" horiz-adv-x="883" 
d="M44 347v63l130 132q52 53 52 87q0 22 -16 36.5t-41 14.5q-44 0 -94 -47l-40 58q61 61 139 61q58 0 95 -34t37 -88q0 -58 -55 -113l-95 -99h153v-71h-265zM125 0l578 739h93l-576 -739h-95zM693 405q73 0 113 -52.5t40 -141.5q0 -93 -44 -155t-131 -62q-69 0 -112 34
l29 57q37 -25 79 -25q50 0 78.5 35.5t31.5 94.5q-36 -48 -98 -48q-59 0 -95.5 36t-36.5 91q0 60 41 98t105 38zM691 204q30 0 50.5 19.5t20.5 47.5q0 29 -20 49.5t-50 20.5q-31 0 -51 -20t-20 -50q0 -29 19.5 -48t50.5 -19z" />
    <glyph glyph-name="two_fraction_seven" horiz-adv-x="883" 
d="M49 347v63l130 132q52 53 52 87q0 22 -16 36.5t-41 14.5q-44 0 -94 -47l-40 58q61 61 139 61q58 0 95 -34t37 -88q0 -58 -55 -113l-95 -99h153v-71h-265zM129 0l578 739h93l-576 -739h-95zM569 324v69h266v-53l-154 -339h-82l149 323h-179z" />
    <glyph glyph-name="uni0414.ss01" horiz-adv-x="751" 
d="M635 739v-630h73v-259h-115v150h-447v-150h-115v259h59q32 53 56 148q23 87 47 277l26 205h416zM216 109h304v520h-199l-6 -49q-43 -350 -99 -471z" />
    <glyph glyph-name="uni0416.ss01" horiz-adv-x="902" 
d="M603 378l303 -378h-138l-260 328v-328h-113v329l-260 -329h-139l304 379l-291 360h134l252 -314v314h113v-314l252 314h134z" />
    <glyph glyph-name="uni041B.ss01" horiz-adv-x="725" 
d="M69 -7q-26 0 -44 5l-13 103q15 -3 28 -3q59 0 90 49q14 22 26 50q19 48 36 149q6 31 13 93l11 94q3 24 10 104q5 47 10 102h400v-739h-117v628h-179l-8 -81l-9 -89q-2 -24 -9 -79q-8 -62 -13 -84q-9 -44 -16 -71q-16 -71 -48 -128q-58 -103 -168 -103z" />
    <glyph glyph-name="uni0424.ss01" horiz-adv-x="958" 
d="M919 371q0 -147 -108 -238q-106 -91 -274 -96v-117h-116v117q-170 6 -277 95q-105 90 -105 239t105 238q108 90 277 94v116h116v-116q168 -5 274 -96q108 -91 108 -236zM537 596v-452q116 3 190 65q74 63 74 162q0 98 -74 160t-190 65zM421 144v452q-117 -3 -191 -63
q-73 -60 -73 -162q0 -103 72 -164q73 -61 192 -63z" />
    <glyph glyph-name="uni042A.ss01" horiz-adv-x="750" 
d="M307 478h152q62 0 110 -16.5t76.5 -42t46.5 -59.5t24.5 -64t6.5 -61q0 -99 -66 -167t-187 -68h-277v634h-178v105h292v-261zM307 106h144q73 0 112.5 36.5t39.5 97.5q0 59 -37.5 95.5t-109.5 36.5h-149v-266z" />
    <glyph glyph-name="uni042C.ss01" horiz-adv-x="647" 
d="M204 478h152q62 0 110 -16.5t76.5 -42t46.5 -59.5t24.5 -64t6.5 -61q0 -99 -66 -167t-187 -68h-277v739h114v-261zM204 106h144q73 0 112.5 36.5t39.5 97.5q0 59 -37.5 95.5t-109.5 36.5h-149v-266z" />
    <glyph glyph-name="uni0431.ss01" horiz-adv-x="667" 
d="M360 529q107 0 186 -73q81 -74 81 -197q0 -115 -79 -194q-78 -79 -200 -79q-62 0 -113.5 21.5t-85.5 56.5t-57 82.5t-33.5 97.5t-10.5 103q0 100 25 171q26 74 62 113t98 70q56 29 111 44q20 5 63 17t61 17q72 19 117 39v-109q-47 -21 -114 -39l-112 -31q-47 -12 -93 -36
q-94 -48 -117 -182q30 51 87.5 79.5t123.5 28.5zM349 87q71 0 119 51q49 52 49 123q0 70 -49 119q-48 50 -117 50q-68 0 -120 -47q-51 -47 -51 -120q0 -71 47 -124q46 -52 122 -52z" />
    <glyph glyph-name="uni0432.ss01" horiz-adv-x="579" 
d="M431 300q52 -12 80.5 -49.5t28.5 -89.5q0 -68 -50 -115q-49 -46 -135 -46h-284v539h271q80 0 123 -40q44 -41 44 -93q0 -38 -21 -66t-57 -40zM336 449h-161v-120h164q32 0 49.5 17.5t17.5 43.5t-18 42.5t-52 16.5zM175 91h172q40 0 62.5 21t22.5 56q0 34 -21.5 55.5
t-62.5 21.5h-173v-154z" />
    <glyph glyph-name="uni0433.ss01" horiz-adv-x="439" 
d="M71 539h359v-96h-249v-443h-110v539z" />
    <glyph glyph-name="uni0434.ss01" horiz-adv-x="642" 
d="M545 539v-442h57v-216h-104v119h-370v-119h-104v216h61q51 86 82 304l20 138h358zM280 446l-6 -36q-31 -223 -75 -313h238v349h-157z" />
    <glyph glyph-name="uni0436.ss01" horiz-adv-x="739" 
d="M504 276l237 -276h-124l-198 234v-234h-100v233l-198 -233h-123l238 276l-226 263h119l190 -225v225h100v-226l190 226h120z" />
    <glyph glyph-name="uni0437.ss01" horiz-adv-x="513" 
d="M237 -12q-115 0 -215 56l39 86q91 -47 175 -47q60 0 94 21.5t34 57.5q0 68 -113 68h-115v91h83q63 0 95.5 18.5t32.5 52.5q0 32 -28 48.5t-76 16.5q-75 0 -160 -47l-46 78q39 30 96.5 47t115.5 17q93 0 148 -42q57 -42 57 -101q0 -41 -29 -72t-81 -47v-3q58 -12 93.5 -49
t35.5 -87q0 -71 -64 -117t-172 -46z" />
    <glyph glyph-name="uni0438.ss01" horiz-adv-x="642" 
d="M140 0h-69v539h107v-370l324 370h69v-539h-108v366z" />
    <glyph glyph-name="uni0439.ss01" horiz-adv-x="642" 
d="M328 574q-109 0 -185 97l54 57q61 -74 131 -74q68 0 130 74l55 -57q-81 -97 -185 -97zM140 0h-69v539h107v-370l324 370h69v-539h-108v366z" />
    <glyph glyph-name="uni043A.ss01" horiz-adv-x="552" 
d="M556 0h-137l-191 241l-48 -45v-196h-109v539h109v-213l228 213h143l-245 -227z" />
    <glyph glyph-name="uni043B.ss01" horiz-adv-x="616" 
d="M70 -6q-21 0 -36 4l-25 81q11 -1 30 -1q48 0 76 37q19 26 30 63q15 46 22 86l9 48l7 55l7 54l6 60l7 58h342v-539h-110v442h-137q0 -2 -1 -7t-2 -15t-2 -19l-5 -42l-5 -39l-6 -42l-7 -38q-2 -18 -18 -74q-11 -43 -41 -95q-48 -77 -141 -77z" />
    <glyph glyph-name="uni043F.ss01" horiz-adv-x="604" 
d="M71 539h462v-539h-110v442h-242v-442h-110v539z" />
    <glyph glyph-name="uni0442.ss01" horiz-adv-x="477" 
d="M10 539h458v-95h-174v-444h-110v444h-174v95z" />
    <glyph glyph-name="uni0444.ss01" horiz-adv-x="831" 
d="M792 269q0 -127 -90 -202q-88 -74 -236 -79v-144h-101v144q-150 5 -237 80q-89 77 -89 201q0 127 90 204q89 75 236 80v144h101v-144q146 -5 235 -80q91 -76 91 -204zM466 457v-375q101 1 160.5 51.5t59.5 137.5q0 86 -58.5 135t-161.5 51zM145 270q0 -87 59.5 -137
t160.5 -51v375q-103 -2 -161.5 -51.5t-58.5 -135.5z" />
    <glyph glyph-name="uni0446.ss01" horiz-adv-x="642" 
d="M618 -180h-106v180h-441v539h110v-439h243v439h110v-439h84v-280z" />
    <glyph glyph-name="uni0448.ss01" horiz-adv-x="907" 
d="M836 0h-765v539h110v-439h218v439h110v-439h217v439h110v-539z" />
    <glyph glyph-name="uni0449.ss01" horiz-adv-x="945" 
d="M836 539v-439h85v-280h-107v180h-743v539h110v-439h218v439h110v-439h217v439h110z" />
    <glyph glyph-name="uni044A.ss01" horiz-adv-x="608" 
d="M249 363h118q123 0 174 -61q43 -51 43 -120q0 -78 -54 -130q-53 -52 -158 -52h-231v443h-127v96h235v-176zM248 93h113q58 0 86 24t28 66q0 38 -27.5 62.5t-81.5 24.5h-118v-177z" />
    <glyph glyph-name="uni044C.ss01" horiz-adv-x="544" 
d="M179 363h124q61 0 105.5 -16.5t67.5 -44.5t33.5 -57.5t10.5 -62.5q0 -78 -54 -130q-53 -52 -158 -52h-237v539h108v-176zM179 93h117q115 0 115 90q0 38 -27.5 62.5t-81.5 24.5h-123v-177z" />
    <glyph glyph-name="uni044E.ss01" horiz-adv-x="856" 
d="M532 553q124 0 204 -83q81 -82 81 -200q0 -120 -81 -202q-79 -82 -204 -82q-112 0 -188 66q-77 68 -93 169h-70v-221h-110v539h110v-226h69q15 103 92 171q78 69 190 69zM706 270q0 74 -51 127q-49 54 -123 54q-73 0 -124 -54q-50 -53 -50 -127q0 -75 50 -128
q51 -53 124 -53t123 53q51 53 51 128z" />
    <glyph glyph-name="yen.osf" horiz-adv-x="485" 
d="M383 585h112l-156 -280h104v-75h-146v-36h146v-75h-146v-119h-105v119h-146v75h146v36h-146v75h106l-156 280h113l136 -261z" />
    <glyph glyph-name="zero.dnom" horiz-adv-x="377" 
d="M188 -5q-81 0 -123 59q-41 59 -41 146t41 146q42 60 123 60q82 0 123 -59q42 -59 42 -147t-42 -146q-41 -59 -123 -59zM188 69q83 0 83 131q0 60 -20.5 95.5t-62.5 35.5q-41 0 -61.5 -35.5t-20.5 -95.5t20.5 -95.5t61.5 -35.5z" />
    <glyph glyph-name="zero.lf" horiz-adv-x="682" 
d="M475 21q-59 -33 -134 -33t-134 33q-102 59 -142 210q-15 69 -15 139.5t15 137.5t51.5 123t90.5 88q58 33 134 33q75 0 134 -33q105 -58 141 -210q36 -139 0 -278q-36 -152 -141 -210zM341 96q89 0 132 76q44 77 44 198q0 120 -44 197t-132 77t-132 -77q-43 -76 -43 -197
q-2 -120 42.5 -196.5t132.5 -77.5z" />
    <glyph glyph-name="zero.num" horiz-adv-x="377" 
d="M188 341q-81 0 -123 59q-41 59 -41 146t41 146q42 60 123 60q82 0 123 -59q42 -59 42 -147t-42 -146q-41 -59 -123 -59zM188 415q83 0 83 131q0 60 -20.5 95.5t-62.5 35.5q-41 0 -61.5 -35.5t-20.5 -95.5t20.5 -95.5t61.5 -35.5z" />
    <glyph glyph-name="zero.osf" horiz-adv-x="607" 
d="M304 -12q-84 0 -145 44q-110 84 -110 258q0 127 64 215q65 89 191 89q65 0 115 -25.5t79.5 -69t44.5 -96.5t15 -113q0 -59 -15 -112t-44.5 -96t-79.5 -68.5t-115 -25.5zM304 86q69 0 106 55t37 149q0 95 -37 150.5t-105 55.5q-70 0 -106.5 -55.5t-36.5 -150.5t36 -149.5
t106 -54.5z" />
    <glyph glyph-name="zero.slash" horiz-adv-x="682" 
d="M207 719q58 33 134 33q75 0 134 -33q105 -58 141 -210q36 -139 0 -278q-36 -152 -141 -210q-59 -33 -134 -33t-134 33q-102 59 -142 210q-15 69 -15 139.5t15 137.5t51.5 123t90.5 88zM341 654q-91 0 -136 -80t-45 -204q0 -97 25 -163l272 396q-45 51 -116 51zM341 86
q92 0 137 79q45 80 45 205q0 85 -21 151l-269 -392q43 -43 108 -43z" />
    <glyph glyph-name="zero.tf" horiz-adv-x="602" 
d="M301 -12q-71 0 -126 33t-86.5 88.5t-47.5 121.5t-16 139t16 139t47.5 121.5t86.5 88.5t126 33q72 0 127 -33t86.5 -88.5t47.5 -121.5t16 -139t-16 -139t-47.5 -121.5t-86.5 -88.5t-127 -33zM466 370q0 120 -41 197t-124 77q-82 0 -123 -77t-41 -197q0 -122 40 -198
t124 -76t124 76q41 77 41 198z" />
    </font>
</defs>
</svg>
